<svg width="159" height="70" fill="none" xmlns="http://www.w3.org/2000/svg"><path d="M43.653 64.103a43.198 43.198 0 01-11.793 3.713c-.423.069-.84.129-1.274.186-.17.024-.337.048-.5.064l-.202.025-.787.085-.264.024a29.327 29.327 0 01-1.457.106c-.044 0-.088.004-.137.004-.187.012-.374.02-.564.029h-.053c-.552.02-1.05.032-1.53.032-.15 0-.291-.004-.442-.004a36.693 36.693 0 01-1.676-.05c-.21-.008-.417-.02-.629-.032-.17-.013-.341-.021-.507-.037l-.19-.013-.211-.012a.823.823 0 00-.146-.013c-.016 0-.033-.004-.049-.004-.202-.017-.418-.04-.633-.062h-.008c-.053-.004-.105-.012-.15-.016l-1.091-.134a3.91 3.91 0 00-.224-.032l-.21-.032-.07-.008a43.4 43.4 0 01-2.223-.377 3.742 3.742 0 013.713-3.386h.008c.84 0 1.636.272 2.293.786l1.047.817.251-1.303c.622-3.233 3.47-5.582 6.77-5.59h.012a6.873 6.873 0 015.832 3.208l.523.826.718-.669a5.109 5.109 0 013.487-1.368h.008c.633 0 1.254.113 1.842.34l.516 2.897z" fill="#326827"/><path d="M42.817 59.425a6.865 6.865 0 00-1.526-.175h-.012a6.734 6.734 0 00-3.876 1.228 8.484 8.484 0 00-6.68-3.224h-.016a8.542 8.542 0 00-8.067 5.799 5.33 5.33 0 00-2.29-.51h-.007a5.363 5.363 0 00-5.3 4.654l-.382-.094a49.574 49.574 0 01-1.619-.433 7.066 7.066 0 01-.393-.121 41.142 41.142 0 01-3.458-1.187l-.353-.138a58.722 58.722 0 01-1.367-.58l-.361-.17a13.957 13.957 0 01-.654-.3l2.569-14.64h.003l.025-.142.004-.04a10.187 10.187 0 012.415-.807c5.024-.984 9.95 1.944 11.464 6.82l.426 1.377.958-1.08a7.387 7.387 0 014.155-2.379 7.478 7.478 0 013.684.199l.69.218.296-.66a11.897 11.897 0 017.358-6.5l2.314 12.885z" fill="#3A7729"/><path d="M39.116 37.538c0 .458-.053.908-.162 1.349-.134-.04-.267-.08-.398-.113-.102-.029-.199-.053-.296-.078a5.5 5.5 0 00-.35-.08 4.388 4.388 0 00-4.89-4.694c-.056.004-.11.015-.166.024-.114.02-.227.04-.337.064a7.287 7.287 0 00-.487.146c-.061.025-.126.05-.187.078-.093.037-.186.08-.28.126l-.178.093c-.089.053-.178.11-.267.167l-.159.105a4.93 4.93 0 00-.283.23c-.037.03-.073.057-.106.09a5.6 5.6 0 00-.34.344h-.017a6.135 6.135 0 00-.422-.07 5.543 5.543 0 00-.483-.048 5.661 5.661 0 00-.864-.008c-.045 0-.09 0-.13.005.012-.03.024-.054.037-.081.049-.102.097-.203.15-.304.024-.045.053-.09.078-.134.048-.085.101-.17.154-.255.028-.045.056-.09.089-.134.056-.085.118-.166.183-.247.028-.037.056-.078.085-.114.094-.113.19-.226.296-.336a5.571 5.571 0 011.32-1.032l.242-.126.025-.012c.073-.037.154-.073.235-.11a.181.181 0 01.029-.013c.028-.012.056-.02.085-.032a4.61 4.61 0 01.856-.28c.054-.012.106-.028.162-.036l.045-.008c.065-.017.127-.025.191-.033.005-.004.008-.004.013-.004l.049-.008a5.834 5.834 0 011.128-.057c.089.005.175.008.26.02a6.247 6.247 0 01.723.118c.308.07.604.167.888.283.065.03.134.057.199.09.065.028.13.06.194.093a2.4 2.4 0 01.187.102 5.437 5.437 0 011.245.94c.081.08.158.166.235.25l.024.024c.09.102.175.207.256.317.005.004.008.012.016.02.078.102.146.203.21.309a.117.117 0 01.03.04c.227.352.414.733.555 1.134.106.296.191.6.243.916a5.152 5.152 0 01.077.68c.004.096.008.193.008.29z" fill="#A2DAF1"/><path d="M36.3 38.267c0 .045-.009.085-.009.13a11.343 11.343 0 00-1.282-.005c-.243.012-.487.037-.734.06a11.094 11.094 0 00-3.267.912c-.024-.061-.053-.118-.073-.178-.008-.016-.016-.037-.024-.056a2.842 2.842 0 01-.138-.863c0-.538.158-1.065.458-1.519l.005-.004a2.74 2.74 0 012.301-1.236 2.769 2.769 0 012.763 2.759z" fill="#1194BD"/><path d="M29.57 40.147a11.196 11.196 0 00-4.102 4.678 6.807 6.807 0 00-1.725-.6c.04-.109.077-.222.11-.335l.012-.033c.049-.174.081-.352.11-.53.004-.04.012-.085.016-.13.02-.177.037-.36.037-.542a5.11 5.11 0 00-.029-.498l-.012-.085a4.546 4.546 0 00-.086-.47c-.008-.029-.016-.057-.02-.086a4.374 4.374 0 00-.146-.465c-.005-.008-.009-.016-.013-.02a3.908 3.908 0 00-.2-.442c-.004-.013-.007-.024-.015-.037a1.08 1.08 0 00.04-.11c.024-.06.049-.117.073-.174.045-.101.09-.198.138-.29l.085-.167a4.62 4.62 0 01.183-.3 2.65 2.65 0 01.081-.134 6.12 6.12 0 01.305-.414c.093-.117.194-.23.291-.34a5.659 5.659 0 012.647-1.567h.008a5.426 5.426 0 011.834-.17c.056 0 .118.012.174.016-.008.016-.008.032-.016.049l-.048.182c-.013.045-.03.093-.037.137a3.107 3.107 0 00-.04.2c-.009.04-.017.084-.025.129-.013.072-.02.15-.029.222l-.012.11a3.965 3.965 0 00.012.777c.004.04.007.081.015.121a3.955 3.955 0 00.078.442 4.305 4.305 0 00.142.478c.04.113.09.226.138.34.015.017.019.037.027.058z" fill="#09738C"/><path d="M22.405 42.654c0 .13-.009.259-.025.384-.008.05-.02.094-.028.143-.017.077-.03.158-.05.23-.015.062-.04.122-.06.178a2.65 2.65 0 01-.065.186c-.024.057-.053.11-.081.167-.03.053-.053.11-.086.161a6.803 6.803 0 00-2.073.45 11.63 11.63 0 00-2.07-2.365c-.321-.28-.662-.543-1.015-.786a2.57 2.57 0 01.19-.34c.005-.008.005-.013.009-.017.085-.125.178-.242.276-.352.033-.032.07-.064.102-.097a2.5 2.5 0 01.357-.304c.078-.053.154-.105.235-.15l.15-.085c.086-.04.171-.077.256-.11.054-.024.106-.045.159-.06a2.76 2.76 0 01.296-.078c.049-.008.098-.024.146-.032a2.79 2.79 0 01.827-.013c.849.105 1.611.58 2.082 1.312.305.468.468 1.014.468 1.578z" fill="#1194BD"/><path d="M23.151 37.947c-.005 0-.005.005-.008.005a9.338 9.338 0 00-.418.57c-.045.07-.077.138-.121.207a6.49 6.49 0 00-.235.4c-.005.005-.005.009-.009.013-.053-.045-.11-.08-.162-.121l-.097-.073a4.253 4.253 0 00-.414-.259c-.032-.016-.065-.032-.094-.048a5.473 5.473 0 00-.369-.17c-.04-.016-.08-.037-.121-.049a3.813 3.813 0 00-.467-.153c-.024-.005-.048-.008-.07-.016a5.02 5.02 0 00-.433-.081c-.045-.005-.09-.013-.134-.016a4.182 4.182 0 00-1.088.008l-.102.012a4.495 4.495 0 00-.53.113c-.038.008-.07.021-.103.03a4.434 4.434 0 00-.52.19h-.004a5.077 5.077 0 00-.58.308c-.15.097-.291.199-.43.308-.029.02-.053.045-.077.065a4.992 4.992 0 00-.398.373l-.009.008a3.781 3.781 0 00-.344.425 1.051 1.051 0 00-.065.085c-.102.15-.195.3-.28.462-.005.013-.013.02-.02.032-.804-.4-1.644-.704-2.508-.903a4.16 4.16 0 00-.277-.064c.499-2.62 2.845-4.577 5.544-4.577.134 0 .267.005.401.016.045 0 .09.008.13.013.09.008.178.016.267.029.05.008.102.02.154.028.078.013.154.025.235.04.054.013.106.03.163.041.073.02.145.037.215.057.056.016.11.037.166.053.07.02.138.045.207.07l.162.064c.065.029.135.053.2.085l.158.073.194.097.15.085c.062.037.127.073.187.11.049.032.097.061.142.093.065.04.122.086.183.13l.134.097c.062.045.122.097.179.145.04.033.08.065.121.102.061.057.122.113.183.174.032.033.07.061.097.094.081.08.159.166.235.255.008.008.021.02.03.032.085.102.17.203.247.309.02.028.037.056.053.08.061.081.118.162.17.248.024.036.045.077.07.117.037.054.074.114.11.18z" fill="#A2DAF1"/><path d="M40.76 41.467c-.094.085-.184.174-.273.259l-.08.072c-.102.097-.203.194-.31.292l-.34.3.125.704.333 1.843c-.202.057-.401.122-.6.19a10.065 10.065 0 00-.706.264c-.382.154-.755.324-1.116.514-.145.073-.288.15-.43.231-.008.005-.02.008-.029.016a7.02 7.02 0 00-.267.158 3.877 3.877 0 00-.292.178c-.081.049-.158.102-.235.15a12.15 12.15 0 00-1.25.94c-.113.093-.227.19-.337.291a2.115 2.115 0 00-.134.122 6.274 6.274 0 00-.345.332 9.478 9.478 0 00-.406.417 15.566 15.566 0 00-.479.55c-.056.061-.11.126-.158.194-.09.105-.17.21-.243.316a12.69 12.69 0 00-1.226 1.952 9.116 9.116 0 00-3.802-.06 9.02 9.02 0 00-4.123 1.98c-2.151-4.93-7.467-7.777-12.876-6.716a11.91 11.91 0 00-1.77.503l.88-5.015-.332-.3a22.828 22.828 0 01-1.075-1.02 10.348 10.348 0 012.803-.025l.687.094.215.048A9.83 9.83 0 0116.8 43.41a9.756 9.756 0 012.115 2.58l.39.684.697-.373a5.054 5.054 0 012.399-.59h.057c.06 0 .121.004.182.004l.065.008.581.069a5.09 5.09 0 012.102.875l.87.62.365-1.004a9.562 9.562 0 014.452-5.144h.004a9.405 9.405 0 014.03-1.126 8.957 8.957 0 011.75.065l.008.004a9.782 9.782 0 012.305.6l.365.145.313.126c.308.15.612.324.908.515z" fill="#4CA634"/><path d="M7.231 27.802l-1.627 9.38c-.045-.069-.094-.134-.138-.198v-.005l-.064-.097c-.078-.121-.159-.239-.252-.392-.008-.017-.02-.033-.029-.049-.048-.073-.097-.146-.142-.227-.008-.012-.016-.02-.024-.036v-.005c-.005-.004-.005-.008-.008-.012a23.98 23.98 0 01-.714-1.252l-.016-.029a22.814 22.814 0 01-1.81-4.483 12.443 12.443 0 014.824-2.595z" fill="#A9AAAA"/><path d="M10.952 39.385a11.577 11.577 0 00-3.396.32c-.024-.033-.053-.061-.077-.094a4.472 4.472 0 01-.235-.28c-.094-.109-.183-.218-.272-.327l-.012-.065L8.222 31.6l.678-3.896 1.766 10.024.286 1.657z" fill="#B9D79E"/><path d="M40.322 26.826l-1.092 6.29a.543.543 0 00-.056-.07 6.516 6.516 0 00-.544-.612 2.73 2.73 0 00-.187-.182c-.04-.04-.077-.073-.117-.11a6.486 6.486 0 00-.548-.446 4.56 4.56 0 00-.337-.234c-.008-.005-.016-.013-.029-.02-.105-.066-.21-.13-.32-.195a5.816 5.816 0 00-.361-.194 9.119 9.119 0 00-.374-.174 11.801 11.801 0 00-.365-.15.088.088 0 01-.033-.008 6.804 6.804 0 00-.77-.231c-.013-.004-.021-.008-.033-.008-.105-.03-.21-.049-.317-.07a4.3 4.3 0 00-.5-.077 3.315 3.315 0 00-.357-.032 7.837 7.837 0 00-.508-.02c-.073-.001-.15.007-.223.007l-.178-4.71h3.71c.587 0 1.176.134 1.704.384l.291.138c.54.258 1.048.501 1.544.724zm7.576 2.183a22.108 22.108 0 01-1.835 5.248l-.024.049a7.304 7.304 0 01-.24.474l-.02.036a3.674 3.674 0 01-.073.138l-.057.101c-.004.013-.012.021-.016.033l-1.156-6.67c.097.024.194.053.292.077a15.43 15.43 0 00.909.207l.45.085c.19.032.385.065.584.089.231.037.47.064.714.089.155.016.313.032.471.044z" fill="#A9AAAA"/><path d="M42.411 25.984c-.089-.04-.182-.077-.272-.118l.127-.72.145.838z" fill="#E2E2E2"/><path d="M48.336 24.89c.005.842-.057 1.68-.162 2.52-.19-.017-.377-.033-.564-.054a7.064 7.064 0 01-.3-.032c-.114-.013-.22-.029-.329-.04-.032-.005-.065-.013-.097-.017a13.86 13.86 0 01-.43-.064c-.135-.025-.273-.049-.402-.078a6.32 6.32 0 01-.418-.089 1.648 1.648 0 01-.142-.032 8.158 8.158 0 01-.402-.097 16.186 16.186 0 01-.921-.271l-.93-5.354a.977.977 0 00-.957-.842.982.982 0 00-.99.814l-.682 3.92c-.366-.166-.743-.348-1.136-.534l-.289-.138a5.67 5.67 0 00-2.402-.538h-3.77l-.134-3.584c.803-.71 2.224-1.244 4.24-1.588h.009c3.348-.572 7.48-.462 9.963-.377.077.004.15.004.223.008a.63.63 0 01.097.005 23.094 23.094 0 01.925 6.462z" fill="#E2E2E2"/><path d="M23.528 18.41a11.253 11.253 0 00-3.409-.527h-3.137a32.05 32.05 0 00-3.834.231c-1.567.186-3.255.218-5.012.097l-5.405-.373a20.984 20.984 0 01.966-2.523 5.024 5.024 0 012.56 1.705l.658.822.63-.839a5.09 5.09 0 013.615-2.012 4.34 4.34 0 01.739 0 5.026 5.026 0 013.652 1.891l.463.583.62-.409a4.948 4.948 0 013.052-.802 5.073 5.073 0 013.842 2.156zm23.339-1.624c-.021 0-.045-.005-.065-.005-.061 0-.126-.004-.187-.004a4.408 4.408 0 00-.247-.008 5.812 5.812 0 00-.28-.008c-.065-.005-.126-.005-.191-.005a7.637 7.637 0 00-.325-.008c-.057-.003-.118-.003-.178-.003a8.248 8.248 0 00-.337-.008c-.065 0-.134-.005-.2-.005-.117 0-.23-.004-.349-.004h-.186c-.121-.005-.248-.005-.373-.005H43.1c-.097.005-.19.005-.288.005-.097 0-.194.004-.291.004-.106.005-.211.005-.318.008-.097 0-.194.005-.291.008-.11 0-.215.005-.329.008l-.288.013-.341.013c-.09.004-.183.012-.277.016-.121.004-.24.012-.36.02a5.32 5.32 0 00-.268.016c-.122.009-.248.017-.37.03-.085.004-.17.012-.255.015l-.414.037c-.07.008-.138.013-.207.02-.207.022-.414.046-.622.07a5.363 5.363 0 014.408-3.017h.077c.207-.013.415-.017.609-.004.049 0 .094 0 .138.004h.012c.126.012.247.024.369.045l.045.008c.012 0 .029.004.04.004.118.02.232.04.345.07h.005c.085.02.17.048.255.072.078.02.146.045.219.065.061.02.122.045.186.069l.248.102c.065.028.13.056.19.085.022.012.041.02.062.032.126.061.243.126.358.194.024.013.045.03.064.04.094.057.187.114.276.179.032.064.061.13.094.194.252.54.48 1.087.686 1.638z" fill="#83AA36"/><path d="M43.012 10.136c-.178-.218-.366-.43-.552-.644a4.58 4.58 0 00-.199-.218l-.032-.033c-.32-.356-.658-.704-1.002-1.032a23.634 23.634 0 00-4.667-3.516 23.362 23.362 0 00-11.355-3.066c-.11-.004-.191-.004-.272-.004-.086 0-.17 0-.26.004l-.048.005a23.2 23.2 0 00-4.553.51 23.445 23.445 0 00-9.557 4.488l-.358.288c-.291.239-.58.486-.876.753l-.414.389c-.406.38-.8.785-1.21 1.23a23.289 23.289 0 00-3.23 4.557c.913.303 1.75.798 2.451 1.458a6.708 6.708 0 014.144-1.924 5.91 5.91 0 01.978-.004 6.646 6.646 0 014.354 1.973 6.646 6.646 0 013.43-.713c2.795.161 5.162 2.09 5.977 4.681l.52.231a9.313 9.313 0 012.106-.32l3.34.008c.966-.891 2.483-1.53 4.61-1.943a6.986 6.986 0 016.131-4.921 8.8 8.8 0 01.576-.016c.086 0 .17.004.256.008.081.003.167.003.248.012l.15.013h.02c.017.005.033.005.054.008.045.005.09.008.138.016.045.005.118.016.186.029.07.008.134.02.203.037l.085.012c.057.013.134.03.21.045l.041.013.146.037a24.113 24.113 0 00-1.769-2.45z" fill="#84CAEC"/><path d="M31.636 30.52c-.162.04-.308.088-.446.133a7.13 7.13 0 00-.609.235 5.11 5.11 0 00-.357.166c-.106.053-.216.105-.317.166a7.312 7.312 0 00-1.7 1.325 7.229 7.229 0 00-1.746 3.09 7.161 7.161 0 00-2.119 1.138 7.285 7.285 0 00-5.186-3.305c.32-1.71 1.193-5.646 2.946-8.821 1.246-2.252 3.673-3.71 6.306-3.803l2.862.013.366 9.662z" fill="#A2DAF1"/><path d="M42.736 27.855v-.005l-.471-2.705-.126.72-1.684 9.676c.024.077.045.158.065.239.045.158.077.324.105.486.037.198.065.4.081.604a7.048 7.048 0 01.033.668c0 .655-.085 1.295-.259 1.919.499.239.978.51 1.433.822l.012-.013c.008-.008.025-.032.049-.053l.11-.121c.11-.121.223-.247.328-.373.07-.08.13-.15.191-.223.008-.012.017-.02.025-.032.008-.008.016-.02.028-.029a37.109 37.109 0 00.865-1.08l.085-.11.09-.126c.08-.105.153-.207.226-.312.073-.097.143-.194.207-.296l.03-.037c.036-.045.069-.089.096-.133.037-.054.07-.106.106-.154l-1.625-9.332z" fill="#0A170B"/><path d="M49.866 22.765a23.928 23.928 0 00-.76-4.276l-.315-1.094v-.004l-.178-.543s-.597-1.6-.962-2.386c-.065-.134-.126-.271-.195-.405l-.085-.17a25.152 25.152 0 00-3.105-4.78c-.186-.226-.385-.453-.58-.676a7.76 7.76 0 00-.26-.283 18.393 18.393 0 00-1.075-1.106 25.045 25.045 0 00-4.984-3.754A24.957 24.957 0 0025.25.008a5.957 5.957 0 00-.67.004 25.235 25.235 0 00-4.85.542A25.205 25.205 0 009.504 5.362l-.366.292c-.317.259-.637.535-.953.822-.146.134-.285.267-.43.405-.44.41-.865.842-1.3 1.325a24.72 24.72 0 00-3.94 5.808c-.036.069-.069.142-.105.214-.008.013-.012.025-.02.037v.005c-.216.457-.415.91-.585 1.34a24.626 24.626 0 00-.945 2.803c-.24.9-.422 1.746-.548 2.596l-.016.073a25.558 25.558 0 00-.296 3.9c0 .3.008.596.024.887.062 1.373.26 2.766.6 4.143a24.003 24.003 0 002.14 5.593l.028.061c.028.057.057.11.086.162l.037.065c.02.032.037.065.069.13.097.173.194.343.293.505a.582.582 0 01.04.073c.02.037.04.069.061.101.049.081.098.159.138.231l.049.081c.073.13.154.255.218.349a7.9 7.9 0 00.264.413l.057.09.097.137c.146.222.296.445.455.66l.024.037c.037.057.073.105.102.142.097.134.199.267.304.405.025.04.053.078.081.114l.098.12c.08.11.162.215.243.32l.032.038.057.064.917 1.086.999 1.08c.329.337.665.665 1.007.985l-.922 5.237-.11.64-2.842 16.173.966.462c.264.134.548.267.836.39l.35.161c.441.199.908.397 1.443.612l.358.142c.958.381 1.903.713 2.8.992.268.09.54.174.775.24.146.048.292.093.434.129a42.01 42.01 0 001.656.44l.439.11c.11.03.215.049.324.078v.004l.608.134a7.8 7.8 0 00.317.065l.329.072c.146.03.288.054.43.081l.195.037c.625.118 1.206.215 1.777.292l.134.021.5.065a38.35 38.35 0 001.898.206l.512.04c.166.013.34.017.506.03l.662.036c.31.017.617.025.926.033.247.008.499.012.75.016.147 0 .293.008.44.008h.08a41.587 41.587 0 002.232-.062c.046-.003.09-.007.135-.007.073-.005.137-.008.194-.013.11-.004.223-.012.358-.02l.259-.025c.243-.016.49-.037.735-.056.016-.005.028-.005.04-.005.086-.008.175-.016.26-.029.256-.024.512-.044.763-.077l.268-.032c.154-.016.316-.037.471-.057a49 49 0 001.32-.198 41.58 41.58 0 004.2-.892 44.628 44.628 0 008.16-3.02l.983-.475.005-.004-3.417-19.035-.301-1.664-.24-1.34c.009-.009.017-.014.021-.022l.057-.048.49-.478.005.003.507-.522.154-.161.353-.373.07-.073c.125-.146.25-.283.377-.425.032-.04.069-.077.101-.118.065-.077.126-.145.183-.215.013-.016.029-.032.04-.048a.206.206 0 00.03-.037c.161-.19.324-.385.474-.575a139.707 139.707 0 01.37-.474c.056-.073.109-.138.161-.21l.097-.13c.017-.02.028-.045.049-.065a33.22 33.22 0 00.556-.785c.062-.09.118-.178.179-.267.077-.113.154-.223.227-.336.016-.025.028-.049.045-.073.008-.013.02-.029.028-.045.153-.239.304-.486.45-.725.016-.032.036-.061.053-.094.102-.166.199-.336.3-.522a15.023 15.023 0 00.199-.365l.03-.052.101-.186c0-.005 0-.009.005-.009.073-.137.142-.271.199-.389.032-.06.065-.121.093-.186l.008-.024c1.624-3.284 2.443-6.675 2.435-10.069a27.168 27.168 0 00-.097-2.126zm-4.728-8.343c.065.028.13.056.19.085.021.013.041.02.062.032.126.061.243.126.357.194.025.013.045.03.065.04.094.058.187.114.276.179.032.065.061.13.093.194.252.543.479 1.09.686 1.64-.021 0-.045-.005-.065-.005-.061 0-.126-.004-.187-.004a4.408 4.408 0 00-.247-.008 5.812 5.812 0 00-.28-.008c-.065-.005-.126-.005-.191-.005a7.637 7.637 0 00-.325-.008c-.057-.003-.118-.003-.178-.003a8.248 8.248 0 00-.337-.008c-.065 0-.134-.005-.2-.005-.117 0-.23-.004-.349-.004h-.186c-.121-.005-.248-.005-.373-.005H43.1c-.097.005-.19.005-.288.005-.097 0-.194.004-.291.004-.106.005-.211.005-.318.008-.097 0-.194.005-.291.008-.11 0-.215.005-.329.008l-.288.013-.341.013c-.09.004-.183.012-.277.016-.121.004-.24.012-.36.02a5.32 5.32 0 00-.268.016c-.122.009-.248.017-.37.03-.085.004-.17.012-.255.015l-.414.037c-.07.008-.138.013-.207.02-.207.022-.414.046-.622.07a5.363 5.363 0 014.408-3.017h.077c.207-.013.414-.017.609-.005.049 0 .094 0 .138.005h.012c.126.012.247.024.369.045l.045.008.04.003c.118.02.232.04.345.07h.004c.085.02.17.048.255.072.078.02.146.045.22.065.06.02.12.045.185.069l.25.1zM7.658 9.29c.41-.446.803-.85 1.21-1.231l.413-.39c.297-.266.585-.513.876-.752l.358-.288c2.796-2.2 6.1-3.75 9.557-4.488a23.2 23.2 0 014.553-.51l.049-.005c.089-.004.173-.004.259-.004.08 0 .162 0 .272.004A23.362 23.362 0 0136.56 4.693a23.634 23.634 0 014.666 3.516c.345.328.682.676 1.003 1.032l.032.033c.07.072.134.14.199.218.186.215.374.426.552.644.641.782 1.233 1.6 1.768 2.446l-.145-.037-.041-.012a19.682 19.682 0 01-.21-.045l-.086-.013a1.812 1.812 0 00-.203-.037 2.813 2.813 0 00-.186-.028 1.625 1.625 0 00-.138-.017c-.02-.003-.037-.003-.053-.008h-.02l-.151-.012c-.081-.008-.167-.008-.248-.013a4.848 4.848 0 00-.255-.008c-.191 0-.386.005-.577.016a6.986 6.986 0 00-6.132 4.92c-2.126.414-3.643 1.054-4.61 1.945l-3.34-.008a9.313 9.313 0 00-2.105.32l-.52-.231c-.815-2.593-3.182-4.52-5.977-4.682a6.652 6.652 0 00-3.43.713 6.645 6.645 0 00-4.354-1.972 6.019 6.019 0 00-.978.004 6.708 6.708 0 00-4.144 1.924 6.622 6.622 0 00-2.45-1.458 23.376 23.376 0 013.23-4.552zm32.225 33.805l.333 1.843c-.202.057-.401.121-.6.19a10.065 10.065 0 00-.706.264c-.382.153-.755.324-1.116.514a9 9 0 00-.43.23c-.008.004-.02.009-.028.017a7.86 7.86 0 00-.268.158 3.877 3.877 0 00-.292.178c-.081.048-.159.102-.235.15a12.15 12.15 0 00-1.25.939c-.113.093-.227.19-.337.291a2.115 2.115 0 00-.134.122 6.276 6.276 0 00-.345.332 9.439 9.439 0 00-.406.416c-.08.09-.162.179-.24.268a3.864 3.864 0 00-.239.283c-.057.061-.11.126-.158.194-.09.105-.17.21-.243.316a12.697 12.697 0 00-1.226 1.952 9.116 9.116 0 00-3.802-.061 9.02 9.02 0 00-4.123 1.98c-2.151-4.928-7.467-7.776-12.877-6.715-.605.121-1.197.292-1.769.502l.88-5.014-.332-.3a22.824 22.824 0 01-1.076-1.02 10.348 10.348 0 012.804-.025l.686.094.216.048a9.822 9.822 0 014.232 2.168 9.756 9.756 0 012.114 2.58l.39.684.698-.373a5.055 5.055 0 012.399-.591h.056c.062 0 .122.005.183.005l.065.007.58.07c.755.13 1.474.425 2.103.875l.868.62.366-1.005a9.562 9.562 0 014.452-5.144h.004a9.405 9.405 0 014.03-1.126 8.957 8.957 0 011.75.065l.008.004a9.782 9.782 0 012.305.6l.365.145.313.126c.312.15.617.325.913.515-.094.085-.183.174-.272.259l-.081.072c-.102.097-.203.194-.31.291l-.34.3.122.707zM14.2 28.006c.017.004.03.012.045.016l4.172 1.527a39.995 39.995 0 00-.905 3.896c-2.22.215-4.188 1.458-5.377 3.26l-1.632-9.36h.126c1.221.005 2.422.252 3.571.66zM29.174 38.71c.004.04.008.08.016.121a3.969 3.969 0 00.077.441 4.318 4.318 0 00.143.478c.04.114.089.227.137.341.013.016.017.037.025.057a11.196 11.196 0 00-4.103 4.678 6.81 6.81 0 00-1.726-.6c.041-.11.078-.222.11-.336l.013-.032c.049-.174.081-.352.11-.53.004-.04.012-.086.016-.13.02-.178.037-.36.037-.542 0-.167-.013-.333-.029-.498l-.012-.086a4.544 4.544 0 00-.086-.47c-.008-.028-.016-.056-.02-.085a4.397 4.397 0 00-.147-.465.106.106 0 00-.011-.021 3.926 3.926 0 00-.2-.441.133.133 0 00-.015-.037c.016-.037.028-.073.04-.11.024-.06.049-.117.073-.174a4.93 4.93 0 01.138-.291 4.365 4.365 0 01.268-.466c.024-.045.053-.09.081-.135.097-.142.194-.279.304-.413.094-.117.195-.23.292-.34a5.658 5.658 0 012.646-1.568h.009a5.428 5.428 0 011.835-.17c.056 0 .117.013.174.017-.008.016-.008.032-.016.048l-.049.183c-.012.045-.028.093-.037.137a3.107 3.107 0 00-.04.199l-.024.13c-.013.072-.021.15-.03.222l-.012.11a4.199 4.199 0 00.013.778zm-2.711-3.074a7.16 7.16 0 00-2.119 1.137 7.285 7.285 0 00-5.186-3.305c.32-1.709 1.193-5.646 2.946-8.82 1.246-2.252 3.673-3.71 6.306-3.803l2.86.012.366 9.664c-.162.04-.308.089-.446.134a7.06 7.06 0 00-.966.401c-.106.053-.215.105-.317.166a7.306 7.306 0 00-1.7 1.325 7.23 7.23 0 00-1.744 3.089zm-7.3-.522c.077.012.153.024.234.04.053.013.106.029.162.04.073.021.146.037.215.057.057.016.11.037.167.053.07.02.138.045.207.07l.162.064c.065.029.134.053.2.085l.158.073.194.097c.049.029.102.057.15.086.062.036.127.072.187.11.049.032.097.06.142.093.065.04.122.085.183.13l.134.096c.061.045.122.097.178.146.041.032.082.064.122.101.061.057.122.114.183.175.032.032.07.06.097.093.081.08.159.166.235.255a5.747 5.747 0 01.276.34l.053.082c.06.08.118.162.17.247.024.037.045.077.07.117l.109.187c-.005 0-.005.004-.008.004a9.415 9.415 0 00-.418.57c-.045.07-.077.138-.121.207-.081.13-.162.264-.235.401-.005.005-.005.008-.009.013-.053-.045-.11-.081-.162-.122l-.097-.072a4.246 4.246 0 00-.877-.478c-.04-.016-.08-.036-.121-.048a3.865 3.865 0 00-.467-.154 4.982 4.982 0 00-.503-.097c-.045-.004-.09-.012-.134-.016a4.202 4.202 0 00-1.19.02 4.495 4.495 0 00-.53.114c-.038.008-.07.02-.103.029a4.621 4.621 0 00-.52.19h-.003a5.055 5.055 0 00-.58.308c-.15.097-.291.199-.43.309-.028.02-.053.044-.078.064a5.023 5.023 0 00-.398.373l-.008.008c-.126.134-.24.275-.344.425a1.068 1.068 0 00-.065.086 4.9 4.9 0 00-.28.462c-.005.012-.013.02-.021.032-.803-.4-1.643-.705-2.508-.903a4.217 4.217 0 00-.275-.065c.499-2.62 2.844-4.576 5.544-4.576.134 0 .267.004.401.016.045 0 .09.008.13.012.089.008.178.017.267.03.049 0 .101.013.154.02zm3.242 7.54c0 .13-.009.259-.025.384-.008.05-.02.094-.028.143-.017.077-.03.158-.05.23-.015.062-.04.122-.06.178a2.65 2.65 0 01-.065.186c-.024.057-.053.11-.081.167-.03.053-.053.11-.086.161a6.803 6.803 0 00-2.073.45 11.63 11.63 0 00-2.07-2.365c-.321-.28-.662-.543-1.015-.786a2.57 2.57 0 01.19-.34c.005-.008.005-.013.009-.017.085-.125.178-.241.275-.351.033-.032.07-.065.102-.097a2.516 2.516 0 01.358-.304 4.481 4.481 0 01.385-.235c.085-.04.17-.078.256-.11.053-.024.105-.045.158-.061.097-.032.2-.057.296-.077.049-.008.098-.025.146-.033.15-.02.304-.036.458-.036a2.895 2.895 0 012.45 1.336 2.87 2.87 0 01.47 1.577zm8.367-4.385c0-.539.159-1.065.458-1.519l.004-.004a2.74 2.74 0 012.301-1.235 2.766 2.766 0 012.764 2.758c0 .045-.008.085-.008.13a11.296 11.296 0 00-1.283-.005c-.243.012-.487.036-.734.06a11.094 11.094 0 00-3.267.912c-.024-.061-.053-.118-.073-.178-.008-.016-.016-.037-.024-.057a2.826 2.826 0 01-.094-.376l-.012-.086a2.863 2.863 0 01-.032-.4zm8.457-5.152a.528.528 0 00-.056-.07 6.52 6.52 0 00-.544-.611 2.754 2.754 0 00-.186-.183c-.041-.04-.078-.072-.118-.11a6.449 6.449 0 00-.548-.445 9.627 9.627 0 00-.337-.234l-.028-.021a13.54 13.54 0 00-.32-.194 5.818 5.818 0 00-.361-.194c-.122-.061-.248-.118-.374-.175a11.559 11.559 0 00-.365-.15.081.081 0 01-.033-.008 6.949 6.949 0 00-.77-.23c-.013-.005-.021-.009-.033-.009-.105-.029-.21-.048-.317-.069a4.396 4.396 0 00-.5-.077 3.318 3.318 0 00-.357-.033 1.385 1.385 0 00-.183-.012c-.11-.004-.215-.008-.325-.008-.073 0-.15.008-.223.008l-.178-4.71h3.708c.588 0 1.177.133 1.705.384l.292.137c.54.256 1.047.498 1.543.721l-1.092 6.293zm-5.754-1.211a6.78 6.78 0 01.548.028 6.247 6.247 0 01.723.118c.31.07.605.166.889.283.065.029.134.057.199.09.065.028.13.06.194.093.065.032.127.064.187.101a5.437 5.437 0 011.245.94c.081.081.162.166.235.25l.024.025c.09.102.175.207.256.316.005.005.008.013.016.021.078.102.146.202.211.308.013.013.02.025.029.04.227.353.414.734.555 1.135.106.295.191.6.243.915a5.16 5.16 0 01.078.68 5.605 5.605 0 01-.154 1.64c-.134-.04-.267-.08-.398-.113a9.352 9.352 0 00-.296-.077 5.432 5.432 0 00-.35-.08 4.388 4.388 0 00-4.89-4.694c-.056.003-.11.015-.166.023a6.93 6.93 0 00-.337.065 7.34 7.34 0 00-.487.146c-.061.025-.126.049-.186.078-.094.036-.187.08-.28.125l-.179.094c-.089.053-.178.11-.267.166-.053.037-.105.07-.159.105-.097.073-.19.15-.283.231-.036.029-.073.057-.106.09a5.505 5.505 0 00-.34.343h-.017a6.196 6.196 0 00-.422-.069 5.622 5.622 0 00-.483-.048 5.696 5.696 0 00-.864-.008c-.045 0-.09 0-.13.004l.037-.08c.049-.102.097-.203.15-.305.025-.044.053-.088.078-.133.048-.086.102-.17.154-.256.029-.045.056-.089.089-.134.057-.085.118-.166.183-.247.028-.037.056-.077.085-.113a6.53 6.53 0 01.296-.336 5.577 5.577 0 011.32-1.032c.077-.04.153-.081.243-.126l.024-.013c.073-.037.154-.073.235-.11a.21.21 0 01.028-.012c.029-.013.056-.02.085-.032a4.654 4.654 0 01.856-.28c.054-.013.106-.029.163-.037l.045-.008c.065-.016.126-.024.19-.032.005-.005.009-.005.013-.005l.049-.008c.275-.041.559-.065.839-.065zM3.311 16.212c.113-.291.247-.59.385-.894a5.024 5.024 0 012.56 1.704l.658.822.63-.838a5.09 5.09 0 013.615-2.013c.24-.02.475-.02.739 0a5.03 5.03 0 013.652 1.892l.463.583.62-.409a4.947 4.947 0 013.052-.802c1.578.088 2.974.923 3.842 2.154a11.258 11.258 0 00-3.409-.526h-3.136a32.05 32.05 0 00-3.835.23 26.83 26.83 0 01-5.012.098L2.73 17.84c.175-.555.366-1.1.58-1.628zm-1.664 9.615v-.045a13.231 13.231 0 01-.024-.802c0-1.239.093-2.45.271-3.612l.017-.081c.089-.612.218-1.228.373-1.855l5.739.397a28.46 28.46 0 005.316-.105 30.59 30.59 0 013.643-.218h3.137c1.36 0 2.683.28 3.929.83l.134.061c-1.457.806-2.687 1.997-3.498 3.472-.735 1.332-1.323 2.77-1.786 4.135l-3.867-1.414a13.912 13.912 0 00-3.51-.793 11.163 11.163 0 00-1.255-.065h-.045L9.864 23.7a.96.96 0 00-.958-.81.963.963 0 00-.763.373.928.928 0 00-.21.457l-.407 2.346a14.212 14.212 0 00-5.543 2.588 19.892 19.892 0 01-.336-2.826zm3.957 11.355c-.045-.069-.094-.134-.138-.198v-.005l-.064-.097c-.078-.121-.159-.239-.252-.392-.008-.017-.02-.033-.029-.049-.048-.073-.097-.146-.142-.227-.008-.012-.016-.02-.024-.036v-.005c-.005-.004-.005-.008-.008-.012a23.98 23.98 0 01-.714-1.252l-.016-.029a22.814 22.814 0 01-1.81-4.483 12.426 12.426 0 014.824-2.595l-1.627 9.38zm1.952 2.524c-.024-.032-.053-.06-.077-.093a4.48 4.48 0 01-.235-.28c-.094-.11-.183-.218-.272-.328l-.013-.064 1.263-7.34.678-3.895 1.765 10.024.288 1.656c-1.133-.06-2.29.045-3.397.32zm36.097 24.398a43.19 43.19 0 01-11.793 3.713c-.423.07-.84.13-1.274.186-.17.025-.337.049-.5.065l-.202.024-.787.086-.264.024c-.134.013-.271.024-.414.037a30.7 30.7 0 01-1.042.069c-.045 0-.09.004-.138.004-.187.013-.374.021-.564.03h-.053c-.552.02-1.05.032-1.53.032-.15 0-.291-.005-.442-.005a36.693 36.693 0 01-1.676-.05c-.21-.007-.417-.02-.629-.032-.17-.012-.341-.02-.507-.037l-.19-.012-.211-.013a.823.823 0 00-.146-.012c-.016 0-.033-.004-.049-.004-.202-.016-.418-.04-.633-.061h-.008c-.053-.004-.105-.013-.15-.016l-1.091-.134a3.823 3.823 0 00-.224-.032l-.21-.033-.07-.008a43.598 43.598 0 01-2.223-.376 3.742 3.742 0 013.713-3.386h.008c.84 0 1.636.271 2.293.785l1.047.818.251-1.304c.62-3.232 3.47-5.581 6.77-5.59h.012a6.873 6.873 0 015.832 3.209l.523.825.718-.668a5.109 5.109 0 013.487-1.369h.008c.633 0 1.254.114 1.842.34l.516 2.895zm-.836-4.678a6.871 6.871 0 00-1.526-.174h-.013a6.733 6.733 0 00-3.875 1.227 8.484 8.484 0 00-6.68-3.224h-.017a8.542 8.542 0 00-8.067 5.8 5.33 5.33 0 00-2.29-.51h-.007a5.363 5.363 0 00-5.3 4.653l-.382-.093c-.564-.138-1.128-.296-1.619-.433a7.066 7.066 0 01-.393-.122 41.028 41.028 0 01-3.458-1.187l-.353-.137a58.275 58.275 0 01-1.367-.58l-.361-.17a13.957 13.957 0 01-.654-.3l2.569-14.64h.004l.025-.143.004-.04a10.192 10.192 0 012.415-.806c5.024-.984 9.95 1.944 11.464 6.82l.426 1.377.958-1.081a7.387 7.387 0 014.155-2.378 7.477 7.477 0 013.684.199l.69.218.296-.66a11.897 11.897 0 017.358-6.5l2.314 12.884zm1.437-22.081a1.394 1.394 0 01-.098.134l-.028.037a4.674 4.674 0 01-.208.295 7.637 7.637 0 01-.226.312l-.09.126c-.027.037-.056.073-.085.11-.134.174-.267.348-.41.522-.146.182-.296.368-.454.559-.013.008-.021.02-.03.028-.007.013-.016.021-.024.033-.06.072-.121.142-.19.223-.106.125-.22.25-.33.372l-.109.122c-.024.02-.04.045-.049.053l-.012.012a10.703 10.703 0 00-1.433-.822 7.08 7.08 0 00.226-2.587 6.128 6.128 0 00-.08-.604 5.252 5.252 0 00-.106-.486c-.02-.08-.04-.162-.065-.239l1.684-9.675.126-.72.47 2.705v.004l1.624 9.336c-.035.045-.067.098-.103.15zm1.81-3.086l-.025.049a7.17 7.17 0 01-.24.474l-.02.036a3.746 3.746 0 01-.073.138l-.057.101c-.003.013-.011.02-.016.032l-1.156-6.67c.097.024.194.053.292.077a15.567 15.567 0 00.908.207l.45.085c.191.033.386.065.585.09.231.036.47.064.714.088.154.017.312.033.47.045a22.08 22.08 0 01-1.833 5.248zm2.11-6.848a25.747 25.747 0 01-.865-.085c-.114-.013-.22-.03-.329-.04-.032-.005-.065-.014-.097-.017-.146-.02-.288-.04-.43-.065-.135-.024-.273-.048-.402-.077-.142-.024-.28-.057-.418-.089a1.64 1.64 0 01-.142-.032 7.085 7.085 0 01-.402-.097 8.661 8.661 0 01-.463-.13 5.916 5.916 0 01-.458-.142l-.93-5.354a.977.977 0 00-.957-.842.982.982 0 00-.99.815l-.682 3.92c-.366-.166-.743-.349-1.136-.535l-.289-.137a5.67 5.67 0 00-2.402-.538h-3.77l-.134-3.585c.804-.709 2.224-1.244 4.24-1.588h.009c3.348-.571 7.48-.462 9.963-.376.077.004.15.004.223.008.033 0 .065 0 .097.004a23.094 23.094 0 01.926 6.464c.004.841-.057 1.68-.162 2.518z" fill="#0A170B"/><path d="M18.416 29.549a39.995 39.995 0 00-.905 3.896c-2.22.215-4.188 1.458-5.377 3.26l-1.632-9.36h.126c1.222.005 2.423.251 3.571.66.017.005.03.013.045.017l4.172 1.527z" fill="#A9AAAA"/><path d="M24.182 20.395c-1.457.807-2.687 1.997-3.498 3.472-.735 1.332-1.323 2.77-1.786 4.135l-3.867-1.413a13.916 13.916 0 00-3.51-.794 11.162 11.162 0 00-1.255-.065h-.045l-.357-2.033a.96.96 0 00-.958-.81.963.963 0 00-.763.373.928.928 0 00-.21.458l-.407 2.345a14.21 14.21 0 00-5.543 2.588c-.183-.952-.297-1.9-.337-2.823v-.044a13.229 13.229 0 01-.024-.802c0-1.24.093-2.45.271-3.612l.017-.081c.089-.612.218-1.228.373-1.855l5.739.397a28.37 28.37 0 005.316-.105 30.588 30.588 0 013.644-.218h3.136c1.36 0 2.683.28 3.929.83l.135.057z" fill="#E2E2E2"/><path d="M44.359 37.19c-.037.049-.07.103-.105.155a1.394 1.394 0 01-.098.134l-.028.037a4.674 4.674 0 01-.208.295 7.637 7.637 0 01-.226.312l-.09.126c-.027.037-.056.073-.085.11-.134.174-.267.348-.41.522-.146.182-.296.368-.454.559-.013.008-.021.02-.03.028-.007.013-.016.021-.024.033-.06.072-.121.142-.19.223-.106.125-.22.25-.33.372l-.109.122c-.024.02-.04.045-.049.053l-.012.012a10.703 10.703 0 00-1.433-.822 7.08 7.08 0 00.226-2.587 6.128 6.128 0 00-.08-.604 5.252 5.252 0 00-.106-.486c-.02-.08-.04-.162-.065-.239l1.684-9.675.126-.72.47 2.705v.004l1.626 9.331z" fill="#7CAF5F"/><path d="M30.021 4.08a4.275 4.275 0 00-4.898 4.223c0 2.349 1.92 4.26 4.273 4.26 1.16 0 2.244-.454 3.035-1.268a4.205 4.205 0 001.242-2.993 4.289 4.289 0 00-3.652-4.222zm1.253 6.079c-.49.506-1.16.785-1.879.785a2.65 2.65 0 01-2.65-2.641 2.652 2.652 0 013.036-2.62 2.658 2.658 0 012.268 2.62 2.6 2.6 0 01-.774 1.856z" fill="#0A170B"/><path d="M32.05 8.304a2.6 2.6 0 01-.775 1.855 2.598 2.598 0 01-1.88.785 2.65 2.65 0 01-2.65-2.641 2.652 2.652 0 013.036-2.62 2.66 2.66 0 012.269 2.621z" fill="#FFED80"/><path d="M69.05 14.46c0 1.178-.405 2.115-1.213 2.811-.8.688-1.96 1.075-3.483 1.161v.994H62.02v-.994c-1.522-.111-2.687-.507-3.495-1.186-.8-.68-1.2-1.608-1.2-2.786 0-1.179.4-2.107 1.2-2.787.8-.688 1.965-1.088 3.495-1.2v-.928h2.335v.929c1.522.103 2.683.498 3.483 1.186.808.68 1.212 1.613 1.212 2.8zm-4.696 1.986c.766-.086 1.325-.292 1.677-.62.361-.326.542-.786.542-1.38 0-.593-.185-1.049-.555-1.367-.361-.318-.916-.52-1.664-.606v3.973zm-4.553-1.987c0 .585.185 1.037.554 1.355.37.318.925.524 1.664.619v-3.96c-.774.086-1.337.288-1.69.606-.352.318-.528.778-.528 1.38zm15.013 4.722c-.955 0-1.815-.203-2.58-.607a4.613 4.613 0 01-1.793-1.677c-.43-.713-.645-1.517-.645-2.412 0-.894.215-1.698.645-2.412a4.613 4.613 0 011.793-1.677c.765-.404 1.625-.606 2.58-.606.954 0 1.81.202 2.566.606a4.498 4.498 0 011.793 1.677c.439.714.658 1.518.658 2.412 0 .895-.219 1.699-.658 2.412a4.498 4.498 0 01-1.793 1.677c-.756.404-1.612.607-2.566.607zm0-2.116a2.42 2.42 0 001.238-.322 2.33 2.33 0 00.877-.903 2.79 2.79 0 00.322-1.355c0-.507-.107-.954-.322-1.341a2.309 2.309 0 00-.877-.916 2.418 2.418 0 00-1.239-.323 2.42 2.42 0 00-1.238.323c-.37.215-.662.52-.877.916-.215.387-.322.834-.322 1.341 0 .508.107.96.322 1.355.215.387.507.688.877.903.37.215.783.322 1.239.322zm14.974-7.094V19h-2.554v-3.521H83.75V19h-2.554V9.97h2.554v3.393h3.483V9.971h2.554zm9.215 2.025h-2.76V19h-2.516v-7.004h-2.773V9.97h8.05v2.025zm6.954 5.25h-3.818L101.43 19h-2.606l3.986-9.03h2.515l3.999 9.03h-2.657l-.71-1.754zm-.748-1.884l-1.161-2.889-1.161 2.89h2.322zm13.741-5.391V19h-2.554v-3.521h-3.483V19h-2.554V9.97h2.554v3.393h3.483V9.971h2.554zm6.545 2.876c1.109 0 1.965.25 2.567.748.602.49.903 1.221.903 2.193 0 1.04-.336 1.836-1.006 2.386-.671.55-1.604.826-2.8.826h-4.269V9.97h2.515v2.877h2.09zm-.503 4.321c.43 0 .769-.116 1.019-.348.258-.232.387-.559.387-.98 0-.783-.469-1.174-1.406-1.174h-1.587v2.502h1.587zm4.966-7.197h2.515V19h-2.515V9.97zm-72.028 16h2.516v5.301l3.728-5.301h2.399V35h-2.515v-5.289L60.342 35H57.93v-9.03zm20.914 4.308c.533.172.938.438 1.213.8.284.36.425.808.425 1.341 0 .8-.313 1.432-.941 1.896-.62.456-1.5.684-2.644.684h-4.631v-9.03h4.385c1.084 0 1.922.207 2.516.62.602.404.903.98.903 1.728 0 .439-.108.826-.323 1.161a2.164 2.164 0 01-.903.8zm-4.063-.697h1.625c.723 0 1.084-.296 1.084-.89 0-.593-.361-.89-1.084-.89h-1.625v1.78zm2.012 3.586c.74 0 1.11-.314 1.11-.941 0-.61-.37-.916-1.11-.916h-2.012v1.857h2.012zm9.509 2.013c-.955 0-1.815-.203-2.58-.607a4.614 4.614 0 01-1.793-1.677c-.43-.713-.645-1.517-.645-2.412 0-.894.215-1.698.645-2.412a4.614 4.614 0 011.793-1.677c.765-.404 1.625-.606 2.58-.606.954 0 1.81.202 2.567.606a4.498 4.498 0 011.793 1.677c.438.714.658 1.518.658 2.412 0 .895-.22 1.699-.658 2.412a4.498 4.498 0 01-1.793 1.677c-.757.404-1.613.607-2.567.607zm0-2.116c.456 0 .868-.107 1.238-.322a2.33 2.33 0 00.877-.903 2.79 2.79 0 00.323-1.355c0-.507-.108-.954-.323-1.341a2.308 2.308 0 00-.877-.916 2.418 2.418 0 00-1.238-.323c-.456 0-.869.108-1.239.323a2.31 2.31 0 00-.877.916c-.215.387-.322.834-.322 1.341 0 .508.107.96.322 1.355.215.387.508.688.877.903.37.215.783.322 1.239.322zm15.832-.09v3.844h-2.335V35H94.02v1.819h-2.348v-3.844h.323c.533-.009.907-.374 1.122-1.097.224-.722.361-1.762.413-3.121l.103-2.787h7.275v7.005h1.226zm-6.373-3.999c-.034.963-.111 1.78-.232 2.45-.12.672-.305 1.188-.554 1.549h3.418v-4.98H95.8l-.039.981zm12.031 6.205c-.954 0-1.814-.203-2.58-.607a4.621 4.621 0 01-1.793-1.677c-.43-.713-.645-1.517-.645-2.412 0-.894.215-1.698.645-2.412a4.621 4.621 0 011.793-1.677c.766-.404 1.626-.606 2.58-.606.955 0 1.81.202 2.567.606a4.494 4.494 0 011.793 1.677c.439.714.658 1.518.658 2.412 0 .895-.219 1.699-.658 2.412a4.494 4.494 0 01-1.793 1.677c-.757.404-1.612.607-2.567.607zm0-2.116a2.42 2.42 0 001.239-.322c.369-.215.662-.516.877-.903a2.79 2.79 0 00.322-1.355c0-.507-.107-.954-.322-1.341a2.314 2.314 0 00-.877-.916 2.42 2.42 0 00-1.239-.323c-.456 0-.868.108-1.238.323-.37.215-.662.52-.877.916-.215.387-.323.834-.323 1.341 0 .508.108.96.323 1.355.215.387.507.688.877.903.37.215.782.322 1.238.322zm14.858-7.094V35h-2.528v-7.004h-3.431V35h-2.515v-9.03h8.474zm8.161 7.275h-3.818l-.71 1.754h-2.605l3.986-9.03h2.515l3.999 9.03h-2.657l-.71-1.754zm-.748-1.884l-1.161-2.889-1.161 2.89h2.322zm14.951 1.613v3.844h-2.335V35H136.9v1.819h-2.348v-3.844h.323c.533-.009.907-.374 1.122-1.097.224-.722.361-1.762.413-3.121l.103-2.787h7.275v7.005h1.226zm-6.373-3.999c-.034.963-.111 1.78-.232 2.45-.12.672-.305 1.188-.555 1.549h3.419v-4.98h-2.593l-.039.981zm12.199-.129c1.109 0 1.965.25 2.567.748.602.49.903 1.221.903 2.193 0 1.04-.336 1.836-1.006 2.386-.671.55-1.604.826-2.799.826h-4.27v-9.03h2.515v2.877h2.09zm-.503 4.321c.43 0 .769-.116 1.019-.348.258-.232.387-.559.387-.98 0-.783-.469-1.174-1.406-1.174h-1.587v2.502h1.587zm4.966-7.197h2.515V35h-2.515v-9.03zM64.445 41.776V49h-1.662v-5.861h-3.26V49H57.86v-7.224h6.584zm5.237 7.348c-.75 0-1.428-.162-2.033-.485a3.659 3.659 0 01-1.414-1.331 3.704 3.704 0 01-.505-1.92c0-.708.168-1.345.505-1.909a3.634 3.634 0 011.414-1.341c.605-.324 1.283-.485 2.033-.485s1.424.161 2.022.485a3.634 3.634 0 011.93 3.25c0 .709-.172 1.349-.516 1.92a3.659 3.659 0 01-1.414 1.33c-.598.324-1.272.486-2.022.486zm0-1.424c.426 0 .812-.097 1.156-.29.344-.199.612-.474.805-.825.199-.35.299-.75.299-1.197 0-.447-.1-.846-.3-1.197a2.04 2.04 0 00-.804-.815c-.344-.2-.73-.3-1.156-.3-.427 0-.812.1-1.156.3a2.11 2.11 0 00-.815.815c-.193.351-.29.75-.29 1.197 0 .447.097.846.29 1.197.2.351.471.626.815.826.344.192.73.289 1.156.289zm12.489-.062v2.858h-1.548V49h-5.098v1.496h-1.548l.01-2.858h.29c.433-.014.74-.33.918-.95.179-.619.29-1.503.33-2.652l.083-2.26h5.552v5.862h1.011zm-5.17-3.447c-.034.86-.107 1.582-.217 2.167-.11.578-.278 1.005-.505 1.28h3.23v-4.5h-2.477l-.031 1.053zm12.014 1.899H87.86V49h-1.662v-7.224h1.662v2.92h1.197l1.898-2.92h1.765l-2.363 3.488L92.792 49h-1.898l-1.879-2.91zm11.181-4.314V49h-1.65v-5.861h-2.478l-.051 1.506c-.034 1.025-.117 1.858-.248 2.497-.13.633-.35 1.122-.66 1.466-.303.337-.73.506-1.28.506-.227 0-.502-.038-.825-.114l.103-1.414c.09.028.189.041.299.041.4 0 .678-.233.836-.701.158-.475.258-1.215.3-2.219l.102-2.93h5.552zm8.182-.123c.722 0 1.372.161 1.95.485a3.53 3.53 0 011.373 1.341c.33.564.495 1.2.495 1.91 0 .708-.165 1.348-.495 1.919a3.552 3.552 0 01-1.373 1.33c-.578.324-1.228.486-1.95.486a4.085 4.085 0 01-1.775-.382 3.65 3.65 0 01-1.331-1.084 3.629 3.629 0 01-.661-1.599h-.949V49H102v-7.224h1.662v2.838h.97a3.534 3.534 0 012.002-2.59 4.063 4.063 0 011.744-.371zm0 6.047a2.03 2.03 0 001.847-1.104c.186-.351.279-.754.279-1.208a2.54 2.54 0 00-.279-1.207 2.03 2.03 0 00-1.847-1.104 2.029 2.029 0 00-1.847 1.104 2.54 2.54 0 00-.279 1.207c0 .454.093.857.279 1.208a2.029 2.029 0 001.847 1.104zm10.903-5.924V49h-1.651v-2.6c-.626.227-1.207.34-1.744.34-.97 0-1.713-.23-2.229-.691-.516-.468-.774-1.139-.774-2.013v-2.26h1.651v2.075c0 .495.131.87.393 1.124.268.248.653.372 1.155.372a3.78 3.78 0 001.548-.32v-3.25h1.651z" fill="#fff"/></svg>