<svg width="148" height="70" fill="none" xmlns="http://www.w3.org/2000/svg"><path d="M43.583 64.137l-.942.438a31.59 31.59 0 01-1.123.482c-.272.113-.544.226-.82.328-.32.129-.64.25-.966.364a44.784 44.784 0 01-2.119.722 36.55 36.55 0 01-.544.166l-.13.037-.206.061-.897.243-.532.134-.336.085-.167.037c-.004 0-.008 0-.013.005a8.592 8.592 0 01-.56.129c-.008 0-.016.004-.024.004l-.093.021c-.106.02-.211.045-.317.065-.013.004-.021.004-.033.008-.167.037-.329.069-.49.097-.167.032-.333.061-.496.093-.267.053-.536.097-.803.142l-.07.013-.024.003a.487.487 0 01-.061.013c-.012 0-.024 0-.037.005-.013 0-.02.004-.032.004-.41.073-.824.126-1.247.183-.012 0-.02.004-.032.004l-.45.057-.224.028a3.4 3.4 0 01-.283.03 27.127 27.127 0 01-1.308.121c-.137.012-.28.02-.417.028a19.01 19.01 0 01-.662.037l-.276.013-.312.012c-.447.02-.913.029-1.421.029h-.277c-.21 0-.422-.004-.637-.004h-.049c-.194-.009-.39-.013-.584-.021l-.243-.008h-.07c-.219-.013-.438-.021-.657-.033a29.119 29.119 0 01-.654-.045l-.186-.012-.504-.04c-.324-.03-.649-.062-.966-.094h-.016l-.458-.061h-.025c-.158-.02-.32-.04-.474-.061l-.48-.073-.077-.008c-.012 0-.02 0-.032-.004l-.706-.11c-.118-.02-.232-.036-.35-.06l-.344-.065-.005.004-.15-.028-.061-.013c-.187-.032-.374-.07-.56-.105a3.23 3.23 0 01.159-.773c.023-.08.052-.162.084-.243.046-.105.09-.21.143-.311a2.61 2.61 0 01.138-.248c.064-.113.142-.218.218-.324.07-.089.143-.174.216-.259.077-.08.154-.162.24-.239.06-.053.12-.105.186-.158.045-.037.093-.077.145-.113a2.42 2.42 0 01.208-.138c.069-.045.142-.089.218-.125.005-.005.008-.005.013-.009.044-.024.09-.044.134-.069l.033-.012a.582.582 0 01.089-.04.995.995 0 01.121-.054c.078-.032.154-.056.235-.085a3.724 3.724 0 01.65-.147 3.93 3.93 0 01.312-.028c.049-.005.094-.005.142-.005a4.052 4.052 0 01.479.029c.053.004.106.012.159.02.073.013.146.03.218.045.09.017.175.04.26.07h.009c.085.024.17.053.256.089.077.028.154.06.227.093.073.037.145.073.218.113.062.033.122.07.179.105.113.07.223.146.328.227l1.015.793.033.025.25-1.3a6.915 6.915 0 01.463-1.475c.033-.07.062-.134.094-.199l.037-.073c.04-.08.081-.158.122-.23a5.977 5.977 0 01.56-.863c.175-.231.36-.45.564-.656.078-.081.159-.162.244-.24a6.04 6.04 0 01.617-.506c.097-.072.198-.141.3-.21.11-.069.219-.137.333-.202.073-.04.143-.08.216-.117a3.773 3.773 0 01.52-.25 3.63 3.63 0 01.258-.103c.216-.085.434-.158.658-.215.061-.016.121-.032.183-.044a5.165 5.165 0 01.568-.113c.121-.021.243-.033.365-.046.126-.012.248-.024.374-.028.09-.008.183-.008.272-.008a8.223 8.223 0 01.654.028l.24.025.069.012c.117.013.235.032.349.053l.118.024.215.049c.094.02.187.045.276.07a5.13 5.13 0 011.38.563h.004c.13.064.255.137.381.218a6.704 6.704 0 011.046.802 6.904 6.904 0 011.14 1.377l.512.805.013.02.718-.668c.081-.077.167-.15.256-.218.227-.186.467-.352.722-.494a3.6 3.6 0 01.288-.146 4.04 4.04 0 01.345-.15c.062-.029.122-.048.187-.07a1.96 1.96 0 01.227-.072c.113-.032.227-.065.345-.089a4.997 4.997 0 01.877-.118c.069-.004.137-.004.207-.004a5.258 5.258 0 01.747.05c.064.007.133.02.198.032.122.02.248.045.366.077.056.016.113.029.17.048.138.037.272.081.402.134l.517 2.891z" fill="#3A7729"/><path d="M42.751 59.455c-.012-.004-.02-.004-.032-.009a5.045 5.045 0 00-.224-.044 3.166 3.166 0 00-.186-.033 3.28 3.28 0 00-.207-.029c-.07-.012-.138-.016-.207-.024a3.882 3.882 0 00-.32-.024 6.247 6.247 0 00-.39-.013c-.078 0-.15 0-.227.005a5.033 5.033 0 00-.491.037c-.008 0-.02 0-.028.004-.26.032-.515.077-.767.134a.648.648 0 00-.126.032 3.694 3.694 0 00-.216.057l-.085.024a8.225 8.225 0 00-.552.195c-.032.013-.065.029-.097.04-.11.046-.216.094-.32.146-.095.045-.187.09-.277.142a4.625 4.625 0 00-.37.215 7.972 7.972 0 00-.288.19l-.012-.012a7.75 7.75 0 00-1.124-1.171 8.004 8.004 0 00-.296-.247c-.004 0-.008-.005-.013-.008a1.405 1.405 0 00-.512-.37c-.086-.056-.17-.113-.26-.166a2.191 2.191 0 00-.183-.11 5.19 5.19 0 00-.333-.182.311.311 0 00-.08-.04 3.673 3.673 0 00-.346-.166.682.682 0 00-.093-.045h-.004c-.008-.005-.02-.008-.029-.013a2.88 2.88 0 00-.304-.126l-.032-.012a3.577 3.577 0 00-.345-.126 3.653 3.653 0 00-.366-.113 4.947 4.947 0 00-.369-.098 3.465 3.465 0 00-.296-.064c-.04-.008-.09-.02-.135-.024a1.033 1.033 0 00-.186-.033 5.666 5.666 0 00-.382-.056h-.016a5.073 5.073 0 00-.357-.033l-.159-.012a10.233 10.233 0 00-.495-.013c-.102 0-.207 0-.308.008a8.444 8.444 0 00-1.71.244c-.085.02-.17.045-.255.069a7.406 7.406 0 00-.333.102 7.182 7.182 0 00-.584.214c-.426.17-.832.377-1.222.616a8.172 8.172 0 00-.276.174c-.089.061-.178.121-.268.186-.09.065-.175.13-.26.194a7.076 7.076 0 00-.503.425 8.737 8.737 0 00-.418.409 8.44 8.44 0 00-1.907 3.143l-.032-.013c-.07-.032-.138-.065-.207-.093a3.072 3.072 0 00-.211-.081 1.6 1.6 0 00-.224-.078 5.072 5.072 0 00-.905-.203c-.064-.008-.125-.016-.19-.02-.086-.008-.17-.017-.26-.021a7.023 7.023 0 00-.304-.008c-.073 0-.146 0-.215.005a5.8 5.8 0 00-.475.044 4.724 4.724 0 00-.892.203c-.073.02-.146.044-.215.072a4.228 4.228 0 00-.528.228c-.04.016-.077.037-.113.056a2.384 2.384 0 00-.17.094 4.672 4.672 0 00-.337.206c-.065.045-.13.09-.191.138a5.268 5.268 0 00-1.42 1.564c-.04.069-.081.137-.118.206-.04.07-.078.142-.11.215a4.415 4.415 0 00-.215.506 5.394 5.394 0 00-.272 1.11l-.037-.008-.345-.09c-.475-.112-.97-.246-1.624-.437-.121-.032-.235-.07-.393-.118-.248-.069-.495-.15-.755-.234-.45-.142-.856-.275-1.254-.422-.434-.15-.905-.324-1.433-.534l-.365-.146a43.46 43.46 0 01-1.368-.58l-.35-.161c-.218-.102-.438-.199-.661-.312l2.597-14.633.032-.175.178-.085c.086-.04.17-.077.256-.113.13-.053.26-.105.394-.154.085-.032.166-.065.25-.093.147-.049.293-.094.44-.138.077-.02.15-.045.223-.065.223-.06.446-.113.673-.158a11.924 11.924 0 011.428-.175 9.92 9.92 0 01.491-.013h.167c.077 0 .15.004.223.008.097 0 .19.005.284.013l.17.013a10.395 10.395 0 011.677.288 10.78 10.78 0 011.127.371c.093.037.186.073.276.113.094.037.183.078.268.122.089.04.178.085.267.13.094.044.186.093.28.15.086.048.175.096.26.141.008.005.012.005.016.013.134.073.264.153.393.239 0 0 .005.008.008.008.04.024.081.053.118.08a8.226 8.226 0 01.67.49c.016.013.033.025.049.041.065.049.126.102.19.154a.742.742 0 01.09.077c.105.089.207.182.309.28.037.032.073.064.11.105.032.028.069.06.101.101.04.037.086.08.122.126.094.093.183.186.267.283a10.263 10.263 0 01.686.851 9.7 9.7 0 01.666 1.07c.073.129.138.258.203.392.012.024.024.045.032.07.053.113.105.226.15.34a.16.16 0 01.025.056c.029.065.056.13.08.199.054.13.103.263.151.397l.012.033v.004l.085.267.418 1.352.008.025.596-.672.361-.406a7.382 7.382 0 014.518-2.43 6.966 6.966 0 011.616-.06c.142.012.276.028.417.044h.017c.064.008.126.016.19.029.082.012.163.024.244.045.012 0 .02 0 .032.004.09.017.175.037.26.057.186.04.369.093.551.15l.662.21.029.008.296-.66a11.683 11.683 0 011.985-3.054c.288-.324.592-.631.905-.91l.053-.05c.134-.12.272-.234.41-.348.142-.113.288-.231.438-.34.122-.09.248-.175.37-.26.125-.085.25-.166.377-.242a12.394 12.394 0 01.91-.515c.048-.024.096-.045.145-.07.13-.064.264-.125.394-.185.113-.053.226-.102.34-.146l.02-.008c.017-.008.03-.016.046-.02l.024-.013a.232.232 0 01.073-.024c.256-.102.523-.19.787-.272.016-.004.037-.012.057-.016.011-.005.024-.008.037-.013l.896 5.059v.003l.455 2.544v.004l.94 5.28z" fill="#4CA634"/><path d="M41.103 41.128c-.089.089-.174.174-.259.255l-.382.368c-.032.03-.065.053-.08.073-.106.097-.211.199-.318.291l-.337.3.45 2.548a16.356 16.356 0 00-.681.215c-.17.061-.345.121-.511.19-.07.025-.138.053-.207.081-.13.057-.264.11-.394.17-.073.032-.15.07-.223.102-.122.056-.243.117-.366.178a6.86 6.86 0 00-.223.117 10.737 10.737 0 00-.568.32c-.127.073-.248.15-.374.231-.057.037-.118.073-.175.113a11.854 11.854 0 00-1.517 1.175l-.053.045a12.96 12.96 0 00-1.019 1.024 13.306 13.306 0 00-1.952 2.84c-.008-.005-.02-.005-.029-.005-.085-.017-.17-.037-.255-.053a5.081 5.081 0 00-.252-.045 5.298 5.298 0 00-.442-.065h-.003l-.102-.013a5.898 5.898 0 00-.458-.036h-.013c-.013 0-.024 0-.032-.005a3.94 3.94 0 00-.227-.008c-.028-.005-.057-.005-.086-.005h-.17c-.293 0-.58.017-.869.04a9.078 9.078 0 00-.864.126 9.041 9.041 0 00-4.132 1.973c-.003-.004-.003-.012-.008-.016a9.764 9.764 0 00-.463-.932 8.05 8.05 0 00-.11-.198 13.585 13.585 0 00-.62-.957 38.2 38.2 0 00-.305-.405 12.674 12.674 0 00-.374-.446 9.716 9.716 0 00-.804-.835c-.134-.129-.272-.25-.41-.372-.004 0-.008-.005-.016-.013a10.547 10.547 0 00-.442-.357c-.15-.117-.3-.23-.459-.34-.069-.049-.142-.097-.215-.146a9.2 9.2 0 00-.747-.457 7.192 7.192 0 00-.47-.251 1.16 1.16 0 00-.097-.053 9.32 9.32 0 00-.455-.207 5.497 5.497 0 00-.528-.215c0-.004-.004-.004-.004-.004a4.932 4.932 0 00-.487-.17 4.65 4.65 0 00-.459-.142 1.02 1.02 0 00-.11-.032c-.04-.016-.085-.024-.126-.037a6.978 6.978 0 00-.418-.097c-.069-.013-.137-.029-.207-.045-.073-.016-.142-.032-.21-.04a5.05 5.05 0 00-.426-.07 1.641 1.641 0 00-.203-.028c-.04-.005-.08-.013-.121-.017l-.22-.024c-.019 0-.036-.004-.056-.004a9.65 9.65 0 00-.507-.037 5.489 5.489 0 00-.366-.013h-.19c-.122 0-.243.004-.366.008-.02-.004-.045 0-.065 0-.194.008-.39.021-.584.037-.005 0-.005.005-.008.005a16.68 16.68 0 00-.569.06c-.012.005-.028.005-.04.009a17.16 17.16 0 00-.597.097c-.292.057-.58.126-.868.207-.097.024-.19.06-.284.089-.186.056-.373.113-.56.178-.016.008-.037.012-.057.02v-.008l.89-4.998-.333-.3a27.69 27.69 0 01-1.063-1.021l-.065-.065c.101-.024.202-.048.304-.069.515-.105 1.002-.19 1.502-.255.324-.045.654-.086.97-.113l.438-.037a22.584 22.584 0 013.272-.013c.053.11.105.223.162.333l.097.186c.6 1.097 1.38 2.082 2.326 2.916.094.08.186.162.285.239.113.097.23.19.349.275.11.089.223.17.337.242a4.007 4.007 0 00.393.263 4.3 4.3 0 00.377.227c.334.194.674.369 1.027.522a3.3 3.3 0 00.353.146c.312.126.633.239.958.332.142.045.284.086.43.118a9.182 9.182 0 00.881.179 10.246 10.246 0 001.713.142c.126 0 .247-.005.374-.008.218-.008.433-.02.649-.04l.21-.025c.094-.008.191-.02.284-.037.167-.02.329-.048.49-.08.029-.005.054-.013.082-.017a11.24 11.24 0 001.023-.255 11.567 11.567 0 001.514-.587s.004-.004.008-.004c.15-.073.296-.146.442-.227.029-.012.053-.029.08-.04.147-.081.289-.166.431-.25.56-.341 1.088-.734 1.579-1.175a10.57 10.57 0 002.248-2.844l.162-.312.057-.12a23.192 23.192 0 013.316.012l.43.032c.329.032.657.073.99.121l.159.025a14.088 14.088 0 011.156.195c.057.008.118.02.175.032.098.028.195.052.292.073z" fill="#7CAF5F"/><path d="M45.811 34.77c-.008.015-.02.031-.028.048l-.02.036a2.255 2.255 0 01-.078.146l-.053.093c-.045.094-.097.183-.162.3-.013.025-.03.05-.03.05a19.119 19.119 0 01-.763 1.263l-.06.089v.008c-.121.182-.243.368-.385.575-.03.048-.062.089-.114.158-.142.202-.284.405-.442.615l-.094.126a24.305 24.305 0 01-.981 1.223 5.564 5.564 0 01-.227.267c-.008-.004-.016-.004-.024-.008l-.719-.174a46.753 46.753 0 01-.487-.11c-.21-.045-.422-.08-.625-.117a14.998 14.998 0 00-.536-.09l-.07-.012c-.125-.02-.247-.037-.368-.053-.118-.016-.232-.032-.35-.045h-.004l-.284-.037c-.142-.016-.284-.029-.43-.045l-.45-.037a24.029 24.029 0 00-2.793-.053c.049-.174.097-.356.142-.538.005-.02.013-.045.017-.07.012-.044.02-.088.029-.133a10.71 10.71 0 00.22-1.527c.012-.126.015-.247.02-.373.004-.13.008-.255.008-.384 0-.264-.013-.523-.029-.782-.003-.032-.008-.061-.008-.094-.008-.101-.016-.206-.029-.312a9 9 0 00-.061-.445v-.008a9.547 9.547 0 00-.121-.66c.02-.005.04-.005.06-.009.39-.045.78-.08 1.17-.11l.263-.012c.203-.013.407-.02.61-.029.137-.004.276-.008.413-.008.065-.004.134-.004.2-.004h.242c.159 0 .317 0 .475.008.105 0 .207.004.312.008.065.004.135.004.2.008.072.004.145.012.218.016.333.02.666.045.994.077.13.013.26.03.39.045.276.033.557.073.832.114.134.02.269.044.406.069.28.048.56.101.836.161.122.025.243.049.361.078a22.926 22.926 0 011.177.3c.385.11.767.234 1.144.365.03.011.058.024.086.032zm2.529-9.84c0 .183-.005.37-.009.552-.004.126-.008.25-.016.376 0 .032-.004.061-.004.09-.004.096-.013.19-.02.287 0 .02 0 .04-.005.056-.008.134-.02.267-.033.398a12.05 12.05 0 01-.049.502.192.192 0 00-.028-.013c-.017-.008-.033-.016-.049-.02a.709.709 0 01-.077-.033c-.159-.069-.313-.13-.471-.194h-.004l-.024-.012a30.005 30.005 0 00-.763-.304 19.429 19.429 0 00-.531-.186c-.248-.086-.499-.17-.751-.247-.049-.016-.097-.033-.146-.045-.134-.04-.267-.081-.402-.118a15.565 15.565 0 00-.762-.202 5.707 5.707 0 00-.398-.097c-.049-.013-.102-.024-.154-.037-.26-.057-.52-.11-.78-.158a10.263 10.263 0 00-.486-.09l-.062-.012a23.007 23.007 0 00-.548-.08 5.986 5.986 0 00-.276-.041c-.008 0-.02-.005-.028-.005-.167-.02-.325-.044-.496-.06-.15-.017-.3-.033-.454-.046l-.138-.012c-.078-.004-.154-.013-.232-.016-.027-.005-.056-.005-.085-.009-.15-.008-.3-.024-.45-.032a14.88 14.88 0 00-.633-.024 9.94 9.94 0 00-.386-.008c-.118-.008-.235-.008-.353-.008-.325 0-.649.008-.974.02-.097.005-.199.013-.296.017h-.021c-.219.012-.438.024-.654.04l-.377.037a14.46 14.46 0 00-.588.061 6.683 6.683 0 00-.398.053c-.186.024-.374.049-.56.077l-.41.073a14.13 14.13 0 00-.54.097c-.137.029-.28.057-.417.09-.175.036-.35.076-.523.117l-.016.004a11.15 11.15 0 00-.407.102c-.024.004-.044.012-.069.02-.146.037-.292.078-.438.118-.143.04-.288.081-.434.126-.078.024-.154.045-.232.07-.016-.017-.029-.033-.045-.046l-.118-.117a17.065 17.065 0 00-.926-.899c-.04-.04-.085-.08-.13-.121-.206-.19-.417-.377-.632-.56l-.378-.316c-.158-.129-.32-.255-.482-.38l-.219-.17-.422-.312c-.159-.114-.32-.227-.483-.34a6.935 6.935 0 00-.251-.175c-.065-.04-.126-.09-.191-.13.024-.012.049-.028.073-.04.134-.065.267-.13.406-.19.053-.025.105-.05.159-.073.13-.062.263-.122.398-.178a22.095 22.095 0 011.266-.514l.308-.11a22.49 22.49 0 011.271-.405c.304-.086.609-.17.917-.243.085-.02.17-.045.255-.065.337-.077.678-.145 1.023-.206l.32-.061c.342-.057.682-.105 1.027-.15.114-.013.227-.025.342-.04l.247-.025c.03-.005.053-.005.081-.008.235-.02.471-.04.706-.057a26.583 26.583 0 011.29-.045h.155c.25 0 .503.005.767.016a19.228 19.228 0 01.56.03l.37.023c.016 0 .028 0 .044.005.114.008.227.015.341.028.174.016.353.032.532.053l.39.048c.182.025.365.049.544.078.121.02.243.04.365.062.219.037.439.077.657.12l.07.014h.003c.086.02.17.04.256.056.053.013.105.024.154.033.167.04.329.077.49.117.114.029.228.057.342.09l.024.003c.138.037.276.077.415.113.077.02.15.045.227.065.036.012.072.02.11.032l.08.024c.033.013.07.025.102.033.219.069.434.142.654.214.07.025.142.049.21.078a19.703 19.703 0 01.84.312c.106.04.212.086.313.13.102.04.203.08.305.126.024.012.048.02.072.032.187.08.374.166.557.255.04.02.081.037.122.057.17.08.34.166.507.25.053.03.105.054.158.081.159.081.316.167.475.256.056.032.117.064.178.097.053.028.105.06.162.093.012.008.024.013.037.02.037.549.057 1.104.057 1.659z" fill="#B9D79E"/><path d="M47.938 28.86a21.725 21.725 0 01-1.425 4.439.07.07 0 00-.028-.008l-.159-.057c-.154-.053-.312-.105-.47-.158l-.58-.182c-.163-.045-.321-.094-.48-.134a13.95 13.95 0 00-.592-.158l-.106-.025a24.34 24.34 0 00-.979-.218c-.158-.032-.316-.065-.474-.093a1542.254 1542.254 0 01-.625-.102 21.087 21.087 0 00-.463-.07 12.735 12.735 0 00-.662-.077l-.11-.012-.11-.013-.218-.024c-.243-.02-.49-.037-.739-.053-.121-.005-.243-.016-.365-.02h-.016c-.366-.017-.73-.03-1.1-.03-.105 0-.21 0-.32.005-.11 0-.215.005-.325.008h-.094c-.049 0-.094.005-.142.005-.09.003-.183.012-.276.016h-.012c-.2.008-.398.02-.597.032-.114.008-.224.02-.337.029a24.255 24.255 0 00-.8.082l-.102.012c-.064.008-.13.013-.194.021-.065-.121-.13-.24-.191-.36-.016-.03-.032-.061-.049-.09a3.077 3.077 0 01-.089-.17c-.17-.311-.345-.62-.523-.915 0-.004-.004-.008-.008-.012 0-.005-.004-.009-.004-.013h-.004c-.04-.077-.086-.15-.13-.223-.11-.174-.219-.349-.332-.518-.09-.142-.183-.28-.276-.417a.745.745 0 00-.054-.073 20.851 20.851 0 00-.917-1.251c-.13-.166-.256-.328-.386-.49.127-.032.256-.07.386-.105.012 0 .024-.005.037-.008.085-.02.166-.045.247-.065.13-.032.26-.06.39-.093l.455-.097c.016-.005.032-.005.049-.008a15.7 15.7 0 01.8-.15c.093-.013.186-.025.275-.04a26.02 26.02 0 01.901-.122c.186-.02.374-.037.56-.057l.32-.024c.155-.013.313-.024.472-.029.04-.004.08-.008.121-.008.094-.004.187-.012.28-.012.288-.013.58-.021.868-.021a23.325 23.325 0 011.352.041c.065.004.13.008.194.016.07.005.135.008.195.017.122.008.248.016.37.028.161.013.324.024.486.045l.301.037c.049.008.097.016.146.02.024.009.048.009.073.013l.341.049.418.06c.183.033.361.074.544.106.175.037.345.07.515.105.07.013.134.024.199.04.186.046.37.094.556.143.178.045.36.093.543.145.049.008.094.024.143.037.053.016.11.032.162.049l.393.12c.224.074.447.147.67.224.183.064.366.134.549.202.218.085.438.17.657.259.097.045.199.089.296.13h.005c.08.036.158.072.24.104.109.049.218.102.328.154l.026.012z" fill="#7CAF5F"/><path d="M34.047 35.968c0 .093 0 .186-.005.28 0 .056-.004.109-.008.166l-.013.206c-.004.097-.016.194-.024.291a8.82 8.82 0 01-.325 1.624c0 .005-.005.008-.005.013a2.975 2.975 0 01-.085.271 4.503 4.503 0 01-.105.304l-.05.137c-.048.122-.096.24-.15.357-.016.04-.032.078-.048.113-.073.159-.15.312-.231.462l-.09.17c-.003.005-.003.008-.008.013a4.9 4.9 0 01-.183.312 8.693 8.693 0 01-1.408 1.77 8.525 8.525 0 01-1.112.92 9.096 9.096 0 01-1.027.627c-.004.005-.009.005-.017.008a9.51 9.51 0 01-.304.15 1.29 1.29 0 01-.166.078 3.333 3.333 0 01-.317.137 8.57 8.57 0 01-1.076.365 9.087 9.087 0 01-2.342.304 9.9 9.9 0 01-.91-.045c-.069-.008-.142-.016-.214-.029a2.993 2.993 0 01-.268-.037 1.76 1.76 0 01-.138-.02c-.101-.017-.199-.037-.3-.057a9.098 9.098 0 01-1.072-.287c-.13-.045-.26-.09-.385-.138a7.87 7.87 0 01-.179-.073c-.089-.037-.178-.073-.267-.117a2.72 2.72 0 01-.264-.121 8.201 8.201 0 01-1.043-.596 3.964 3.964 0 01-.264-.182 2.372 2.372 0 01-.198-.146 7.505 7.505 0 01-.52-.425 7.817 7.817 0 01-.69-.685 6.263 6.263 0 01-.346-.397l-.012-.016a8.745 8.745 0 01-.832-1.207l-.098-.178v-.004a8.998 8.998 0 01-1.002-5.622c.033-.247.081-.49.135-.729a7.221 7.221 0 01.194-.716v-.005c0-.004 0-.004.005-.008.032-.101.064-.202.101-.3a6.93 6.93 0 01.524-1.09 20.177 20.177 0 01.982-1.575c.139-.199.276-.401.427-.6.105-.15.215-.295.328-.437.17-.219.342-.433.515-.648.013-.013.021-.02.03-.033a23.708 23.708 0 01.657-.766l.288-.307c.003-.005.008-.008.008-.013.037-.032.065-.07.097-.101.057-.057.11-.114.167-.167a.596.596 0 01.069-.073c.024-.024.045-.048.07-.069a7.52 7.52 0 01.345-.345c.104-.105.214-.21.324-.312l.114-.101a.5.5 0 01.064-.057c.317-.292.642-.571.975-.842.029-.024.057-.048.085-.069a20.04 20.04 0 011.12-.842c.057-.045.114-.085.17-.126.074-.048.147-.101.22-.15.117-.077.231-.154.349-.23.19-.127.382-.243.576-.366.033-.02.065-.037.094-.056.029.016.053.029.077.045.122.077.252.153.378.234.04.024.077.053.118.078.016.008.028.02.045.028l.166.11c.178.118.353.234.528.357.053.037.105.077.158.113.175.126.345.25.52.38.045.038.093.074.138.11.044.033.089.07.134.106h.003l.386.303.105.09c.15.12.292.247.439.372.032.03.069.057.102.086.012.012.028.024.04.04.15.134.3.267.447.405.15.138.296.275.438.417.142.138.28.275.414.417.062.061.122.126.183.19.086.086.167.175.248.264.113.126.227.25.337.381.11.126.218.255.328.385.033.045.07.085.106.13.008.007.016.02.024.028.186.226.37.457.544.693l.07.089c.032.04.064.085.096.13.025.028.04.056.062.084.048.057.089.118.13.175a.075.075 0 01.015.024c.009.008.013.013.013.02.073.102.146.203.219.309.032.04.061.085.089.13.036.048.07.096.102.145.045.065.089.134.134.202.053.078.102.154.15.231l.2.32c.036.057.072.118.117.202a7.819 7.819 0 01.45.855c.021.045.041.085.057.13.057.12.11.246.159.376.008.024.02.048.024.077a2.2 2.2 0 01.086.227l.069.214c.036.11.07.219.097.333.016.06.033.117.044.178.04.15.078.3.106.453.004.013.004.025.008.037.029.134.048.267.07.406 0 .008.004.016.004.024a8.795 8.795 0 01.09 1.304z" fill="#51BDE8"/><path d="M14.639 38.892a23.343 23.343 0 00-2.776.053l-.455.037a21.23 21.23 0 00-1.047.126 23.36 23.36 0 00-1.611.271c-.398.085-.803.183-1.238.296-.017-.025-.037-.045-.053-.065a6.144 6.144 0 01-.236-.28c-.162-.19-.316-.384-.479-.587-.105-.134-.21-.272-.312-.41l-.057-.076a11.587 11.587 0 01-.316-.425.657.657 0 01-.077-.11l-.029-.04a13.56 13.56 0 01-.512-.742l-.064-.097a13.034 13.034 0 01-.248-.393 3.368 3.368 0 01-.194-.316c-.065-.097-.122-.194-.187-.304-.016-.028-.032-.06-.053-.093-.134-.227-.26-.454-.394-.697-.028-.056-.06-.113-.105-.202-.008-.02-.02-.04-.029-.056l.09-.037c.134-.045.267-.086.397-.13.195-.06.386-.12.58-.182.138-.04.285-.08.426-.118.187-.053.374-.101.56-.15.146-.037.292-.069.439-.101.19-.045.377-.086.568-.122.146-.032.292-.06.439-.085.194-.037.385-.065.58-.097.145-.02.288-.045.43-.061.207-.029.41-.053.613-.073.138-.016.272-.032.41-.045.227-.02.455-.032.681-.049.114-.003.227-.016.345-.02.342-.016.687-.024 1.031-.024.41 0 .816.016 1.222.036.094.005.187.008.28.017a19.651 19.651 0 011.222.11c-.04.198-.08.396-.113.599l-.036.271c-.013.085-.02.166-.029.25-.008.065-.016.13-.02.195-.012.105-.02.206-.029.312a9.888 9.888 0 00-.016.494c-.003.065-.008.13-.008.194 0 .994.142 1.978.41 2.926z" fill="#B9D79E"/><path d="M17.82 27.628c-.053.065-.11.134-.158.2h.003a12.55 12.55 0 00-.264.335c-.048.057-.089.11-.134.166-.045.057-.085.114-.13.17-.202.272-.401.547-.592.826a16.65 16.65 0 00-.272.365h-.008c-.029.04-.053.08-.077.118-.057.077-.11.153-.162.234-.065.102-.135.202-.2.308a5.574 5.574 0 00-.154.264c-.032.053-.069.105-.097.158-.032.056-.056.118-.089.174a6.736 6.736 0 00-.142.276c-.045.09-.094.182-.134.275-.033.07-.065.142-.094.21l-.003.008c-.065.122-.13.24-.187.357l-.199-.024a7.863 7.863 0 00-.309-.032 20.94 20.94 0 00-.527-.053c-.017 0-.037-.005-.054-.005l-.312-.024a28.189 28.189 0 00-.609-.033c-.093-.004-.186-.012-.276-.016l-.378-.012c-.17 0-.336-.005-.507-.005a25.6 25.6 0 00-1.115.029c-.122.005-.243.016-.366.02-.247.017-.499.033-.746.054-.142.012-.284.032-.426.048-.227.025-.45.049-.674.078a17.2 17.2 0 00-.454.069c-.216.032-.43.069-.642.105l-.458.089c-.21.045-.422.089-.628.137a9.4 9.4 0 00-.459.11c-.207.053-.414.105-.617.162-.154.045-.304.085-.454.13l-.617.193c-.146.049-.293.097-.439.15-.069.02-.134.04-.202.065A22.462 22.462 0 012.39 30.35a26.802 26.802 0 01-.361-1.487c.089-.045.182-.085.283-.134.021-.008.045-.016.07-.029a.026.026 0 01.016-.008l.118-.056.223-.094.057-.024a2.63 2.63 0 01.158-.065c.04-.016.081-.037.118-.053.03-.008.057-.02.086-.032l.406-.158a25.574 25.574 0 011.355-.474l.191-.056v-.005c.113-.032.227-.07.357-.101.13-.037.256-.073.394-.106.203-.053.398-.101.589-.145.11-.029.219-.053.324-.077a8.32 8.32 0 01.313-.07c.515-.105 1.006-.19 1.501-.255.326-.045.654-.085.97-.113l.098-.008.336-.029a30.609 30.609 0 011.205-.057c.086 0 .17-.005.256-.005.073 0 .142 0 .21-.004h.297c.105 0 .21 0 .317.004l.341.013c.235.008.48.02.722.037v.004c.053 0 .106.005.159.008.398.029.8.073 1.197.126l.28.037c.162.024.325.053.487.077.135.02.268.045.402.07l.073.012a18.109 18.109 0 01.998.206c.199.049.393.094.589.146.121.029.243.061.365.093-.026.028-.046.06-.07.09z" fill="#7CAF5F"/><path d="M23.356 22.638c-.04.025-.077.057-.118.081-.341.227-.678.462-1.006.705-.021.016-.041.032-.062.045-.312.234-.62.478-.92.725l-.232.19c-.013.008-.021.017-.03.025-.012.012-.023.02-.032.032a.066.066 0 00-.02.016 23.038 23.038 0 00-.897.794 22.062 22.062 0 00-.848.839c-.037.037-.073.07-.11.105-.118-.037-.232-.073-.35-.101a10.07 10.07 0 00-.462-.134c-.154-.04-.31-.081-.467-.118a4.79 4.79 0 00-.398-.097 17.594 17.594 0 00-1.193-.247 3.61 3.61 0 00-.21-.04c-.211-.037-.423-.07-.634-.102a17.757 17.757 0 00-.654-.086c-.024-.004-.048-.004-.072-.008a29.02 29.02 0 00-1.027-.105c-.288-.02-.572-.037-.856-.045l-.333-.012c-.113-.005-.227-.005-.336-.008-.289-.005-.577 0-.865.004-.093.005-.186 0-.28 0-.17.008-.341.013-.515.024 0 .005.004.005.004.005-.191.012-.378.02-.568.032l-.455.037c-.251.024-.504.061-.751.094 0-.005-.005-.005-.005-.009-.008 0-.012.004-.02.004l-.272.037c-.264.037-.524.073-.792.118a5.99 5.99 0 01-.28.053c-.094.016-.19.032-.288.053a.803.803 0 00-.094.016c-.053.012-.105.02-.158.032-.024.008-.049.013-.078.02a18.9 18.9 0 00-1.222.293c-.154.037-.3.077-.422.113a7.15 7.15 0 00-.474.138l-.317.097c-.162.053-.329.11-.488.166-.263.089-.527.186-.775.283-.272.101-.552.215-.876.352a3.167 3.167 0 00-.183.078l-.158.069c-.005-.02-.005-.045-.008-.065a.705.705 0 01-.008-.097 14.982 14.982 0 01-.062-.616c-.003-.077-.011-.158-.016-.239a17.7 17.7 0 01-.037-.664 25.522 25.522 0 01-.008-.587c0-.146 0-.292.008-.442 0-.024 0-.053.004-.077 0-.13.004-.259.008-.389a24 24 0 01.04-.753c.062-.037.127-.073.191-.11.062-.037.122-.069.183-.105.053-.029.11-.056.162-.085a9.751 9.751 0 01.467-.243c.166-.085.332-.17.503-.25.04-.021.081-.037.118-.057.057-.029.118-.057.175-.081.126-.061.255-.118.385-.174.02-.009.04-.021.065-.03.203-.088.41-.174.617-.258h.003c.224-.089.45-.174.678-.255l.455-.158c.105-.037.21-.07.317-.106.358-.113.714-.222 1.075-.32.016-.004.037-.012.057-.016.186-.053.377-.097.564-.142.166-.04.333-.08.498-.117.025-.008.054-.013.078-.021.065-.012.13-.024.199-.04l.576-.11a5.66 5.66 0 00.341-.061c.017 0 .037-.005.054-.008l.393-.061c.134-.021.268-.037.398-.053.07-.008.134-.017.203-.021.21-.024.422-.049.633-.07.02-.003.037-.003.056-.003h.005l.316-.024c.28-.02.56-.037.84-.049.272-.012.544-.016.82-.016h.17a25.95 25.95 0 011.275.045 36.692 36.692 0 011.035.09c.117.016.23.029.349.04.341.045.681.094 1.018.15.037.009.078.013.114.021.073.013.142.029.215.04.337.062.674.13 1.01.207.09.021.183.045.272.065.232.057.459.118.686.183.073.016.146.04.22.06l.044.013c.073.02.154.04.232.065l.118.037c.291.089.588.186.877.292.029.008.056.02.085.032.078.024.154.053.232.081.121.045.24.089.36.137.057.021.114.04.17.065.143.053.289.113.431.175l.305.133c.32.142.64.288.958.442.029.01.053.026.077.037z" fill="#B9D79E"/><path d="M27.386 17.256v.004c-.028-.008-.057-.013-.09-.02.03.004.057.012.09.016zm20.67 4.046c-.013-.005-.02-.012-.032-.016a22.848 22.848 0 00-1.141-.543l-.082-.037a31.83 31.83 0 00-.73-.308c-.264-.105-.527-.21-.795-.308-.049-.016-.102-.037-.15-.053l-.35-.122a18.993 18.993 0 00-.819-.263c-.138-.04-.28-.08-.418-.121a6.636 6.636 0 00-.28-.078c-.073-.02-.146-.036-.219-.056-.012-.005-.024-.008-.032-.013-.227-.06-.455-.113-.682-.166-.11-.024-.219-.048-.328-.07a7.713 7.713 0 00-.54-.104 7.692 7.692 0 00-.523-.094c-.183-.032-.37-.06-.556-.089.032-.121.069-.242.113-.36a5.575 5.575 0 01.373-.875c.046-.094.098-.186.151-.275a2.13 2.13 0 01.122-.199 3.01 3.01 0 01.17-.255c.073-.11.15-.21.231-.316l.012-.013c.085-.105.17-.207.264-.308a3.878 3.878 0 01.285-.291c.097-.097.194-.19.3-.275a2.47 2.47 0 01.203-.17c.069-.057.142-.11.215-.162.085-.061.17-.121.26-.178.028-.02.057-.037.086-.056.08-.049.162-.102.247-.146a6.29 6.29 0 01.698-.345c.276-.113.56-.21.852-.287a6.28 6.28 0 01.28-.064c.045-.009.09-.021.138-.025.11-.024.223-.04.337-.056.17.32.332.647.487.98a22.943 22.943 0 011.853 6.117z" fill="#326827"/><path d="M27.297 17.24c.032.007.06.012.089.02v-.005c-.033-.003-.06-.011-.09-.016zM15.95 34.663zm2.934 15.362a1.188 1.188 0 00-.118-.08c.154.096.304.198.45.31a7.704 7.704 0 00-.332-.23zm6.7 8.902a5.66 5.66 0 00-.183.142c.086-.065.17-.13.26-.194-.024.016-.053.032-.077.052zm1.713-41.689c.032.008.06.013.089.021v-.005c-.033-.003-.06-.011-.09-.016zm1.68 34.334zm4.278 7.817zm-.699-.24zm7.432.24h-.004c-.105.02-.21.04-.312.069.252-.057.507-.102.767-.134-.151.016-.3.032-.451.065zM27.297 17.24c.032.007.06.012.089.02v-.005c-.033-.003-.06-.011-.09-.016z" fill="#0A170B"/><path d="M49.951 24.263l-.134-1.968a24.57 24.57 0 00-2.143-7.788c-.045-.097-.089-.194-.138-.288a24.859 24.859 0 00-3.238-5.075c-.186-.23-.382-.457-.576-.68a8.504 8.504 0 00-.264-.287c-.146-.162-.292-.32-.442-.478l-.333-.345h-.012l-.28-.279a25.07 25.07 0 00-4.98-3.763A24.75 24.75 0 0029.754.465s-.003.005-.008 0a25.097 25.097 0 00-3.69-.437 58.642 58.642 0 00-.794-.02 5.883 5.883 0 00-.666.004c-.032 0-.065 0-.097.004-.292.004-.58.013-.869.029a2.07 2.07 0 00-.227.013c-.37.02-.735.053-1.1.088-.053.005-.102.009-.154.017-.402.045-.808.097-1.206.161-.39.07-.775.142-1.16.223a25.113 25.113 0 00-10.24 4.784l-.365.295-.065.053c-.301.243-.588.495-.88.762-.151.129-.294.266-.443.405-.053.048-.105.101-.158.15-.394.38-.78.774-1.145 1.174a24.646 24.646 0 00-2.532 3.31h-.013l-.272.437c-.458.737-.88 1.515-1.262 2.308-.215.462-.414.912-.584 1.341a24.397 24.397 0 00-.95 2.798 25.855 25.855 0 00-.556 2.592l-.013.077-.073.487-.097.781-.118 1.965c-.003.223-.016.45-.016.668v.09c.005.98.086 1.96.227 2.936l.09.583c.007.037.015.078.02.114l.194.948c.028.12.049.234.081.36.243 1 .868 2.734 1.161 3.524.097.266.21.53.332.79l.2.408.328.68.008-.004c.032.065.07.138.105.202.04.09.09.175.138.264.134.247.268.49.423.749.08.137.158.275.223.377.077.137.162.27.227.364.08.138.17.275.264.414l.056.093c.179.272.361.538.552.798.045.07.09.134.126.178.098.134.195.272.301.405a.71.71 0 00.086.114c.11.15.223.295.333.43.162.21.328.416.49.607.09.113.179.218.273.324.142.166.288.333.425.474a29.066 29.066 0 001.818 1.863L4.57 65.069l.97.465c.276.137.56.271.832.392l.353.162c.446.199.93.406 1.432.608l.366.145c.556.223 1.05.406 1.498.56.406.15.832.29 1.298.437.272.089.544.174.775.239a38.099 38.099 0 002.09.579l.439.11c.11.023.215.048.325.072v.005l.609.137c.072.016.15.029.223.045 0 0 .727.15.86.174.062.013.122.03.184.037.117.024.344.065.352.065 0 0 1.388.226 1.429.23l.487.07c.73.102 1.395.174 2.046.231l.507.037c.089.008.178.012.267.016.09.008.178.013.264.02l.256.013c.097.008.194.013.291.02.305.013.613.03.921.038l.43.012c.187.004.375.004.556.004.118.004.232.008.345.008.577 0 1.1-.008 1.595-.029h.053l.033-.004c.06-.004.121-.004.178-.008.09 0 .178-.005.267-.013.037 0 .073 0 .106-.004.227-.008.454-.025.681-.037.143-.008.28-.02.423-.029.353-.024.702-.057 1.055-.094.207-.02.41-.04.617-.064l.309-.037.183-.024c.072-.008.145-.016.215-.029.134-.016.267-.037.398-.057.194-.024.385-.053.572-.085.032 0 .064-.008.097-.013.097-.012.194-.024.288-.04.345-.057.69-.118 1.03-.183.273-.048.55-.101.817-.158.089-.016.178-.037.264-.053l.349-.072c.016-.005.04-.008.053-.013.061-.013.118-.029.175-.04.11-.025.219-.053.328-.081.122-.025.244-.053.361-.086.273-.064.553-.126.825-.198a44.864 44.864 0 008.165-3.01l.986-.473-.877-4.95h-.005l-2.2-12.41v-.008l-.556-3.115h-.008l-.272-1.567c.008-.008.016-.013.024-.02l.053-.05c.009-.008.013-.012.021-.016.28-.267.646-.62.986-.98.09-.089.175-.178.256-.263.089-.09.17-.178.247-.264l.081-.089c.159-.174.318-.352.475-.53a7.52 7.52 0 00.223-.267 27.59 27.59 0 001.04-1.292l.093-.13a16.7 16.7 0 00.455-.631 32.429 32.429 0 00.56-.822.692.692 0 00.073-.114c.158-.242.309-.486.45-.725.122-.194.235-.397.358-.615a.57.57 0 00.029-.049c.06-.113.126-.223.17-.312l.029-.056a4.11 4.11 0 00.105-.194c.048-.086.089-.167.13-.247l.003.004.329-.68c0-.008.004-.013.008-.02v-.005l.004-.004a23.8 23.8 0 001.758-5.055l.21-1.061.038-.199c.044-.255.085-.514.11-.777.045-.417.11-1.077.13-1.478.023-.352.036-.701.036-1.053v-.09c0-.224-.008-.446-.012-.669zm-4.712-9.976c.045-.008.09-.02.138-.024.11-.024.223-.04.337-.056.17.32.332.647.487.98.905 1.952 1.526 4 1.855 6.115-.013-.005-.02-.012-.032-.016a22.848 22.848 0 00-1.141-.543l-.082-.037a31.83 31.83 0 00-.73-.308c-.264-.105-.527-.21-.795-.308-.049-.016-.102-.037-.15-.053l-.35-.122a18.993 18.993 0 00-.819-.263c-.138-.04-.28-.08-.418-.121a6.636 6.636 0 00-.28-.078c-.073-.02-.146-.036-.219-.056-.012-.005-.024-.008-.032-.013-.227-.06-.455-.113-.682-.166-.11-.024-.219-.048-.328-.07a19.718 19.718 0 00-.54-.104 7.692 7.692 0 00-.523-.094c-.183-.032-.37-.06-.556-.089.032-.121.069-.242.113-.36a5.575 5.575 0 01.373-.875c.046-.094.098-.186.151-.275a2.13 2.13 0 01.122-.199 3.01 3.01 0 01.17-.255c.073-.11.15-.21.231-.316l.012-.013a4.4 4.4 0 01.264-.308 3.878 3.878 0 01.285-.291c.097-.097.194-.19.3-.275a2.47 2.47 0 01.203-.17c.069-.057.142-.11.215-.162.085-.065.17-.121.26-.178.028-.02.057-.037.086-.056.08-.049.162-.102.247-.146a6.29 6.29 0 01.698-.345c.276-.113.56-.21.852-.287.092-.023.185-.043.278-.063zM20.085 2.132c.012-.004.02-.004.032-.004.187-.04.37-.077.556-.113a23.845 23.845 0 013.961-.385h.049l.037-.004h.097c.045-.005.085-.005.13-.005.08 0 .162 0 .271.005a23.866 23.866 0 013.584.316 23.296 23.296 0 017.8 2.774 23.333 23.333 0 014.294 3.187c-.004.005-.012.005-.016.009.118.101.232.214.345.324.324.308.633.628.918.944.008-.005.016-.005.024-.009.032.033.065.07.097.102l.028.032a21.21 21.21 0 01.751.866 22.39 22.39 0 011.818 2.54 8.077 8.077 0 00-1.81.628 7.715 7.715 0 00-.953.555c-.361.242-.703.51-1.019.81a10.11 10.11 0 00-2.362-1.11 10.13 10.13 0 00-7.764.631 10.216 10.216 0 00-2.382 1.685 7.94 7.94 0 00-2.573-.425 7.99 7.99 0 00-2.414.369 6.783 6.783 0 00-1.002.389c-.073.029-.143.065-.215.101-.106.053-.211.11-.313.167a9.481 9.481 0 00-.613-.66 8.082 8.082 0 00-5.211-2.236 10.158 10.158 0 00-5.402-7.25 23.32 23.32 0 019.257-4.233zm7.155 22.961h.004c.13.102.255.203.385.304l.105.09c.15.12.292.246.439.372.032.029.07.057.102.085.012.013.028.025.04.04.15.135.3.268.447.406.15.134.296.272.438.417.143.134.28.275.415.417.06.061.121.126.182.19.086.086.167.175.248.264.113.126.227.25.337.38.032.032.06.065.089.097.08.097.158.194.24.288.032.045.069.086.105.13.008.008.016.02.024.029.186.226.37.457.544.693.024.028.045.055.07.088.012.012.023.028.036.044l.061.087c.025.029.04.056.062.085.048.057.089.118.13.174a.076.076 0 01.015.025c.009.008.013.012.013.02.013.013.02.025.029.033.065.089.13.182.19.275a1.2 1.2 0 01.09.13c.036.048.07.096.102.145.045.064.089.134.134.202.053.077.102.154.15.23.065.106.134.216.2.32.036.058.072.119.117.203.09.146.175.291.251.446.07.134.138.271.2.409.02.045.04.085.056.129.057.121.11.25.159.377.008.024.02.048.024.077.032.073.061.15.086.226.024.073.044.142.069.215.036.11.07.218.097.333.016.06.032.117.044.178.04.15.078.3.105.453.005.013.005.025.009.037.028.134.048.267.069.405 0 .009.005.017.005.025a8.966 8.966 0 01.093 1.304c0 .093 0 .186-.004.28 0 .056-.004.109-.008.165l-.013.207c-.005.097-.016.194-.024.291a8.827 8.827 0 01-.325 1.624c0 .005-.005.008-.005.013a2.975 2.975 0 01-.085.271 4.502 4.502 0 01-.106.304l-.048.137c-.05.121-.098.24-.15.357l-.05.113c-.072.158-.15.312-.23.462l-.09.17c-.004.004-.004.008-.008.013-.057.105-.118.21-.183.311a8.702 8.702 0 01-1.408 1.77 8.513 8.513 0 01-1.112.92 9.096 9.096 0 01-1.028.628c-.003.005-.008.005-.016.008a9.726 9.726 0 01-.304.15 1.29 1.29 0 01-.167.078 3.34 3.34 0 01-.317.137c-.35.146-.71.267-1.075.365a9.089 9.089 0 01-2.342.304 9.9 9.9 0 01-.91-.045 3.57 3.57 0 01-.215-.03 2.993 2.993 0 01-.267-.036 1.75 1.75 0 01-.138-.02c-.102-.017-.199-.037-.3-.057a9.044 9.044 0 01-1.072-.288c-.13-.045-.26-.089-.386-.137a7.674 7.674 0 01-.178-.073c-.09-.037-.178-.073-.268-.118a2.742 2.742 0 01-.264-.121 8.272 8.272 0 01-.697-.377 6.248 6.248 0 01-.272-.166c-.024-.016-.049-.032-.073-.053a3.94 3.94 0 01-.264-.182 2.372 2.372 0 01-.199-.146 7.534 7.534 0 01-.52-.425 7.817 7.817 0 01-.69-.685 6.263 6.263 0 01-.345-.397c-.004-.004-.008-.013-.013-.016a8.746 8.746 0 01-.832-1.207l-.097-.178v-.004a9 9 0 01-1.002-5.623c.032-.243.077-.486.134-.729.02-.089.04-.177.065-.266a7.29 7.29 0 01.13-.45v-.004c0-.004 0-.004.004-.008a5.02 5.02 0 01.102-.3c.061-.17.126-.332.199-.49.053-.097.105-.198.158-.3.053-.101.11-.202.167-.3a20.177 20.177 0 01.982-1.575c.138-.199.276-.401.426-.6.106-.15.215-.295.329-.437a45.148 45.148 0 01.6-.75c.195-.234.394-.465.601-.696l.288-.308c.004-.005.008-.009.008-.013.037-.032.065-.07.098-.102.056-.056.11-.113.166-.166a.536.536 0 01.07-.073c.024-.024.045-.048.069-.069a7.52 7.52 0 01.345-.345c.105-.105.215-.21.325-.312l.113-.101c.021-.02.04-.04.065-.057.317-.292.641-.571.974-.842.03-.024.057-.048.086-.07.118-.096.24-.19.361-.282.126-.097.248-.194.377-.284.012-.008.02-.016.033-.024.113-.09.231-.17.35-.251.056-.045.113-.085.17-.126.072-.048.145-.101.218-.15.118-.077.232-.154.35-.23.186-.127.381-.248.576-.366.032-.02.065-.037.094-.056.028.016.053.028.077.045.122.077.251.153.377.234.04.024.078.053.118.077.016.008.029.021.045.03.057.036.11.072.167.109.178.117.353.234.527.357.054.036.106.077.159.113.175.126.345.25.52.38.044.038.093.074.137.11.013.009.03.021.04.033.03.02.058.05.09.073zm12.938 19.87a16.404 16.404 0 00-.682.215c-.17.061-.345.121-.511.19-.07.025-.138.053-.207.081-.13.057-.264.11-.394.17-.073.032-.15.07-.223.102-.122.056-.243.117-.366.178a6.86 6.86 0 00-.223.117 10.737 10.737 0 00-.568.32c-.127.073-.248.15-.374.231-.057.037-.118.073-.175.113a11.854 11.854 0 00-1.517 1.175l-.053.045a12.96 12.96 0 00-1.019 1.024 13.306 13.306 0 00-1.952 2.84c-.008-.005-.02-.005-.029-.005-.085-.017-.17-.037-.255-.053a12.79 12.79 0 00-.693-.11h-.004l-.102-.013a8.73 8.73 0 00-.458-.036h-.013c-.013 0-.024 0-.032-.005a3.94 3.94 0 00-.227-.008c-.028-.005-.057-.005-.086-.005h-.17c-.293 0-.58.017-.869.04a9.078 9.078 0 00-.864.126 9.041 9.041 0 00-4.132 1.973c-.003-.004-.003-.012-.008-.016a9.764 9.764 0 00-.463-.932 8.05 8.05 0 00-.11-.198 13.585 13.585 0 00-.62-.957 38.2 38.2 0 00-.305-.405 12.674 12.674 0 00-.374-.446 13.225 13.225 0 00-.39-.43 13.475 13.475 0 00-.414-.404 11.361 11.361 0 00-.41-.373c-.004 0-.008-.005-.016-.013a10.547 10.547 0 00-.442-.357c-.15-.117-.3-.23-.459-.34-.069-.049-.142-.097-.215-.146a9.2 9.2 0 00-.747-.457 7.192 7.192 0 00-.47-.251 1.16 1.16 0 00-.097-.053 9.387 9.387 0 00-.605-.268 13.635 13.635 0 00-.378-.154c0-.004-.004-.004-.004-.004a10.398 10.398 0 00-.487-.17 4.65 4.65 0 00-.459-.142 1.02 1.02 0 00-.11-.032c-.04-.016-.085-.024-.126-.037-.037-.008-.068-.016-.1-.02a.424.424 0 00-.073-.017 2.676 2.676 0 00-.243-.06c-.07-.014-.138-.03-.208-.046a4.32 4.32 0 00-.21-.04c-.143-.024-.285-.049-.426-.07a1.636 1.636 0 00-.203-.028c-.04-.005-.08-.013-.121-.016l-.22-.025c-.02 0-.036-.004-.056-.004a10.45 10.45 0 00-.872-.05h-.191c-.122 0-.244.004-.366.008-.02-.004-.045 0-.065 0-.194.009-.39.021-.584.037-.005 0-.005.005-.008.005-.187.016-.378.037-.568.06-.013.005-.03.005-.041.009a17.16 17.16 0 00-.597.097c-.292.057-.58.126-.868.207-.097.024-.191.06-.284.089-.186.056-.373.113-.56.178-.016.008-.037.012-.057.02v-.008l.89-4.998-.333-.3a27.696 27.696 0 01-1.128-1.086c.101-.024.202-.048.304-.069.515-.105 1.002-.19 1.502-.255.324-.045.654-.085.97-.113l.438-.037a22.584 22.584 0 013.272-.013c.053.11.105.223.162.333l.097.186c.6 1.097 1.38 2.082 2.326 2.916.093.08.186.162.284.239a10.533 10.533 0 001.457 1.007c.334.194.674.369 1.027.522.118.049.235.102.353.146.312.126.633.239.958.332.142.045.284.086.43.118a9.182 9.182 0 00.881.179 10.247 10.247 0 001.713.142c.126 0 .247-.004.373-.008.22-.008.434-.02.65-.04l.21-.025c.094-.008.191-.02.284-.037.162-.024.329-.053.49-.08.029-.005.054-.013.082-.017.345-.069.686-.153 1.023-.255a10.991 10.991 0 001.513-.587s.005-.004.009-.004c.15-.073.296-.146.442-.227.029-.012.053-.028.08-.04.147-.081.289-.166.431-.25.56-.341 1.088-.734 1.579-1.175a10.57 10.57 0 002.248-2.844l.162-.312.057-.12a23.192 23.192 0 013.315.012l.43.032c.33.033.658.073.991.122l.159.024a14.088 14.088 0 011.156.195c.057.008.118.02.175.032.097.02.194.045.291.065-.089.089-.174.174-.259.255l-.382.368c-.032.03-.065.053-.08.073-.106.097-.211.199-.318.291l-.337.3.45 2.557zM26.27 20.998c-.175.086-.353.17-.527.26l-.135.064-.037.02c-.142.078-.283.15-.422.227a1.058 1.058 0 00-.097.053c-.024.013-.044.02-.07.032h-.008c-.02-.012-.045-.02-.064-.032-.175-.097-.345-.186-.52-.28-.057-.028-.118-.056-.175-.085-.174-.089-.35-.174-.523-.259-.061-.028-.118-.056-.178-.085-.045-.02-.086-.04-.13-.061a16.967 16.967 0 00-.401-.178c-.062-.029-.122-.053-.183-.08a18.522 18.522 0 00-.54-.224c-.06-.024-.118-.048-.178-.069-.126-.048-.251-.097-.382-.145-.056-.021-.113-.046-.17-.065a7.225 7.225 0 00-.175-.061 4.235 4.235 0 00-.199-.07 10.734 10.734 0 00-.532-.178c-.158-.049-.32-.102-.479-.15-.037-.013-.07-.021-.105-.033-.049-.012-.102-.029-.15-.04-.098-.029-.191-.053-.289-.081l-.317-.086a.424.424 0 00-.073-.016c-.02-.004-.04-.012-.06-.016a25.734 25.734 0 00-.63-.154c-.037-.008-.07-.012-.106-.02a19 19 0 00-.661-.138l-.073-.012-.33-.061a10.54 10.54 0 00-.373-.065h-.012a21.08 21.08 0 00-1.145-.154 21.11 21.11 0 00-1.684-.13 21.897 21.897 0 00-1.03-.023 25.1 25.1 0 00-2.196.101c-.016.005-.037.005-.057.005-.251.024-.503.053-.754.085h-.013c0-.005.004-.005.004-.008a7.477 7.477 0 01.426-.729l.048-.069a5.41 5.41 0 01.2-.271l.06-.078c.065-.08.135-.162.208-.239a.303.303 0 01.069-.08c.044-.05.089-.098.138-.146a6.332 6.332 0 011.064-.879 3.24 3.24 0 01.317-.199 6.51 6.51 0 01.374-.203c.101-.048.199-.097.3-.137.106-.045.207-.09.317-.13l.037-.012a6.604 6.604 0 011.117-.296h.012a5.013 5.013 0 01.524-.07c.06-.004.117-.007.174-.012.049-.004.094-.004.142-.008.078-.003.159-.003.236-.003.089 0 .182.003.271.008.082 0 .167.008.248.016h.016a6.571 6.571 0 01.593.077c.086.013.17.033.256.049l.054.012c.072.016.142.033.215.053l.134.037c.07.02.134.04.199.061l.28.097.243.097c.016.009.029.013.045.021.081.032.162.07.24.105a5.993 5.993 0 011.245.79 5.302 5.302 0 01.437.385l.004.004c.07.07.138.138.203.207l.004.004a.065.065 0 01.017.021c.117.121.223.243.328.377.049.056.094.117.138.177.057.073.11.146.162.223l.442.656.016.025.35-.243.329-.227a3.81 3.81 0 01.271-.177c.094-.057.183-.114.28-.167.025-.012.05-.028.073-.04a6.08 6.08 0 01.297-.15c.121-.061.25-.113.377-.166.13-.049.26-.097.39-.138a5.824 5.824 0 01.764-.199c.008 0 .016-.004.024-.004.118-.02.24-.04.357-.057.021 0 .037-.004.053-.004a6.198 6.198 0 011.153-.037c.094.005.19.008.284.024a3.312 3.312 0 01.458.061c.065.009.13.021.195.037.028.005.056.013.089.017v.004c.13.024.26.061.39.097.126.032.247.073.373.121.102.033.203.073.305.118.048.02.097.04.142.061.097.04.19.081.28.134.037.016.073.032.11.053.053.029.11.057.162.089.004.005.008.005.012.008a5.357 5.357 0 01.415.252c.13.085.255.178.377.271a.61.61 0 01.077.065 4.064 4.064 0 01.322.271c.121.11.24.227.35.349.064.065.125.13.182.199-.024.004-.045.012-.07.016-.044.012-.088.02-.134.032-.202.053-.406.11-.605.166-.048.013-.101.029-.154.04-.194.062-.39.122-.58.183a18.143 18.143 0 00-.735.247l-.17.061c-.186.07-.369.138-.551.21a2.669 2.669 0 00-.179.07c-.056.024-.118.048-.174.073a21.4 21.4 0 00-.37.15c-.056.028-.118.053-.178.08-.178.078-.357.159-.531.24-.066.025-.123.053-.184.081zm4.023-4.273c-.041-.024-.078-.048-.119-.069a8.56 8.56 0 011.519-.988 8.545 8.545 0 013.9-.948A8.592 8.592 0 0140 15.943l-.085.121a7.697 7.697 0 00-.86 1.645 7.72 7.72 0 00-.305.972 22.626 22.626 0 00-1.9-.078c-1.294 0-2.585.106-3.855.309h-.013a5.066 5.066 0 00-.345.06 5.605 5.605 0 00-.259-.351 7.674 7.674 0 00-1.262-1.3 8.104 8.104 0 00-.823-.596zM1.915 21.241c.025-.17.07-.433.102-.644a13.868 13.868 0 01.389-1.807c.248-.903.544-1.782.889-2.62.162-.405.345-.826.547-1.252a23.411 23.411 0 013.811-5.662c.385-.422.795-.838 1.214-1.231.138-.13.267-.255.414-.385.053-.048.102-.093.154-.134a8.548 8.548 0 015.158 6.197 8.073 8.073 0 00-6.388 5.4 22.468 22.468 0 00-1.271.291l-.048.013c-.43.113-.86.234-1.282.373l-.005.004c-.827.264-1.643.571-2.44.924-.032.013-.064.029-.097.045-.39.174-.775.357-1.157.55l.01-.062zm-.154 5.958c-.004-.02-.004-.045-.008-.065a.705.705 0 01-.008-.097 14.982 14.982 0 01-.061-.615c-.004-.078-.012-.159-.016-.24a17.689 17.689 0 01-.037-.663 18.424 18.424 0 01-.008-.498v-.09c0-.145 0-.29.008-.44 0-.025 0-.053.003-.078-.003-.13 0-.259.008-.389.009-.247.025-.502.041-.753.061-.037.126-.073.19-.11.062-.037.122-.069.184-.105.053-.029.11-.056.162-.085a9.968 9.968 0 01.466-.243c.167-.085.332-.17.504-.25.04-.021.08-.037.118-.057.056-.029.117-.057.174-.081.126-.061.256-.118.386-.174.02-.008.04-.021.064-.029.203-.089.41-.174.617-.259h.004c.223-.089.45-.174.678-.255l.455-.158c.105-.037.21-.07.317-.105.357-.114.714-.223 1.075-.32.008-.005.02-.008.032-.013.008 0 .017-.004.025-.004.187-.053.377-.097.563-.142l.13-.037c.126-.029.247-.057.369-.081.024-.008.053-.013.077-.02.065-.013.13-.025.2-.041.08-.016.166-.037.25-.053l.326-.057a6.63 6.63 0 00.341-.06c.016 0 .036-.005.053-.009.061-.008.126-.02.187-.032.069-.013.137-.021.207-.03.085-.015.166-.023.25-.036.05-.004.098-.008.147-.016.07-.008.134-.016.202-.02.118-.017.24-.033.358-.046.089-.008.183-.02.275-.024.021-.004.037-.004.057-.004h.005l.316-.024c.048-.003.093-.008.142-.012.231-.017.466-.03.698-.037.272-.013.544-.016.82-.016h.17a25.944 25.944 0 011.275.044 29.966 29.966 0 011.034.09c.118.017.232.03.35.04.34.046.681.094 1.018.15.037.009.077.013.113.021.073.013.143.03.216.041.336.061.673.13 1.01.207.09.02.183.045.272.064.231.057.458.118.686.183.073.016.146.04.219.06l.045.014c.073.02.154.04.231.064l.118.037c.292.089.588.186.877.292.03.008.057.02.086.032.077.025.154.053.231.081.122.045.24.09.361.138.057.02.114.04.17.065.143.052.289.113.43.174l.305.134c.32.142.641.287.958.44.025.013.05.03.074.041-.04.025-.077.057-.118.081-.341.227-.678.462-1.006.705-.021.016-.041.032-.062.045-.312.234-.62.478-.92.725l-.232.19c-.013.008-.021.017-.03.025-.012.012-.023.02-.032.032a.066.066 0 00-.02.016 9.863 9.863 0 00-.897.794 22.062 22.062 0 00-.848.839c-.037.037-.073.07-.11.105-.118-.037-.232-.073-.35-.101a10.07 10.07 0 00-.462-.134c-.154-.04-.31-.081-.467-.118a6.454 6.454 0 00-.398-.097 17.594 17.594 0 00-1.193-.247 3.61 3.61 0 00-.21-.04c-.211-.037-.423-.07-.634-.102a17.757 17.757 0 00-.654-.086c-.024-.004-.048-.004-.072-.008a29.02 29.02 0 00-1.027-.105c-.288-.02-.572-.037-.856-.045l-.333-.012c-.113-.005-.227-.005-.336-.008-.289-.005-.577 0-.865.004-.093.005-.186 0-.28 0-.17.008-.341.013-.515.024 0 .005.004.005.004.005-.191.012-.378.02-.568.032l-.455.037c-.251.024-.504.061-.751.094 0-.005-.005-.005-.005-.009-.008 0-.012.004-.02.004l-.272.037c-.264.037-.524.073-.792.118a5.99 5.99 0 01-.28.053c-.094.016-.19.032-.288.053a.803.803 0 00-.094.016c-.053.012-.105.02-.158.032-.024.008-.049.013-.078.02a18.9 18.9 0 00-1.222.293c-.154.037-.3.077-.422.113a7.15 7.15 0 00-.474.138l-.317.097c-.162.053-.329.11-.488.166-.263.089-.527.186-.775.283-.272.101-.552.215-.876.352a3.167 3.167 0 00-.183.078l-.154.067zm1.9 6.043c-.07.02-.135.04-.203.065-.097-.215-.187-.433-.276-.648a22.462 22.462 0 01-.791-2.309 26.802 26.802 0 01-.361-1.486c.089-.045.182-.085.283-.134.021-.008.045-.016.07-.029a.026.026 0 01.016-.008l.118-.056.223-.094.057-.024a2.63 2.63 0 01.158-.065c.04-.016.081-.037.118-.053.03-.008.057-.02.086-.032l.406-.158a25.574 25.574 0 011.355-.474l.191-.056v-.005c.113-.032.227-.07.357-.101.13-.037.256-.073.394-.106.203-.053.398-.101.589-.145.11-.029.219-.053.324-.077a8.32 8.32 0 01.313-.07c.515-.105 1.006-.19 1.501-.255.326-.045.654-.085.97-.113l.098-.008.336-.029a30.609 30.609 0 011.205-.057c.086 0 .17-.005.256-.005.073 0 .142 0 .21-.004.074-.005.146-.005.216-.005a.414.414 0 00.08.005c.106 0 .211 0 .318.004l.341.013c.235.008.48.02.722.037v.004c.053 0 .106.005.159.008.398.029.8.073 1.197.126l.28.037c.162.024.325.053.487.077.135.02.268.045.402.07l.073.012a18.109 18.109 0 01.998.206c.199.049.393.094.589.146.121.029.243.061.365.093-.024.03-.045.062-.069.09a5.74 5.74 0 00-.159.198h.004c-.089.11-.178.223-.264.336-.048.057-.089.11-.134.166-.045.057-.085.114-.13.17-.202.272-.401.547-.592.826a16.65 16.65 0 00-.272.365h-.008c-.029.04-.053.08-.078.118a4.83 4.83 0 00-.162.234c-.065.102-.134.202-.199.308a5.313 5.313 0 00-.154.264c-.032.053-.069.105-.097.158-.032.056-.057.118-.089.174a6.734 6.734 0 00-.142.276c-.045.09-.094.183-.135.275-.032.07-.064.142-.093.21l-.004.008c-.065.122-.13.24-.186.357l-.2-.024a7.843 7.843 0 00-.308-.032c-.178-.021-.35-.037-.528-.053-.016 0-.037-.005-.053-.005a27.563 27.563 0 00-.921-.057c-.094-.004-.186-.012-.276-.016l-.378-.012c-.17 0-.336-.005-.507-.005-.373 0-.742.013-1.115.029-.122.005-.243.016-.366.02-.248.017-.499.033-.746.054-.143.012-.284.032-.426.048-.227.025-.45.049-.674.078-.154.02-.304.044-.455.069-.215.032-.43.069-.64.105-.155.029-.31.061-.459.089-.21.045-.422.089-.629.137a9.52 9.52 0 00-.458.11c-.207.053-.414.105-.617.162-.154.045-.304.085-.454.13-.208.064-.41.129-.617.193-.148.049-.295.097-.44.15zm3.85 6.433c-.016-.025-.036-.045-.052-.065a6.144 6.144 0 01-.236-.28c-.162-.19-.316-.384-.479-.587-.105-.134-.21-.272-.312-.41l-.057-.076a11.587 11.587 0 01-.316-.425.657.657 0 01-.077-.11l-.029-.04a13.56 13.56 0 01-.512-.742l-.064-.097a13.034 13.034 0 01-.248-.393 3.368 3.368 0 01-.194-.316c-.065-.097-.122-.194-.187-.304-.016-.028-.032-.06-.053-.093-.134-.227-.26-.454-.394-.697-.028-.056-.06-.113-.105-.202-.008-.02-.02-.04-.029-.056l.09-.037c.134-.045.267-.086.397-.13.195-.06.386-.12.58-.182.138-.04.285-.08.426-.118.187-.053.374-.101.56-.15.146-.037.292-.069.439-.101.19-.045.377-.086.568-.122.146-.032.292-.06.439-.085.194-.037.385-.065.58-.097.145-.02.288-.045.43-.061.207-.029.41-.053.613-.073.138-.016.272-.032.41-.045.227-.02.455-.032.681-.049.114-.003.227-.016.345-.02.342-.016.687-.024 1.031-.024.41 0 .816.016 1.222.036.094.005.187.008.28.017a19.651 19.651 0 011.222.11c-.04.198-.08.396-.113.599l-.036.271c-.013.085-.02.166-.029.25-.008.065-.016.13-.02.195-.012.105-.02.206-.029.312a9.888 9.888 0 00-.016.494c-.003.065-.008.13-.008.194 0 .992.142 1.975.41 2.923a23.343 23.343 0 00-2.776.053l-.455.037c-.353.032-.706.077-1.047.126a23.98 23.98 0 00-1.611.271c-.398.088-.803.186-1.238.299zM43.069 61.24l.515 2.896-.942.438a31.59 31.59 0 01-1.123.482c-.272.113-.544.226-.82.328-.32.129-.64.25-.966.364a44.784 44.784 0 01-2.119.722 36.55 36.55 0 01-.544.166l-.13.037-.206.061-.897.243-.532.134-.336.085-.167.037c-.004 0-.008 0-.013.005a8.592 8.592 0 01-.56.129c-.008 0-.016.004-.024.004l-.093.021c-.106.02-.211.045-.317.065-.013.004-.021.004-.033.008-.167.037-.329.069-.49.097-.167.032-.333.061-.496.093-.267.053-.536.097-.803.142l-.07.013-.024.003a.487.487 0 01-.061.013c-.012 0-.024 0-.037.005-.013 0-.02.004-.032.004-.41.073-.824.126-1.247.183-.012 0-.02.004-.032.004l-.45.057-.224.028a3.4 3.4 0 01-.283.03 27.127 27.127 0 01-1.308.121c-.137.012-.28.02-.417.028a19.01 19.01 0 01-.662.037l-.276.013-.312.012c-.447.02-.913.029-1.421.029h-.277c-.21 0-.422-.004-.637-.004h-.049c-.194-.009-.39-.013-.584-.021l-.243-.008h-.07c-.219-.008-.438-.016-.657-.033a29.119 29.119 0 01-.654-.045l-.186-.012-.504-.04c-.324-.03-.649-.062-.966-.094-.003.005-.008.005-.016 0l-.458-.061h-.025c-.158-.02-.32-.04-.474-.061l-.48-.073-.077-.008c-.012 0-.02 0-.032-.004l-.706-.11c-.118-.02-.232-.036-.35-.06l-.344-.065-.005.004-.15-.028-.061-.013c-.187-.032-.374-.07-.56-.105a3.23 3.23 0 01.159-.773c.023-.08.052-.162.084-.243.046-.105.09-.21.143-.311a2.61 2.61 0 01.138-.248c.064-.113.142-.218.218-.324.07-.089.143-.174.216-.259.077-.08.154-.162.24-.239.06-.053.12-.105.186-.158.045-.037.093-.077.145-.113a2.42 2.42 0 01.208-.138c.069-.045.142-.089.218-.125.005-.005.008-.005.013-.009.044-.024.09-.044.134-.069l.033-.012a.582.582 0 01.089-.04.995.995 0 01.121-.054c.078-.032.154-.056.235-.085a3.724 3.724 0 01.65-.147 3.93 3.93 0 01.312-.028c.049-.005.094-.005.142-.005.105 0 .21.005.313.013.056 0 .113.008.166.016.053.004.106.012.159.02.073.013.146.03.218.045.09.017.175.04.26.07h.009c.085.024.17.053.256.089.077.028.154.06.227.093.073.037.145.073.218.113a3.903 3.903 0 01.507.332l1.015.793.033.025.25-1.3a6.915 6.915 0 01.463-1.475c.033-.07.062-.134.094-.199l.037-.073c.037-.08.078-.153.122-.23a5.93 5.93 0 01.56-.863c.175-.231.36-.45.564-.656.078-.081.159-.162.244-.24a6.04 6.04 0 01.617-.506c.097-.072.198-.141.3-.21.11-.069.219-.137.333-.202.073-.04.143-.08.216-.117a.402.402 0 01.06-.033c.021-.012.046-.024.066-.037.064-.032.13-.063.199-.092.064-.033.13-.061.194-.09a3.63 3.63 0 01.26-.1c.215-.086.433-.159.657-.216.061-.016.121-.032.183-.044a5.165 5.165 0 01.568-.113c.121-.021.243-.038.365-.046.122-.016.248-.024.374-.028.09-.008.183-.008.272-.008a8.223 8.223 0 01.654.028l.24.025.069.012c.117.013.235.032.349.053l.118.024.215.049c.094.02.187.045.276.07a5.13 5.13 0 011.38.563h.004c.13.064.255.137.381.218.102.056.195.121.292.194a6.778 6.778 0 011.067.919c.308.325.585.68.828 1.065l.511.806.013.02.718-.668c.081-.077.167-.15.256-.218.227-.186.467-.352.722-.494a3.6 3.6 0 01.288-.146 4.04 4.04 0 01.345-.15c.062-.029.122-.048.187-.07a1.96 1.96 0 01.227-.072c.113-.032.227-.065.345-.089a4.997 4.997 0 01.877-.118c.069-.004.137-.004.207-.004a5.258 5.258 0 01.747.05c.064.007.133.02.198.032.122.02.248.045.366.077.056.016.113.029.17.048.14.033.274.076.404.129zm-1.58-8.902l.33 1.839v.004l.933 5.273c-.012-.004-.02-.004-.032-.009a5.045 5.045 0 00-.224-.044 3.166 3.166 0 00-.186-.033 3.28 3.28 0 00-.207-.029c-.07-.012-.138-.016-.207-.024a3.882 3.882 0 00-.32-.024 6.247 6.247 0 00-.39-.013c-.078 0-.15 0-.227.005-.163.008-.33.02-.491.037-.008 0-.02 0-.028.004-.26.032-.515.077-.767.134a.648.648 0 00-.126.032 3.694 3.694 0 00-.216.057l-.085.024a8.225 8.225 0 00-.552.195c-.032.013-.065.029-.097.04-.11.046-.216.094-.32.146-.095.045-.187.09-.277.142a4.625 4.625 0 00-.37.215 7.972 7.972 0 00-.288.19l-.012-.012a7.75 7.75 0 00-1.124-1.171 8.004 8.004 0 00-.296-.247c-.004 0-.008-.005-.013-.008a1.405 1.405 0 00-.512-.37c-.086-.056-.17-.113-.26-.166a2.191 2.191 0 00-.183-.11 5.19 5.19 0 00-.333-.182.311.311 0 00-.08-.04 3.673 3.673 0 00-.346-.166.682.682 0 00-.093-.045h-.004c-.008-.005-.02-.008-.029-.013a8.617 8.617 0 00-.304-.126l-.032-.012a7.742 7.742 0 00-1.08-.337 5.747 5.747 0 00-.296-.064c-.04-.008-.09-.02-.135-.024a2.408 2.408 0 00-.186-.033 5.666 5.666 0 00-.382-.056h-.016a5.073 5.073 0 00-.357-.033l-.159-.012a10.233 10.233 0 00-.495-.013c-.102 0-.207 0-.308.008a8.444 8.444 0 00-1.71.244c-.085.02-.17.045-.255.069a7.406 7.406 0 00-.333.102 7.182 7.182 0 00-.584.214c-.426.17-.832.377-1.222.616a8.172 8.172 0 00-.276.174c-.089.061-.178.121-.268.186-.09.065-.175.13-.26.194a7.076 7.076 0 00-.503.425 8.737 8.737 0 00-.418.409 8.44 8.44 0 00-1.907 3.143l-.032-.013c-.07-.032-.138-.065-.207-.093a3.072 3.072 0 00-.211-.081 4.195 4.195 0 00-.224-.078 5.072 5.072 0 00-.905-.203c-.064-.008-.125-.016-.19-.02-.086-.008-.17-.017-.26-.021a7.023 7.023 0 00-.304-.008c-.073 0-.146 0-.215.005a5.8 5.8 0 00-.475.044 4.724 4.724 0 00-.892.203c-.073.02-.146.044-.215.072a4.228 4.228 0 00-.528.228c-.04.016-.077.037-.113.056a2.384 2.384 0 00-.17.094 4.672 4.672 0 00-.337.206c-.065.045-.13.09-.191.138a5.268 5.268 0 00-1.42 1.564c-.04.069-.081.137-.118.206-.04.07-.078.142-.11.215a4.415 4.415 0 00-.215.506 5.394 5.394 0 00-.272 1.11l-.037-.008-.345-.09c-.475-.112-.97-.246-1.624-.437-.121-.032-.235-.07-.393-.118-.248-.069-.495-.15-.755-.234-.45-.142-.856-.275-1.254-.422-.434-.15-.905-.324-1.433-.534l-.365-.146a43.46 43.46 0 01-1.368-.58l-.35-.161c-.218-.102-.438-.199-.661-.312l2.597-14.633.032-.175.178-.085c.086-.04.17-.077.256-.113.13-.053.26-.105.394-.154.085-.032.166-.065.25-.093.147-.049.293-.094.44-.138.077-.02.15-.045.223-.065.223-.06.446-.113.673-.158.178-.032.353-.065.531-.085.15-.025.301-.04.45-.053.029-.008.057-.007.086-.012l.361-.025a9.92 9.92 0 01.491-.013h.167c.077 0 .15.004.223.008.097 0 .19.005.284.013l.17.013a10.395 10.395 0 011.677.288 10.78 10.78 0 011.403.484c.094.037.183.078.268.122.093.04.178.08.267.13.094.044.186.093.28.15.09.04.175.088.26.141.008.005.012.005.016.013.134.073.264.153.393.239 0 0 .005.008.008.008.154.097.305.2.45.313.114.08.227.166.337.258.017.013.033.025.049.04.065.05.13.098.19.155a.74.74 0 01.09.077c.105.089.207.182.309.28.037.032.073.064.11.104.032.03.07.062.101.102.041.037.086.08.122.126.094.093.183.186.268.283.13.137.25.283.365.43a9.686 9.686 0 01.986 1.49c.073.13.138.259.203.393.012.024.024.045.032.07.053.112.106.226.15.34.013.02.021.037.025.056.032.065.061.134.08.199.058.13.106.263.151.397l.012.032v.005l.085.267.418 1.352.008.025.596-.673.362-.405a7.381 7.381 0 014.517-2.43 6.971 6.971 0 011.616-.06c.142.007.28.023.418.044h.016c.065.008.126.016.19.029.082.012.163.024.244.045a2.943 2.943 0 01.292.061c.186.04.369.093.551.15l.662.21.03.008.295-.66a11.684 11.684 0 011.985-3.054c.288-.324.593-.631.905-.911l.053-.049c.134-.12.272-.234.41-.348.142-.113.288-.231.438-.34.122-.09.248-.175.37-.26.126-.085.25-.166.377-.242a12.312 12.312 0 01.91-.515c.048-.024.096-.045.145-.07.13-.064.264-.125.394-.185.11-.057.227-.106.34-.146.009-.004.013-.004.02-.008.017-.008.03-.016.046-.02l.024-.013a.232.232 0 01.073-.024c.256-.102.523-.191.787-.272.016-.004.037-.012.057-.016.011-.005.024-.008.037-.013l.896 5.059v.003l.133.711zm4.295-17.521l-.02.036a2.255 2.255 0 01-.078.146l-.053.093c-.045.094-.097.183-.162.3-.013.025-.03.05-.03.05a19.119 19.119 0 01-.763 1.263l-.06.089v.008c-.121.182-.243.368-.385.575-.03.048-.062.089-.114.158-.142.202-.284.405-.442.615l-.094.126a24.305 24.305 0 01-.981 1.223 5.564 5.564 0 01-.227.267c-.008-.004-.016-.004-.024-.008l-.719-.174a46.753 46.753 0 01-.487-.11c-.21-.045-.422-.08-.625-.117a14.998 14.998 0 00-.536-.09l-.07-.012c-.125-.02-.247-.037-.368-.053-.118-.016-.232-.032-.35-.045h-.004l-.284-.037c-.142-.016-.284-.029-.43-.045l-.45-.037a24.029 24.029 0 00-2.793-.053c.049-.174.097-.356.142-.538.005-.02.013-.045.017-.07.012-.044.02-.088.029-.133a10.71 10.71 0 00.22-1.527c.012-.126.015-.247.02-.373.004-.13.008-.255.008-.384 0-.264-.013-.523-.029-.782-.003-.032-.008-.061-.008-.094-.008-.101-.016-.206-.029-.312a9 9 0 00-.061-.445v-.008a9.547 9.547 0 00-.121-.66c.02-.005.04-.005.06-.009.39-.045.78-.08 1.17-.11l.263-.012c.203-.013.407-.02.61-.029.137-.004.276-.008.413-.008.065-.004.134-.004.2-.004h.242c.159 0 .317 0 .475.008.105 0 .207.004.312.008.065.004.135.004.2.008.072.004.145.012.218.016.333.02.666.045.994.077.13.013.26.03.39.045.276.033.557.073.832.114.134.02.269.044.406.069.28.048.56.101.836.161.122.025.243.049.361.078a22.926 22.926 0 011.177.3c.385.11.767.234 1.144.365.03.008.057.02.086.029-.008.02-.02.035-.028.052zm.73-1.52a.07.07 0 00-.028-.007l-.159-.057c-.154-.053-.312-.105-.47-.158l-.58-.182c-.163-.045-.321-.094-.48-.134a13.95 13.95 0 00-.592-.158l-.106-.025a24.34 24.34 0 00-.979-.218c-.158-.032-.316-.065-.474-.093a1542.254 1542.254 0 01-.625-.102 21.087 21.087 0 00-.463-.07 12.735 12.735 0 00-.662-.077l-.11-.012-.11-.013-.218-.024c-.243-.02-.49-.037-.739-.053-.121-.005-.243-.016-.365-.02h-.016c-.366-.017-.73-.03-1.1-.03-.105 0-.21 0-.32.005-.11 0-.215.005-.325.008h-.094c-.049 0-.094.005-.142.005-.09.003-.183.012-.276.016h-.012c-.2.008-.398.02-.597.032-.114.008-.224.02-.337.029a24.255 24.255 0 00-.8.082l-.102.012c-.064.008-.13.013-.194.021-.065-.121-.13-.24-.191-.36-.016-.03-.032-.061-.049-.09a3.077 3.077 0 01-.089-.17c-.17-.311-.345-.62-.523-.915 0-.004-.004-.008-.008-.012 0-.005-.004-.009-.004-.013h-.004c-.04-.077-.086-.15-.13-.223-.11-.174-.219-.349-.332-.518-.09-.142-.183-.28-.276-.417a.745.745 0 00-.054-.073 20.851 20.851 0 00-.917-1.251c-.13-.166-.256-.328-.386-.49.127-.032.256-.07.386-.105.012 0 .024-.005.037-.008.085-.02.166-.045.247-.065.13-.032.26-.06.39-.093l.455-.097c.016-.005.032-.005.049-.008a15.7 15.7 0 01.8-.15c.093-.013.186-.025.275-.04a26.02 26.02 0 01.901-.122c.186-.02.374-.037.56-.057l.32-.024c.155-.013.313-.024.472-.029.04-.004.08-.008.121-.008.094-.004.187-.012.28-.012.288-.013.58-.021.868-.021a23.325 23.325 0 011.352.041c.065.004.13.008.194.016.07.005.135.008.195.017.122.008.248.016.37.028.161.013.324.024.486.045l.301.037c.049.008.097.016.146.02.024.009.048.009.073.013l.341.049.418.06c.183.033.361.074.544.106.175.037.345.07.515.105.07.013.134.024.199.04.186.046.37.094.556.143.178.045.36.093.543.145.049.008.094.024.143.037.053.016.11.032.162.049l.393.12c.224.074.447.147.67.224.183.064.366.134.549.202.218.085.438.17.657.259.097.045.199.089.296.13h.005c.08.036.158.072.24.104.109.049.218.102.328.154a.313.313 0 01.024.012 21.625 21.625 0 01-1.423 4.439zm1.819-7.816c-.005.126-.009.25-.017.376 0 .032-.004.061-.004.09-.004.096-.013.19-.02.287 0 .02 0 .04-.005.056a6.56 6.56 0 01-.033.398 12.05 12.05 0 01-.049.502.192.192 0 00-.028-.013c-.017-.008-.033-.016-.049-.02a.709.709 0 01-.077-.033c-.159-.069-.313-.13-.471-.194h-.004l-.024-.012a30.005 30.005 0 00-.763-.304 19.429 19.429 0 00-.531-.186c-.248-.086-.499-.17-.751-.247-.049-.016-.097-.033-.146-.045-.134-.04-.267-.081-.402-.118a15.565 15.565 0 00-.762-.202 5.707 5.707 0 00-.398-.097c-.049-.013-.102-.024-.154-.037-.26-.057-.52-.11-.78-.158a10.263 10.263 0 00-.486-.09l-.062-.012a23.007 23.007 0 00-.548-.08 5.986 5.986 0 00-.276-.041c-.008 0-.02-.005-.028-.005-.167-.02-.325-.044-.496-.06-.15-.017-.3-.033-.454-.046l-.138-.012c-.078-.004-.154-.013-.232-.016-.027-.005-.056-.005-.085-.009-.15-.008-.3-.024-.45-.032a14.88 14.88 0 00-.633-.024 9.94 9.94 0 00-.386-.008c-.118-.008-.235-.008-.353-.008-.325 0-.649.008-.974.02-.097.005-.199.013-.296.017h-.021c-.219.012-.438.024-.654.04l-.377.037a14.46 14.46 0 00-.588.061 6.683 6.683 0 00-.398.053c-.186.024-.374.049-.56.077l-.41.073a14.13 14.13 0 00-.54.097c-.137.029-.28.057-.417.09-.175.036-.35.076-.523.117l-.016.004a11.15 11.15 0 00-.407.102c-.024.004-.044.012-.069.02-.146.037-.292.078-.438.118-.143.04-.288.081-.434.126-.078.024-.154.045-.232.07-.016-.017-.029-.033-.045-.046l-.118-.117a17.065 17.065 0 00-.926-.899c-.04-.04-.085-.08-.13-.121-.206-.19-.417-.377-.632-.56l-.378-.316c-.158-.129-.32-.255-.482-.38l-.219-.17-.422-.312c-.159-.114-.32-.227-.483-.34a6.935 6.935 0 00-.251-.175c-.065-.04-.126-.09-.191-.13.024-.012.049-.028.073-.04.134-.065.267-.13.406-.19.053-.025.105-.05.159-.073.13-.062.263-.122.398-.178a22.095 22.095 0 011.266-.514l.308-.11a22.49 22.49 0 011.271-.405c.304-.086.609-.17.917-.243.085-.02.17-.045.255-.065.337-.077.678-.145 1.023-.206l.32-.061c.342-.057.682-.105 1.027-.15.114-.013.227-.025.342-.04l.247-.025c.03-.005.053-.005.081-.008.235-.02.471-.04.706-.057a26.583 26.583 0 011.29-.045h.155c.25 0 .503.005.767.016a19.228 19.228 0 01.56.03 9.8 9.8 0 01.354.02c.003 0 .011.004.015.004a8.887 8.887 0 01.386.033l.41.037c.04.004.081.013.122.017l.39.048.296.037c.012 0 .02.004.032.004l.215.036.366.06.162.026c.162.029.333.06.495.096l.07.012h.003c.086.021.17.04.256.057.053.013.105.024.154.033l.167.037c.045.008.089.02.137.033l.187.047c.113.029.227.057.341.09l.024.003c.138.032.276.072.415.113.077.02.15.045.227.065.036.012.072.02.11.032l.08.024c.033.013.07.025.102.033.086.024.167.05.248.078.061.016.118.037.174.056.078.03.154.056.232.08.07.025.142.049.21.078a19.703 19.703 0 01.84.312c.106.04.212.086.313.13.102.04.203.08.305.126.024.012.048.02.072.032.187.08.374.166.557.255.04.02.081.037.122.057.17.08.34.166.507.25.053.03.105.054.158.081.159.081.316.167.475.256.056.032.117.064.178.097.053.028.105.06.162.093.012.008.024.013.037.02.037.552.057 1.107.057 1.662v.09c0 .15-.004.304-.009.458z" fill="#0A170B"/><path d="M30.024 4.08a4.275 4.275 0 00-4.899 4.224c0 2.35 1.92 4.26 4.274 4.26a4.206 4.206 0 003.036-1.267 4.205 4.205 0 001.242-2.994 4.288 4.288 0 00-3.652-4.222zm1.255 6.08c-.49.506-1.16.785-1.88.785a2.65 2.65 0 01-2.65-2.64 2.652 2.652 0 013.036-2.621 2.658 2.658 0 012.268 2.62 2.59 2.59 0 01-.774 1.856z" fill="#0A170B"/><path d="M32.053 8.304a2.6 2.6 0 01-.775 1.855 2.598 2.598 0 01-1.88.785 2.65 2.65 0 01-2.65-2.64 2.652 2.652 0 013.036-2.621 2.66 2.66 0 012.27 2.621z" fill="#FFED80"/><path d="M43.044 10.172a21.152 21.152 0 00-.751-.866l-.028-.032c-.032-.032-.065-.07-.097-.102-.008.005-.016.005-.024.008a16.068 16.068 0 00-.918-.943c-.114-.11-.227-.223-.345-.325.004-.004.013-.004.016-.008a23.3 23.3 0 00-4.294-3.187 23.304 23.304 0 00-7.8-2.774 23.866 23.866 0 00-3.584-.317c-.11-.004-.19-.004-.272-.004-.044 0-.085 0-.13.004h-.097l-.037.005h-.048c-.366 0-.735.016-1.1.04-.194.013-.393.025-.592.04a23.908 23.908 0 00-2.27.305c-.186.036-.368.072-.555.113-.012 0-.02 0-.032.004a23.317 23.317 0 00-9.258 4.233 10.158 10.158 0 015.402 7.25 8.068 8.068 0 015.824 2.896c.102-.056.207-.113.313-.166.072-.037.142-.073.215-.101a6.916 6.916 0 011.002-.39 7.99 7.99 0 012.414-.368c.901 0 1.766.15 2.573.425a10.195 10.195 0 012.382-1.685 10.129 10.129 0 017.764-.632 10.12 10.12 0 012.362 1.11 7.81 7.81 0 011.019-.81c.304-.206.62-.392.953-.554a8.169 8.169 0 011.81-.628 22.203 22.203 0 00-1.817-2.54zM32.434 11.3a4.205 4.205 0 01-3.035 1.268c-2.354 0-4.273-1.912-4.273-4.261a4.275 4.275 0 014.898-4.224 4.289 4.289 0 013.652 4.225 4.205 4.205 0 01-1.241 2.992z" fill="#84CAEC"/><path d="M30.88 19.346c-.024.004-.045.012-.069.016-.045.013-.089.02-.134.032-.203.053-.406.11-.605.167-.049.012-.102.028-.154.04-.195.061-.39.121-.58.183a17.64 17.64 0 00-.735.247l-.17.06c-.186.07-.37.138-.552.211a2.42 2.42 0 00-.178.07l-.175.072c-.121.049-.243.097-.37.15-.056.029-.117.053-.177.08-.179.078-.358.16-.532.24l-.178.085c-.175.086-.353.17-.528.26l-.134.064-.037.02c-.142.078-.283.15-.422.227a1.036 1.036 0 00-.097.053l-.07.032h-.008c-.02-.012-.045-.02-.065-.032-.174-.097-.345-.186-.52-.28-.056-.028-.117-.056-.174-.085-.175-.089-.35-.174-.523-.259-.061-.028-.118-.056-.178-.085-.045-.02-.086-.04-.13-.061a17.15 17.15 0 00-.402-.178c-.06-.029-.121-.053-.182-.081-.179-.077-.358-.15-.54-.223-.061-.024-.118-.048-.178-.069l-.382-.146c-.057-.02-.113-.044-.17-.064a7.379 7.379 0 00-.175-.061 4.275 4.275 0 00-.199-.07 11.036 11.036 0 00-.532-.178c-.158-.049-.32-.102-.479-.15-.037-.013-.07-.021-.105-.033-.049-.012-.102-.029-.15-.04-.098-.03-.192-.053-.289-.081l-.317-.086a.433.433 0 00-.073-.016c-.02-.004-.04-.012-.061-.016a26.194 26.194 0 00-.63-.154c-.036-.008-.069-.012-.105-.02a18.548 18.548 0 00-.662-.138l-.073-.012-.328-.061a10.773 10.773 0 00-.374-.065h-.012c-.382-.061-.76-.113-1.145-.154-.56-.065-1.12-.11-1.684-.13a21.897 21.897 0 00-1.03-.023c-.736 0-1.466.036-2.196.101-.016.005-.037.005-.057.005a24.55 24.55 0 00-.755.085h-.012c0-.005.004-.005.004-.008a7.362 7.362 0 01.426-.729l.048-.07c.065-.093.13-.181.199-.27.02-.025.04-.053.061-.078a4.16 4.16 0 01.207-.239.305.305 0 01.07-.08 4.01 4.01 0 01.138-.146 6.332 6.332 0 011.064-.879c.097-.07.199-.13.3-.19a.031.031 0 01.017-.009 6.04 6.04 0 01.304-.166c.02-.013.044-.024.07-.037a6.02 6.02 0 01.3-.137c.106-.045.207-.09.317-.13l.037-.012a6.62 6.62 0 011.117-.296h.012a5.14 5.14 0 01.256-.04c.09-.013.178-.021.267-.03.062-.004.118-.007.175-.012.049-.004.094-.004.142-.008.078-.003.159-.003.235-.003.09 0 .183.003.272.008.081 0 .167.008.248.016h.016a6.579 6.579 0 01.593.077c.086.013.17.033.256.049a3.75 3.75 0 01.268.066l.135.036c.07.02.134.04.199.061l.28.097.243.097.045.021c.081.032.162.07.24.105a5.995 5.995 0 011.245.79 6.001 6.001 0 01.437.385l.004.004c.07.07.138.138.203.207l.004.004a.059.059 0 01.016.021c.118.121.224.243.33.377.048.056.093.117.137.177.057.073.11.146.162.223l.442.656.016.025.35-.243.328-.226c.09-.065.179-.122.272-.178.094-.057.183-.114.28-.167.025-.012.049-.029.073-.04a5.99 5.99 0 01.296-.15c.122-.061.252-.113.378-.166.13-.049.26-.098.39-.138a5.84 5.84 0 01.764-.199c.007 0 .015-.004.024-.004.118-.02.24-.04.357-.057.02 0 .037-.004.053-.004a6.283 6.283 0 01.792-.05c.121 0 .24.005.36.013.098.005.192.013.285.024a3.315 3.315 0 01.458.061c.065.008.13.021.194.037l.09.02c.13.03.26.062.39.098a6.492 6.492 0 01.677.239c.049.02.098.04.143.061.097.04.19.081.28.134.037.016.073.032.11.053.053.029.11.057.162.089.004.005.008.005.012.008a8.593 8.593 0 01.415.252c.13.085.255.178.377.271.029.02.053.04.077.065a5.302 5.302 0 01.671.62c.06.06.12.126.178.195z" fill="#7CAF5F"/><path d="M40 15.944c-.03.04-.057.08-.086.12-.057.086-.114.17-.167.256a7.971 7.971 0 00-.999 2.362 22.58 22.58 0 00-1.898-.078 24.33 24.33 0 00-3.856.309h-.013a5.19 5.19 0 00-.345.06 5.633 5.633 0 00-.259-.351 7.677 7.677 0 00-1.262-1.3 8.029 8.029 0 00-.824-.597c-.04-.024-.078-.048-.118-.069a8.57 8.57 0 011.518-.988 8.546 8.546 0 013.9-.948 8.593 8.593 0 014.408 1.223zm-25.406-2.24a8.074 8.074 0 00-6.388 5.4 22.468 22.468 0 00-1.271.291l-.048.013c-.43.113-.86.234-1.283.373l-.004.004a23.855 23.855 0 00-2.537.969c-.39.174-.775.357-1.157.55l.008-.06c.025-.17.07-.433.102-.645a13.85 13.85 0 01.39-1.806 22.46 22.46 0 01.888-2.62c.162-.405.345-.826.547-1.252a23.413 23.413 0 013.811-5.662c.386-.422.795-.839 1.214-1.231.138-.13.267-.256.414-.385.053-.049.102-.094.154-.134a8.542 8.542 0 015.16 6.195z" fill="#4CA634"/><path d="M64.161 17.246h-3.818L59.633 19h-2.605l3.986-9.03h2.515L67.528 19H64.87l-.71-1.754zm-.748-1.884l-1.16-2.889-1.162 2.89h2.322zm11.728-1.083c.533.172.938.438 1.213.8.284.36.425.808.425 1.341 0 .8-.313 1.432-.941 1.896-.62.456-1.5.684-2.644.684h-4.631V9.97h4.385c1.084 0 1.922.207 2.516.62.602.404.903.98.903 1.728 0 .439-.108.826-.323 1.161a2.164 2.164 0 01-.903.8zm-4.063-.697h1.625c.723 0 1.084-.296 1.084-.89 0-.593-.361-.89-1.084-.89h-1.625v1.78zm2.012 3.586c.74 0 1.11-.314 1.11-.941 0-.61-.37-.916-1.11-.916h-2.012v1.857h2.012zm12.22-5.172h-2.76V19h-2.515v-7.004h-2.773V9.97h8.049v2.025zm5.49 7.185c-.955 0-1.815-.203-2.58-.607a4.613 4.613 0 01-1.793-1.677c-.43-.713-.645-1.517-.645-2.412 0-.894.215-1.698.645-2.412a4.613 4.613 0 011.793-1.677c.765-.404 1.625-.606 2.58-.606.954 0 1.81.202 2.566.606a4.498 4.498 0 011.793 1.677c.439.714.658 1.518.658 2.412 0 .895-.219 1.699-.658 2.412a4.498 4.498 0 01-1.793 1.677c-.756.404-1.612.607-2.567.607zm0-2.116a2.42 2.42 0 001.238-.322 2.33 2.33 0 00.877-.903 2.79 2.79 0 00.322-1.355c0-.507-.107-.954-.322-1.341a2.309 2.309 0 00-.877-.916 2.418 2.418 0 00-1.239-.323 2.42 2.42 0 00-1.238.323c-.37.215-.662.52-.877.916-.215.387-.322.834-.322 1.341 0 .508.107.96.322 1.355.215.387.507.688.877.903.37.215.783.322 1.238.322zm14.858-7.094V19h-2.529v-7.004h-3.43V19h-2.516V9.97h8.475zm6.367 9.21c-.954 0-1.814-.203-2.58-.607a4.621 4.621 0 01-1.793-1.677c-.43-.713-.645-1.517-.645-2.412 0-.894.215-1.698.645-2.412a4.621 4.621 0 011.793-1.677c.766-.404 1.626-.606 2.58-.606.955 0 1.81.202 2.567.606a4.494 4.494 0 011.793 1.677c.439.714.658 1.518.658 2.412 0 .895-.219 1.699-.658 2.412a4.494 4.494 0 01-1.793 1.677c-.757.404-1.612.607-2.567.607zm0-2.116a2.42 2.42 0 001.239-.322c.369-.215.662-.516.877-.903a2.79 2.79 0 00.322-1.355c0-.507-.107-.954-.322-1.341a2.314 2.314 0 00-.877-.916 2.42 2.42 0 00-1.239-.323 2.42 2.42 0 00-1.238.323c-.37.215-.662.52-.877.916-.215.387-.323.834-.323 1.341 0 .508.108.96.323 1.355.215.387.507.688.877.903.37.215.783.322 1.238.322zm14.555-7.094V19h-2.515v-7.004h-2.593l-.052 1.47c-.043 1.29-.15 2.34-.322 3.148-.164.808-.447 1.436-.852 1.883-.404.439-.976.658-1.715.658-.344 0-.731-.052-1.161-.155l.142-2.09c.112.026.228.039.348.039a.88.88 0 00.774-.4c.181-.266.31-.636.387-1.11.077-.48.129-1.104.155-1.87l.129-3.598h7.275zm1.931 0h2.516v5.301l3.728-5.301h2.399V19h-2.515v-5.289L130.924 19h-2.413V9.97zm17.161 4.308c.533.172.937.438 1.212.8.284.36.426.808.426 1.341 0 .8-.314 1.432-.942 1.896-.619.456-1.501.684-2.644.684h-4.631V9.97h4.386c1.083 0 1.922.207 2.515.62.602.404.903.98.903 1.728 0 .439-.108.826-.323 1.161a2.162 2.162 0 01-.902.8zm-4.064-.697h1.626c.722 0 1.083-.296 1.083-.89 0-.593-.361-.89-1.083-.89h-1.626v1.78zm2.013 3.586c.739 0 1.109-.314 1.109-.941 0-.61-.37-.916-1.109-.916h-2.013v1.857h2.013zm-79.176 8.608V33h-1.661v-5.861h-3.261V33H57.86v-7.224h6.584zm5.237 7.348c-.75 0-1.427-.162-2.033-.485a3.658 3.658 0 01-1.413-1.331 3.704 3.704 0 01-.506-1.92c0-.708.168-1.345.506-1.909a3.634 3.634 0 011.413-1.341c.606-.324 1.283-.485 2.033-.485s1.424.161 2.023.485a3.634 3.634 0 011.93 3.25c0 .709-.172 1.349-.516 1.92a3.659 3.659 0 01-1.414 1.33c-.599.324-1.273.486-2.023.486zm0-1.424a2.32 2.32 0 001.156-.29c.344-.199.612-.474.805-.825.2-.35.3-.75.3-1.197 0-.447-.1-.846-.3-1.197a2.04 2.04 0 00-.805-.815c-.344-.2-.73-.3-1.156-.3-.426 0-.811.1-1.156.3a2.11 2.11 0 00-.815.815c-.192.351-.289.75-.289 1.197 0 .447.097.846.29 1.197.199.351.47.626.814.826.345.192.73.289 1.156.289zm12.49-.062v2.858h-1.548V33h-5.098v1.496h-1.548l.01-2.858h.29c.433-.014.739-.33.918-.95.178-.619.288-1.503.33-2.652l.082-2.26h5.552v5.862h1.011zm-5.17-3.447c-.035.86-.107 1.582-.217 2.167-.11.578-.279 1.005-.506 1.28h3.23v-4.5h-2.477l-.03 1.053zm12.014 1.899H87.86V33H86.2v-7.224h1.661v2.92h1.197l1.899-2.92h1.765l-2.364 3.488L92.793 33h-1.899l-1.878-2.91zm11.181-4.314V33h-1.651v-5.861h-2.477l-.052 1.506c-.034 1.025-.117 1.858-.247 2.497-.131.633-.351 1.122-.66 1.466-.303.337-.73.506-1.28.506-.227 0-.503-.038-.826-.114l.103-1.414c.09.028.19.042.3.042.399 0 .677-.234.835-.702.159-.475.258-1.214.3-2.219l.103-2.93h5.552zm8.181-.123c.723 0 1.373.161 1.951.485.584.323 1.042.77 1.372 1.341.33.564.495 1.2.495 1.91 0 .708-.165 1.348-.495 1.919a3.549 3.549 0 01-1.372 1.33c-.578.324-1.228.486-1.951.486a4.091 4.091 0 01-1.775-.382 3.667 3.667 0 01-1.331-1.083 3.628 3.628 0 01-.66-1.6h-.95V33h-1.661v-7.224h1.661v2.838h.97c.11-.578.337-1.09.681-1.537a3.542 3.542 0 011.321-1.053 4.067 4.067 0 011.744-.371zm0 6.047a2.029 2.029 0 001.847-1.104c.186-.351.279-.754.279-1.208a2.54 2.54 0 00-.279-1.207 2.029 2.029 0 00-1.847-1.104 2.03 2.03 0 00-1.847 1.104 2.54 2.54 0 00-.279 1.207c0 .454.093.857.279 1.208a2.03 2.03 0 001.847 1.104zm10.904-5.924V33h-1.651v-2.6c-.626.227-1.208.34-1.744.34-.97 0-1.713-.23-2.229-.691-.516-.468-.774-1.139-.774-2.013v-2.26h1.651v2.075c0 .495.131.87.392 1.124.268.248.654.372 1.156.372.55 0 1.066-.107 1.548-.32v-3.25h1.651z" fill="#fff"/></svg>