<svg width="149" height="70" fill="none" xmlns="http://www.w3.org/2000/svg"><path d="M20.342 28.942c.073-.07.146-.13.224-.194-.954 1.365-1.527 3.098-1.527 4.985v9.708c-.113-.12-.223-.234-.337-.352l-.13-.134a16.512 16.512 0 00-.413-.389c-.03-.024-.053-.053-.081-.073v-8.457a6.425 6.425 0 01.041-.733c.008-.105.024-.21.04-.316.017-.114.038-.227.062-.337.02-.113.048-.222.077-.336.03-.11.057-.218.094-.324.029-.097.061-.194.097-.292.013-.032.02-.061.033-.09.032-.085.064-.169.101-.25a5.79 5.79 0 01.292-.604 7.62 7.62 0 01.345-.567c.061-.093.126-.182.194-.271.057-.081.122-.158.183-.235.012-.016.024-.028.036-.04a5.58 5.58 0 01.203-.235c.065-.072.137-.145.21-.218a.297.297 0 01.054-.053c.064-.068.133-.133.202-.193z" fill="#6D726A"/><path d="M30.398 30.221c-.053.049-.11.094-.158.142-.09.081-.175.167-.26.251l-.154.15c-.097.105-.194.21-.291.32l-.094.102c-.126.145-.243.295-.361.445-.029.037-.053.073-.081.11-.086.118-.17.231-.251.352-.04.057-.078.118-.114.175-.065.101-.134.202-.194.303-.04.07-.078.134-.114.203-.056.097-.113.194-.162.295-.04.07-.073.142-.11.215a6.792 6.792 0 00-.142.296 3.54 3.54 0 00-.102.226l-.121.3a16.384 16.384 0 00-.191.539c-.024.077-.053.158-.073.239a6.595 6.595 0 00-.09.312l-.06.239c-.025.11-.05.218-.07.324-.016.08-.032.158-.045.239-.02.113-.037.227-.053.344a3.42 3.42 0 00-.032.223c-.017.13-.025.259-.037.385-.005.064-.013.13-.017.194-.008.19-.016.384-.016.58 0 .19.008.384.017.575.004.06.012.125.016.186.008.129.02.258.037.384.008.073.016.146.028.223.017.113.033.231.054.349.012.077.028.15.045.226.02.113.045.227.069.336.02.078.037.154.057.227.028.113.06.226.093.34.021.073.04.142.065.21a8.588 8.588 0 00.187.54c.07.174.138.349.216.518-.127.126-.244.26-.366.393-.029.029-.053.053-.077.08a10.913 10.913 0 00-.609.729c-.097.127-.191.248-.285.374-.105.15-.202.3-.304.449-.057.089-.118.178-.175.267-.158.255-.308.514-.45.782a7.908 7.908 0 00-.6-.264 7.39 7.39 0 00-3.15-.46 7.319 7.319 0 00-.28.02c-.048.005-.096.013-.142.016a5.871 5.871 0 00-.365.057 4.35 4.35 0 00-.377.077c-.017 0-.03.005-.045.008V33.733c0-3.508 2.382-6.36 5.308-6.36 1.845 0 3.473 1.135 4.426 2.848z" fill="#48587C"/><path d="M13.613 25.548v14.399a14.234 14.234 0 00-1.173-.312c-.029-.005-.057-.008-.08-.016-.24-.049-.483-.094-.727-.13l-.163-.024a14.415 14.415 0 00-.6-.065 7.238 7.238 0 00.223-1.758 7.304 7.304 0 00-4.557-6.756 5.47 5.47 0 00.219-1.547c0-2.9-2.252-5.278-5.1-5.5a22.38 22.38 0 01.222-2.346l.03-.182.02-.118c.13-.826.3-1.612.515-2.402.024-.094.053-.186.077-.28h4.955v.154c0 3.549 2.686 6.482 6.14 6.883z" fill="#EA7D68"/><path d="M9.47 37.642a5.66 5.66 0 01-.263 1.717h-.013c-.029.004-.057.004-.085.008l-.207.013c-.154.012-.305.024-.459.04-.04.005-.08.008-.121.012-.033.004-.07.013-.106.017h-.008c-.142.016-.288.04-.43.06-.078.013-.154.025-.235.041-.04.008-.081.013-.122.02a25.9 25.9 0 01-.673-.821c-.11-.138-.211-.272-.317-.41l-.057-.076a11.784 11.784 0 01-.312-.426.977.977 0 01-.081-.11l-.025-.04a14.14 14.14 0 01-.511-.741l-.057-.085c-.08-.126-.162-.247-.256-.406-.06-.089-.126-.182-.199-.316-.077-.126-.15-.25-.235-.397a20.385 20.385 0 01-.39-.697 22.736 22.736 0 01-2.119-5.46 22.485 22.485 0 01-.23-1.096c-.025-.126-.041-.247-.062-.373-.04-.243-.08-.486-.11-.729-.02-.146-.032-.291-.048-.438a18.841 18.841 0 01-.062-.672 7.658 7.658 0 01-.024-.454c-.008-.12-.008-.242-.012-.36a3.905 3.905 0 013.49 3.876c0 .596-.13 1.166-.39 1.689l-.434.883.953.255a5.677 5.677 0 014.21 5.476z" fill="#B9D79E"/><path d="M43.58 64.142a43.108 43.108 0 01-13.072 3.875c-.167.024-.333.04-.503.06l-.207.025c-.877.105-1.758.178-2.642.215-.187.012-.378.02-.564.029h-.053c-.483.02-.983.028-1.53.028a41.08 41.08 0 01-3.247-.125l-.503-.037a43.797 43.797 0 01-1.94-.219l-.482-.069-.065-.008a34.864 34.864 0 01-1.648-.275c-.19-.032-.382-.077-.572-.113a3.739 3.739 0 013.72-3.37 3.68 3.68 0 012.298.79l1.047.818.251-1.3a6.916 6.916 0 016.781-5.582 6.883 6.883 0 015.84 3.22l.52.825.718-.664a5.101 5.101 0 013.49-1.36c.638 0 1.258.113 1.85.34l.512 2.897z" fill="#326827"/><path d="M42.752 59.46a6.685 6.685 0 00-1.535-.175 6.747 6.747 0 00-3.88 1.215 8.48 8.48 0 00-6.688-3.236 8.546 8.546 0 00-8.08 5.784 5.35 5.35 0 00-2.297-.51 5.36 5.36 0 00-5.308 4.641l-.382-.093a45.902 45.902 0 01-2.012-.556c-.248-.072-.495-.15-.755-.234a37.695 37.695 0 01-2.69-.96l-.361-.142a58.702 58.702 0 01-1.368-.58l-.35-.166a18.966 18.966 0 01-.665-.308l2.602-14.637.032-.175c.057-.028.118-.06.178-.085a6.78 6.78 0 01.645-.267c.085-.032.17-.065.256-.093.146-.053.291-.097.438-.138.073-.024.146-.048.223-.069.216-.056.43-.105.65-.15.008-.005.016-.005.024-.008.309-.057.617-.102.921-.134a9.97 9.97 0 016.148 1.381 9.968 9.968 0 014.07 4.73c.074.17.13.35.192.523.037.113.085.223.121.34l.017.057.41 1.32.957-1.077a7.375 7.375 0 014.156-2.374 7.497 7.497 0 013.689.21l.69.219.296-.66c.121-.275.259-.543.401-.807l.118-.218c.138-.234.28-.47.43-.696a8.7 8.7 0 00.179-.256c.118-.161.235-.324.361-.481.081-.102.158-.203.243-.304.146-.174.3-.34.455-.51.097-.102.194-.203.296-.304.045-.045.09-.086.138-.13.418-.4.864-.773 1.339-1.11.008-.004.016-.012.024-.016.495-.348 1.018-.66 1.562-.931.021-.013.04-.021.061-.033.138-.07.28-.13.423-.194.097-.04.199-.085.296-.126a11.41 11.41 0 01.942-.34c.032-.008.065-.024.097-.032l2.29 12.895z" fill="#3A7729"/><path d="M40.597 41.627a3.43 3.43 0 01-.134.126c-.032.029-.065.056-.086.077-.101.097-.207.194-.312.291l-.337.3.45 2.54c-.064.02-.13.045-.194.065-.178.053-.358.11-.536.17-.15.053-.3.113-.447.17-.089.036-.174.069-.259.105-.183.072-.357.153-.535.234-.041.02-.086.04-.127.061a13.24 13.24 0 00-3.506 2.435c-.024.02-.045.044-.07.064-.085.081-.17.162-.25.247-.057.057-.11.122-.167.183-.077.08-.15.166-.227.247a14.12 14.12 0 00-.563.677c-.078.101-.159.198-.235.303a18.249 18.249 0 00-.515.753 16.29 16.29 0 00-.216.345c-.126.214-.247.43-.365.652-.017.032-.033.061-.049.094a9.117 9.117 0 00-5.251.344c-.073.029-.15.053-.227.08l-.134.062c-.13.056-.264.11-.394.174-.008 0-.016.008-.024.013a9.229 9.229 0 00-.978.546c-.057.04-.113.08-.175.121-.097.07-.199.134-.296.207a7.444 7.444 0 00-.45.36 9.716 9.716 0 00-.333-.68c-.02-.04-.04-.085-.061-.13a12.009 12.009 0 00-.39-.663c-.025-.04-.045-.081-.07-.118a12.977 12.977 0 00-.45-.656c-.02-.024-.04-.053-.061-.081a11.2 11.2 0 00-.515-.636c-.016-.016-.029-.037-.045-.053a12.13 12.13 0 00-.584-.616c-.009-.008-.017-.016-.025-.02a11.533 11.533 0 00-5.085-2.9c-.195-.053-.39-.097-.585-.142-.089-.021-.183-.037-.272-.053a10.33 10.33 0 00-.563-.097c-.106-.013-.216-.021-.32-.033-.28-.032-.564-.053-.849-.065-.142-.004-.288-.012-.43-.012h-.098c-.085.004-.17.004-.25.008-.273.008-.545.024-.817.049-.053.008-.101.016-.15.02a9.869 9.869 0 00-.918.138c-.292.056-.58.125-.864.202-.097.029-.194.065-.292.093-.186.057-.373.114-.552.178a.285.285 0 01-.056.016l.885-4.998-.333-.3a27.786 27.786 0 01-1.153-1.105l.272-.025.17-.012c.191-.008.386-.016.576-.016h.013c.288 0 .572.016.852.036.07.008.138.017.207.021.251.024.503.057.75.102l.098.012c1.53.275 2.991.876 4.277 1.758l.037.024c.251.178.499.365.738.563l.017.012c.194.167.385.341.568.514.045.04.085.086.126.126.142.138.28.283.41.433a8.436 8.436 0 01.503.6c.053.069.11.134.158.202.154.207.301.417.439.632l.382.604.649-.304a5.684 5.684 0 012.386-.514c1.148 0 2.236.324 3.14.935l.808.543.39-.891c.094-.21.195-.414.296-.616.037-.07.073-.137.114-.207.073-.137.15-.275.231-.409.037-.064.078-.129.118-.194.11-.174.223-.348.341-.518.008-.008.013-.02.021-.032 1.867-2.617 4.76-4.22 7.828-4.22.24 0 .48.012.714.028.078.008.154.02.232.024.158.021.317.037.474.062l.268.048c.146.029.292.061.434.094.089.02.178.044.267.069.146.04.288.085.43.13.086.028.17.052.252.085.158.056.312.117.462.182.07.029.135.053.203.08.215.098.426.203.638.32.037.022.073.046.113.066.15.082.296.172.443.261z" fill="#4CA634"/><path d="M45.24 35.798c-.041.065-.073.13-.114.191a17.28 17.28 0 01-.447.717l-.101.154a8.176 8.176 0 01-.272.405l-.073.118-.114.158c-.142.202-.284.405-.446.616l-.09.125a30.75 30.75 0 01-.982 1.22c-.069.085-.137.166-.207.247-.146.166-.292.328-.458.514-.02.016-.032.032-.04.04l-.135.146a.904.904 0 00-.085-.053c-.094-.065-.191-.121-.288-.182-.15-.094-.301-.186-.455-.272-.105-.056-.21-.113-.317-.166a9.18 9.18 0 00-.455-.227c-.11-.048-.219-.097-.333-.145a7.88 7.88 0 00-.463-.183c-.11-.04-.223-.08-.341-.117a9.736 9.736 0 00-.474-.146 9.15 9.15 0 00-.345-.093c-.167-.04-.337-.073-.507-.105-.106-.021-.215-.045-.325-.065-.191-.029-.382-.049-.569-.07a5.93 5.93 0 00-.28-.032 10.135 10.135 0 00-2.357.073c-.013 0-.029.005-.04.005-.569.085-1.129.206-1.672.38-.179.057-.35.126-.524.191a.07.07 0 01-.028.008c-.966.365-1.88.85-2.723 1.475v-.005a8.403 8.403 0 01-.215-.644c-.017-.053-.03-.105-.046-.158a9.098 9.098 0 01-.15-.66s0-.004-.004-.004c-.04-.227-.07-.45-.094-.677l-.012-.17a7.501 7.501 0 01-.032-.684 8.396 8.396 0 013.129-6.529c.07-.057.146-.11.219-.166.06-.045.121-.094.182-.138h.005a8.402 8.402 0 012.93-1.34h.004a8.429 8.429 0 011.953-.227c3.901-.001 7.306 2.713 8.19 6.475z" fill="#FFED80"/><path d="M48.34 24.936c0 2.98-.695 5.95-2.058 8.861-1.554-3.62-5.165-6.095-9.233-6.095-.503 0-1.002.04-1.493.113a10.177 10.177 0 01-.127-1.609c0-.562.046-1.118.13-1.668.037-.227.081-.45.134-.673a10.76 10.76 0 013.207-5.569 10.649 10.649 0 014.034-2.353l.633-.202-.073-.66a3.67 3.67 0 01-.005-.891c.005-.04.013-.086.016-.126.012-.102.03-.199.053-.3.009-.04.017-.086.03-.13a3.25 3.25 0 01.093-.332c.008-.024.016-.045.02-.07.05-.129.102-.255.163-.38l.048-.098c.049-.093.098-.182.15-.27.025-.041.05-.078.074-.114a2.73 2.73 0 01.186-.263c.02-.025.037-.053.061-.078.005-.012.017-.02.021-.028a22.721 22.721 0 011.794 3.183c.425.924.787 1.847 1.067 2.758.34 1.073.605 2.18.783 3.285a23.82 23.82 0 01.292 3.709z" fill="#3A7729"/><path d="M36.494 18.512s0 .005-.005.005c-.19.242-.369.494-.543.75-.037.052-.07.104-.106.157-.162.251-.32.506-.466.77-.025.044-.049.093-.073.137-.134.25-.26.502-.378.761-.016.033-.032.065-.048.102-.122.275-.231.554-.337.842l-.061.182a12.5 12.5 0 00-.267.87c-.009.033-.013.07-.025.102-.07.275-.126.555-.178.834-.008.053-.02.106-.029.162a11.05 11.05 0 00-.13 1.081c-.024.312-.04.624-.04.94 0 .669.053 1.333.158 1.976-.218.073-.434.154-.649.24l-.175.072c-.166.073-.333.146-.495.227l-.15.072a9.287 9.287 0 00-.564.309 2.677 2.677 0 01-.093-.122 4.848 4.848 0 01-.138-.182c-.07-.081-.134-.166-.203-.247-.048-.053-.093-.11-.146-.166-.069-.081-.146-.159-.218-.24-.049-.048-.098-.101-.15-.15a7.875 7.875 0 00-.252-.239c-.045-.04-.09-.085-.138-.125a6.748 6.748 0 00-.333-.272c-.024-.024-.053-.045-.077-.064a7.706 7.706 0 00-.434-.312c-.037-.025-.073-.045-.11-.07-.114-.072-.223-.145-.341-.214-.054-.033-.11-.061-.167-.094-.102-.053-.199-.11-.3-.158-.066-.032-.127-.065-.192-.093l-.291-.134-.203-.086-.292-.11-.215-.072a9.641 9.641 0 00-.296-.094l-.219-.06c-.102-.025-.203-.05-.309-.073a3.287 3.287 0 00-.215-.045c-.11-.021-.215-.037-.325-.057-.07-.008-.138-.02-.21-.029a5.284 5.284 0 00-.362-.037 7.74 7.74 0 00-.722-.037c-4.704 0-8.526 3.82-8.526 8.51v7.244c-.393-.247-.8-.474-1.217-.677v-15.05c3.45-.401 6.136-3.333 6.136-6.881v-.155h15.119z" fill="#EA7D68"/><path d="M11.401 5.969c-.288.202-.572.413-.852.632l-.357.287-.143.118-.028.024c-.114.094-.224.19-.337.288-.122.105-.243.215-.37.324-.145.13-.276.255-.413.385-.418.393-.828.81-1.214 1.231a23.324 23.324 0 00-3.81 5.662c-.203.43-.39.85-.548 1.252-.097.24-.195.478-.285.72H7.7c.041-.153.09-.3.138-.448a.727.727 0 01.029-.098c.07-.19.142-.376.227-.559.013-.036.032-.069.049-.101a5.4 5.4 0 01.218-.425c.033-.061.07-.118.102-.174.07-.11.134-.219.207-.328.04-.062.09-.122.134-.183.07-.097.138-.194.216-.283.048-.065.105-.126.158-.186.073-.085.146-.17.227-.25.057-.062.118-.118.178-.175a6.36 6.36 0 01.24-.226c.065-.057.13-.11.199-.167.08-.064.166-.134.255-.198a5.597 5.597 0 01.483-.324 6.275 6.275 0 01.511-.288c.078-.037.155-.078.232-.113a8.615 8.615 0 01.547-.223 18.755 18.755 0 01.564-.178c.119-.03.236-.053.354-.078.077-.016.154-.036.235-.053.121-.02.243-.032.374-.048.008 0 .02-.005.027-.005.065-.008.13-.02.2-.024a6.29 6.29 0 011.233.001c.07.004.134.015.203.023h.008A10.013 10.013 0 0011.4 5.97z" fill="#48587C"/><path d="M19.75 18.666c0 2.929-2.39 5.314-5.329 5.314-2.934 0-5.324-2.386-5.324-5.314a5.298 5.298 0 015.324-5.318c.495 0 .974.064 1.428.19a5.292 5.292 0 013.9 5.128z" fill="#FFED80"/><path d="M49.645 20.975c-.19-1.187-.47-2.37-.832-3.512a24.08 24.08 0 00-3.194-6.545l-.954-1.311c-.126-.159-.248-.317-.37-.462-.19-.227-.384-.458-.579-.68a7.85 7.85 0 00-.26-.284 25.054 25.054 0 00-6.046-4.864A24.921 24.921 0 0025.296.007a5.962 5.962 0 00-.67.005c-1.64.02-3.27.198-4.845.534a25.071 25.071 0 00-9.885 4.516c-.122.089-.24.178-.358.271l-.365.292a24.696 24.696 0 00-1.384 1.223 24.802 24.802 0 00-5.382 7.38 23.81 23.81 0 00-.585 1.336c-.178.433-.34.878-.49 1.328h-.008l-.179.559c0 .004 0 .004-.004.004v.008l-.324 1.05h.02a22.642 22.642 0 00-.443 1.98c-.012.077-.028.153-.04.234l-.053.057v.259a25.478 25.478 0 00-.296 3.573c-.005.11-.005.21-.005.32 0 1.672.207 3.365.613 5.03a23.97 23.97 0 002.13 5.598 24.52 24.52 0 00.564 1.02c.081.135.159.272.224.374.077.137.158.267.226.365.086.142.175.283.268.425l.053.077c.175.271.357.538.547.798a13.313 13.313 0 00.43.587c.025.04.054.077.082.113.113.145.223.296.333.425a94.206 94.206 0 00.755.924c.073.085.622.685.622.685a30.04 30.04 0 001.635 1.664l-1.294 7.262.005-.005L4.57 65.07l.966.462c.275.142.56.271.835.393l.35.161c.438.199.909.398 1.437.612l.365.146c.926.368 1.871.705 2.796.997.268.089.54.174.775.239a38.11 38.11 0 002.09.575l.487.121c.09.024.179.04.272.065v.004l.609.138c.422.093.848.178 1.27.255.63.118 1.21.215 1.778.296l.487.069c.738.097 1.4.174 2.045.226l.235.02c.093.009.186.013.272.022 1.104.085 2.235.129 3.368.129a40.146 40.146 0 002.232-.061c.91-.04 1.834-.113 2.744-.223l.26-.029.478-.06c.442-.057.885-.122 1.32-.195a41.854 41.854 0 004.2-.883 44.68 44.68 0 008.165-3.005l.986-.474v-.004l-3.636-20.482-.276-1.564.024-.024.05-.045c.125-.114.242-.235.365-.357l.016.013.507-.523c0-.004.004-.004.004-.004l.63-.64-.013-.012.008-.008.073-.081a20.004 20.004 0 00.702-.797c.174-.203.34-.41.498-.608.183-.223.358-.446.536-.685l.097-.13c.163-.218.321-.437.455-.63.057-.078.11-.151.159-.227.024-.033.04-.062.06-.09.098-.141.192-.282.285-.42l.053-.082c.028-.04.053-.08.077-.121a23.379 23.379 0 00.808-1.336l.032-.061c.061-.11.122-.219.162-.304l.036-.061.102-.186c.073-.138.142-.272.199-.39.037-.06.065-.125.102-.206 1.631-3.277 2.455-6.663 2.455-10.07 0-1.315-.106-2.648-.318-3.96zM11.62 5.811c.183-.13.369-.256.555-.373.159-.11.317-.21.48-.304.215-.138.438-.271.657-.393.382-.223.77-.433 1.164-.631h.004a19.949 19.949 0 011.21-.563c.202-.089.406-.174.613-.255.207-.086.418-.167.625-.24a7.03 7.03 0 01.47-.166c.127-.044.248-.089.374-.125.033-.013.062-.025.094-.033.138-.045.276-.089.418-.13.183-.052.36-.104.544-.153a28.5 28.5 0 01.625-.162c.223-.053.442-.101.665-.15a22.718 22.718 0 014.55-.502l.053-.004c.089-.004.175-.004.26-.004.081 0 .162 0 .272.004A23.335 23.335 0 0136.6 4.717a23.188 23.188 0 014.659 3.52c.353.34.69.688 1.002 1.037l.032.032c.07.073.135.142.2.219.186.215.373.43.551.652.126.15.256.312.386.478-.09.094-.17.194-.252.291-.032.037-.064.073-.093.11-.126.154-.24.316-.345.482l-.086.142a6.902 6.902 0 00-.207.376c-.032.065-.06.134-.093.199-.049.118-.102.23-.146.352l-.073.215c-.04.121-.073.239-.105.365-.02.072-.036.145-.053.218a4.41 4.41 0 00-.07.4c-.012.066-.024.13-.029.195-.024.199-.037.4-.037.607-.333.126-.657.264-.977.418l-.07.032c-.304.145-.6.308-.893.482-.032.02-.07.04-.102.06-.283.17-.555.353-.824.547l-.118.085c-.259.19-.515.397-.762.612-.02.017-.04.033-.062.049H21.144a5.793 5.793 0 00-.126-.413c-.016-.046-.027-.094-.04-.138a8.542 8.542 0 00-.223-.55c-.025-.054-.054-.102-.078-.155-.061-.125-.121-.25-.19-.376-.038-.065-.082-.126-.119-.19a20.933 20.933 0 00-.19-.309 7.375 7.375 0 00-.146-.198 12.978 12.978 0 00-.203-.272l-.167-.19a6.043 6.043 0 00-.218-.243c-.062-.065-.122-.121-.187-.182a6.09 6.09 0 00-.235-.223c-.065-.057-.134-.11-.199-.166-.085-.07-.17-.134-.256-.2-.069-.052-.142-.1-.21-.15a5.597 5.597 0 00-.272-.173 3.19 3.19 0 00-.224-.134c-.097-.054-.19-.106-.288-.154a4.04 4.04 0 00-.235-.113 8.691 8.691 0 00-.304-.13c-.081-.032-.158-.064-.24-.093a5.047 5.047 0 00-.325-.105l-.243-.073c-.113-.029-.235-.053-.353-.077-.077-.017-.153-.037-.231-.053-.13-.021-.264-.037-.393-.054A10.02 10.02 0 0011.4 5.966c0-.004-.004-.004-.004-.004.072-.05.15-.102.223-.151zm22.345 22.373c-.22.073-.434.154-.65.24l-.174.072c-.167.073-.334.146-.495.227l-.15.072a9.011 9.011 0 00-.565.308c-.032-.04-.064-.08-.093-.12a4.852 4.852 0 01-.138-.183c-.07-.081-.134-.166-.203-.247-.048-.053-.093-.11-.145-.167-.07-.08-.146-.158-.22-.239-.048-.048-.097-.101-.15-.15a7.764 7.764 0 00-.25-.239c-.046-.04-.09-.085-.139-.125a6.69 6.69 0 00-.333-.272c-.024-.024-.053-.045-.077-.065a7.686 7.686 0 00-.434-.311c-.037-.025-.073-.045-.11-.07-.113-.072-.223-.145-.341-.214-.053-.033-.11-.061-.167-.094-.102-.053-.199-.11-.3-.158-.065-.032-.127-.065-.191-.094l-.292-.133-.203-.086-.292-.11-.215-.072a9.374 9.374 0 00-.296-.094l-.219-.06c-.102-.025-.202-.05-.309-.074-.073-.016-.142-.032-.215-.044-.11-.021-.215-.037-.324-.057-.07-.008-.138-.02-.21-.029a5.212 5.212 0 00-.362-.037 7.74 7.74 0 00-.722-.037c-4.704 0-8.526 3.82-8.526 8.51l.001 7.243c-.393-.247-.8-.474-1.217-.677v-15.05c3.45-.401 6.136-3.333 6.136-6.881v-.154h15.12s0 .004-.005.004c-.19.243-.369.495-.544.75l-.105.158a12.9 12.9 0 00-.466.77c-.025.044-.049.093-.073.137a12.52 12.52 0 00-.763 1.705l-.061.182c-.097.288-.191.574-.269.87-.008.032-.012.07-.024.102-.07.274-.126.554-.178.833-.008.053-.02.106-.028.163a11.06 11.06 0 00-.13 1.081 12.063 12.063 0 00.116 2.916zm6.213 16.777c-.064.02-.13.045-.194.065-.178.053-.358.11-.536.17-.15.053-.3.113-.447.17-.089.036-.174.069-.259.105-.183.072-.357.153-.535.234-.041.02-.086.04-.127.061a13.24 13.24 0 00-3.506 2.435c-.024.02-.045.044-.07.064-.085.081-.17.162-.25.247-.057.057-.11.122-.167.183-.077.08-.15.166-.227.247a15.19 15.19 0 00-.565.677c-.078.101-.159.198-.235.303-.057.078-.11.15-.159.227a18.242 18.242 0 00-.572.87c-.126.215-.247.43-.365.653-.016.033-.033.061-.049.094a8.38 8.38 0 00-.637-.122 9.03 9.03 0 00-3.166.057 9.082 9.082 0 00-1.449.409c-.073.029-.15.053-.227.08l-.134.062c-.032.016-.07.029-.102.045a3.71 3.71 0 00-.291.13c-.009 0-.017.007-.025.012a9.227 9.227 0 00-.978.546 7.36 7.36 0 01-.174.121c-.098.07-.2.134-.296.207a7.41 7.41 0 00-.45.36 9.737 9.737 0 00-.334-.68c-.02-.04-.04-.085-.061-.13a11.122 11.122 0 00-.329-.566l-.061-.097c-.024-.04-.045-.081-.07-.118-.142-.227-.296-.441-.45-.656-.02-.024-.04-.053-.06-.081-.163-.218-.337-.43-.516-.636-.016-.016-.029-.037-.045-.053a12.13 12.13 0 00-.608-.636 10.708 10.708 0 00-.792-.705 10.997 10.997 0 00-1.623-1.105 11.65 11.65 0 00-2.671-1.09c-.194-.052-.39-.097-.584-.142-.09-.02-.183-.036-.272-.053a11.36 11.36 0 00-.565-.097c-.105-.012-.215-.02-.32-.032-.28-.032-.564-.053-.849-.065-.142-.004-.288-.012-.43-.012h-.097c-.086.004-.17.004-.252.008a13.77 13.77 0 00-.815.048c-.053.008-.102.017-.15.021a10.16 10.16 0 00-.918.138c-.292.056-.58.125-.865.202-.097.028-.194.064-.292.093-.187.057-.374.113-.552.178a.291.291 0 01-.057.016l.885-4.998-.333-.3a27.783 27.783 0 01-1.152-1.105l.271-.025.17-.012c.192-.008.386-.016.577-.016h.013c.288 0 .572.016.852.036.07.008.138.017.207.021.252.024.504.057.751.102l.098.012a11.01 11.01 0 014.277 1.758l.036.024c.252.178.5.365.739.563l.016.012c.194.167.385.34.568.514.045.04.086.086.126.126.142.138.28.283.41.433a8.491 8.491 0 01.503.6c.053.069.11.134.159.202.154.207.3.417.438.632l.078.121.304.482.65-.304a5.765 5.765 0 012.386-.514c1.148 0 2.235.324 3.14.935l.808.543.39-.891c.093-.21.194-.414.296-.616.037-.07.073-.137.113-.207.073-.137.15-.275.232-.408.035-.065.077-.13.117-.194.11-.175.224-.35.342-.52.008-.007.012-.02.02-.031.93-1.3 2.107-2.35 3.442-3.078a9.351 9.351 0 011.623-.701 8.965 8.965 0 013.478-.413c.077.008.154.021.231.025.159.02.317.036.475.06l.267.05c.146.028.293.06.434.093.09.02.178.045.268.069.145.04.288.085.43.13.085.028.17.052.251.085a7.3 7.3 0 01.463.182c.07.029.134.053.203.08.215.098.425.203.637.32.036.022.073.046.113.066.15.085.297.174.443.263-.046.045-.09.085-.135.126-.032.028-.064.056-.085.077-.102.097-.207.194-.313.292l-.336.3.454 2.537zM13.852 13.377a5.449 5.449 0 011.997.161 5.292 5.292 0 013.9 5.129c0 2.928-2.39 5.313-5.329 5.313a5.296 5.296 0 01-3.71-1.51 5.265 5.265 0 01-1.615-3.803 5.302 5.302 0 014.757-5.29zm4.225 29.117v-8.457a6.504 6.504 0 01.041-.733c.008-.105.024-.21.04-.317.017-.113.037-.226.062-.336a3.25 3.25 0 01.077-.336c.025-.11.057-.218.094-.324.029-.097.061-.194.097-.292.012-.033.02-.061.033-.09.028-.085.064-.165.101-.25a5.79 5.79 0 01.292-.604c.049-.097.105-.194.167-.287.053-.097.113-.19.178-.28.061-.093.126-.182.194-.271a3.172 3.172 0 01.22-.276 2.7 2.7 0 01.203-.235c.065-.077.137-.15.21-.218a.297.297 0 01.054-.053c.064-.068.133-.133.202-.193.073-.07.146-.13.224-.194-.954 1.365-1.527 3.098-1.527 4.985v9.708c-.113-.12-.223-.234-.337-.352l-.13-.134a16.512 16.512 0 00-.413-.389c-.03-.023-.054-.052-.082-.072zm10.246-9.72a4.054 4.054 0 00-.162.295c-.04.07-.073.142-.11.215-.048.097-.097.194-.142.296a3.53 3.53 0 00-.101.226c-.041.097-.081.199-.122.3a17.307 17.307 0 00-.19.539c-.025.077-.054.158-.074.239a6.482 6.482 0 00-.089.312l-.061.239c-.024.11-.049.218-.07.324-.016.08-.032.158-.045.239a7.9 7.9 0 00-.053.344c-.011.073-.024.15-.032.223-.016.13-.024.259-.037.385-.005.064-.013.129-.016.194-.008.19-.016.384-.016.58 0 .19.008.384.016.575.004.06.012.125.016.185.008.13.02.26.037.385.008.073.016.146.029.223.016.113.032.23.053.349.012.077.029.15.045.226.02.113.045.227.07.336.02.078.036.154.056.227.029.113.061.226.094.34a9.542 9.542 0 00.252.75c.069.174.137.348.215.518-.126.126-.243.26-.366.393-.028.029-.053.053-.077.08a10.862 10.862 0 00-.609.729c-.097.126-.19.248-.283.374-.106.15-.203.3-.305.449-.056.089-.118.178-.174.267a12.91 12.91 0 00-.45.782 7.968 7.968 0 00-.601-.264 7.39 7.39 0 00-2.642-.481c-.114 0-.223.004-.337.008a1.08 1.08 0 00-.17.012c-.094.005-.186.013-.28.021-.049.005-.097.013-.142.016-.122.016-.243.037-.366.057-.126.02-.251.048-.377.077-.016 0-.028.005-.045.008V33.733c0-3.507 2.382-6.358 5.308-6.358 1.847 0 3.475 1.134 4.428 2.846-.053.049-.11.094-.158.142-.09.081-.176.167-.262.251l-.154.15c-.097.105-.194.21-.292.32-.028.032-.065.07-.094.102a10.77 10.77 0 00-.36.445c-.03.037-.054.073-.082.11-.085.118-.17.231-.251.352-.04.057-.078.118-.114.175-.064.101-.134.202-.194.303-.04.069-.077.133-.114.203zM3.33 16.172c.158-.4.345-.822.547-1.252a23.324 23.324 0 013.81-5.662c.387-.421.797-.838 1.215-1.231.137-.13.268-.255.414-.385.126-.11.247-.22.369-.324.113-.097.223-.194.337-.288l.028-.024a8.386 8.386 0 013.527 4.779c-.13.016-.25.029-.373.048-.081.017-.159.037-.235.053a9.688 9.688 0 00-.353.078 18.277 18.277 0 00-.565.178 6.735 6.735 0 00-.243.093c-.102.04-.202.085-.304.13-.078.036-.154.077-.232.113a7.168 7.168 0 00-.783.462 3.589 3.589 0 00-.21.15c-.09.064-.175.134-.256.198a7.8 7.8 0 00-.2.166c-.08.073-.161.15-.239.227a3.257 3.257 0 00-.178.174c-.081.081-.154.167-.227.251-.053.061-.11.121-.159.186-.077.089-.145.186-.215.283-.045.061-.093.122-.134.183-.073.11-.138.218-.207.328-.032.056-.07.113-.102.174-.08.137-.15.28-.219.425-.016.032-.036.065-.048.101a6.423 6.423 0 00-.227.56c-.013.032-.02.064-.029.096-.049.15-.097.296-.138.45H3.045c.09-.243.187-.482.284-.72zm-1.635 6.962c.04-.551.101-1.097.182-1.64l.009-.057.02-.126.021-.117c.13-.826.3-1.613.515-2.402.024-.094.053-.186.077-.28h4.955v.154c0 1.142.28 2.223.78 3.176a6.935 6.935 0 005.361 3.706v14.399a14.234 14.234 0 00-1.174-.312c-.029-.005-.057-.008-.08-.016-.24-.049-.483-.094-.727-.13l-.163-.024a14.415 14.415 0 00-.6-.065 7.238 7.238 0 00.223-1.758 7.304 7.304 0 00-4.557-6.756 5.47 5.47 0 00.219-1.547c0-2.9-2.252-5.278-5.1-5.5.005-.235.022-.47.039-.705zm6.75 16.286l-.122.012c-.033.004-.07.013-.106.017h-.008c-.142.016-.288.04-.43.06-.078.013-.154.025-.235.041-.04.008-.081.013-.122.02a25.9 25.9 0 01-.673-.821c-.11-.138-.211-.272-.317-.41l-.057-.076a11.784 11.784 0 01-.312-.426.977.977 0 01-.081-.11l-.025-.04a14.14 14.14 0 01-.511-.741l-.057-.085c-.08-.126-.162-.247-.256-.406-.06-.089-.126-.182-.199-.316-.077-.126-.15-.25-.235-.397a20.385 20.385 0 01-.39-.697 22.736 22.736 0 01-2.119-5.46 22.485 22.485 0 01-.23-1.096c-.025-.126-.041-.247-.062-.373-.04-.243-.08-.486-.11-.729-.02-.146-.032-.291-.048-.438a18.841 18.841 0 01-.062-.672 7.658 7.658 0 01-.024-.454c-.008-.12-.008-.242-.012-.36a3.905 3.905 0 013.49 3.876c0 .596-.13 1.166-.39 1.689l-.434.883.953.255a5.68 5.68 0 013.945 7.194h-.013c-.028.004-.056.004-.085.008-.07.003-.138.008-.207.012-.153.011-.303.024-.457.04zm35.134 24.723a43.11 43.11 0 01-13.071 3.875c-.167.024-.333.04-.503.06l-.207.025c-.877.105-1.758.178-2.642.215-.187.012-.378.02-.565.029h-.053c-.483.02-.982.028-1.53.028a40.89 40.89 0 01-3.247-.126l-.503-.036a43.764 43.764 0 01-1.94-.219l-.482-.069-.065-.008a34.73 34.73 0 01-1.648-.275c-.19-.032-.381-.077-.572-.113a3.739 3.739 0 013.722-3.37 3.68 3.68 0 012.297.79l1.047.817.251-1.3a6.916 6.916 0 016.781-5.581 6.883 6.883 0 015.84 3.22l.52.825.718-.664a5.101 5.101 0 013.49-1.36c.638 0 1.258.113 1.85.34l.512 2.897zm-.827-4.682a6.685 6.685 0 00-1.534-.175 6.746 6.746 0 00-3.88 1.215 8.48 8.48 0 00-6.689-3.236 8.546 8.546 0 00-8.08 5.784 5.35 5.35 0 00-2.297-.51 5.36 5.36 0 00-5.308 4.641l-.382-.093a45.902 45.902 0 01-2.012-.556c-.248-.073-.495-.15-.755-.234a37.65 37.65 0 01-2.69-.96l-.361-.142a58.726 58.726 0 01-1.368-.58l-.35-.166a18.79 18.79 0 01-.665-.308l2.602-14.637.032-.175c.057-.028.118-.06.178-.085a6.625 6.625 0 01.645-.267c.086-.032.17-.065.256-.093a5.76 5.76 0 01.438-.138c.073-.024.146-.048.224-.07.215-.056.43-.104.649-.15.008-.004.016-.004.024-.007.309-.057.617-.102.921-.134a9.97 9.97 0 016.688 1.733c.592.41 1.136.884 1.623 1.401.227.248.442.506.646.774a9.75 9.75 0 011.262 2.204c.073.17.13.348.19.522.038.113.086.223.123.34l.016.057.41 1.32.957-1.078a7.355 7.355 0 012.29-1.746 7.497 7.497 0 015.556-.418l.69.219.1-.227.195-.433c.121-.275.26-.542.401-.806l.118-.218c.138-.235.28-.47.43-.697.062-.085.122-.17.179-.255.118-.161.235-.324.361-.481.081-.102.158-.203.243-.304.146-.175.3-.34.455-.51.097-.102.194-.203.296-.304.045-.045.09-.086.138-.13.418-.4.864-.773 1.339-1.11.008-.004.016-.012.024-.016a12.22 12.22 0 011.562-.932c.02-.012.04-.02.062-.032.137-.07.28-.13.422-.194.097-.04.199-.086.296-.126.118-.049.235-.093.353-.137.194-.073.39-.142.589-.203.032-.008.065-.024.097-.032l2.29 12.895zm2.373-23.471a17.28 17.28 0 01-.446.717l-.102.154a8.176 8.176 0 01-.272.405l-.073.118c-.032.045-.065.089-.113.158-.143.202-.284.405-.447.615l-.09.126a30.75 30.75 0 01-.981 1.22c-.07.085-.138.166-.208.247-.145.166-.291.328-.458.514-.02.016-.032.032-.04.04l-.134.146a.904.904 0 00-.086-.053c-.094-.065-.191-.121-.288-.183-.15-.093-.3-.186-.455-.271a9.546 9.546 0 00-.317-.166 9.18 9.18 0 00-.455-.227c-.11-.048-.218-.097-.333-.145a7.88 7.88 0 00-.462-.183c-.11-.04-.224-.08-.342-.117a9.736 9.736 0 00-.474-.146 9.15 9.15 0 00-.345-.094c-.167-.04-.337-.072-.507-.105-.105-.02-.215-.044-.325-.064-.191-.03-.382-.049-.568-.07a5.94 5.94 0 00-.28-.032 10.139 10.139 0 00-2.358.073c-.012 0-.029.004-.04.004a10.783 10.783 0 00-1.672.381c-.178.056-.35.125-.523.19a.071.071 0 01-.03.008 11.356 11.356 0 00-2.723 1.475l.001-.005a8.403 8.403 0 01-.215-.644c-.016-.053-.028-.105-.045-.158a9.098 9.098 0 01-.15-.66s0-.005-.005-.005c-.04-.227-.07-.45-.094-.677l-.012-.17a7.502 7.502 0 01-.033-.684 8.365 8.365 0 012.411-5.876c.224-.232.463-.45.719-.653.07-.057.146-.11.219-.166.061-.045.121-.094.183-.138h.003c.073-.053.15-.105.227-.158a8.464 8.464 0 012.703-1.183h.005a8.429 8.429 0 0110.141 6.25c-.038.066-.07.13-.11.192zm1.157-2.192c-1.554-3.62-5.165-6.096-9.233-6.096-.503 0-1.002.041-1.493.114a10.146 10.146 0 01-.126-1.609c0-.562.045-1.118.13-1.669.036-.226.08-.449.134-.672a10.76 10.76 0 013.206-5.569 10.656 10.656 0 014.034-2.353l.633-.202-.073-.66a3.689 3.689 0 01-.005-.892c.005-.04.013-.085.017-.125.012-.102.027-.199.053-.3.008-.04.016-.086.028-.13a3.36 3.36 0 01.094-.332c.008-.025.016-.045.02-.07.05-.129.102-.255.163-.38l.048-.098c.05-.093.098-.182.15-.271l.074-.113c.056-.09.118-.178.186-.264.02-.024.037-.053.061-.077.005-.012.017-.02.021-.029a22.721 22.721 0 011.794 3.184 22.19 22.19 0 011.067 2.758c.341 1.073.605 2.18.783 3.285.195 1.227.293 2.475.293 3.706-.001 2.983-.695 5.952-2.059 8.864z" fill="#0A170B"/><path d="M43.428 10.655c-.09.094-.17.194-.251.291a4.953 4.953 0 00-.524.733 6.97 6.97 0 00-.207.377c-.033.065-.062.134-.094.199-.049.117-.102.23-.146.352l-.073.215c-.04.121-.073.239-.105.365-.02.072-.036.145-.053.218a4.444 4.444 0 00-.07.4c-.012.066-.024.13-.029.195-.024.199-.036.4-.036.607a12.43 12.43 0 00-.978.417c-.025.013-.045.021-.07.033-.304.145-.6.308-.893.481-.032.021-.07.04-.102.062-.283.17-.555.352-.823.546-.04.029-.081.056-.118.085-.26.19-.515.397-.763.612l-.061.049H21.145c-.037-.142-.082-.275-.127-.413-.016-.046-.027-.094-.04-.138a8.542 8.542 0 00-.223-.55c-.025-.054-.054-.102-.078-.155-.061-.125-.121-.25-.19-.376-.038-.065-.082-.126-.119-.19a20.933 20.933 0 00-.19-.309 7.375 7.375 0 00-.146-.198 12.978 12.978 0 00-.203-.272l-.167-.19a6.043 6.043 0 00-.218-.243c-.062-.065-.122-.121-.187-.182a6.09 6.09 0 00-.235-.223c-.065-.057-.134-.11-.199-.166-.085-.07-.17-.134-.256-.2-.069-.052-.142-.1-.21-.15a5.597 5.597 0 00-.272-.173 3.19 3.19 0 00-.224-.134c-.097-.054-.19-.106-.288-.154a4.04 4.04 0 00-.235-.113 8.691 8.691 0 00-.304-.13c-.081-.032-.158-.064-.24-.093a5.047 5.047 0 00-.325-.105l-.243-.073c-.113-.029-.235-.053-.353-.077-.077-.017-.153-.037-.231-.053-.13-.021-.264-.037-.393-.054A10.02 10.02 0 0011.4 5.966c.073-.057.146-.105.219-.158.183-.126.37-.25.555-.373.159-.105.317-.207.48-.304.215-.137.438-.271.657-.392.382-.223.77-.434 1.164-.632h.004a20.064 20.064 0 011.21-.563c.202-.089.41-.174.613-.255.207-.085.414-.162.625-.239.154-.057.312-.113.47-.166.127-.045.248-.09.374-.126a11.905 11.905 0 01.511-.162c.184-.053.362-.105.545-.154.207-.056.418-.11.625-.161.223-.053.442-.102.665-.15a22.718 22.718 0 014.55-.503l.053-.004c.09-.004.175-.004.26-.004.081 0 .162 0 .272.004A23.335 23.335 0 0136.6 4.714a23.191 23.191 0 014.659 3.52c.353.34.69.689 1.002 1.037l.032.033c.07.072.135.142.2.218.186.215.373.43.551.652.125.153.254.315.384.481z" fill="#48587C"/><path d="M13.576 11.785c-.13.016-.25.029-.373.048-.081.017-.159.037-.235.053a9.688 9.688 0 00-.353.078 18.277 18.277 0 00-.565.178 6.735 6.735 0 00-.243.093c-.102.04-.202.085-.304.13-.078.036-.154.077-.232.113a7.168 7.168 0 00-.783.462 3.589 3.589 0 00-.21.15c-.09.064-.175.134-.256.198a7.8 7.8 0 00-.2.166c-.08.073-.161.15-.239.227a3.257 3.257 0 00-.178.174c-.081.081-.154.167-.227.251-.053.061-.11.121-.159.186-.077.089-.145.186-.215.283-.045.061-.093.122-.134.183-.073.11-.138.218-.207.328-.032.056-.07.113-.102.174-.08.137-.15.28-.219.425-.016.032-.036.065-.048.101a6.423 6.423 0 00-.227.56c-.013.032-.02.064-.029.096-.049.15-.097.296-.138.45H3.044c.09-.242.188-.48.285-.72.158-.4.345-.822.547-1.252a23.324 23.324 0 013.81-5.662c.387-.421.797-.838 1.215-1.231.137-.13.268-.255.414-.385.247-.223.49-.433.735-.636a8.386 8.386 0 013.526 4.779z" fill="#4CA634"/><path d="M34.463 7.224l-1.554-.473-.47-1.543a1.618 1.618 0 00-1.563-1.163c-.73 0-1.36.465-1.562 1.154l-.475 1.55-1.563.479c-.69.21-1.148.838-1.148 1.555s.463 1.345 1.157 1.56l1.559.473.466 1.535c.207.7.836 1.17 1.567 1.17.727 0 1.355-.47 1.559-1.157l.474-1.548 1.562-.478a1.62 1.62 0 001.148-1.556c0-.716-.459-1.343-1.157-1.558zm-.71 1.77l-1.93.587a.227.227 0 00-.15.146l-.59 1.928c-.061.21-.357.21-.417 0l-.59-1.928a.224.224 0 00-.15-.146l-1.931-.587a.22.22 0 010-.422l1.931-.588a.235.235 0 00.15-.145l.59-1.932c.06-.207.357-.207.417 0l.59 1.932c.023.07.077.121.15.145l1.93.588a.221.221 0 010 .422z" fill="#0A170B"/><path d="M27.995 8.994l1.934.587c.07.02.126.077.148.146l.588 1.93c.062.208.358.208.42 0l.588-1.93a.222.222 0 01.148-.146l1.933-.587c.206-.064.207-.357 0-.42l-1.933-.589a.226.226 0 01-.148-.144l-.589-1.933c-.061-.206-.357-.207-.418-.001l-.59 1.934a.228.228 0 01-.147.144l-1.934.587a.22.22 0 000 .422z" fill="#FFED80"/><path d="M62.368 19.18c-.955 0-1.815-.201-2.58-.606a4.614 4.614 0 01-1.793-1.677c-.43-.713-.645-1.517-.645-2.412 0-.894.215-1.698.645-2.412a4.614 4.614 0 011.793-1.677c.765-.404 1.625-.606 2.58-.606.954 0 1.81.202 2.567.606a4.497 4.497 0 011.793 1.677c.438.714.657 1.518.657 2.412 0 .895-.219 1.699-.657 2.412a4.497 4.497 0 01-1.793 1.677c-.757.404-1.613.607-2.567.607zm0-2.115c.456 0 .868-.107 1.238-.322a2.33 2.33 0 00.877-.903c.215-.396.323-.847.323-1.355 0-.507-.108-.954-.323-1.341a2.31 2.31 0 00-.877-.916 2.418 2.418 0 00-1.238-.323c-.456 0-.869.108-1.239.323a2.31 2.31 0 00-.877.916c-.215.387-.322.834-.322 1.341 0 .508.107.96.322 1.355.215.387.508.688.877.903.37.215.783.322 1.239.322zm10.782 2.116c-.946 0-1.797-.198-2.554-.594a4.543 4.543 0 01-1.767-1.677c-.43-.713-.645-1.522-.645-2.425 0-.903.215-1.711.645-2.425a4.45 4.45 0 011.767-1.664c.757-.404 1.608-.606 2.554-.606.825 0 1.57.146 2.231.439a4.293 4.293 0 011.651 1.264l-1.625 1.47c-.585-.705-1.294-1.058-2.128-1.058-.49 0-.929.108-1.316.323-.378.215-.675.52-.89.916-.206.387-.31.834-.31 1.341 0 .508.104.96.31 1.355.215.387.512.688.89.903.387.215.826.322 1.316.322.834 0 1.543-.353 2.128-1.058l1.625 1.47a4.287 4.287 0 01-1.65 1.265c-.663.292-1.407.439-2.232.439zm11.615-4.902c.533.172.937.438 1.212.8.284.36.426.808.426 1.341 0 .8-.314 1.432-.942 1.896-.619.456-1.5.684-2.644.684h-4.63V9.97h4.385c1.084 0 1.922.207 2.515.62.602.404.903.98.903 1.728 0 .439-.107.826-.322 1.161a2.164 2.164 0 01-.903.8zm-4.063-.697h1.625c.722 0 1.083-.296 1.083-.89 0-.593-.36-.89-1.083-.89h-1.625v1.78zm2.012 3.586c.74 0 1.11-.314 1.11-.941 0-.61-.37-.916-1.11-.916h-2.012v1.857h2.012zm12.32-.142V19h-7.249V9.97h7.082v1.974h-4.554v1.522h4.012v1.91h-4.012v1.65h4.721zm13.697-7.055V19H96.49V9.97h2.515v7.005h2.36V9.97h2.516v7.004h2.335V9.97h2.515zm1.174 7.004v3.844h-2.348V19h-1.393v-2.025h3.741zm8.472.051V19h-7.25V9.97h7.082v1.974h-4.554v1.522h4.012v1.91h-4.012v1.65h4.722zm10.046-7.055V19h-2.554v-3.521h-3.483V19h-2.554V9.97h2.554v3.393h3.483V9.971h2.554zm1.94 0h2.515v5.301l3.728-5.301h2.399V19h-2.515v-5.289L132.775 19h-2.412V9.97zm17.831 7.055V19h-7.25V9.97h7.082v1.974h-4.554v1.522h4.012v1.91h-4.012v1.65h4.722zm-83.75 8.75V33h-1.661v-5.861h-3.26V33H57.86v-7.224h6.584zm5.238 7.348c-.75 0-1.428-.162-2.033-.485a3.659 3.659 0 01-1.414-1.331 3.704 3.704 0 01-.505-1.92c0-.708.168-1.345.505-1.909a3.634 3.634 0 011.414-1.341c.605-.324 1.283-.485 2.033-.485s1.424.161 2.022.485a3.634 3.634 0 011.93 3.25c0 .709-.172 1.349-.516 1.92a3.659 3.659 0 01-1.414 1.33c-.598.324-1.272.486-2.022.486zm0-1.424c.426 0 .812-.097 1.156-.29.344-.199.612-.474.805-.825.199-.35.299-.75.299-1.197 0-.447-.1-.846-.3-1.197a2.04 2.04 0 00-.804-.815c-.344-.2-.73-.3-1.156-.3-.427 0-.812.1-1.156.3a2.11 2.11 0 00-.815.815c-.193.351-.29.75-.29 1.197 0 .447.097.846.29 1.197.2.351.471.626.815.826.344.192.73.289 1.156.289zm12.489-.062v2.858h-1.548V33h-5.098v1.496h-1.548l.01-2.858h.29c.433-.014.74-.33.918-.95.179-.619.29-1.503.33-2.652l.083-2.26h5.552v5.862h1.011zm-5.17-3.447c-.034.86-.107 1.582-.217 2.167-.11.578-.278 1.005-.505 1.28h3.23v-4.5h-2.477l-.031 1.053zm12.014 1.899H87.86V33h-1.662v-7.224h1.662v2.92h1.197l1.898-2.92h1.765l-2.363 3.488L92.792 33h-1.898l-1.879-2.91zm11.181-4.314V33h-1.65v-5.861h-2.478l-.051 1.506c-.034 1.025-.117 1.858-.248 2.497-.13.633-.35 1.122-.66 1.466-.303.337-.73.506-1.28.506-.227 0-.502-.038-.825-.114l.103-1.414a1 1 0 00.299.042c.4 0 .678-.234.836-.702.158-.475.258-1.214.3-2.219l.102-2.93h5.552zm8.182-.123c.722 0 1.372.161 1.95.485a3.53 3.53 0 011.373 1.341c.33.564.495 1.2.495 1.91 0 .708-.165 1.348-.495 1.919a3.552 3.552 0 01-1.373 1.33c-.578.324-1.228.486-1.95.486a4.085 4.085 0 01-1.775-.382 3.65 3.65 0 01-1.331-1.083 3.629 3.629 0 01-.661-1.6h-.949V33H102v-7.224h1.662v2.838h.97a3.534 3.534 0 012.002-2.59 4.063 4.063 0 011.744-.371zm0 6.047a2.03 2.03 0 001.847-1.104c.186-.351.279-.754.279-1.208a2.54 2.54 0 00-.279-1.207 2.03 2.03 0 00-1.847-1.104 2.029 2.029 0 00-1.847 1.104 2.54 2.54 0 00-.279 1.207c0 .454.093.857.279 1.208a2.029 2.029 0 001.847 1.104zm10.903-5.924V33h-1.651v-2.6c-.626.227-1.207.34-1.744.34-.97 0-1.713-.23-2.229-.691-.516-.468-.774-1.139-.774-2.013v-2.26h1.651v2.075c0 .495.131.87.393 1.124.268.248.653.372 1.155.372a3.78 3.78 0 001.548-.32v-3.25h1.651z" fill="#fff"/></svg>