<svg width="153" height="70" fill="none" xmlns="http://www.w3.org/2000/svg"><path d="M20.722 31.93c-.013.014-.029.025-.04.046a.274.274 0 01.045-.045c.032-.037.06-.065.085-.097-.03.032-.058.06-.09.097zm.146-2.903a.938.938 0 00-.086-.097 2.165 2.165 0 01.097 2.815.927.927 0 01-.069.089 2.168 2.168 0 00.058-2.807zm7.641-2.317a4.373 4.373 0 00-.877-1.312c.366.381.662.826.873 1.312.008.017.016.037.029.053l-.025-.053zm.183.498a4.631 4.631 0 00-.126-.365l-.024-.056c.008.02.016.037.02.056.05.122.09.243.127.365l.024.078a.336.336 0 01-.02-.078zm.146.689c-.008-.053-.02-.105-.029-.162-.02-.122-.04-.247-.073-.369-.008-.024-.015-.053-.023-.08a3.806 3.806 0 01.093.45c.008.055.02.108.028.16.025.179.037.353.037.53l-.003.074a4.327 4.327 0 01-.358 1.656c.227-.51.353-1.07.361-1.656l.005-.073a4.132 4.132 0 00-.038-.53z" fill="#0A170B"/><path d="M43.577 64.145a43.102 43.102 0 01-13.075 3.875c-.142.02-.288.037-.43.053l-.276.033a33.75 33.75 0 01-2.642.214c-.202.013-.41.021-.616.03a42.986 42.986 0 01-4.777-.093l-.503-.04a38.15 38.15 0 01-1.94-.22l-.479-.069-.069-.008a34.085 34.085 0 01-1.648-.275c-.19-.032-.381-.077-.572-.113a3.742 3.742 0 013.72-3.374c.841 0 1.636.275 2.298.794l1.047.818.251-1.3a6.916 6.916 0 016.78-5.582 6.883 6.883 0 015.84 3.22l.52.826.719-.665a5.112 5.112 0 013.49-1.365 5.17 5.17 0 011.85.344l.512 2.897z" fill="#326827"/><path d="M42.753 59.463a6.75 6.75 0 00-5.418 1.042 8.48 8.48 0 00-6.687-3.237 8.546 8.546 0 00-8.08 5.784 5.363 5.363 0 00-7.605 4.132l-.382-.093c-.474-.118-.97-.25-1.623-.438a7.042 7.042 0 01-.39-.121 17.2 17.2 0 01-.754-.231 38.446 38.446 0 01-2.69-.96l-.358-.142c-.49-.198-.954-.393-1.372-.58l-.349-.166a18.97 18.97 0 01-.665-.308l2.597-14.638.005.004.032-.182a10.097 10.097 0 012.415-.802 9.96 9.96 0 0111.452 6.838l.422 1.38.962-1.08a7.368 7.368 0 014.155-2.37 7.46 7.46 0 013.685.207l.694.218.291-.66a11.901 11.901 0 017.37-6.486l2.293 12.889z" fill="#3A7729"/><path d="M40.728 41.498c-.085.081-.174.167-.267.26a1.112 1.112 0 00-.085.072c-.102.097-.208.199-.313.291l-.337.3.45 2.544a13.525 13.525 0 00-8.261 6.805 9.19 9.19 0 00-3.803-.07 9.01 9.01 0 00-4.127 1.973c-2.143-4.934-7.454-7.789-12.868-6.74a11.91 11.91 0 00-1.77.498l.89-5.007-.334-.3a31.607 31.607 0 01-1.063-1.02 9.986 9.986 0 013.676.133l.032.008a9.845 9.845 0 014.233 2.167l.005.004a9.903 9.903 0 012.11 2.576l.39.685.698-.373c.819-.433 1.733-.62 2.682-.583a5.095 5.095 0 012.698.943l.873.624.365-1.005a9.56 9.56 0 018.465-6.27h.021a9.474 9.474 0 015.64 1.486z" fill="#4CA634"/><path d="M45.216 35.84a9.255 9.255 0 01-.094.154c-.138.239-.292.478-.442.713l-.061.088-.004.009c-.121.182-.24.368-.39.58-.028.044-.056.088-.11.157a21.77 21.77 0 01-.446.616l-.089.126c-.162.21-.325.425-.503.636-.15.194-.31.385-.48.588l-.206.243c-.15.178-.313.352-.45.502-.021.02-.041.045-.05.053 0 .005-.004.008-.007.013a11.035 11.035 0 00-4.858-1.847c.377-.336.763-.669 1.16-.997l.318-.263c.349-.284.697-.563 1.055-.842l.28-.219c.385-.295.779-.583 1.169-.87.089.008.174.02.263.032.536.06 1.072.126 1.591.194l.442.061c.617.08 1.23.17 1.83.263a.802.802 0 01.082.01z" fill="#7CAF5F"/><path d="M38.638 35.026c-.426.328-.84.664-1.246 1-.106.086-.211.175-.317.264-.358.3-.71.604-1.056.91-.089.078-.17.151-.263.227a80.51 80.51 0 00-1.072.989 11.183 11.183 0 00-7.86 4.196 11.03 11.03 0 00-1.376 2.215 6.87 6.87 0 00-1.246-.486c.032-.037.07-.077.102-.113a43.727 43.727 0 013.352-3.56c.102-.102.21-.2.317-.296a27.105 27.105 0 011.083-.984c.203-.178.401-.36.609-.535.15-.13.304-.256.458-.385.194-.166.393-.332.592-.494.167-.13.329-.259.495-.39.2-.158.394-.316.598-.47.17-.129.344-.258.514-.389.203-.15.402-.3.606-.449l.543-.385c.203-.142.402-.287.61-.43.185-.128.373-.254.563-.38.166-.113.336-.227.507-.34.13.007.259.02.393.028.377.029.755.053 1.132.085l.58.049c.353.029.702.057 1.047.089.112.013.221.022.335.034z" fill="#B9D79E"/><path d="M32.506 34.585c-.093.064-.183.134-.272.198-.126.09-.25.178-.377.272-.251.182-.499.368-.746.554-.11.086-.224.17-.334.255-.333.256-.661.515-.986.774-.016.016-.036.029-.056.045-.341.275-.674.555-1.007.834l-.3.264c-.232.198-.459.4-.687.599-.11.101-.223.202-.336.304-.224.202-.443.409-.658.612-.097.093-.194.182-.292.275a61.48 61.48 0 00-.905.891c-.3.3-.593.608-.885.916a16.99 16.99 0 00-.276.308c-.199.21-.393.422-.58.632-.113.126-.218.25-.328.377-.17.194-.337.389-.504.587-.11.138-.227.275-.336.414-.11.134-.224.267-.333.4a6.721 6.721 0 00-2.386.463c-.426-.645-.91-1.24-1.453-1.783.04-.045.081-.085.122-.125.105-.11.219-.219.325-.329.154-.15.304-.3.458-.449.114-.11.227-.218.35-.328.15-.145.304-.296.462-.438.118-.11.235-.218.358-.328.158-.142.317-.287.479-.43l.365-.316c.167-.145.333-.287.504-.429.121-.102.24-.207.369-.308.17-.146.353-.292.536-.438.113-.093.226-.186.344-.28.203-.158.41-.316.614-.473.101-.077.198-.154.3-.226.309-.235.617-.462.934-.689.337-.247.681-.49 1.026-.729.13-.089.26-.174.39-.263.219-.15.439-.3.666-.45.145-.096.3-.19.446-.287.207-.134.414-.271.63-.4.154-.098.312-.195.47-.292.17-.105.342-.21.512-.312l.45.013 1.059.037.654.024c.312.016.629.029.945.045.087 0 .176.004.27.009z" fill="#7CAF5F"/><path d="M12.342 34.929c-.073.045-.146.093-.219.137-.312.186-.616.377-.92.571-.147.09-.292.174-.435.267-.43.275-.856.554-1.278.838l-.037.025c-.43.29-.856.587-1.274.887-.138.097-.268.198-.402.295-.283.207-.568.417-.848.629-.065.048-.134.097-.194.145a15.723 15.723 0 01-.301-.384l-.061-.078c-.102-.134-.203-.271-.317-.425-.025-.037-.053-.073-.078-.11l-.029-.04c-.174-.242-.344-.49-.507-.741l-.064-.097c-.078-.122-.159-.24-.252-.393a7.318 7.318 0 01-.194-.316c-.045-.073-.086-.146-.126-.215-.02-.033-.04-.061-.057-.09 2.399-.37 4.939-.674 7.593-.905z" fill="#B9D79E"/><path d="M19.5 34.495c-.07.045-.134.089-.202.13a54.88 54.88 0 00-1.396.903c-.183.12-.366.242-.547.364-.402.275-.8.555-1.194.834-.13.097-.263.186-.393.284-.495.36-.978.728-1.457 1.101-.15.118-.3.24-.45.357-.361.292-.722.583-1.075.883-.09.078-.186.15-.275.227a11.726 11.726 0 00-4.16-.04c.05-.037.102-.073.151-.11a61.15 61.15 0 011.757-1.244 53.984 53.984 0 011.68-1.102c.118-.072.231-.145.35-.215a48.128 48.128 0 011.736-1.04c.085-.049.175-.097.26-.146a61.86 61.86 0 011.732-.951c.053-.025.097-.054.154-.078 1.097-.064 2.214-.116 3.33-.157z" fill="#7CAF5F"/><path d="M26.156 34.406c-.243.162-.48.324-.719.486-.113.077-.223.15-.333.226-.36.248-.714.503-1.071.758-.325.235-.646.47-.962.713-.105.08-.215.162-.325.247-.207.158-.418.316-.621.478-.126.102-.248.202-.374.3-.183.15-.366.296-.547.446-.13.105-.256.215-.386.324-.17.146-.341.288-.511.438-.13.11-.256.223-.382.336-.166.146-.333.292-.495.438-.126.113-.251.23-.374.344-.162.15-.32.296-.474.446a29.184 29.184 0 00-.829.806l-.353.352-.158.158a11.501 11.501 0 00-2.852-1.58c.08-.069.166-.133.255-.202.248-.202.495-.405.751-.604.17-.134.35-.263.523-.397.187-.137.37-.28.556-.417.186-.137.377-.275.568-.413.178-.13.361-.26.547-.385.191-.137.39-.275.59-.409.178-.126.365-.25.547-.373l.608-.4c.187-.122.374-.24.564-.361l.621-.39.6-.36c.362-.218.731-.433 1.097-.644l.62-.352c.285-.005.573-.005.862-.008l.004.004.503-.008c.216-.004.43-.004.65-.004h.118c.39-.001.788.003 1.182.007z" fill="#B9D79E"/><path d="M29.155 20.52c-.04.033-.073.07-.114.102-.134.126-.271.251-.401.377-.078.073-.15.146-.223.218-.126.126-.248.251-.37.382a2.551 2.551 0 00-.101.105c-.016.012-.029.032-.045.044-.033.041-.061.081-.102.118-.105.118-.21.235-.312.357-.078.089-.154.183-.232.271l-.142.178c-.057.07-.11.138-.162.207-.02.024-.045.053-.065.081-.008-.005-.013-.005-.016-.008a6.457 6.457 0 00-.499-.186l-.122-.037a5.024 5.024 0 00-.482-.126l-.045-.012a5.608 5.608 0 00-.523-.081l-.135-.013a5.929 5.929 0 00-4.707 1.664 6.46 6.46 0 00-.52.571c-.129.166-.25.336-.36.514-.02.033-.045.07-.061.102a4.872 4.872 0 00-.305.567c-.008.012-.012.024-.02.037a7.34 7.34 0 00-.227.587l-.025.062c-.004 0-.004 0-.008.004-.15.013-.304.037-.454.07a.875.875 0 00-.102.02c-.15.037-.296.077-.439.13 0 0-.003 0-.008.004l-1.168-6.736a7.318 7.318 0 016.115-3.26 7.385 7.385 0 016.38 3.688z" fill="#83AA36"/><path d="M35.583 31.656c0 .559.162 1.08.442 1.523l-.958-.065c-.025-.004-.053-.004-.081-.008l-.272-.016a138.25 138.25 0 00-3.02-.166l-2.762-.097c-.122-.005-.248-.005-.37-.008a5.938 5.938 0 001.92-4.14c0-.037.005-.077.008-.113.004-.045.004-.085.004-.134 0-.19-.013-.384-.033-.575 0-.024-.004-.049-.004-.073-.005-.045-.016-.089-.02-.134a5.75 5.75 0 00-.062-.365.926.926 0 00-.029-.145l-.024-.097a3.499 3.499 0 00-.09-.333c-.02-.06-.036-.126-.056-.186a.428.428 0 00-.029-.08c.154-.114.309-.227.466-.329h.004a6.56 6.56 0 01.617-.34c.02-.013.048-.025.065-.033a7.267 7.267 0 015.364-.38l-1.071 6.152-.01.142zm12.754-6.72c0 3.152-.771 6.298-2.294 9.365l-.011.024-.475-.073c-.17-.029-.35-.053-.527-.08l-.84-.122-.524-.073c-.24-.032-.479-.064-.714-.097l.013-.012-2.041-.231c-.02-.005-.033-.005-.049-.008l-.309-.033h-.008a2.832 2.832 0 00.759-1.94l-1.115-6.453a6.196 6.196 0 015.552-.866l.896.291.159-.927c.037-.235.089-.466.154-.693.016-.07.037-.134.056-.203.054-.166.11-.332.17-.494.03-.064.05-.13.074-.194.093-.215.186-.425.3-.632a7.312 7.312 0 01.366-.6c.016-.02.029-.044.045-.064.241 1.353.363 2.73.363 4.115z" fill="#326827"/><path d="M47.52 18.808c-.015.016-.032.032-.044.049a1.88 1.88 0 00-.158.178c-.082.085-.159.17-.227.258l-.159.194c-.065.09-.134.178-.199.267-.048.065-.093.134-.142.207a5.73 5.73 0 00-.178.276 6.06 6.06 0 00-.292.502c-.037.073-.078.142-.11.215-.053.105-.102.21-.15.316-.03.07-.062.138-.094.207a11.972 11.972 0 00-.377 1.093 7.815 7.815 0 00-5.49.895l-.553-3.192a.9.9 0 00-.88-.782h-.017a.902.902 0 00-.896.753l-.609 3.504a8.833 8.833 0 00-7.462 1.175c-.025.02-.062.037-.09.056-.06-.077-.117-.153-.178-.23a.79.79 0 00-.061-.081c-.065-.078-.138-.154-.203-.235-.024-.024-.048-.053-.077-.077a4.769 4.769 0 00-.248-.251l-.089-.08v-.005a5.24 5.24 0 00-.194-.17c-.016-.008-.029-.02-.04-.029-.005-.005-.013-.008-.017-.013.029-.04.061-.077.086-.113.064-.085.134-.166.202-.247.142-.17.288-.34.439-.506.077-.085.154-.166.231-.25.159-.167.32-.329.487-.49l.215-.207c.224-.202.447-.405.678-.596.053-.045.102-.08.154-.121.24-.199.487-.39.743-.567.037-.03.073-.057.11-.081.276-.194.56-.377.848-.551.073-.045.15-.09.227-.13.223-.134.45-.259.682-.376a6.6 6.6 0 01.247-.13c.288-.142.572-.275.865-.397.093-.04.186-.073.28-.11.223-.088.45-.174.678-.25.105-.037.207-.073.312-.105.304-.097.609-.19.921-.267.073-.02.138-.033.207-.049.264-.064.531-.121.803-.17l.284-.048c.337-.057.67-.105 1.01-.138l.487-.048.183-.454c.061-.15.126-.296.195-.438.024-.048.053-.093.072-.142.05-.093.094-.186.146-.275.037-.056.065-.11.098-.166.048-.08.097-.162.145-.239.037-.057.078-.11.114-.166.053-.073.102-.146.154-.219.04-.056.085-.11.134-.166a5.29 5.29 0 01.159-.202c.044-.053.093-.105.142-.158.053-.061.11-.126.17-.186.049-.053.097-.102.15-.154.062-.057.122-.118.187-.174.048-.049.105-.097.154-.142.064-.057.13-.11.194-.167.061-.045.11-.089.167-.13.069-.052.138-.1.207-.153l.17-.121c.073-.049.146-.094.223-.138.053-.036.114-.077.17-.11.078-.044.154-.085.235-.129l.175-.097c.081-.04.162-.077.248-.113.056-.029.118-.061.178-.085.09-.04.183-.073.272-.11.057-.02.11-.045.162-.065.13-.045.26-.085.393-.125.041-.013.086-.025.13-.037a9.51 9.51 0 01.37-.094c.441.734.847 1.5 1.217 2.28.538 1.159.98 2.374 1.325 3.622z" fill="#4CA634"/><path d="M28.875 28.428l-.005.072a4.199 4.199 0 01-.36 1.657 4.38 4.38 0 01-.934 1.352 4.351 4.351 0 01-2.614 1.244 7.42 7.42 0 01-.333.016h-.179c-.064 0-.13 0-.202-.008a4.29 4.29 0 01-1.766-.494l.013-.024c.032-.061.065-.122.097-.186.033-.065.061-.13.09-.194.012-.03.02-.057.032-.086.024-.06.048-.121.064-.182.025-.061.041-.122.057-.186a3.68 3.68 0 00.102-.474l.013-.098c.016-.145.028-.292.028-.438 0-.11-.004-.214-.016-.324-.003-.049-.012-.101-.016-.15-.008-.057-.012-.113-.024-.166-.013-.081-.033-.162-.049-.24a.39.39 0 01-.016-.077 3.761 3.761 0 00-.654-1.332 1.525 1.525 0 00-.061-.09h-.005c0-.004 0-.004-.004-.004v-.004h-.005v-.004c-.064-.089-.137-.166-.21-.247-.037-.04-.07-.09-.106-.13h-.004a3.647 3.647 0 00-.596-.502 3.084 3.084 0 00-.455-.271 3.23 3.23 0 00-.243-.11 4.339 4.339 0 014.01-2.661 4.289 4.289 0 012.726.969c.126.101.243.206.357.316l.024.024c.37.381.666.826.878 1.313l.024.053a.052.052 0 01.008.024l.024.056c.049.122.09.243.126.365.005.029.013.053.021.078l.024.081c.033.122.052.247.073.369.008.056.02.109.029.162.024.18.037.353.037.53z" fill="#7CAF5F"/><path d="M21.354 30.4c0 .482-.162.952-.47 1.345-.022.029-.044.061-.072.089-.024.032-.053.06-.085.097a.274.274 0 00-.046.045c-.048.04-.102.085-.167.137a2.146 2.146 0 01-1.355.474c-.406 0-.795-.11-1.128-.308.012-.021.016-.04.024-.062a4.103 4.103 0 00.146-.348c.008-.013.012-.029.016-.04.045-.13.086-.26.118-.39.005-.029.013-.056.016-.08a4.35 4.35 0 00.062-.333l.011-.11c.016-.137.029-.275.029-.417l-.333-2.025a1.812 1.812 0 01.341-.15c.086-.03.175-.054.264-.07.032-.008.061-.012.093-.02.114-.017.227-.03.342-.03a2.217 2.217 0 011.542.637c.029.024.053.053.081.085a2.184 2.184 0 01.57 1.474z" fill="#B9D79E"/><path d="M16.826 30.526a2.388 2.388 0 01-.057.45 2.55 2.55 0 01-.446.992 2.481 2.481 0 01-.958.777 2.554 2.554 0 01-2.431-.15c.008-.016.008-.032.012-.048.033-.102.057-.203.081-.304.005-.049.021-.097.03-.146.02-.154.036-.308.036-.465l-.759-4.44 1.956-11.256 1.801 10.36.256 1.484.13.712.19 1.138.159.896z" fill="#3A7729"/><path d="M11.47 31.693a1.418 1.418 0 01-1.416 1.353c-.76 0-1.38-.6-1.412-1.352l1.416-8.125 1.412 8.124z" fill="#83AA36"/><path d="M7.899 33.766c-1.36.166-2.683.352-3.965.559a22.862 22.862 0 01-1.745-4.739 20.344 20.344 0 01-.365-1.895c.008 0 .016.004.024.004.029.005.053.013.081.02.122.025.243.058.361.094.045.013.09.025.138.04.105.033.21.07.317.11.04.017.077.03.118.045.138.057.275.118.414.183.016.008.032.02.049.029.118.056.235.12.353.19.04.024.077.049.118.073.101.057.186.118.28.182.037.03.077.053.113.081.126.09.248.183.366.284.19.158.357.317.507.478l.458.487.563-.353a6.92 6.92 0 011.384-.664l-.438 2.524-.013.137c.001.827.338 1.58.882 2.131z" fill="#326827"/><path d="M8.665 22.117L7.78 27.18a8.744 8.744 0 00-2 .758l-.18-.154a7.182 7.182 0 00-.478-.368c-.053-.04-.105-.073-.159-.11a13.167 13.167 0 00-.34-.226 4.298 4.298 0 01-.195-.114l-.329-.178a4.39 4.39 0 00-.207-.101 10.554 10.554 0 00-.341-.15c-.073-.029-.143-.061-.211-.086a6.896 6.896 0 00-.374-.129c-.064-.02-.126-.045-.186-.061-.175-.053-.345-.093-.511-.134-.03-.005-.049-.013-.07-.016a8.046 8.046 0 00-.54-.094c-.028-.36-.036-.725-.036-1.08 0-1.224.094-2.439.276-3.618l.016-.073a22.294 22.294 0 01.734-3.18.287.287 0 00.045.037l.11.098c.093.085.186.174.28.266.036.04.077.081.113.122.094.093.178.19.264.29.029.033.06.066.089.102.11.134.215.272.317.414.024.029.037.056.056.085.082.113.154.231.232.352l.085.146c.062.105.122.218.179.328.024.049.048.094.073.142.077.158.15.32.215.482l.186.454.487.048c1.122.11 2.222.34 3.285.685z" fill="#4CA634"/><path d="M43.042 10.172a47.712 47.712 0 00-.552-.648 4.526 4.526 0 00-.2-.218l-.032-.032a20.21 20.21 0 00-1.002-1.037 23.156 23.156 0 00-4.659-3.52 23.34 23.34 0 00-11.346-3.091c-.11-.005-.191-.005-.272-.005-.086 0-.175 0-.264.005l-.049.004a22.676 22.676 0 00-4.548.503A23.458 23.458 0 0010.545 6.6l-.353.288c-.293.234-.58.486-.877.753-.142.13-.276.255-.414.384a23.335 23.335 0 00-5.029 6.894 27.196 27.196 0 00-.653 1.524c.166.117.316.247.474.376l.13.122c.105.093.21.186.312.283.053.053.105.11.162.161.086.094.17.183.256.275l.158.183c.078.093.154.186.227.283.053.065.102.126.15.194.074.097.143.199.216.3.04.065.085.13.13.194.072.114.142.231.207.349.032.057.069.113.101.17.098.178.191.357.28.538.99.126 1.969.34 2.918.637l.211-1.215a.896.896 0 01.901-.762c.463 0 .844.333.91.79l.544 3.147 1.826-10.495a.97.97 0 01.958-.801h.012a.962.962 0 01.946.81l1.039 5.998a8.91 8.91 0 016.489-2.77 9.001 9.001 0 017.65 4.29c.024-.017.053-.033.072-.05.078-.052.143-.104.215-.153.272-.19.548-.377.832-.551.033-.016.062-.037.09-.057.304-.182.613-.352.925-.518.102-.053.21-.105.317-.158.215-.105.439-.21.654-.309.121-.053.24-.11.36-.158.265-.113.532-.215.804-.312.09-.036.183-.069.276-.101.296-.102.592-.19.896-.275.118-.037.24-.065.361-.097.24-.061.483-.118.727-.17.118-.024.227-.049.341-.07.353-.068.706-.129 1.064-.174a6.5 6.5 0 01.24-.47c.028-.053.056-.101.085-.153.056-.102.118-.203.182-.304.033-.057.07-.113.106-.17.06-.093.126-.182.186-.271.045-.057.081-.114.122-.17a10.005 10.005 0 01.328-.414c.07-.088.146-.174.22-.258.04-.045.085-.09.12-.134.102-.11.203-.21.31-.312.02-.02.036-.04.06-.061.127-.122.252-.235.386-.349.037-.032.078-.061.118-.093.094-.081.19-.159.293-.235.048-.037.101-.073.154-.11.089-.064.178-.13.271-.19.057-.04.114-.078.17-.113.09-.057.184-.114.276-.17.057-.033.118-.07.175-.102.097-.056.199-.11.3-.158.054-.029.11-.061.167-.085.122-.062.235-.114.358-.167.04-.016.077-.037.118-.053.162-.069.325-.13.49-.19l.118-.037c.106-.037.215-.073.329-.105a26.7 26.7 0 00-1-1.3z" fill="#84CAEC"/><path d="M49.32 19.319l-.11-.466-.37-1.304a24.734 24.734 0 00-1.173-3.042 24.776 24.776 0 00-.974-1.88l-.633-1.053v-.004l-.296-.441a24.722 24.722 0 00-1.47-1.985 46.3 46.3 0 00-.58-.68c-.085-.097-.17-.19-.255-.283a25.05 25.05 0 00-6.05-4.865A24.93 24.93 0 0025.29.007a5.882 5.882 0 00-.666.005c-1.64.02-3.27.198-4.849.534A25.114 25.114 0 009.538 5.334l-.366.292a24.1 24.1 0 00-.945.814c-.146.134-.292.267-.439.409-.446.422-.888.866-1.303 1.32a24.805 24.805 0 00-4.078 6.06 23.93 23.93 0 00-.568 1.3l-.017-.008-.349.949v.008h-.004l-.211.607h.004a23.417 23.417 0 00-.945 3.88L.3 21.04a25.318 25.318 0 00-.301 3.9c0 .324.008.648.024.972H.008l.081.924v.005l.065.7h.012c.097.802.247 1.621.442 2.43a24.24 24.24 0 002.135 5.602c.045.09.089.175.137.264.134.242.268.486.415.729.08.145.166.287.235.397.077.137.162.267.223.365.085.137.174.271.264.409l.06.097c.176.267.358.534.548.793.045.073.094.138.126.178.098.138.2.272.305.41.024.04.056.076.08.112.114.146.224.296.334.425.251.329.511.64.759.928.008.008.012.016.02.024l.232.275.013-.008c.06.07.121.142.186.207l.118.126a31.955 31.955 0 001.684 1.72l-.93 5.238-.04.231-2.943 16.583.967.462c.276.142.56.271.835.393l.35.166c.446.199.929.4 1.436.608l.365.145c.93.369 1.875.705 2.796.997.267.089.54.174.775.239a35.878 35.878 0 002.09.575l.438.113.32.073v.004l.61.137c.422.094.848.178 1.27.255.625.118 1.21.215 1.782.296l.482.07a41.44 41.44 0 002.046.226l.507.04c1.1.086 2.232.126 3.368.126a38.62 38.62 0 002.232-.058c.905-.04 1.83-.113 2.744-.222l.28-.033c.154-.02.312-.037.458-.056.442-.061.885-.122 1.32-.195a41.824 41.824 0 004.2-.883 44.965 44.965 0 008.169-3.005l.982-.474-3.912-22.05.024-.025.053-.045c.183-.174.345-.332.495-.478h.005l.138-.142c.13-.13.255-.255.369-.376.178-.183.35-.365.499-.53l.06-.062c.167-.186.338-.368.496-.554a27.638 27.638 0 00.726-.874c.183-.223.357-.446.54-.685l.096-.13c.159-.218.317-.437.45-.631.062-.086.122-.162.16-.219.133-.202.266-.4.397-.604a.633.633 0 00.073-.113 20.923 20.923 0 00.812-1.341c.012-.02.02-.04.037-.061.057-.11.118-.218.159-.3l.028-.057a3.87 3.87 0 00.094-.17l.005-.008c.004-.004.004-.008.008-.012.004-.008.012-.013.016-.021l.004-.02c.065-.122.13-.243.187-.353.029-.061.056-.121.085-.178l.013-.029c.016-.02.02-.045.029-.064l.17-.341a23.595 23.595 0 001.692-4.792c.373-1.612.564-3.24.564-4.873a25.203 25.203 0 00-.644-5.617zm-4.837-6.283c.04-.013.085-.025.13-.037a8.97 8.97 0 01.368-.094c.442.734.849 1.5 1.218 2.28a23.634 23.634 0 011.322 3.621.54.54 0 00-.045.049c-.056.056-.11.117-.158.178-.081.085-.159.17-.227.259l-.159.194c-.064.089-.134.178-.199.267-.048.064-.093.134-.142.206a5.861 5.861 0 00-.178.276 6.056 6.056 0 00-.292.503c-.037.072-.077.142-.11.214-.053.105-.101.21-.15.317a4.697 4.697 0 01-.094.206 11.55 11.55 0 00-.377 1.093 7.815 7.815 0 00-5.49.895l-.552-3.192a.9.9 0 00-.88-.782h-.017a.902.902 0 00-.897.753l-.609 3.504a8.833 8.833 0 00-7.462 1.175c-.024.02-.061.037-.09.057l-.177-.231a.798.798 0 00-.062-.081c-.064-.078-.137-.154-.202-.235-.025-.024-.049-.053-.078-.077a4.775 4.775 0 00-.247-.25l-.09-.082v-.004c-.069-.065-.137-.122-.194-.17-.016-.008-.029-.02-.04-.029l-.017-.012c.03-.04.062-.078.086-.114a16.62 16.62 0 01.641-.753l.231-.25a16.1 16.1 0 01.488-.49l.215-.207c.223-.202.446-.405.678-.596.053-.045.102-.08.154-.121.24-.199.487-.39.742-.567a1.75 1.75 0 01.11-.081 14.32 14.32 0 011.075-.681c.224-.133.45-.258.682-.376.081-.045.167-.089.248-.13.288-.141.571-.274.864-.397.094-.04.186-.072.28-.11.223-.088.45-.174.678-.25.105-.037.207-.073.312-.105.305-.097.61-.19.921-.267.073-.02.138-.032.208-.049.263-.064.53-.12.803-.17l.283-.048c.337-.057.67-.105 1.01-.137l.488-.049.183-.454a7.68 7.68 0 01.194-.438c.024-.048.053-.093.073-.141.048-.094.093-.186.146-.276.037-.056.065-.11.097-.166.049-.08.097-.162.146-.239.037-.056.077-.11.113-.166.053-.073.102-.146.154-.218.04-.057.086-.11.134-.167.049-.064.102-.134.159-.202.045-.053.093-.105.142-.158.053-.061.11-.126.17-.186.049-.053.098-.102.15-.154.062-.056.122-.117.187-.174.049-.049.105-.097.154-.142.065-.057.13-.11.194-.166.062-.045.11-.09.167-.13.07-.053.138-.101.207-.153l.17-.122c.073-.048.146-.093.224-.137.053-.037.113-.078.17-.11.077-.045.154-.085.235-.13a4.6 4.6 0 01.175-.096c.08-.04.162-.078.247-.114.057-.028.118-.06.178-.085.09-.04.183-.073.272-.11.057-.02.11-.045.162-.064.133-.044.262-.085.397-.125zm-4.306 31.929a13.525 13.525 0 00-8.262 6.805 9.19 9.19 0 00-3.803-.07 9.01 9.01 0 00-4.127 1.973c-2.143-4.934-7.454-7.789-12.868-6.74a11.91 11.91 0 00-1.77.498l.89-5.007-.334-.3a31.607 31.607 0 01-1.063-1.02 9.986 9.986 0 013.676.133l.032.008a9.845 9.845 0 014.233 2.167l.005.004a9.903 9.903 0 012.11 2.576l.39.685.698-.373c.819-.433 1.733-.62 2.682-.583a5.095 5.095 0 012.698.943l.873.624.365-1.005a9.56 9.56 0 018.465-6.27h.021a9.438 9.438 0 015.64 1.484c-.085.08-.174.166-.267.259a1.138 1.138 0 00-.085.072c-.102.097-.207.199-.313.291l-.336.3.45 2.546zM12.333 27.192l1.956-11.256 1.801 10.36.256 1.484.13.712.19 1.138.159.896a2.388 2.388 0 01-.057.45 2.55 2.55 0 01-.446.992 2.481 2.481 0 01-.958.777 2.554 2.554 0 01-2.431-.15c.008-.016.008-.032.012-.048.033-.102.057-.203.081-.304.005-.049.021-.097.03-.146.02-.154.036-.308.036-.465l-.759-4.44zm4.326-7.1a7.318 7.318 0 016.115-3.261 7.39 7.39 0 016.38 3.69c-.04.032-.073.07-.114.101-.134.126-.271.251-.401.377-.078.073-.15.146-.223.218-.126.126-.248.251-.37.382a2.551 2.551 0 00-.101.105c-.016.012-.029.032-.045.044-.033.041-.061.081-.102.118-.105.118-.21.235-.312.357-.078.089-.154.183-.232.271l-.142.178c-.057.07-.11.138-.162.207-.02.024-.045.053-.065.081-.008-.005-.013-.005-.016-.008a6.457 6.457 0 00-.499-.186l-.122-.037a5.024 5.024 0 00-.482-.126l-.045-.012a5.608 5.608 0 00-.523-.081l-.135-.013a5.929 5.929 0 00-4.707 1.664 6.46 6.46 0 00-.52.571c-.129.166-.25.336-.36.514-.02.033-.045.07-.061.102a4.872 4.872 0 00-.305.567c-.008.012-.012.024-.02.037a7.34 7.34 0 00-.227.587l-.025.062c-.004 0-.004 0-.008.004-.15.013-.304.037-.454.07a.875.875 0 00-.102.02c-.15.037-.296.077-.439.13 0 0-.003 0-.008.004L16.66 20.09zm13.801 7.765c0-.024-.004-.049-.004-.073-.005-.045-.016-.089-.02-.134a5.75 5.75 0 00-.062-.365.926.926 0 00-.029-.145l-.024-.097a3.499 3.499 0 00-.09-.333c-.02-.06-.036-.126-.056-.186a.428.428 0 00-.029-.08c.154-.114.309-.227.466-.329h.004a6.56 6.56 0 01.617-.34c.02-.013.048-.025.065-.033a7.267 7.267 0 015.364-.38l-1.071 6.152-.012.141c0 .559.162 1.081.442 1.523l-.958-.064c-.025-.005-.053-.005-.081-.008l-.272-.017c-.986-.064-1.996-.121-3.02-.166l-2.763-.097c-.121-.005-.247-.005-.369-.008a5.937 5.937 0 001.92-4.14c0-.036.004-.077.008-.113.004-.045.004-.085.004-.134.003-.19-.01-.384-.03-.574zm2.045 6.728c-.093.064-.183.134-.272.198-.126.09-.25.178-.377.272-.251.182-.499.368-.746.554-.11.086-.224.17-.334.255-.333.256-.661.515-.986.774-.016.016-.036.029-.056.045-.341.275-.674.555-1.007.834l-.3.264c-.232.198-.459.4-.687.599-.11.101-.223.202-.336.304-.224.202-.443.409-.658.612-.097.093-.194.182-.292.275a61.48 61.48 0 00-.905.891c-.3.3-.593.608-.885.916a16.99 16.99 0 00-.276.308c-.199.21-.393.422-.58.632-.113.126-.218.25-.328.377-.17.194-.337.389-.504.587-.11.138-.227.275-.336.414-.11.134-.224.267-.333.4a6.721 6.721 0 00-2.386.463c-.426-.645-.91-1.24-1.453-1.783.04-.045.081-.085.122-.125.105-.11.219-.219.325-.329.154-.15.304-.3.458-.449.114-.11.227-.218.35-.328.15-.145.304-.296.462-.438.118-.11.235-.218.358-.328.158-.142.317-.287.479-.43l.365-.316c.167-.145.333-.287.504-.429.121-.102.24-.207.369-.308.17-.146.353-.292.536-.438.113-.093.226-.186.344-.28.203-.158.41-.316.614-.473.101-.077.198-.154.3-.226.309-.235.617-.462.934-.689.337-.247.681-.49 1.026-.729.13-.089.26-.174.39-.263.219-.15.439-.3.666-.45.145-.096.3-.19.446-.287.207-.134.414-.271.63-.4.154-.098.312-.195.47-.292.17-.105.342-.21.512-.312l.45.013 1.059.037.654.024c.312.016.629.029.945.045.087 0 .176.004.27.009zM28.87 28.5a4.199 4.199 0 01-.36 1.657 4.38 4.38 0 01-.934 1.352 4.351 4.351 0 01-2.614 1.244 7.42 7.42 0 01-.333.016h-.179c-.064 0-.13 0-.202-.008a4.29 4.29 0 01-1.766-.494h-.004l.013-.024c.037-.061.069-.122.101-.186l.086-.194c.012-.03.02-.057.032-.086.03-.06.049-.121.07-.182.02-.061.037-.121.053-.186.008-.016.012-.037.016-.053a3.68 3.68 0 00.086-.422l.011-.097a3.109 3.109 0 00.013-.762c-.005-.048-.013-.101-.016-.15-.009-.057-.013-.113-.025-.166-.012-.081-.032-.162-.048-.24-.005-.024-.013-.048-.017-.077a3.76 3.76 0 00-.653-1.332 1.521 1.521 0 00-.061-.09c0-.004 0-.004-.005-.004h-.004v-.004l-.005-.004c-.065-.089-.138-.166-.21-.247-.037-.04-.065-.089-.106-.13a3.671 3.671 0 00-.596-.502 3.854 3.854 0 00-.455-.271 3.233 3.233 0 00-.243-.11h-.004c.227-.538.555-1.02.974-1.43h.003a4.339 4.339 0 013.035-1.231 4.289 4.289 0 012.727.969c.126.101.243.206.357.316l.024.024c.37.381.666.826.878 1.313l.024.053a.052.052 0 01.008.024l.024.056c.049.122.09.243.126.365.005.029.013.053.021.078l.024.081c.033.122.052.247.073.369.008.056.02.109.029.162.024.178.037.351.037.529l-.005.075zm-10.818 3.718c.048-.101.089-.198.13-.303.008-.013.012-.029.02-.045a3.48 3.48 0 00.13-.43c.005-.028.013-.056.017-.08.024-.11.045-.219.061-.333l.012-.11c.016-.137.029-.275.029-.417l-.334-2.026h.005a1.82 1.82 0 01.272-.125l.07-.025a1.91 1.91 0 01.263-.069c.032-.008.061-.012.094-.02.113-.017.227-.03.341-.03a2.218 2.218 0 011.542.637c.03.024.053.053.081.085a2.166 2.166 0 01.102 2.815.72.72 0 01-.073.09c-.024.031-.053.06-.085.096a.266.266 0 00-.045.045c-.049.04-.102.086-.167.138a2.146 2.146 0 01-1.355.473c-.406 0-.795-.11-1.128-.308h-.005c.011-.016.015-.037.023-.058zm2.471 3.553c.2-.121.402-.243.6-.36.362-.219.731-.434 1.097-.645l.62-.352c.285-.005.574-.005.862-.008l.004.004.503-.008c.216-.004.43-.004.65-.004h.118c.39 0 .787.004 1.18.008-.242.162-.478.324-.718.486-.113.077-.223.15-.333.227-.36.247-.714.502-1.071.757-.325.235-.646.47-.962.713-.105.08-.215.162-.325.247-.207.158-.418.316-.621.478-.126.102-.248.202-.374.3-.183.15-.365.296-.547.446-.13.105-.256.215-.386.325-.17.145-.34.287-.511.437-.13.11-.256.223-.382.336-.166.146-.333.292-.495.438-.126.113-.251.23-.374.344-.162.15-.32.296-.474.446a29.184 29.184 0 00-.828.806l-.353.352-.159.159a11.494 11.494 0 00-2.852-1.58c.08-.07.166-.134.255-.203.248-.202.496-.405.751-.604.17-.133.35-.263.524-.397.186-.137.369-.28.555-.417.186-.137.377-.275.568-.413.178-.13.361-.259.548-.385.19-.137.39-.275.588-.409.179-.126.366-.25.548-.373l.608-.4c.187-.122.374-.24.564-.36l.622-.39zm15.234 1.657c-.361.328-.719.656-1.072.989a11.183 11.183 0 00-7.86 4.196 11.035 11.035 0 00-1.376 2.215 6.857 6.857 0 00-1.246-.486l.102-.113a43.73 43.73 0 013.352-3.56c.102-.102.21-.2.317-.297.219-.21.442-.417.674-.623.13-.122.267-.24.41-.36.202-.179.4-.361.608-.535.15-.13.304-.256.458-.385.195-.166.394-.333.593-.494.166-.13.328-.26.495-.39.199-.158.393-.316.597-.47.17-.129.345-.258.515-.389.202-.15.401-.3.605-.449l.544-.385c.202-.142.401-.287.608-.43.187-.129.374-.254.564-.38.166-.114.337-.227.507-.34.13.007.26.02.393.028.378.029.755.053 1.132.085l.58.049c.353.029.702.056 1.047.089.11.012.219.02.333.032-.426.328-.84.664-1.246 1-.105.086-.21.175-.317.264-.357.3-.71.604-1.055.911-.087.078-.168.151-.262.228zm2.691-4.528c-.665 0-1.21-.527-1.242-1.183l1.246-7.153 1.241 7.154a1.249 1.249 0 01-.194.607 1.248 1.248 0 01-.523.454c-.167.08-.346.12-.528.12zM3.33 16.17c.162-.4.344-.822.543-1.252a23.292 23.292 0 015.03-6.894 20.083 20.083 0 011.291-1.138l.352-.287a23.458 23.458 0 019.573-4.467c1.478-.32 3.01-.487 4.549-.503l.048-.004c.09-.005.179-.005.264-.005.081 0 .162 0 .272.005A23.333 23.333 0 0136.6 4.716a23.09 23.09 0 014.658 3.52c.358.345.695.694 1.003 1.038l.032.032c.07.073.134.142.199.218a24.03 24.03 0 011.55 1.952c-.113.033-.223.07-.328.106l-.118.036c-.167.062-.329.122-.491.191-.04.016-.077.037-.118.053a7.439 7.439 0 00-.357.166c-.057.024-.114.057-.167.086a4.399 4.399 0 00-.3.158l-.175.101c-.094.057-.187.114-.276.17-.057.037-.113.073-.17.113a6.675 6.675 0 00-.272.191c-.053.037-.105.073-.154.11a5.907 5.907 0 00-.293.234c-.04.032-.08.061-.117.094-.135.113-.26.226-.386.348-.024.021-.04.04-.061.061a7.778 7.778 0 00-.309.312c-.037.045-.08.09-.121.134-.073.086-.15.17-.22.259-.048.053-.088.105-.129.158-.07.086-.134.17-.199.255-.04.057-.077.114-.121.17-.062.09-.127.178-.187.272a3.562 3.562 0 00-.105.17 6.08 6.08 0 00-.183.303l-.085.154a6.992 6.992 0 00-.24.47 15.9 15.9 0 00-1.063.174c-.114.021-.224.045-.342.07-.243.053-.487.11-.726.17-.122.032-.243.06-.361.096-.305.086-.6.175-.897.276a4.944 4.944 0 00-.276.101c-.272.097-.539.199-.803.312-.121.048-.24.105-.36.158-.216.097-.44.202-.654.308-.106.053-.216.106-.317.159-.313.166-.622.336-.926.518a16.626 16.626 0 00-.921.608c-.073.048-.138.101-.215.153-.02.016-.049.033-.073.049a9.001 9.001 0 00-7.65-4.29 8.91 8.91 0 00-6.489 2.771l-1.039-5.999a.961.961 0 00-.945-.81h-.013a.97.97 0 00-.958.802l-1.826 10.495-.544-3.147a.911.911 0 00-.91-.79.898.898 0 00-.9.761l-.211 1.215a17.06 17.06 0 00-2.918-.636c-.09-.183-.183-.36-.28-.538-.033-.057-.07-.114-.102-.17a6.26 6.26 0 00-.207-.35 4.854 4.854 0 01-.13-.193c-.073-.102-.142-.202-.215-.3a3.182 3.182 0 00-.15-.195 7.803 7.803 0 00-.227-.283l-.159-.182c-.085-.094-.17-.182-.255-.275-.057-.053-.11-.11-.162-.162a10.3 10.3 0 00-.313-.283c-.045-.04-.089-.085-.13-.121-.158-.13-.308-.259-.474-.377.038-.097.075-.186.112-.275zm8.14 15.522a1.418 1.418 0 01-1.416 1.353c-.76 0-1.38-.6-1.412-1.352l1.416-8.125 1.412 8.124zm-9.845-6.757c0-1.223.094-2.438.276-3.617l.016-.073a22.292 22.292 0 01.734-3.18c.012.013.029.025.045.038l.11.097c.093.085.186.174.28.267.037.04.077.08.113.12.094.094.178.191.264.292.029.032.061.065.089.102.11.133.215.27.317.413.024.029.037.056.057.085.08.113.154.231.231.353l.086.145c.06.105.121.219.178.328.024.049.048.094.073.142.077.158.15.32.215.482l.186.454.488.048c1.12.11 2.219.34 3.282.685L7.78 27.18a8.744 8.744 0 00-2 .758l-.18-.154a7.182 7.182 0 00-.478-.368c-.053-.04-.105-.073-.159-.11a13.167 13.167 0 00-.34-.226 4.298 4.298 0 01-.195-.114l-.329-.178a4.39 4.39 0 00-.207-.101 10.554 10.554 0 00-.341-.15c-.073-.029-.143-.061-.211-.086a6.896 6.896 0 00-.374-.129c-.064-.02-.126-.045-.186-.061-.175-.053-.345-.093-.511-.134-.03-.005-.049-.013-.07-.016a8.046 8.046 0 00-.54-.094c-.026-.36-.034-.725-.034-1.08zm2.31 9.389a22.862 22.862 0 01-1.746-4.739 20.344 20.344 0 01-.365-1.895c.008 0 .016.004.024.004.029.005.053.013.081.02.122.025.243.058.361.094.045.013.09.025.138.04.105.033.21.07.317.11.04.017.077.03.118.045.138.057.275.118.414.183.016.008.032.02.049.029.118.056.235.12.353.19.04.024.077.049.118.073.101.057.186.118.28.182.037.03.077.053.113.081.126.09.248.183.366.284.19.158.357.317.507.478l.458.487.563-.353a6.92 6.92 0 011.384-.664l-.438 2.524-.013.137c0 .83.336 1.584.88 2.135-1.358.162-2.68.348-3.963.555zm3.842 3.625a58.16 58.16 0 00-.849.629c-.064.048-.134.097-.194.145a15.699 15.699 0 01-.3-.384l-.062-.078c-.102-.134-.203-.271-.317-.425-.024-.037-.053-.073-.077-.11l-.03-.04c-.174-.242-.344-.49-.506-.741l-.065-.097c-.077-.122-.158-.24-.251-.393a7.318 7.318 0 01-.195-.316c-.045-.073-.085-.146-.126-.215-.02-.033-.04-.061-.056-.09a113.76 113.76 0 017.593-.906c-.073.045-.146.093-.219.137-.312.186-.616.377-.92.571-.147.09-.292.174-.435.267-.43.275-.856.554-1.278.838l-.037.025c-.43.29-.856.587-1.274.887-.138.099-.268.2-.402.296zm.572 1.588c.049-.036.102-.072.15-.11a61.065 61.065 0 011.757-1.243 53.927 53.927 0 011.68-1.102c.118-.073.232-.145.35-.215a48.133 48.133 0 011.737-1.04l.259-.146a61.854 61.854 0 011.732-.952c.053-.024.098-.053.154-.077 1.1-.065 2.217-.118 3.332-.158-.07.045-.134.089-.202.13a54.88 54.88 0 00-1.396.903c-.183.12-.366.242-.547.364-.402.275-.8.555-1.194.834-.13.097-.263.186-.393.284-.495.36-.978.728-1.457 1.101-.15.118-.3.24-.45.357-.361.292-.722.583-1.075.883-.09.078-.186.15-.275.227a11.726 11.726 0 00-4.162-.04zm35.228 24.607a43.102 43.102 0 01-13.075 3.875c-.142.02-.288.037-.43.053l-.276.033a33.75 33.75 0 01-2.642.214c-.202.013-.41.021-.616.03a42.986 42.986 0 01-4.777-.093l-.503-.04a38.15 38.15 0 01-1.94-.22l-.479-.069-.069-.008a34.085 34.085 0 01-1.648-.275c-.19-.032-.381-.077-.572-.113a3.742 3.742 0 013.72-3.374c.841 0 1.636.275 2.298.794l1.047.818.251-1.3a6.916 6.916 0 016.78-5.582 6.883 6.883 0 015.84 3.22l.52.826.719-.665a5.112 5.112 0 013.49-1.365 5.17 5.17 0 011.85.344l.512 2.897zm-.824-4.682a6.75 6.75 0 00-5.418 1.042 8.48 8.48 0 00-6.687-3.237 8.546 8.546 0 00-8.08 5.784 5.363 5.363 0 00-7.605 4.132l-.382-.093c-.474-.118-.97-.25-1.623-.438a7.042 7.042 0 01-.39-.121 17.2 17.2 0 01-.754-.231 38.446 38.446 0 01-2.69-.96l-.358-.142c-.49-.198-.954-.393-1.372-.58l-.349-.166a18.97 18.97 0 01-.665-.308l2.597-14.638.005.004.032-.182a10.097 10.097 0 012.415-.802 9.96 9.96 0 0111.452 6.838l.422 1.38.962-1.08a7.368 7.368 0 014.155-2.37 7.46 7.46 0 013.685.207l.694.218.291-.66a11.901 11.901 0 017.37-6.486l2.293 12.889zm2.37-23.469c-.137.239-.292.478-.441.713l-.062.089-.003.008c-.122.182-.24.368-.39.58-.029.044-.057.088-.11.157a20.01 20.01 0 01-.447.616l-.089.126c-.162.21-.325.425-.503.636-.15.194-.309.385-.48.588l-.206.243c-.15.178-.313.352-.45.502-.021.02-.04.045-.049.053 0 .005-.005.008-.008.013a11.036 11.036 0 00-4.858-1.847c.378-.336.763-.669 1.16-.997.103-.085.212-.174.318-.263a73.4 73.4 0 011.055-.842l.28-.219c.385-.295.779-.583 1.169-.87.089.008.175.02.264.032a95.02 95.02 0 011.59.194l.443.061c.617.081 1.23.17 1.83.263l.081.013-.093.151zm.922-1.693l-.012.024-.474-.073c-.17-.029-.35-.053-.528-.08l-.84-.122-.523-.073c-.24-.032-.48-.064-.714-.097l.012-.012-2.04-.231c-.022-.005-.033-.005-.05-.008l-.308-.033h-.008a2.832 2.832 0 00.759-1.94l-1.116-6.453a6.196 6.196 0 015.552-.866l.896.291.159-.927c.037-.235.09-.466.154-.693.016-.07.037-.134.057-.203.053-.166.11-.332.17-.494.029-.064.048-.13.073-.194.093-.215.186-.425.3-.632.009-.012.017-.029.025-.045.105-.19.219-.373.341-.554.016-.02.029-.045.045-.065.243 1.353.366 2.73.366 4.115-.004 3.151-.775 6.298-2.296 9.365z" fill="#0A170B"/><path d="M39.693 31.718a1.249 1.249 0 01-.194.607 1.248 1.248 0 01-.523.454c-.167.08-.346.12-.528.12-.665 0-1.21-.526-1.242-1.182l1.246-7.153 1.241 7.154z" fill="#83AA36"/><path d="M30.022 4.077a4.275 4.275 0 00-4.898 4.224c0 2.35 1.92 4.261 4.273 4.261a4.207 4.207 0 003.036-1.268A4.206 4.206 0 0033.674 8.3a4.288 4.288 0 00-3.652-4.223zm1.255 6.08a2.599 2.599 0 01-1.88.786 2.65 2.65 0 01-2.65-2.642 2.652 2.652 0 013.036-2.62A2.658 2.658 0 0132.05 8.3c0 .698-.272 1.355-.775 1.856z" fill="#0A170B"/><path d="M32.051 8.302c0 .697-.271 1.353-.775 1.855-.49.506-1.16.786-1.879.786a2.65 2.65 0 01-2.65-2.642 2.652 2.652 0 013.036-2.62 2.66 2.66 0 012.268 2.621z" fill="#FFED80"/><path d="M62.368 19.18c-.955 0-1.815-.201-2.58-.606a4.614 4.614 0 01-1.793-1.677c-.43-.713-.645-1.517-.645-2.412 0-.894.215-1.698.645-2.412a4.614 4.614 0 011.793-1.677c.765-.404 1.625-.606 2.58-.606.954 0 1.81.202 2.567.606a4.497 4.497 0 011.793 1.677c.438.714.657 1.518.657 2.412 0 .895-.219 1.699-.657 2.412a4.497 4.497 0 01-1.793 1.677c-.757.404-1.613.607-2.567.607zm0-2.115c.456 0 .868-.107 1.238-.322a2.33 2.33 0 00.877-.903c.215-.396.323-.847.323-1.355 0-.507-.108-.954-.323-1.341a2.31 2.31 0 00-.877-.916 2.418 2.418 0 00-1.238-.323c-.456 0-.869.108-1.239.323a2.31 2.31 0 00-.877.916c-.215.387-.322.834-.322 1.341 0 .508.107.96.322 1.355.215.387.508.688.877.903.37.215.783.322 1.239.322zm11.717-2.76c.498.189.89.473 1.173.851.284.378.426.813.426 1.303a2.09 2.09 0 01-.567 1.457c-.379.413-.89.731-1.535.955a6.697 6.697 0 01-2.129.323c-.61 0-1.234-.074-1.87-.22a7.972 7.972 0 01-1.806-.658l.76-1.78c.405.207.835.366 1.29.477a6.18 6.18 0 001.342.155c.568 0 1.032-.09 1.393-.27.362-.19.542-.452.542-.787a.64.64 0 00-.335-.594c-.224-.129-.525-.193-.903-.193h-2.31v-1.87h2.103c.344 0 .611-.07.8-.207a.651.651 0 00.284-.555c0-.292-.146-.516-.439-.67-.292-.164-.67-.246-1.135-.246-.378 0-.778.056-1.2.168a5.302 5.302 0 00-1.199.452l-.748-1.935c.963-.465 2.02-.697 3.173-.697.74 0 1.423.108 2.051.323.636.206 1.14.507 1.51.903.378.395.567.864.567 1.406a2 2 0 01-.335 1.135 2.218 2.218 0 01-.903.774zm10.23 2.721V19h-7.25V9.97h7.082v1.974h-4.554v1.522h4.012v1.91h-4.012v1.65h4.721zm9.878-7.055V19h-2.516v-7.004h-2.592l-.052 1.47c-.043 1.29-.15 2.34-.322 3.148-.164.808-.448 1.436-.852 1.883-.404.439-.976.658-1.715.658-.344 0-.731-.052-1.161-.155l.142-2.09c.111.026.228.039.348.039a.88.88 0 00.774-.4c.18-.266.31-.636.387-1.11a15.51 15.51 0 00.155-1.87l.129-3.598h7.275zm9.181 7.055V19h-7.25V9.97h7.082v1.974h-4.553v1.522h4.011v1.91h-4.011v1.65h4.721zm10.046-7.055V19h-2.554v-3.521h-3.483V19h-2.554V9.97h2.554v3.393h3.483V9.971h2.554zm9.189 7.055V19h-7.249V9.97h7.081v1.974h-4.553v1.522h4.012v1.91h-4.012v1.65h4.721zm10.046-7.055V19h-2.554v-3.521h-3.483V19h-2.554V9.97h2.554v3.393h3.483V9.971h2.554zm1.94 0h2.516v5.301l3.728-5.301h2.399V19h-2.516v-5.289L137.007 19h-2.412V9.97zm17.831 7.055V19h-7.249V9.97h7.081v1.974h-4.553v1.522h4.012v1.91h-4.012v1.65h4.721zm-87.981 8.75V33h-1.662v-5.861h-3.26V33H57.86v-7.224h6.584zm5.237 7.348c-.75 0-1.428-.162-2.033-.485a3.659 3.659 0 01-1.414-1.331 3.704 3.704 0 01-.505-1.92c0-.708.168-1.345.505-1.909a3.634 3.634 0 011.414-1.341c.605-.324 1.283-.485 2.033-.485s1.424.161 2.022.485a3.634 3.634 0 011.93 3.25c0 .709-.172 1.349-.516 1.92a3.659 3.659 0 01-1.414 1.33c-.598.324-1.272.486-2.022.486zm0-1.424c.426 0 .812-.097 1.156-.29.344-.199.612-.474.805-.825.199-.35.299-.75.299-1.197 0-.447-.1-.846-.3-1.197a2.04 2.04 0 00-.804-.815c-.344-.2-.73-.3-1.156-.3-.427 0-.812.1-1.156.3a2.11 2.11 0 00-.815.815c-.193.351-.29.75-.29 1.197 0 .447.097.846.29 1.197.2.351.471.626.815.826.344.192.73.289 1.156.289zm12.489-.062v2.858h-1.548V33h-5.098v1.496h-1.548l.01-2.858h.29c.433-.014.74-.33.918-.95.179-.619.29-1.503.33-2.652l.083-2.26h5.552v5.862h1.011zm-5.17-3.447c-.034.86-.107 1.582-.217 2.167-.11.578-.278 1.005-.505 1.28h3.23v-4.5h-2.477l-.031 1.053zm12.014 1.899H87.86V33h-1.662v-7.224h1.662v2.92h1.197l1.898-2.92h1.765l-2.363 3.488L92.792 33h-1.898l-1.879-2.91zm11.181-4.314V33h-1.65v-5.861h-2.478l-.051 1.506c-.034 1.025-.117 1.858-.248 2.497-.13.633-.35 1.122-.66 1.466-.303.337-.73.506-1.28.506-.227 0-.502-.038-.825-.114l.103-1.414a1 1 0 00.299.042c.4 0 .678-.234.836-.702.158-.475.258-1.214.3-2.219l.102-2.93h5.552zm8.182-.123c.722 0 1.372.161 1.95.485a3.53 3.53 0 011.373 1.341c.33.564.495 1.2.495 1.91 0 .708-.165 1.348-.495 1.919a3.552 3.552 0 01-1.373 1.33c-.578.324-1.228.486-1.95.486a4.085 4.085 0 01-1.775-.382 3.65 3.65 0 01-1.331-1.083 3.629 3.629 0 01-.661-1.6h-.949V33H102v-7.224h1.662v2.838h.97a3.534 3.534 0 012.002-2.59 4.063 4.063 0 011.744-.371zm0 6.047a2.03 2.03 0 001.847-1.104c.186-.351.279-.754.279-1.208a2.54 2.54 0 00-.279-1.207 2.03 2.03 0 00-1.847-1.104 2.029 2.029 0 00-1.847 1.104 2.54 2.54 0 00-.279 1.207c0 .454.093.857.279 1.208a2.029 2.029 0 001.847 1.104zm10.903-5.924V33h-1.651v-2.6c-.626.227-1.207.34-1.744.34-.97 0-1.713-.23-2.229-.691-.516-.468-.774-1.139-.774-2.013v-2.26h1.651v2.075c0 .495.131.87.393 1.124.268.248.653.372 1.155.372a3.78 3.78 0 001.548-.32v-3.25h1.651z" fill="#fff"/></svg>