<svg width="175" height="70" fill="none" xmlns="http://www.w3.org/2000/svg"><path d="M43.045 10.173c-.178-.218-.366-.433-.552-.647a4.53 4.53 0 00-.2-.219l-.032-.032a20.208 20.208 0 00-1.002-1.037 23.26 23.26 0 00-4.659-3.52 23.329 23.329 0 00-11.348-3.09c-.11-.004-.19-.004-.272-.004-.085 0-.174 0-.264.003l-.048.005a22.719 22.719 0 00-4.55.502 23.427 23.427 0 00-9.57 4.467l-.357.288c-.292.234-.58.482-.877.753-.146.13-.277.255-.414.381-.418.397-.828.814-1.214 1.236-.179.198-.353.397-.52.595.024.009.053.017.078.025.271.077.539.166.803.263.029.008.053.02.08.029a9.9 9.9 0 01.747.32c.033.016.07.028.102.048.251.118.495.25.735.39.044.028.093.052.142.08.235.142.467.291.694.45a.868.868 0 00.102.077c.219.158.43.324.638.498l.056.044c.216.183.418.377.617.576.036.037.078.072.114.113.19.199.377.4.552.612.032.04.065.077.093.113.183.226.358.454.524.693a10.581 10.581 0 012.885-.956l.24-1.369a.915.915 0 01.904-.761h.016c.455.008.828.34.89.79l.202 1.163a10.9 10.9 0 017.293 3.078 10.764 10.764 0 013.385-.543c1.883 0 3.709.478 5.329 1.393a10.873 10.873 0 018.977-4.755c.24 0 .48.013.72.024.068.008.141.013.21.02.102.009.202.014.304.025a22.41 22.41 0 00-1.553-2.12z" fill="#48587C"/><path d="M34.465 7.224l-1.554-.474-.471-1.542a1.618 1.618 0 00-1.563-1.163c-.73 0-1.36.465-1.562 1.154l-.474 1.55-1.563.479c-.69.21-1.149.838-1.149 1.555s.463 1.345 1.157 1.56l1.56.473.465 1.535c.208.7.836 1.17 1.567 1.17.727 0 1.356-.47 1.56-1.158l.474-1.547 1.562-.478a1.62 1.62 0 001.148-1.556c0-.716-.46-1.343-1.157-1.558zm-.71 1.77l-1.932.587a.227.227 0 00-.15.146l-.588 1.927c-.062.21-.358.21-.418 0l-.59-1.927a.223.223 0 00-.15-.146l-1.931-.588a.22.22 0 010-.421l1.931-.588a.235.235 0 00.15-.145l.59-1.932c.061-.207.357-.207.417 0l.589 1.932a.23.23 0 00.15.145l1.931.588a.22.22 0 010 .421z" fill="#0A170B"/><path d="M27.996 8.993l1.933.588a.22.22 0 01.148.145l.589 1.93c.061.209.357.209.419 0l.588-1.93a.222.222 0 01.148-.145l1.933-.588a.22.22 0 00.001-.42l-1.934-.588a.226.226 0 01-.148-.145l-.588-1.933c-.062-.206-.358-.205-.42 0l-.588 1.933a.228.228 0 01-.148.145l-1.934.588c-.206.064-.205.356 0 .42z" fill="#FFED80"/><path d="M48.341 24.936c0 .433-.016.855-.045 1.276h-.016c-.089-.012-.178-.029-.268-.04a69.142 69.142 0 00-.6-.086c-.05-.004-.098-.012-.151-.02-.07-.008-.146-.02-.219-.029-.186-.024-.377-.053-.568-.077l-.386-.049a26.523 26.523 0 00-.568-.069 15.49 15.49 0 01-.393-.053l-.195-.02-.528-.065c-.003-.033-.012-.065-.016-.097a7.141 7.141 0 00-.097-.588c-.016-.081-.04-.158-.061-.235-.037-.142-.07-.287-.114-.425-.029-.089-.06-.17-.093-.259-.045-.125-.09-.25-.143-.376-.037-.085-.08-.17-.121-.259-.057-.113-.11-.23-.17-.344a4.653 4.653 0 00-.15-.25 3.332 3.332 0 00-.2-.32 3.453 3.453 0 00-.17-.243 7.265 7.265 0 00-.223-.296 8.752 8.752 0 00-.195-.226 7.004 7.004 0 00-.247-.272l-.216-.206a5.172 5.172 0 00-.275-.248 4.64 4.64 0 00-.528-.409c-.08-.056-.158-.113-.243-.17a8.592 8.592 0 00-.32-.19 3.07 3.07 0 00-.26-.145 8.997 8.997 0 00-.341-.167c-.09-.04-.178-.08-.268-.117a5.621 5.621 0 00-.369-.134 5.628 5.628 0 00-.272-.094c-.13-.04-.264-.069-.398-.101-.089-.021-.175-.049-.264-.065-.15-.029-.304-.049-.458-.07a4.05 4.05 0 00-.227-.032 7.132 7.132 0 00-2.244.13 3 3 0 00-.333.08 4.83 4.83 0 00-.455.138 6.666 6.666 0 00-1.376.64 6.02 6.02 0 00-.515.341c-.08.057-.162.122-.243.183-.085.065-.17.137-.243.202a5.28 5.28 0 00-.353.328c-.029.029-.061.057-.094.094-.093.093-.183.194-.264.284a7.357 7.357 0 00-.734 1 4.562 4.562 0 00-.15.259c-.09.166-.175.332-.256.505v.009c-.005.004-.005.008-.008.012-.07.154-.138.316-.195.474-.024 0-.045.004-.07.004a6.31 6.31 0 00-1.16.15c-.045.013-.086.021-.13.033a5.702 5.702 0 00-1.091.397c-.02.008-.045.016-.07.029-.734-.013-1.477-.021-2.22-.025h-.072c-.353-.004-.706-.004-1.06-.004-.466 0-.917 0-1.359.004-.121 0-.24.004-.36.004l-1.003.012c-.11 0-.215 0-.32.005l-1.312.024v-.02a2.96 2.96 0 00.037-.462l-1.643-9.519a9.262 9.262 0 016.193 2.94l.374.406.515-.202a9.168 9.168 0 013.312-.616c1.842 0 3.62.539 5.142 1.56l.722.485.434-.757a9.237 9.237 0 018.007-4.65c.21 0 .422.008.63.025.069.004.137.012.207.016.142.016.28.029.422.048l.24.037c.126.02.255.045.377.07l.255.06c.065.013.127.033.187.046.183.344.357.696.515 1.045a23.053 23.053 0 012.14 9.746z" fill="#83AA36"/><path d="M34.867 29.925c0 .75-.2 1.487-.573 2.131a4.278 4.278 0 01-3.693 2.126 4.277 4.277 0 01-4.257-3.965v-.024a2.941 2.941 0 01-.013-.267 4.27 4.27 0 012.228-3.743c.134-.077.275-.137.418-.198.037-.013.072-.029.11-.04a4.378 4.378 0 01.551-.167c.114-.024.232-.048.35-.064a5.141 5.141 0 01.536-.045h.13a4.243 4.243 0 014.213 4.257z" fill="#FFED80"/><path d="M42.825 26.442v.065c0 .137-.004.275-.016.413v.021c-.008.11-.02.215-.037.32a3.205 3.205 0 01-.073.41 4.545 4.545 0 01-.223.777c-.04.102-.081.202-.122.3-.032.07-.061.134-.094.199a3.433 3.433 0 00-1.14-.19 3.538 3.538 0 00-3.527 3.3 5.416 5.416 0 01-.735-.005l-.097-.012a2.795 2.795 0 01-.219-.024 2.798 2.798 0 01-.296-.045c-.037-.005-.077-.017-.113-.024l.012-.05c.053-.137.097-.278.134-.42.005-.009.008-.013.008-.021a5.91 5.91 0 00.172-.928l.012-.137a5.678 5.678 0 00-.003-1c-.004-.057-.017-.113-.021-.175a8.335 8.335 0 00-.053-.348c-.013-.07-.024-.134-.04-.199-.025-.105-.046-.207-.074-.308l-.06-.202c-.033-.097-.062-.194-.098-.288-.025-.069-.053-.134-.078-.202a9.947 9.947 0 00-.121-.271c-.033-.065-.061-.13-.094-.19a5.064 5.064 0 00-.15-.268c-.033-.056-.065-.117-.102-.174a6.623 6.623 0 00-.186-.272c-.037-.048-.065-.097-.102-.142a7.555 7.555 0 00-.317-.38 5.861 5.861 0 00-.353-.357c-.049-.045-.102-.086-.15-.13-.078-.064-.15-.134-.232-.194-.057-.045-.118-.089-.178-.134L33.827 25l-.199-.121a2.845 2.845 0 00-.24-.134 4.539 4.539 0 00-.462-.223 4.42 4.42 0 00-.49-.182l-.219-.073-.048-.013.011-.024c.065-.142.135-.283.211-.425.033-.061.07-.118.105-.178.086-.13.167-.259.24-.368.105-.138.207-.272.333-.41.057-.069.122-.137.183-.201l.097-.094c.081-.085.17-.166.268-.25.056-.05.118-.098.178-.146.065-.053.13-.102.199-.154a7.387 7.387 0 01.788-.478c.235-.113.455-.207.674-.28a4.4 4.4 0 01.357-.105c.085-.028.175-.044.268-.069a5.696 5.696 0 011.742-.092c.065.008.13.02.194.028.118.017.235.033.35.057.056.008.11.029.162.04.126.03.247.057.369.094.024.008.045.02.07.029.15.045.296.097.438.158.024.008.049.024.077.037.138.06.272.121.407.194.036.02.072.045.11.069.117.065.234.13.344.207.045.028.081.06.122.089.105.072.21.145.309.226.045.037.089.08.134.121.085.078.178.15.26.235.037.037.073.077.11.118.085.089.17.178.251.271.032.037.057.08.09.118.08.101.158.198.23.303.033.049.057.098.09.142.065.106.134.207.19.312.033.057.062.118.09.178.053.097.105.199.15.304.03.065.049.134.078.199.04.101.08.202.113.303.02.07.037.138.057.203.029.11.061.214.085.324.017.065.021.13.033.194.02.118.045.231.057.349.008.064.008.134.011.198.01.12.021.242.021.363z" fill="#B9D79E"/><path d="M48.118 27.823a20.711 20.711 0 01-.966 3.868c-.3.866-.67 1.738-1.104 2.609l-.025.053c-.016.032-.028.065-.06.126-.057.113-.114.23-.2.376-.024.053-.053.102-.077.15l-.053.094c-.045.093-.098.182-.162.296a17.255 17.255 0 01-.793 1.313l-.056.088-.004.008a20.542 20.542 0 01-.504.738c-.137.203-.284.406-.442.62l-.089.122a33.702 33.702 0 01-1.188 1.466c-.154.178-.313.352-.45.502l-.057.065a1.15 1.15 0 00-.09-.056c-.097-.07-.199-.126-.296-.19-.154-.094-.304-.187-.463-.276-.105-.061-.215-.113-.325-.17a10.338 10.338 0 00-1.279-.563 9.022 9.022 0 00-.844-.271c-.117-.032-.234-.064-.352-.093-.175-.04-.35-.077-.523-.11-.114-.02-.227-.045-.342-.064a9.36 9.36 0 00-.588-.073c-.097-.008-.194-.025-.296-.033a10.857 10.857 0 00-1.494-.02h-.011c-.135.008-.269.02-.386.028-.077.009-.15.013-.223.021-.045.008-.09.013-.134.02-.017 0-.037.005-.053.005a8.865 8.865 0 00-.31.045c-.093.016-.19.029-.284.045l-.162.029c-.113.024-.219.045-.309.07-.057.012-.11.023-.162.04-.037.008-.07.012-.102.02l-.194.053-.07-.024c-.328-.11-.645-.223-.958-.34-.037-.017-.077-.03-.113-.045a26.329 26.329 0 01-1.002-.402c-.284-.126-.564-.247-.828-.377-.032-.012-.061-.029-.093-.045-.264-.129-.52-.258-.763-.392-.029-.013-.053-.03-.078-.04a16.838 16.838 0 01-.702-.41c-.016-.012-.037-.024-.057-.036a11.792 11.792 0 01-.67-.459c-.202-.15-.393-.3-.568-.45-.008-.007-.012-.012-.02-.015a8.401 8.401 0 01-.496-.474c-.719-.757-1.08-1.523-1.08-2.276a2.1 2.1 0 01.009-.178l.004-.065c.008-.048.013-.097.02-.145.013-.061.021-.126.038-.183l.008-.032c.012.024.024.04.032.065.02.044.045.089.07.133.053.106.11.207.17.309.024.048.053.093.08.137a6.03 6.03 0 00.277.405c.098.134.2.256.31.377.028.037.06.065.088.097.081.09.167.178.256.259.037.037.077.073.113.11.094.085.191.166.289.242.032.024.06.049.093.073.126.101.26.194.398.28l.094.056a5.224 5.224 0 00.474.263c.11.057.224.105.334.154.045.016.085.037.126.053.154.061.312.118.47.162.025.008.05.012.07.02a5.411 5.411 0 00.576.13c.118.025.24.041.366.057.049.005.102.013.154.017a5.425 5.425 0 001.156-.013.548.548 0 01.081-.008 7.13 7.13 0 00.597-.11l.102-.024a6.61 6.61 0 00.568-.17c.032-.012.065-.024.094-.037.19-.073.377-.15.556-.242.02-.008.037-.021.053-.03a5.82 5.82 0 00.536-.307c.008-.004.016-.013.025-.017a5.37 5.37 0 00.498-.372c.021-.017.045-.033.065-.053.154-.13.3-.267.439-.414l.069-.073c.134-.145.268-.3.39-.462.004-.008.012-.016.02-.028.098.029.195.053.292.077.122.029.252.057.35.07.126.023.255.044.369.056.094.012.194.024.293.032l.113.013a7.615 7.615 0 00.828.008 8.34 8.34 0 00.288-.02 3.54 3.54 0 003.255 2.154 3.537 3.537 0 003.535-3.528c0-.96-.39-1.835-1.014-2.467.04-.077.077-.15.113-.226.02-.045.037-.09.057-.134a4.497 4.497 0 00.202-.502 4.012 4.012 0 00.159-.491c.029-.093.053-.19.077-.284.016-.07.033-.142.045-.21.021-.094.04-.19.053-.284.012-.073.025-.146.033-.219.008-.045.016-.085.02-.129l.532.065c.333.037.654.077.966.117l.361.049c.195.024.386.048.573.073.121.02.247.037.369.053.195.024.382.053.568.08.097.013.2.03.292.041.016 0 .037.005.053.005z" fill="#7CAF5F"/><path d="M43.58 64.142a43.114 43.114 0 01-13.072 3.875c-.15.02-.3.037-.45.056l-.26.03a36.11 36.11 0 01-2.641.214c-.187.013-.374.02-.564.029h-.053a42.992 42.992 0 01-4.777-.093l-.504-.04c-.11-.013-.218-.021-.333-.033l-.251-.024a20.932 20.932 0 01-.779-.089l-.122-.012-.458-.062-.474-.069-.07-.008a33.155 33.155 0 01-1.651-.275c-.187-.032-.377-.077-.568-.113a3.742 3.742 0 013.721-3.37c.844 0 1.64.271 2.297.79l1.048.818.25-1.3a6.92 6.92 0 016.782-5.582 6.884 6.884 0 015.84 3.22l.52.826.72-.664a5.109 5.109 0 013.49-1.361c.637 0 1.257.113 1.85.34l.51 2.897z" fill="#326827"/><path d="M42.752 59.46a6.687 6.687 0 00-1.534-.174 6.747 6.747 0 00-3.88 1.215 8.481 8.481 0 00-6.69-3.236 8.547 8.547 0 00-8.08 5.783 5.351 5.351 0 00-2.297-.51 5.36 5.36 0 00-5.309 4.641l-.381-.093c-.475-.118-.97-.251-1.62-.438a6.982 6.982 0 01-.393-.121 39.235 39.235 0 01-3.445-1.19l-.361-.143c-.488-.198-.95-.393-1.368-.58l-.35-.161c-.218-.102-.438-.202-.665-.312L8.98 49.504l.03-.17.182-.085a4.54 4.54 0 01.251-.114c.13-.056.264-.105.398-.158l.252-.089c.145-.053.291-.097.442-.137.073-.024.146-.049.219-.07a13.7 13.7 0 01.673-.157c5.025-.976 9.951 1.964 11.453 6.84l.426 1.377.958-1.078a7.375 7.375 0 014.156-2.373 7.498 7.498 0 013.69.21l.69.219.295-.665c.11-.25.235-.497.366-.74l.118-.211c.118-.207.235-.41.365-.608.025-.036.045-.072.07-.11.146-.218.296-.429.455-.636.06-.077.121-.158.186-.239.113-.142.231-.279.353-.416.097-.114.199-.223.304-.333.118-.13.243-.25.37-.377.101-.097.21-.198.316-.292.082-.077.167-.145.252-.218a12.193 12.193 0 01.857-.664c.129-.093.267-.182.4-.271.094-.057.192-.118.289-.175.264-.162.536-.312.811-.45.033-.015.061-.036.094-.048.138-.069.275-.129.414-.19a8.267 8.267 0 01.65-.267c.19-.073.385-.137.58-.199.04-.012.078-.028.114-.04h.003l2.29 12.89z" fill="#3A7729"/><path d="M40.731 41.497c-.089.086-.178.175-.272.259a1.283 1.283 0 00-.08.073c-.102.097-.208.198-.313.292l-.337.3.45 2.548c-.13.036-.25.077-.377.117-.105.033-.21.065-.312.102-.771.263-1.51.596-2.204.992-.113.061-.219.134-.328.202-.065.037-.13.077-.191.113a23.28 23.28 0 00-.528.345c-.008.008-.016.012-.024.02-.37.259-.727.535-1.072.83-.024.021-.053.041-.077.065-.143.126-.28.251-.418.381-.078.073-.15.146-.224.219a9.488 9.488 0 00-.678.725c-.121.137-.24.28-.357.421-.126.162-.251.32-.37.486-.069.09-.133.183-.198.275-.11.159-.215.32-.317.487-.057.085-.11.174-.162.258-.143.24-.28.482-.41.73-.004.007-.013.02-.016.032-.13-.03-.26-.053-.386-.078a9.07 9.07 0 00-3.417.013c-1.546.3-2.95.972-4.128 1.972a12.02 12.02 0 00-.41-.846c-.048-.09-.101-.174-.153-.259a9.368 9.368 0 00-.321-.543l-.194-.287a20.09 20.09 0 00-.337-.47c-.073-.094-.15-.186-.224-.28a9.07 9.07 0 00-.373-.433c-.078-.085-.154-.174-.235-.259-.138-.145-.28-.284-.426-.421-.078-.07-.15-.142-.227-.21a9.538 9.538 0 00-.597-.498c-.033-.025-.065-.053-.098-.081a11.196 11.196 0 00-.738-.514 14.002 14.002 0 00-.24-.146c-.178-.105-.352-.215-.535-.312l-.31-.158c-.17-.08-.336-.162-.506-.239-.113-.048-.223-.097-.337-.142a10.27 10.27 0 00-.515-.194 9.527 9.527 0 00-.897-.276c-.11-.028-.219-.06-.328-.085a9.177 9.177 0 00-.682-.134c-.073-.013-.142-.029-.215-.04a13.117 13.117 0 00-.91-.102c-.093-.005-.183-.005-.275-.008-.179-.008-.358-.02-.536-.02-.053 0-.105.004-.154.004-.053 0-.11.004-.162.004a10.64 10.64 0 00-.994.07c-.313.036-.625.08-.938.141-.292.057-.58.126-.864.203-.098.028-.191.06-.288.093-.187.057-.374.113-.56.178a.221.221 0 01-.054.016l.886-5.002-.334-.3a25.492 25.492 0 01-1.067-1.024c.008 0 .017 0 .025-.005.154-.02.309-.037.463-.053.085-.008.17-.02.255-.024.24-.02.475-.029.714-.029l.183.005c.032 0 .065 0 .097.004.114 0 .232.005.345.013l.11.008c.122.008.243.02.361.032.037.005.065.005.102.008l.053.008a9.46 9.46 0 011.587.332 9.83 9.83 0 013.652 2.017c.232.199.45.406.658.62.008.013.016.021.024.03a9.852 9.852 0 011.006 1.247 11.22 11.22 0 01.426.68l.009.013.377.669h.004l.004.004.698-.373c.102-.053.207-.105.316-.153.04-.016.085-.037.13-.053.077-.033.15-.061.227-.09.044-.015.089-.032.134-.044.097-.033.19-.061.288-.086.029-.008.056-.012.085-.02l.008.008.41-.09c.114-.02.232-.036.353-.044.029-.005.061-.005.094-.008a6.02 6.02 0 01.288-.008c.102-.005.21 0 .337.003.811.04 1.578.267 2.297.685.061.037.126.073.19.113l.038.025c.048.028.097.064.146.097a.203.203 0 01.037.029l.885.631.312-.903.243-.615c.04-.094.078-.186.122-.28l.073-.15c.056-.11.11-.223.17-.328.029-.057.061-.11.094-.166.056-.102.113-.203.174-.3l.11-.167a6.92 6.92 0 01.187-.283c.037-.053.077-.105.117-.161.065-.09.13-.178.2-.267.04-.053.085-.105.13-.154.069-.089.137-.174.21-.255.045-.053.093-.102.138-.15a6.372 6.372 0 01.369-.38c.08-.081.158-.159.243-.235.045-.045.097-.085.146-.13l.256-.218c.053-.04.101-.08.154-.117.089-.073.178-.142.267-.21.053-.038.11-.074.162-.11.094-.065.183-.13.28-.19.053-.038.11-.07.167-.106.097-.057.19-.118.288-.174l.178-.097a8.91 8.91 0 01.292-.154 3.59 3.59 0 01.19-.09 6.04 6.04 0 01.297-.137c.065-.028.134-.053.2-.08.1-.04.198-.081.3-.118l.215-.073c.081-.024.162-.053.243-.077l.292-.086a7.6 7.6 0 01.812-.186l.178-.028c.13-.021.26-.04.39-.057l.106-.013c.178-.02.353-.032.531-.04.167-.013.337-.016.507-.016.251 0 .503.012.751.032.081.005.158.016.24.024.166.017.333.037.498.062l.276.048c.154.029.304.061.455.097.093.02.186.045.28.07.15.04.296.085.442.133l.264.086c.158.056.312.12.466.182.073.032.146.061.219.094.223.096.447.206.662.324l.016.012c.193.097.384.213.566.331z" fill="#4CA634"/><path d="M13.64 28.172c-.064.032-.126.07-.194.102-.178.089-.357.178-.531.271-.11.057-.22.113-.329.174-.17.094-.341.191-.507.288l-.293.17c-.174.11-.344.215-.511.324a14.629 14.629 0 00-.913.636c-2.236 1.685-3.369 3.545-3.369 5.52 0 .208.016.41.04.613l.025.174c.024.154.057.308.097.462l.037.158c.057.199.126.397.203.592.016.032.032.06.044.093.073.166.154.332.24.494l.101.174c.09.15.183.3.288.45.03.045.057.089.09.134.121.17.25.336.398.506-.078.012-.15.024-.227.04-.057.008-.118.02-.175.029l-.243.048-.159.037-.215.049a1.28 1.28 0 00-.073-.081A27.253 27.253 0 016.43 38.34l-.057-.077a21.194 21.194 0 01-.317-.425c-.024-.037-.053-.073-.078-.11l-.024-.04a14.291 14.291 0 01-.511-.742l-.07-.105a17.773 17.773 0 01-.247-.384 2.832 2.832 0 01-.175-.283l-.02-.033a26.163 26.163 0 01-.634-1.101c-.029-.057-.061-.11-.102-.195a22.659 22.659 0 01-1.984-5.168l-.024-.089a20.978 20.978 0 01-.362-1.859c.05-.008.094-.012.143-.02a88.919 88.919 0 011.75-.232c.007 0 .012-.004.016-.004.093-.013.186-.02.275-.032l.828-.098a3.13 3.13 0 003.129 3.01 3.136 3.136 0 003.011-2.255c.15-.045.304-.098.45-.154l.057-.024c.134-.057.264-.118.393-.183.05-.024.094-.053.138-.077a5.17 5.17 0 00.305-.175c.045-.032.093-.06.137-.088.033-.025.065-.04.094-.061.024.024.049.044.073.069a4.168 4.168 0 00.84.669c.033.015.061.036.094.052.031.013.056.029.083.045z" fill="#7CAF5F"/><path d="M30.398 39.658a1.04 1.04 0 01-.064.037c-.057.03-.11.062-.167.09-.09.052-.178.105-.267.158-.078.048-.159.093-.235.142-.013.004-.021.012-.033.016a.078.078 0 01-.024.016c-.07.045-.134.093-.203.137a4.596 4.596 0 00-.227.154c-.077.053-.154.11-.231.166-.04.033-.081.061-.122.094-.04.028-.077.056-.113.089-.086.06-.162.13-.243.198-.07.057-.143.114-.207.17-.025.02-.049.045-.073.065-.03.024-.057.053-.086.077l-.077.073c-.065.061-.13.118-.195.178-.077.077-.15.154-.227.226a.12.12 0 00-.02.025c-.033.032-.07.064-.098.097a.894.894 0 00-.064.069c-.078.08-.146.161-.22.242-.056.065-.113.126-.17.19a1.357 1.357 0 01-.085.106c-.032.045-.07.089-.102.13l-.024.032a3.426 3.426 0 00-.154.19c-.07.094-.138.19-.207.284-.016.029-.037.053-.053.081-.021.024-.037.049-.057.073l-.024.037c-.07.105-.135.21-.203.312-.037.06-.077.12-.113.182-.033.049-.057.102-.09.154-.028.053-.06.105-.089.158l-.024.045c-.029.053-.061.101-.09.153-.093.175-.177.35-.263.527a6.765 6.765 0 00-2.747-.729c-.106-.003-.216-.008-.321-.008-.138 0-.272.005-.374.013h-.008c-.012 0-.029.004-.04.004-.081.005-.162.008-.235.016l-.227.033c-.061.008-.13.012-.191.02-.04.008-.086.021-.126.03l-.146.02c-.004.004-.008.004-.013.004-.11.02-.218.048-.325.077a1.706 1.706 0 00-.15.04l-.162.04c-.167.057-.32.11-.467.167a1.152 1.152 0 00-.048-.07 7.37 7.37 0 00-.317-.449c-.004-.004-.004-.008-.008-.012a8.14 8.14 0 00-.22-.284c-.007-.008-.012-.016-.02-.024a5.38 5.38 0 00-.317-.385c-.049-.053-.097-.11-.146-.162-.029-.029-.048-.056-.077-.085-.008-.008-.016-.016-.024-.029-.05-.048-.098-.102-.146-.154-.013-.012-.021-.024-.033-.037a9.985 9.985 0 00-.292-.287l-.024-.024a11.532 11.532 0 00-5.333-2.888h-.013l-.081-.021a2.375 2.375 0 00-.203-.045 16.31 16.31 0 00-.64-.113l-.257-.033-.142-.012a2.925 2.925 0 00-.272-.029l-.134-.013-.102-.008h-.032l-.094-.008a3.554 3.554 0 00-.219-.008 4.327 4.327 0 01-.182-.162 12.486 12.486 0 01-.232-.21c-.085-.085-.17-.174-.251-.259-.065-.072-.134-.142-.195-.21-.077-.089-.145-.178-.215-.263l-.166-.21c-.065-.09-.122-.183-.179-.272-.045-.07-.093-.137-.134-.207-.053-.093-.097-.186-.142-.28-.033-.064-.07-.133-.097-.198a2.681 2.681 0 01-.11-.292c-.02-.064-.049-.126-.065-.19a2.773 2.773 0 01-.073-.325c-.008-.053-.024-.105-.032-.158a3.274 3.274 0 01-.037-.486c0-1.442.917-2.863 2.727-4.233a11.514 11.514 0 01.674-.473c.178-.121.36-.24.547-.357.033-.016.07-.037.102-.056.19-.114.382-.227.584-.341.04-.024.086-.045.13-.07.195-.104.394-.214.6-.32.058-.028.122-.056.184-.085.194-.097.39-.194.592-.287.081-.037.167-.073.251-.113.187-.081.374-.167.564-.251.105-.04.215-.085.32-.13.179-.072.358-.145.544-.218.114-.045.235-.085.35-.13l.552-.206c.134-.049.275-.093.414-.142.175-.056.345-.121.523-.178.15-.048.301-.093.45-.142.175-.056.35-.113.532-.166.158-.049.325-.093.49-.142.17-.049.345-.102.52-.15.175-.049.353-.094.528-.138.175-.048.35-.093.527-.137.175-.049.362-.09.54-.134.183-.04.36-.085.544-.13.178-.04.365-.08.544-.117.19-.045.381-.085.576-.126.17-.037.35-.07.523-.105.207-.04.414-.085.625-.126.167-.029.333-.056.503-.089.211-.037.423-.077.642-.113.056 0 .117.003.178.003l-.013.013c-.089.118-.178.235-.264.36l-.064.102a4.611 4.611 0 00-.17.28c-.03.044-.054.093-.078.137a5.64 5.64 0 00-.138.275l-.061.134a5.2 5.2 0 00-.146.36l-.024.057a5.034 5.034 0 00-.13.43c-.013.044-.02.085-.032.129-.025.105-.049.21-.07.316l-.024.158c-.016.105-.032.21-.045.317l-.012.142c-.012.153-.02.308-.02.461v.065h-.037l-.289.458s-.003.004-.003.008c-.013.016-.024.037-.037.056a4.007 4.007 0 00-.28.471l-.049.048-.045.13c-.008.02-.016.036-.02.056a2.802 2.802 0 00-.078.17c-.024.06-.053.12-.065.158-.02.06-.04.121-.045.142-.032.101-.065.202-.089.3-.029.105-.049.21-.07.324a7.817 7.817 0 00-.036.255c-.005.037-.005.078-.008.118a3.64 3.64 0 00-.012.3c0 1.18.511 2.317 1.522 3.39.126.134.268.267.414.4.029.03.061.057.094.086a9.063 9.063 0 00.531.441c.15.118.304.231.466.345.033.024.07.048.102.072.179.122.366.243.56.365l.126.078c.179.11.37.218.56.328.03.012.054.028.078.04.21.118.434.23.657.344.053.029.106.053.159.081.231.113.466.223.714.332l.049.025c.235.105.479.206.726.308.035.01.064.027.096.04z" fill="#E8B685"/><path d="M15.832 14.94l-.917 5.273-.04.231a3.944 3.944 0 00-.248.053l-.017-.037c-.048-.118-.101-.234-.154-.352l-.073-.134c-.04-.08-.08-.162-.13-.24-.028-.048-.056-.096-.088-.145a9.078 9.078 0 00-.135-.21c-.032-.049-.069-.097-.101-.146-.049-.064-.102-.129-.15-.194-.038-.045-.074-.089-.114-.134-.053-.064-.11-.125-.167-.19-.04-.04-.077-.08-.113-.121-.065-.065-.134-.126-.2-.186-.036-.033-.069-.07-.105-.097a6.432 6.432 0 00-.312-.26l-.02-.012a4.619 4.619 0 00-.451-.304c-.081-.048-.159-.097-.24-.142l-.145-.072a4.042 4.042 0 00-.236-.114c-.053-.024-.105-.048-.158-.069a4.997 4.997 0 00-.402-.15 3.959 3.959 0 00-.247-.077c-.053-.016-.106-.032-.162-.045a3.46 3.46 0 00-.28-.061c-.049-.008-.094-.02-.143-.029a5.674 5.674 0 00-3.741.611 5.722 5.722 0 00-2.991 5.03 5.06 5.06 0 00.106 1.078c.011.065.028.13.04.199.037.15.078.304.122.45.024.072.044.141.07.21.056.153.117.3.182.445l.073.166c.097.195.203.385.325.567.004.005.004.013.008.017l-.39.048-.897.11c-.134.016-.264.032-.398.053-.13.016-.255.032-.385.053l-.56.073c-.061.008-.126.016-.187.028a19.063 19.063 0 01-.036-1.179c0-1.22.093-2.434.276-3.612l.016-.078A22.378 22.378 0 013.33 16.17a22.552 22.552 0 012.735-4.913c.008 0 .02 0 .029.005.053.008.101.024.154.032.113.029.227.053.34.08l.184.05c.101.032.202.06.304.093.065.02.126.04.191.065.094.032.19.064.284.101.064.024.13.053.199.077.089.037.178.073.267.114.065.028.134.06.2.093.085.04.17.081.255.126.065.032.13.07.199.105.08.045.162.089.24.134.069.04.134.077.198.118l.232.145.19.13c.074.053.151.105.224.158.061.048.122.093.183.142.073.053.142.11.215.17.057.048.118.097.178.15.07.056.134.117.2.178a4.42 4.42 0 01.364.356c.054.053.11.105.163.161l.186.21.146.17.183.231c.044.057.09.11.13.167.065.089.126.178.186.267a8.52 8.52 0 01.373.58l.414.712.706-.422c.767-.46 1.591-.8 2.451-1.015z" fill="#83AA36"/><path d="M47.781 14.758l-.84-1.696-.158-.292-.008-.005a25.045 25.045 0 00-3.052-4.297 4.437 4.437 0 00-.264-.288 24.918 24.918 0 00-6.047-4.864A24.934 24.934 0 0025.297.007a5.957 5.957 0 00-.67.005c-1.64.02-3.271.198-4.845.534A25.165 25.165 0 009.538 5.333l-.366.292c-.32.258-.633.53-.945.814-.146.134-.292.267-.439.409-.45.421-.889.867-1.303 1.324a23.65 23.65 0 00-1.124 1.336h-.008l-.288.373c0 .005-.003.005-.003.008l-.82 1.098s-1.295 2.11-1.834 3.24c-.223.47-.414.911-.585 1.336a24.178 24.178 0 00-1.506 5.4l-.016.072a25.312 25.312 0 00-.301 3.9c0 .474.024.944.057 1.414H.04l.077.77v.008l.094.838.012-.004c.097.66.227 1.333.39 2.013l.024.089a24.156 24.156 0 002.107 5.504l.137.259c.135.247.269.49.415.733.08.138.162.276.243.413.073.13.154.26.215.35l.26.404.065.098c.17.266.358.538.548.797.045.07.093.138.126.178.097.138.199.272.304.41.024.04.053.077.081.112.113.146.223.296.333.426.118.158.727.886.727.886.013.013.024.033.037.045.13.15.26.296.393.438l.037.04c0 .005.004.005.004.009.004.004.008.008.012.008l.02.024c.564.628 1.161 1.24 1.782 1.822l-.998 5.622v.005l-.065.36L4.57 65.07l.967.462c.276.142.56.271.837.393l.349.166c.447.199.93.4 1.437.608l.366.145c.933.373 1.875.71 2.796.997.267.089.539.174.775.239a37.427 37.427 0 002.085.575l.236.061.207.053c.11.024.21.049.32.073v.004l.609.138c.422.093.848.178 1.27.255.63.118 1.21.215 1.778.296l.487.069c.739.097 1.404.174 2.046.226l.235.02c.094.009.187.013.276.022 1.104.085 2.236.129 3.364.129a40.008 40.008 0 002.232-.061c.91-.04 1.834-.113 2.744-.223l.26-.029.478-.06c.442-.057.885-.122 1.32-.195a41.826 41.826 0 004.2-.883 44.85 44.85 0 008.17-3.005l.983-.474v-.004l-3.64-20.479h-.004l-.272-1.567.021-.02.057-.049c.17-.162.333-.324.495-.482l.004.005.385-.397c.016-.016.037-.033.053-.053 0 0 .983-1.049 1.124-1.215.086-.097.162-.186.227-.267.175-.202.341-.409.499-.608.183-.222.357-.445.54-.688l.093-.126c.167-.218.32-.437.455-.631.06-.081.121-.162.154-.219.137-.202.272-.4.406-.604.024-.037.048-.077.073-.113.154-.243.309-.486.45-.725.118-.194.235-.397.357-.62a.787.787 0 01.03-.045H46.9a8.3 8.3 0 00.17-.312l.032-.061c.04-.07.078-.138.094-.174a6.42 6.42 0 00.215-.406c.029-.06.061-.121.09-.182l.008-.024c.454-.916.852-1.852 1.176-2.779.301-.855.545-1.494.841-3.07.114-.596.24-1.15.307-1.92v-.005l.065-.773c.04-.503.065-1.013.065-1.524a24.59 24.59 0 00-2.182-10.175zm-40.094-5.5c.385-.422.795-.839 1.213-1.236.138-.126.268-.25.415-.38a16.6 16.6 0 01.877-.754l.357-.288a23.422 23.422 0 019.57-4.467 22.719 22.719 0 014.55-.502l.048-.004c.09-.004.179-.004.264-.004.081 0 .162 0 .272.004a23.338 23.338 0 0111.348 3.09 23.19 23.19 0 014.659 3.52c.358.344.694.693 1.002 1.037l.033.032c.069.073.134.142.199.219A22.87 22.87 0 0144.6 12.29c-.102-.013-.203-.017-.305-.025-.069-.008-.142-.012-.21-.02-.24-.013-.48-.025-.719-.025a10.878 10.878 0 00-8.977 4.755 10.792 10.792 0 00-5.33-1.393 10.79 10.79 0 00-3.385.543 10.897 10.897 0 00-7.293-3.078l-.202-1.163a.908.908 0 00-.889-.79h-.016c-.45 0-.828.32-.905.762l-.24 1.368a10.573 10.573 0 00-2.885.956 13.089 13.089 0 00-.523-.692c-.029-.037-.061-.073-.094-.114a11.4 11.4 0 00-.552-.612c-.036-.04-.077-.077-.113-.113a10.393 10.393 0 00-.617-.575 2.6 2.6 0 01-.057-.045c-.207-.174-.417-.34-.637-.498a.876.876 0 01-.102-.077 11.84 11.84 0 00-.694-.45c-.049-.028-.097-.052-.142-.08a9.853 9.853 0 00-.735-.39c-.033-.02-.07-.032-.102-.048a9.9 9.9 0 00-.746-.32c-.03-.008-.054-.02-.082-.029a11.156 11.156 0 00-.803-.263l-.077-.024c.166-.196.34-.395.519-.593zm17.382 27.116c.126.134.269.267.415.4.028.03.06.057.093.086a9.016 9.016 0 00.531.441c.15.118.305.231.467.345.032.024.07.048.102.072.178.122.365.243.56.365l.126.078c.178.11.37.218.56.328.029.012.053.028.077.04.211.118.434.23.658.344.053.029.105.053.158.081.232.113.467.223.714.332l.049.025c.235.105.479.206.727.308.032.013.06.029.093.04a1.04 1.04 0 01-.065.037c-.056.029-.11.061-.166.09l-.268.157c-.077.049-.158.094-.235.142-.012.005-.02.013-.032.017a.076.076 0 01-.024.016c-.07.045-.135.093-.203.137a4.55 4.55 0 00-.227.154c-.077.053-.154.11-.231.166-.04.032-.081.061-.122.094-.04.028-.077.056-.113.089-.086.06-.162.129-.243.198-.07.057-.143.113-.207.17-.025.02-.05.045-.074.065-.028.024-.056.053-.085.077-.024.024-.053.048-.077.073-.065.06-.13.117-.195.178-.077.077-.15.153-.227.226-.008.008-.016.016-.02.024-.033.033-.07.065-.098.098a.876.876 0 00-.065.069c-.077.08-.146.161-.219.242-.056.065-.113.126-.17.19-.029.038-.056.074-.085.106-.033.045-.07.089-.102.13l-.024.032a3.472 3.472 0 00-.154.19c-.07.094-.138.19-.207.284-.017.029-.037.053-.053.081-.021.024-.037.049-.057.073l-.024.037c-.07.105-.135.21-.203.311-.037.062-.078.122-.114.183-.032.048-.056.102-.089.154-.029.053-.061.105-.089.158l-.024.045c-.03.053-.061.101-.09.153-.093.175-.178.349-.263.527a6.766 6.766 0 00-2.748-.729c-.105-.003-.215-.008-.32-.008a4.98 4.98 0 00-.374.013h-.008c-.012 0-.029.004-.04.004-.081.005-.163.008-.235.016l-.227.033c-.062.008-.13.012-.191.02-.04.008-.086.021-.126.03l-.146.02c-.004.003-.008.003-.013.003-.11.021-.219.049-.325.078a1.739 1.739 0 00-.15.04c-.053.013-.106.024-.162.04-.167.057-.321.11-.467.167-.016-.024-.032-.049-.048-.07a7.371 7.371 0 00-.317-.449c-.004-.004-.004-.008-.009-.012a8.047 8.047 0 00-.218-.284l-.021-.025a5.374 5.374 0 00-.317-.384c-.049-.053-.097-.11-.146-.162-.029-.029-.049-.056-.077-.085a.187.187 0 01-.025-.029c-.048-.049-.097-.102-.146-.154-.012-.012-.02-.024-.032-.037a9.964 9.964 0 00-.292-.287l-.024-.024a11.53 11.53 0 00-5.334-2.888h-.012l-.081-.021a2.376 2.376 0 00-.203-.045 16.31 16.31 0 00-.641-.113l-.256-.033-.142-.012a2.96 2.96 0 00-.272-.03c-.045-.004-.09-.007-.134-.012l-.102-.008h-.032l-.094-.008a3.551 3.551 0 00-.219-.008c-.065-.053-.126-.11-.183-.162a16.653 16.653 0 01-.231-.21c-.085-.085-.17-.174-.251-.259-.065-.073-.134-.142-.195-.21-.077-.089-.146-.178-.215-.263l-.167-.21c-.064-.09-.121-.183-.178-.272-.045-.07-.093-.137-.134-.207-.053-.093-.097-.186-.142-.28-.033-.064-.07-.133-.098-.198a2.683 2.683 0 01-.11-.292c-.02-.065-.048-.126-.064-.19a2.773 2.773 0 01-.073-.325c-.008-.053-.024-.105-.033-.158a3.274 3.274 0 01-.036-.486c0-1.442.917-2.863 2.727-4.233a11.452 11.452 0 01.674-.473c.178-.122.36-.24.547-.357.033-.016.07-.037.102-.057.19-.113.382-.226.584-.34.04-.024.086-.045.13-.07.194-.104.394-.214.6-.32.057-.028.122-.056.183-.085.195-.097.39-.194.593-.287.08-.037.166-.073.251-.113.187-.081.374-.167.564-.251.105-.04.215-.086.32-.13.179-.072.358-.145.544-.218.114-.045.235-.085.35-.13l.552-.206c.134-.049.275-.093.414-.142.175-.057.345-.121.523-.178.15-.049.3-.093.45-.142.175-.057.35-.113.532-.166.158-.049.325-.094.49-.142.17-.049.345-.102.52-.15.175-.049.353-.094.528-.138.174-.048.349-.093.527-.137.175-.049.361-.09.54-.134.183-.04.36-.085.544-.13.178-.04.365-.08.543-.117.191-.045.382-.086.577-.126.17-.037.35-.07.523-.105.207-.04.414-.086.625-.126.167-.029.333-.057.503-.089.21-.037.423-.077.641-.113.057 0 .118.003.179.003l-.013.013a9.02 9.02 0 00-.264.36c-.02.033-.04.065-.065.102a4.643 4.643 0 00-.17.28c-.029.044-.053.093-.077.137a5.553 5.553 0 00-.138.275l-.061.134a5.2 5.2 0 00-.146.36l-.024.057a4.999 4.999 0 00-.13.43c-.013.044-.02.085-.033.129-.024.105-.048.21-.069.316l-.024.158c-.016.105-.033.21-.045.316l-.012.142c-.013.154-.02.309-.02.462v.065h-.037l-.289.457s-.003.005-.003.008c-.013.017-.025.037-.037.057a3.717 3.717 0 00-.28.471l-.049.048-.045.129c-.008.02-.016.037-.02.057a2.895 2.895 0 00-.078.17c-.024.06-.053.12-.065.158-.02.06-.04.121-.045.142-.032.101-.065.202-.09.3-.028.105-.048.21-.068.324a7.797 7.797 0 00-.037.255c-.005.037-.005.078-.008.118a3.639 3.639 0 00-.012.3c.003 1.178.514 2.315 1.524 3.389zm15.11 8.595c-.13.036-.25.077-.377.117-.105.033-.21.065-.312.102-.771.263-1.51.596-2.204.992-.113.061-.219.134-.328.202-.065.037-.13.077-.191.113a23.28 23.28 0 00-.528.345c-.008.008-.016.012-.024.02-.37.259-.727.535-1.072.83-.024.021-.053.041-.077.065-.143.126-.28.251-.418.381-.078.073-.15.146-.224.219a9.488 9.488 0 00-.678.725c-.121.137-.24.28-.357.421-.126.162-.251.32-.37.486-.069.09-.133.183-.198.275-.11.159-.215.32-.317.487-.057.085-.11.174-.162.258-.143.24-.28.482-.41.73-.004.007-.013.02-.016.032-.13-.03-.26-.053-.386-.078a9.07 9.07 0 00-3.417.013c-1.546.3-2.95.972-4.128 1.972a12.02 12.02 0 00-.41-.846c-.048-.09-.101-.174-.153-.259a9.368 9.368 0 00-.321-.543l-.194-.287a20.09 20.09 0 00-.337-.47c-.073-.094-.15-.186-.224-.28a9.07 9.07 0 00-.373-.433c-.078-.085-.154-.174-.235-.259-.138-.145-.28-.284-.426-.421-.078-.07-.15-.142-.227-.21a9.538 9.538 0 00-.597-.498c-.033-.025-.065-.053-.098-.081a11.196 11.196 0 00-.738-.514 14.002 14.002 0 00-.24-.146c-.178-.105-.352-.215-.535-.312l-.31-.158c-.17-.08-.336-.162-.506-.239-.113-.048-.223-.097-.337-.142a10.27 10.27 0 00-.515-.194 9.527 9.527 0 00-.897-.276c-.11-.028-.219-.06-.328-.085a9.177 9.177 0 00-.682-.134c-.073-.013-.142-.029-.215-.04a13.117 13.117 0 00-.91-.102c-.093-.005-.183-.005-.275-.008-.179-.008-.358-.02-.536-.02-.053 0-.105.004-.154.004-.053 0-.11.004-.162.004a10.64 10.64 0 00-.994.07c-.313.036-.625.08-.938.141-.292.057-.58.126-.864.203-.098.028-.191.06-.288.093-.187.057-.374.113-.56.178a.221.221 0 01-.054.016l.886-5.002-.334-.3a25.492 25.492 0 01-1.067-1.024c.008 0 .017 0 .025-.005.154-.02.309-.037.463-.053.085-.008.17-.02.255-.024.24-.02.475-.029.714-.029l.183.005c.032 0 .065 0 .097.004.114 0 .232.005.345.013l.11.008c.122.008.243.02.361.032.037.005.065.005.102.008l.053.008a9.46 9.46 0 011.587.332 9.83 9.83 0 013.652 2.017c.232.199.45.406.658.62.008.013.016.021.024.03a9.852 9.852 0 011.006 1.247 11.22 11.22 0 01.426.68l.009.013.377.669h.004l.004.004.698-.373c.102-.053.207-.105.316-.153.04-.016.085-.037.13-.053.077-.033.15-.061.227-.09.044-.015.089-.032.134-.044.097-.033.19-.061.288-.086.029-.008.056-.012.085-.02l.008.008.41-.09c.114-.02.232-.036.353-.044.029-.005.061-.005.094-.008a6.02 6.02 0 01.288-.008c.102-.005.21 0 .337.003.811.04 1.578.267 2.297.685.061.037.126.073.19.113l.038.025c.048.028.097.064.146.097a.203.203 0 01.037.029l.885.631.312-.903.243-.615c.04-.094.078-.186.122-.28l.073-.15c.056-.11.11-.223.17-.328.029-.057.061-.11.094-.166.056-.102.113-.203.174-.3l.11-.167a6.92 6.92 0 01.187-.283c.037-.053.077-.105.117-.161.065-.09.13-.178.2-.267.04-.053.085-.105.13-.154.069-.089.137-.174.21-.255.045-.053.093-.102.138-.15a6.372 6.372 0 01.369-.38c.08-.081.158-.159.243-.235.045-.045.097-.085.146-.13l.256-.218c.053-.04.101-.08.154-.117.089-.073.178-.142.267-.21.053-.038.11-.074.162-.11.094-.065.183-.13.28-.19.053-.038.11-.07.167-.106.097-.057.19-.118.288-.174l.178-.097a8.91 8.91 0 01.292-.154 3.59 3.59 0 01.19-.09 6.04 6.04 0 01.297-.137c.065-.028.134-.053.2-.08.1-.04.198-.081.3-.118l.215-.073c.081-.024.162-.053.243-.077l.292-.086a7.6 7.6 0 01.812-.186l.178-.028c.13-.021.26-.04.39-.057l.106-.013c.178-.02.353-.032.531-.04.167-.013.337-.016.507-.016.251 0 .503.012.751.032.081.005.158.016.24.024.166.017.333.037.498.062l.276.048c.154.029.304.061.455.097.093.02.186.045.28.07.15.04.296.085.442.133l.264.086c.158.056.312.12.466.182.073.032.146.061.219.094.223.096.447.206.662.324l.016.012c.191.102.382.219.564.337-.09.085-.179.174-.272.258a1.347 1.347 0 00-.081.073c-.102.097-.207.199-.313.292l-.337.3.453 2.543zm-28.714-20.15c.012.174.04.348.073.518.003.032.012.061.016.089.036.162.086.324.138.482l.012.032c-.04.029-.077.061-.118.085l-.105.073a3.446 3.446 0 01-.243.138.378.378 0 01-.07.04 5.23 5.23 0 01-.186.093 3.135 3.135 0 00-5.118-1.467 4.52 4.52 0 01-.154-.246 2.772 2.772 0 01-.11-.21 2.657 2.657 0 01-.11-.243 3.603 3.603 0 01-.089-.226 6.888 6.888 0 01-.102-.353 3.714 3.714 0 01-.045-.186 4.711 4.711 0 01-.04-.247 3.67 3.67 0 01-.033-.296 4.118 4.118 0 012.139-3.887 4.47 4.47 0 01.434-.202c.016-.008.032-.013.049-.021a4.01 4.01 0 01.463-.15h.008c.32-.08.657-.121.998-.126h.037a3.983 3.983 0 01.921.114l.065.013c.167.04.329.093.487.154.025.012.053.02.078.032.154.065.308.137.45.218l.07.037c.145.09.287.182.422.283.012.008.024.02.037.029a4.352 4.352 0 01.401.36c.122.122.232.256.337.393.012.02.028.037.045.057.097.133.186.275.268.421l.04.077c.078.15.151.3.208.462.005.008.008.02.013.029-.005 0-.005.005-.005.005l-.049.036c-.121.097-.243.194-.352.304-.045.04-.081.085-.122.126-.081.085-.159.166-.231.259-.045.048-.082.105-.122.158a3.924 3.924 0 00-.183.263l-.105.183a4.761 4.761 0 00-.143.279 2.595 2.595 0 00-.08.19c-.041.098-.078.2-.11.304-.017.061-.04.126-.057.19a5.21 5.21 0 00-.073.345c-.008.057-.02.113-.029.17a3.85 3.85 0 00-.025.819zM9.48 27.224c0 .441-.19.842-.499 1.118a1.506 1.506 0 01-2.464-.708 1.366 1.366 0 01-.06-.409c0-.474.218-.9.563-1.175h.004c.26-.21.589-.336.942-.336a1.516 1.516 0 011.514 1.51zm4.87-4.888l.123-.065a2.476 2.476 0 011.38-.255 2.51 2.51 0 012.276 2.511c0 .264-.04.519-.113.753-.04.126-.086.231-.138.341v.004c-.029.06-.061.117-.085.161a2.533 2.533 0 01-4.388-.016 2.662 2.662 0 01-.126-.259 2.445 2.445 0 01-.194-.825 1.862 1.862 0 01-.008-.159c0-.92.499-1.762 1.274-2.191zm2.164-1.855l.755-4.346.893 5.12c-.004-.005-.008-.005-.013-.009a3.451 3.451 0 00-.345-.239l-.085-.048a5.671 5.671 0 00-.285-.154l-.134-.06a4.695 4.695 0 00-.26-.106c-.048-.016-.101-.037-.15-.053a5.438 5.438 0 00-.28-.077c-.031-.008-.06-.02-.096-.028zm-14.89 4.455c0-1.22.093-2.434.276-3.612l.016-.078a22.38 22.38 0 011.412-5.075 22.55 22.55 0 012.735-4.913c.008 0 .02 0 .029.005.053.008.102.024.154.032.113.029.227.053.341.08l.183.05c.102.032.202.06.304.093.065.02.126.04.191.064.094.033.191.065.284.102.065.024.13.053.199.077.089.037.178.073.267.114.065.028.134.06.2.093.085.04.17.08.255.126.065.032.13.069.199.105.081.045.162.089.24.134.069.04.134.077.198.118l.232.145.19.13c.074.053.151.105.224.158.061.048.122.093.183.142.073.053.142.11.215.17.057.048.118.097.178.15.07.056.135.117.2.178.06.053.117.105.174.161.065.061.13.126.191.194.053.053.11.106.162.162l.187.21.145.17.183.231c.044.057.09.11.13.167.065.088.126.177.186.266.037.049.073.097.106.15.093.142.182.284.267.43l.414.713.706-.422a8.952 8.952 0 012.452-1.016l-.917 5.273-.04.231a3.944 3.944 0 00-.248.053l-.017-.037c-.048-.118-.101-.234-.154-.352l-.073-.134c-.04-.08-.08-.162-.13-.24-.028-.048-.056-.096-.088-.145a9.078 9.078 0 00-.135-.21c-.032-.049-.069-.097-.101-.146-.049-.064-.102-.129-.15-.194-.038-.045-.074-.089-.114-.134-.053-.064-.11-.125-.167-.19-.04-.04-.077-.08-.113-.121-.065-.065-.134-.126-.2-.186-.036-.033-.069-.07-.105-.097a6.432 6.432 0 00-.312-.26l-.02-.012a4.619 4.619 0 00-.451-.304c-.081-.048-.159-.097-.24-.142l-.145-.072a4.042 4.042 0 00-.236-.114c-.053-.024-.105-.048-.158-.069a4.997 4.997 0 00-.402-.15 3.959 3.959 0 00-.247-.077c-.053-.016-.106-.032-.162-.045a3.46 3.46 0 00-.28-.061c-.049-.008-.094-.02-.143-.029a5.674 5.674 0 00-3.741.611 5.722 5.722 0 00-2.991 5.03 5.06 5.06 0 00.106 1.078c.011.065.028.13.04.199.037.15.078.304.122.45.024.072.044.141.07.21.056.153.117.3.182.445l.073.166c.097.195.203.385.325.567.004.005.004.013.008.017l-.39.048-.897.11c-.134.016-.264.032-.398.053-.13.016-.255.032-.385.053l-.56.073c-.061.008-.126.016-.187.028a18.377 18.377 0 01-.037-1.178zm6.704 14.61c-.057.007-.118.02-.175.028l-.243.049-.159.036-.215.049a1.31 1.31 0 00-.073-.08 27.24 27.24 0 01-1.035-1.289l-.057-.077a21.424 21.424 0 01-.317-.425c-.024-.037-.053-.073-.078-.11l-.024-.04a14.304 14.304 0 01-.511-.741l-.07-.106a17.773 17.773 0 01-.247-.384 2.831 2.831 0 01-.175-.283l-.02-.033c-.082-.133-.16-.267-.236-.397-.134-.226-.259-.454-.398-.704-.029-.057-.061-.11-.101-.195a22.66 22.66 0 01-1.985-5.168l-.024-.088a20.978 20.978 0 01-.362-1.86c.05-.008.094-.012.143-.02a88.99 88.99 0 011.75-.231c.007 0 .012-.005.016-.005.093-.012.186-.02.275-.032.272-.033.548-.065.828-.097a3.13 3.13 0 003.129 3.01 3.136 3.136 0 003.011-2.256 6.04 6.04 0 00.45-.154l.057-.024c.134-.057.264-.118.394-.183.048-.024.093-.053.137-.077a5.23 5.23 0 00.305-.174c.045-.033.093-.061.137-.09.033-.023.065-.04.094-.06l.073.069a4.168 4.168 0 00.84.669c.033.016.061.036.094.052l.08.049c-.064.032-.125.07-.194.102-.178.088-.357.177-.53.27-.11.058-.22.114-.33.175-.17.094-.34.19-.507.288a84.45 84.45 0 01-.292.17c-.175.11-.345.214-.512.324a14.607 14.607 0 00-.913.636c-2.236 1.685-3.368 3.545-3.368 5.52 0 .207.016.41.04.613l.024.174c.025.154.057.308.098.462l.037.158c.056.199.126.397.202.591.016.033.033.061.044.094.073.166.154.332.24.494.032.057.07.118.102.174.089.15.182.3.288.45.029.045.056.089.089.133.121.17.251.337.398.506a2.321 2.321 0 00-.224.037zM43.58 64.141a43.114 43.114 0 01-13.073 3.875c-.15.02-.3.037-.45.056l-.26.03a36.11 36.11 0 01-2.641.214c-.187.013-.374.02-.564.029h-.053a42.992 42.992 0 01-4.777-.093l-.504-.04c-.11-.013-.218-.021-.333-.033l-.251-.024a20.932 20.932 0 01-.779-.089l-.122-.012-.458-.062-.474-.069-.07-.008a33.155 33.155 0 01-1.651-.275c-.187-.032-.377-.077-.568-.113a3.742 3.742 0 013.721-3.37c.844 0 1.64.271 2.297.79l1.048.818.25-1.3a6.92 6.92 0 016.782-5.582 6.884 6.884 0 015.84 3.22l.52.826.72-.664a5.109 5.109 0 013.49-1.361c.637 0 1.257.113 1.85.34l.51 2.897zm-.829-4.682a6.687 6.687 0 00-1.534-.174 6.747 6.747 0 00-3.88 1.215 8.481 8.481 0 00-6.69-3.236 8.547 8.547 0 00-8.08 5.783 5.351 5.351 0 00-2.297-.51 5.36 5.36 0 00-5.309 4.641l-.381-.093c-.475-.118-.97-.251-1.62-.438a6.982 6.982 0 01-.393-.121 39.235 39.235 0 01-3.445-1.19l-.361-.143c-.488-.198-.95-.393-1.368-.58l-.35-.161c-.218-.102-.438-.202-.665-.312L8.98 49.504l.03-.17.182-.085a4.54 4.54 0 01.251-.114c.13-.056.264-.105.398-.158l.252-.089c.145-.053.291-.097.442-.137.073-.024.146-.049.219-.07a13.7 13.7 0 01.673-.157c5.025-.976 9.951 1.964 11.453 6.84l.426 1.377.958-1.078a7.375 7.375 0 014.156-2.373 7.498 7.498 0 013.69.21l.69.219.295-.665c.11-.25.235-.497.366-.74l.118-.211c.118-.207.235-.41.365-.608.025-.036.045-.072.07-.11.146-.218.296-.429.455-.636.06-.077.121-.158.186-.239.113-.142.231-.279.353-.416.097-.114.199-.223.304-.333.118-.13.243-.25.37-.377.101-.097.21-.198.316-.292.082-.077.167-.145.252-.218a12.193 12.193 0 01.857-.664c.129-.093.267-.182.4-.271.094-.057.192-.118.289-.175.264-.162.536-.312.811-.45.033-.015.061-.036.094-.048.138-.069.275-.129.414-.19a8.267 8.267 0 01.65-.267c.19-.073.385-.137.58-.199.04-.012.078-.028.114-.04h.003l2.29 12.89zm4.4-27.769c-.3.866-.67 1.738-1.104 2.609l-.025.053c-.016.032-.028.065-.06.126-.057.113-.114.23-.2.376-.024.053-.053.102-.077.15l-.053.094c-.045.093-.098.182-.162.296a17.255 17.255 0 01-.793 1.313l-.056.088-.004.008a20.542 20.542 0 01-.504.738c-.137.203-.284.406-.442.62l-.089.122a33.702 33.702 0 01-1.188 1.466c-.154.178-.313.352-.45.502l-.057.065a1.15 1.15 0 00-.09-.056c-.097-.07-.199-.126-.296-.19-.154-.094-.304-.187-.463-.276-.105-.061-.215-.113-.325-.17a10.338 10.338 0 00-1.279-.563 9.022 9.022 0 00-.844-.271c-.117-.032-.234-.064-.352-.093-.175-.04-.35-.077-.523-.11-.114-.02-.227-.045-.342-.064a9.36 9.36 0 00-.588-.073c-.097-.008-.194-.025-.296-.033a10.857 10.857 0 00-1.494-.02h-.011c-.135.008-.269.02-.386.028-.077.009-.15.013-.223.021-.045.008-.09.013-.134.02-.017 0-.037.005-.053.005a8.865 8.865 0 00-.31.045c-.093.016-.19.029-.284.045l-.162.029c-.113.024-.219.045-.309.07-.057.012-.11.023-.162.04-.037.008-.07.012-.102.02l-.194.053-.07-.024c-.328-.11-.645-.223-.958-.34-.037-.017-.077-.03-.113-.045a26.329 26.329 0 01-1.002-.402c-.284-.126-.564-.247-.828-.377-.032-.012-.061-.029-.093-.045-.264-.129-.52-.258-.763-.392-.029-.013-.053-.03-.078-.04a16.838 16.838 0 01-.702-.41c-.016-.012-.037-.024-.057-.036a11.792 11.792 0 01-.67-.459c-.202-.15-.393-.3-.568-.45-.008-.007-.012-.012-.02-.015a8.401 8.401 0 01-.496-.474c-.719-.757-1.08-1.523-1.08-2.276a2.1 2.1 0 01.009-.178l.004-.065c.008-.048.013-.097.02-.145.013-.061.021-.126.038-.183l.008-.032c.012.024.024.04.032.065.02.044.045.089.07.133.053.106.11.207.17.309.024.048.053.093.08.137a6.03 6.03 0 00.277.405c.098.134.2.256.31.377.028.037.06.065.088.097.081.09.167.178.256.259.037.037.077.073.113.11.094.085.191.166.289.242.032.024.06.049.093.073.126.101.26.194.398.28l.094.056a5.224 5.224 0 00.474.263c.11.057.224.105.334.154.045.016.085.037.126.053.154.061.312.118.47.162.025.008.05.012.07.02a5.411 5.411 0 00.576.13c.118.025.24.041.366.057.049.005.102.013.154.017a5.425 5.425 0 001.156-.013.548.548 0 01.081-.008 7.13 7.13 0 00.597-.11l.102-.024a6.61 6.61 0 00.568-.17c.032-.012.065-.024.094-.037.19-.073.377-.15.556-.242.02-.008.037-.021.053-.03a5.82 5.82 0 00.536-.307c.008-.004.016-.013.025-.017a5.37 5.37 0 00.498-.372c.021-.017.045-.033.065-.053.154-.13.3-.267.439-.414l.069-.073c.134-.145.268-.3.39-.462.004-.008.012-.016.02-.028.098.029.195.053.292.077.122.029.252.057.35.07.126.023.255.044.369.056.094.012.194.024.293.032l.113.013a7.615 7.615 0 00.828.008 8.34 8.34 0 00.288-.02 3.54 3.54 0 003.255 2.154 3.537 3.537 0 003.535-3.528c0-.96-.39-1.835-1.014-2.467.04-.077.077-.15.113-.226.02-.045.037-.09.057-.134a4.497 4.497 0 00.202-.502 4.012 4.012 0 00.159-.491c.029-.093.053-.19.077-.284.016-.07.033-.142.045-.21.021-.094.04-.19.053-.284.012-.073.025-.146.033-.219.008-.045.016-.085.02-.129l.532.065c.333.037.654.077.966.117l.361.049c.195.024.386.048.573.073.121.02.247.037.369.053.195.024.382.053.568.08.097.013.2.03.292.041.02.005.04.009.057.009a21.13 21.13 0 01-.97 3.863zm-4.327-5.184c0 .137-.004.275-.016.413v.021c-.008.11-.02.215-.037.32a3.205 3.205 0 01-.073.41 4.545 4.545 0 01-.223.777c-.04.102-.081.202-.122.3-.032.07-.061.134-.094.199a3.433 3.433 0 00-1.14-.19 3.538 3.538 0 00-3.527 3.3 5.416 5.416 0 01-.735-.005l-.097-.012a2.795 2.795 0 01-.219-.024 2.798 2.798 0 01-.296-.045c-.037-.005-.077-.017-.113-.024l.012-.05c.053-.137.097-.278.134-.42.005-.009.008-.013.008-.021a5.91 5.91 0 00.172-.928l.012-.137a5.678 5.678 0 00-.003-1c-.004-.057-.017-.113-.021-.175a8.335 8.335 0 00-.053-.348c-.013-.07-.024-.134-.04-.199-.025-.105-.046-.207-.074-.308l-.06-.202c-.033-.097-.062-.194-.098-.288-.025-.069-.053-.134-.078-.202a9.947 9.947 0 00-.121-.271c-.033-.065-.061-.13-.094-.19a5.064 5.064 0 00-.15-.268c-.033-.056-.065-.117-.102-.174a6.623 6.623 0 00-.186-.272c-.037-.048-.065-.097-.102-.142a7.555 7.555 0 00-.317-.38 5.861 5.861 0 00-.353-.357c-.049-.045-.102-.086-.15-.13-.078-.064-.15-.134-.232-.194-.057-.045-.118-.089-.178-.134L33.827 25l-.199-.121a2.845 2.845 0 00-.24-.134 4.539 4.539 0 00-.462-.223 4.42 4.42 0 00-.49-.182l-.219-.073-.048-.013.011-.024c.065-.142.135-.283.211-.425.033-.061.07-.118.105-.178.086-.13.167-.259.24-.368.105-.138.207-.272.333-.41.057-.069.122-.137.183-.201l.097-.094c.081-.085.17-.166.268-.25.056-.05.118-.098.178-.146.065-.053.13-.102.199-.154a7.387 7.387 0 01.788-.478c.235-.113.455-.207.674-.28a4.4 4.4 0 01.357-.105c.085-.028.175-.044.268-.069a5.696 5.696 0 011.742-.092c.065.008.13.02.194.028.118.017.235.033.35.057.056.008.11.029.162.04.126.03.247.057.369.094.024.008.045.02.07.029.15.045.296.097.438.158.024.008.049.024.077.037.138.06.272.121.407.194.036.02.072.045.11.069.117.065.234.13.344.207.045.028.081.06.122.089.105.072.21.145.309.226.045.037.089.08.134.121.085.078.178.15.26.235.037.037.073.077.11.118.085.089.17.178.251.271.032.037.057.08.09.118.08.101.158.198.23.303.033.049.057.098.09.142.065.106.134.207.19.312.033.057.062.118.09.178.053.097.105.199.15.304.03.065.049.134.078.199.04.101.08.202.113.303.02.07.037.138.057.203.029.11.061.214.085.324.017.065.021.13.033.194.02.118.045.231.057.349.008.064.008.134.011.198.013.122.025.244.025.366v.063l-.004-.001zm.207 5.776a1.909 1.909 0 01-3.515 1.033 1.898 1.898 0 01-.206-1.645v-.004a1.917 1.917 0 011.81-1.292 1.901 1.901 0 011.57.827c.216.303.341.68.341 1.081zm-8.165-2.358c0 .75-.2 1.487-.573 2.131a4.278 4.278 0 01-3.693 2.126 4.277 4.277 0 01-4.257-3.965v-.024a2.941 2.941 0 01-.013-.267 4.27 4.27 0 012.228-3.743c.134-.077.275-.137.418-.198.037-.013.072-.029.11-.04a4.378 4.378 0 01.551-.167c.114-.024.232-.048.35-.064a5.141 5.141 0 01.536-.045h.13a4.243 4.243 0 014.213 4.257zm13.43-3.713h-.017c-.089-.012-.178-.029-.268-.04a69.142 69.142 0 00-.6-.086c-.05-.004-.098-.012-.151-.02-.07-.008-.146-.02-.219-.029-.186-.024-.377-.053-.568-.077l-.386-.049a26.523 26.523 0 00-.568-.069 15.49 15.49 0 01-.393-.053l-.195-.02-.528-.065c-.003-.033-.012-.065-.016-.097a7.141 7.141 0 00-.097-.588c-.016-.081-.04-.158-.061-.235-.037-.142-.07-.287-.114-.425-.029-.089-.06-.17-.093-.259-.045-.125-.09-.25-.143-.376-.037-.085-.08-.17-.121-.259-.057-.113-.11-.23-.17-.344a4.653 4.653 0 00-.15-.25 3.332 3.332 0 00-.2-.32 3.453 3.453 0 00-.17-.243 7.265 7.265 0 00-.223-.296 8.752 8.752 0 00-.195-.226 7.004 7.004 0 00-.247-.272l-.216-.206a5.172 5.172 0 00-.275-.248 4.64 4.64 0 00-.528-.409c-.08-.056-.158-.113-.243-.17a8.592 8.592 0 00-.32-.19 3.07 3.07 0 00-.26-.145 8.997 8.997 0 00-.341-.167c-.09-.04-.178-.08-.268-.117a5.621 5.621 0 00-.369-.134 5.628 5.628 0 00-.272-.094c-.13-.04-.264-.069-.398-.101-.089-.021-.175-.049-.264-.065-.15-.029-.304-.049-.458-.07a4.05 4.05 0 00-.227-.032 7.132 7.132 0 00-2.244.13 3 3 0 00-.333.08 4.83 4.83 0 00-.455.138 6.666 6.666 0 00-1.376.64 6.02 6.02 0 00-.515.341c-.08.057-.162.122-.243.183-.085.065-.17.137-.243.202a5.28 5.28 0 00-.353.328c-.029.029-.061.057-.094.094-.093.093-.183.194-.264.284a7.357 7.357 0 00-.734 1 4.562 4.562 0 00-.15.259c-.09.166-.175.332-.256.505v.009c-.005.004-.005.008-.008.012-.07.154-.138.316-.195.474-.024 0-.045.004-.07.004a6.31 6.31 0 00-1.16.15c-.045.013-.086.021-.13.033a5.702 5.702 0 00-1.091.397c-.02.008-.045.016-.07.029-.734-.013-1.477-.021-2.22-.025h-.072c-.353-.004-.706-.004-1.06-.004-.466 0-.917 0-1.359.004-.121 0-.24.004-.36.004l-1.003.012c-.11 0-.215 0-.32.005l-1.312.024v-.02a2.96 2.96 0 00.037-.462l-1.643-9.519a9.262 9.262 0 016.193 2.94l.374.406.515-.202a9.168 9.168 0 013.312-.616c1.842 0 3.62.539 5.142 1.56l.722.485.434-.757a9.237 9.237 0 018.007-4.65c.21 0 .422.008.63.025.069.004.137.012.207.016.142.016.28.029.422.048l.24.037c.126.02.255.045.377.07l.255.06c.065.013.127.033.187.046.183.344.357.696.515 1.045a23.035 23.035 0 012.143 9.748c-.003.431-.02.853-.048 1.274z" fill="#0A170B"/><path d="M18.162 21.255c-.004-.005-.008-.005-.013-.009a3.451 3.451 0 00-.345-.239l-.085-.048a5.671 5.671 0 00-.285-.154l-.134-.06a4.695 4.695 0 00-.26-.106c-.048-.016-.101-.037-.15-.053a5.438 5.438 0 00-.28-.077c-.032-.009-.06-.021-.097-.03l.755-4.345.894 5.12z" fill="#4CA634"/><path d="M18.13 24.527c0 .264-.041.519-.114.753-.04.126-.086.231-.138.341v.004c-.029.06-.061.117-.085.161a2.533 2.533 0 01-4.388-.016 2.662 2.662 0 01-.126-.259 2.445 2.445 0 01-.194-.825 1.862 1.862 0 01-.008-.159c0-.92.499-1.762 1.274-2.191l.121-.065a2.476 2.476 0 011.38-.255 2.508 2.508 0 012.277 2.511z" fill="#FFED80"/><path d="M13.15 21.185c-.005 0-.005.005-.005.005l-.048.037a4.194 4.194 0 00-.353.303c-.046.04-.082.086-.122.126-.081.085-.159.166-.231.259-.045.049-.082.105-.122.158a3.935 3.935 0 00-.183.263l-.105.183a4.703 4.703 0 00-.142.28 2.575 2.575 0 00-.082.19c-.04.097-.077.198-.11.303-.015.062-.04.126-.056.191a5.222 5.222 0 00-.073.344c-.008.057-.02.113-.029.17a3.848 3.848 0 00.049 1.34c.003.032.012.061.016.089.036.162.086.324.138.482l.012.032c-.04.029-.077.061-.118.085l-.105.073a3.446 3.446 0 01-.243.138.378.378 0 01-.07.04 5.23 5.23 0 01-.186.093 3.135 3.135 0 00-5.118-1.467 4.52 4.52 0 01-.154-.246 2.772 2.772 0 01-.11-.21 2.657 2.657 0 01-.11-.243 3.603 3.603 0 01-.089-.226 6.888 6.888 0 01-.102-.353 3.714 3.714 0 01-.045-.186 4.711 4.711 0 01-.04-.247 3.67 3.67 0 01-.033-.296 4.118 4.118 0 012.139-3.887 4.47 4.47 0 01.434-.202c.016-.008.032-.013.049-.021a4.01 4.01 0 01.463-.15h.008c.32-.08.657-.121.998-.126h.037a3.983 3.983 0 01.921.114l.065.013c.167.04.329.093.487.154.025.012.053.02.078.032.154.065.308.137.45.218l.07.037c.145.09.287.182.422.283.012.008.024.02.037.029a4.352 4.352 0 01.401.36c.122.122.232.256.337.393.012.02.028.037.045.057.097.133.186.275.268.421l.04.077c.078.15.151.3.208.462.005.007.007.018.012.026z" fill="#B9D79E"/><path d="M43.032 32.283a1.909 1.909 0 01-3.515 1.033 1.898 1.898 0 01-.206-1.645v-.004a1.917 1.917 0 011.81-1.292 1.901 1.901 0 011.57.827c.216.303.341.68.341 1.081zM9.48 27.224c0 .441-.19.842-.499 1.118a1.506 1.506 0 01-2.464-.708 1.366 1.366 0 01-.06-.409c0-.474.218-.9.563-1.175h.004c.26-.21.589-.336.942-.336a1.516 1.516 0 011.514 1.51z" fill="#3A7729"/><path d="M66.354 9.97V19h-2.516v-7.004h-2.592l-.052 1.47c-.043 1.29-.15 2.34-.322 3.148-.164.808-.448 1.436-.852 1.883-.404.439-.976.658-1.715.658-.344 0-.731-.052-1.161-.155l.142-2.09c.111.026.227.039.348.039a.88.88 0 00.774-.4c.18-.266.31-.636.387-1.11a15.51 15.51 0 00.155-1.87l.129-3.598h7.275zm8.162 7.276h-3.819L69.988 19h-2.606l3.986-9.03h2.516L77.882 19h-2.657l-.71-1.754zm-.749-1.884l-1.16-2.889-1.161 2.89h2.321zm13.741-5.391V19h-2.554v-3.521H81.47V19h-2.554V9.97h2.554v3.393h3.483V9.971h2.554zm11.615 7.004v3.844h-2.335V19H91.01v1.819h-2.348v-3.844h.322c.534-.009.908-.374 1.123-1.097.223-.722.36-1.762.412-3.121l.104-2.786h7.275v7.004h1.225zm-6.372-3.999c-.035.963-.112 1.78-.232 2.45-.12.672-.306 1.188-.555 1.549h3.418v-4.98H92.79l-.04.981zm19.835-3.005V19h-12.242V9.97h2.516v7.005h2.36V9.97h2.516v7.004h2.335V9.97h2.515zm8.16 7.275h-3.818L116.219 19h-2.606l3.986-9.03h2.515l3.999 9.03h-2.657l-.71-1.754zm-.748-1.884l-1.161-2.889-1.161 2.89h2.322zm16.143-.902c0 1.178-.404 2.115-1.213 2.811-.799.688-1.96 1.075-3.482 1.161v.994h-2.335v-.994c-1.522-.111-2.687-.507-3.496-1.186-.8-.68-1.199-1.608-1.199-2.786 0-1.179.399-2.107 1.199-2.787.8-.688 1.965-1.088 3.496-1.2v-.928h2.335v.929c1.522.103 2.683.498 3.482 1.186.809.68 1.213 1.613 1.213 2.8zm-4.695 1.986c.765-.086 1.324-.292 1.677-.62.361-.326.541-.786.541-1.38 0-.593-.185-1.049-.554-1.367-.361-.318-.916-.52-1.664-.606v3.973zm-4.554-1.987c0 .585.185 1.037.555 1.355.37.318.924.524 1.664.619v-3.96c-.774.086-1.337.288-1.69.606-.352.318-.529.778-.529 1.38zm17.725-2.463h-2.761V19h-2.515v-7.004h-2.773V9.97h8.049v2.025zm9.768-2.025V19h-2.554v-3.521h-3.483V19h-2.554V9.97h2.554v3.393h3.483V9.971h2.554zm6.378 9.21c-.955 0-1.815-.203-2.58-.607a4.608 4.608 0 01-1.793-1.677c-.43-.713-.645-1.517-.645-2.412 0-.894.215-1.698.645-2.412a4.608 4.608 0 011.793-1.677c.765-.404 1.625-.606 2.58-.606.954 0 1.81.202 2.567.606a4.5 4.5 0 011.793 1.677c.438.714.657 1.518.657 2.412 0 .895-.219 1.699-.657 2.412a4.5 4.5 0 01-1.793 1.677c-.757.404-1.613.607-2.567.607zm0-2.116a2.42 2.42 0 001.238-.322 2.33 2.33 0 00.877-.903 2.79 2.79 0 00.323-1.355c0-.507-.108-.954-.323-1.341a2.307 2.307 0 00-.877-.916 2.42 2.42 0 00-1.238-.323 2.42 2.42 0 00-1.239.323c-.37.215-.662.52-.877.916-.215.387-.322.834-.322 1.341 0 .508.107.96.322 1.355.215.387.507.688.877.903.37.215.783.322 1.239.322zm13.632-.039V19h-7.249V9.97h7.082v1.974h-4.554v1.522h4.012v1.91h-4.012v1.65h4.721zM62.368 35.181c-.955 0-1.815-.203-2.58-.607a4.613 4.613 0 01-1.793-1.677c-.43-.713-.645-1.517-.645-2.412 0-.894.215-1.698.645-2.412a4.613 4.613 0 011.793-1.677c.765-.404 1.625-.606 2.58-.606.954 0 1.81.202 2.567.606a4.499 4.499 0 011.793 1.677c.439.714.658 1.518.658 2.412 0 .895-.22 1.699-.658 2.412a4.499 4.499 0 01-1.793 1.677c-.757.404-1.613.607-2.567.607zm0-2.116c.456 0 .868-.107 1.238-.322a2.33 2.33 0 00.877-.903 2.79 2.79 0 00.323-1.355c0-.507-.108-.954-.323-1.341a2.31 2.31 0 00-.877-.916 2.419 2.419 0 00-1.238-.323c-.456 0-.869.108-1.238.323a2.31 2.31 0 00-.878.916c-.215.387-.322.834-.322 1.341 0 .508.108.96.322 1.355.215.387.508.688.878.903.37.215.782.322 1.238.322zm10.782 2.116c-.946 0-1.797-.198-2.554-.594a4.543 4.543 0 01-1.767-1.677c-.43-.713-.645-1.522-.645-2.425 0-.903.215-1.711.645-2.425a4.451 4.451 0 011.767-1.664c.757-.404 1.608-.606 2.554-.606.825 0 1.57.146 2.232.439a4.295 4.295 0 011.65 1.264l-1.625 1.47c-.584-.705-1.294-1.058-2.128-1.058-.49 0-.929.108-1.316.323-.378.215-.675.52-.89.916-.206.387-.31.834-.31 1.341 0 .508.104.96.31 1.355.215.387.512.688.89.903.387.215.826.322 1.316.322.834 0 1.544-.352 2.128-1.058l1.626 1.47c-.439.551-.99.973-1.651 1.265-.663.292-1.407.439-2.232.439zm11.615-4.902c.533.172.937.438 1.213.8.283.36.425.808.425 1.341 0 .8-.314 1.432-.941 1.896-.62.456-1.501.684-2.645.684h-4.63v-9.03h4.385c1.084 0 1.922.207 2.516.62.602.404.903.98.903 1.728 0 .439-.108.826-.323 1.161a2.164 2.164 0 01-.903.8zm-4.063-.697h1.625c.722 0 1.084-.296 1.084-.89 0-.593-.362-.89-1.084-.89h-1.625v1.78zm2.012 3.586c.74 0 1.11-.314 1.11-.941 0-.61-.37-.916-1.11-.916h-2.012v1.857h2.012zm12.32-.142V35h-7.249v-9.03h7.082v1.974h-4.553v1.522h4.011v1.91h-4.011v1.65h4.72zm13.697-7.056V35H96.49v-9.03h2.515v7.005h2.361V25.97h2.515v7.005h2.335V25.97h2.515zm1.174 7.005v3.844h-2.348V35h-1.393v-2.025h3.741zm8.472.051V35h-7.25v-9.03h7.082v1.974h-4.553v1.522h4.011v1.91h-4.011v1.65h4.721zm10.046-7.056V35h-2.554v-3.521h-3.483V35h-2.554v-9.03h2.554v3.393h3.483v-3.392h2.554zm1.94 0h2.515v5.302l3.728-5.301h2.399V35h-2.515v-5.289L132.775 35h-2.412v-9.03zm17.831 7.056V35h-7.25v-9.03h7.082v1.974h-4.553v1.522h4.011v1.91h-4.011v1.65h4.721zm-83.75 8.75V49h-1.66v-5.861h-3.262V49h-1.661v-7.224h6.584zm5.238 7.348c-.75 0-1.428-.162-2.033-.485a3.658 3.658 0 01-1.414-1.331 3.704 3.704 0 01-.505-1.92c0-.708.168-1.345.505-1.909a3.634 3.634 0 011.414-1.341c.605-.324 1.283-.485 2.033-.485s1.424.161 2.023.485a3.634 3.634 0 011.93 3.25c0 .709-.173 1.349-.517 1.92a3.659 3.659 0 01-1.413 1.33c-.599.324-1.273.486-2.023.486zm0-1.424a2.32 2.32 0 001.156-.29c.344-.199.612-.474.805-.825.2-.35.299-.75.299-1.197 0-.447-.1-.846-.3-1.197a2.04 2.04 0 00-.804-.815c-.344-.2-.73-.3-1.156-.3-.427 0-.812.1-1.156.3a2.111 2.111 0 00-.815.815c-.193.351-.289.75-.289 1.197 0 .447.096.846.289 1.197.2.351.471.626.815.826.344.192.73.289 1.156.289zm12.49-.062v2.858h-1.549V49h-5.097v1.496h-1.548l.01-2.858h.289c.433-.014.74-.33.918-.95.18-.619.29-1.503.33-2.652l.083-2.26h5.552v5.862h1.011zm-5.17-3.447c-.035.86-.107 1.582-.218 2.167-.11.578-.278 1.005-.505 1.28h3.23v-4.5h-2.477l-.03 1.053zm12.014 1.899H87.86V49h-1.662v-7.224h1.662v2.92h1.197l1.899-2.92h1.764l-2.363 3.488L92.793 49h-1.9l-1.877-2.91zm11.18-4.314V49h-1.65v-5.861h-2.477l-.052 1.506c-.034 1.025-.117 1.858-.248 2.497-.13.633-.35 1.122-.66 1.466-.303.337-.73.506-1.28.506a3.72 3.72 0 01-.825-.114l.103-1.414c.09.028.19.041.3.041.398 0 .677-.233.835-.701.158-.475.258-1.215.3-2.219l.103-2.93h5.551zm8.182-.123c.722 0 1.372.161 1.95.485a3.52 3.52 0 011.373 1.341c.33.564.495 1.2.495 1.91 0 .708-.165 1.348-.495 1.919a3.545 3.545 0 01-1.373 1.33c-.578.324-1.228.486-1.95.486a4.088 4.088 0 01-1.775-.382 3.659 3.659 0 01-1.331-1.084 3.64 3.64 0 01-.661-1.599h-.949V49h-1.661v-7.224h1.661v2.838h.97a3.534 3.534 0 012.002-2.59 4.067 4.067 0 011.744-.371zm0 6.047a2.035 2.035 0 001.847-1.104c.186-.351.279-.754.279-1.208a2.54 2.54 0 00-.279-1.207 2.035 2.035 0 00-.763-.815 2.08 2.08 0 00-1.084-.29 2.035 2.035 0 00-1.847 1.104 2.54 2.54 0 00-.279 1.208c0 .454.093.857.279 1.208.186.35.44.622.763.815a2.08 2.08 0 001.084.289zm10.904-5.924V49h-1.652v-2.6c-.626.227-1.207.34-1.744.34-.97 0-1.713-.23-2.229-.691-.515-.468-.773-1.139-.773-2.013v-2.26h1.651v2.075c0 .495.13.87.392 1.124.268.248.653.372 1.156.372.55 0 1.066-.107 1.547-.32v-3.25h1.652z" fill="#fff"/></svg>