<svg width="157" height="70" fill="none" xmlns="http://www.w3.org/2000/svg"><path d="M56.781 18.176l.76-1.79c.386.198.79.348 1.21.451.42.103.828.163 1.222.18.395.018.751-.008 1.069-.077.326-.077.583-.193.772-.347a.744.744 0 00.283-.605c0-.275-.116-.472-.347-.592-.224-.129-.52-.193-.889-.193h-2.303v-1.867h2.098c.343 0 .609-.068.798-.206a.65.65 0 00.283-.553.636.636 0 00-.245-.528c-.163-.137-.382-.231-.656-.283a3.524 3.524 0 00-.927-.064 4.46 4.46 0 00-1.068.193 5.43 5.43 0 00-1.069.425l-.746-1.905c.61-.3 1.248-.507 1.918-.618A7.54 7.54 0 0160.9 9.72c.635.06 1.21.201 1.725.424.515.215.922.502 1.223.863.308.36.463.785.463 1.274 0 .429-.116.81-.348 1.145a2.349 2.349 0 01-.94.786c-.394.188-.849.283-1.364.283l.065-.54c.592 0 1.107.102 1.544.308.447.206.79.49 1.03.85.249.351.373.759.373 1.222 0 .438-.116.828-.347 1.172a2.746 2.746 0 01-.94.85 4.769 4.769 0 01-1.39.514 6.856 6.856 0 01-1.66.167 7.718 7.718 0 01-1.802-.219 8.27 8.27 0 01-1.75-.643zm8.367.694l3.978-9.009h2.51l3.99 9.01h-2.652l-3.115-7.761h1.004l-3.115 7.76h-2.6zm2.176-1.75l.656-1.879h4.402l.656 1.88h-5.714zm9.334 1.75V9.862h6.603l-.013 2.02h-4.647l.567-.565v7.555h-2.51zm11.392.181a5.583 5.583 0 01-1.996-.347 4.878 4.878 0 01-1.596-.979 4.642 4.642 0 01-1.043-1.493 4.59 4.59 0 01-.373-1.866c0-.678.125-1.3.373-1.866a4.5 4.5 0 011.043-1.48c.455-.43.987-.76 1.596-.992a5.567 5.567 0 011.995-.347c.73 0 1.394.116 1.995.348.61.231 1.137.562 1.583.99a4.5 4.5 0 011.043 1.48c.257.567.386 1.19.386 1.867a4.56 4.56 0 01-.386 1.88 4.5 4.5 0 01-1.043 1.48c-.446.42-.974.746-1.583.978-.6.231-1.266.347-1.995.347zm0-2.11c.342 0 .66-.06.951-.181.3-.12.558-.292.773-.515.223-.232.394-.506.515-.824.128-.317.193-.669.193-1.055 0-.395-.065-.746-.193-1.055a2.262 2.262 0 00-.515-.811 2.1 2.1 0 00-.773-.528 2.475 2.475 0 00-.952-.18c-.343 0-.665.06-.965.18-.292.12-.55.296-.773.528a2.523 2.523 0 00-.514.81c-.12.31-.18.661-.18 1.056 0 .386.06.738.18 1.056.128.317.3.591.514.823.224.223.481.395.773.515.3.12.622.18.965.18zm6.369 1.929V9.862h4.118c.824 0 1.532.133 2.124.4.601.265 1.064.651 1.39 1.158.326.497.489 1.09.489 1.776 0 .678-.163 1.265-.489 1.763-.326.498-.789.884-1.39 1.158-.592.267-1.3.4-2.124.4h-2.703l1.133-1.107v3.462h-2.548zm2.548-3.191l-1.133-1.171h2.549c.532 0 .927-.116 1.184-.348.266-.232.399-.553.399-.965 0-.42-.133-.747-.399-.978-.257-.232-.652-.348-1.184-.348h-2.549l1.133-1.171v4.98zm11.281 3.372a5.566 5.566 0 01-1.995-.347 4.884 4.884 0 01-1.596-.979 4.631 4.631 0 01-1.042-1.493 4.586 4.586 0 01-.374-1.866 4.49 4.49 0 011.416-3.346c.455-.43.987-.76 1.596-.992a5.566 5.566 0 011.995-.347c.73 0 1.395.116 1.995.348a4.63 4.63 0 011.583.99 4.5 4.5 0 011.043 1.48c.257.567.386 1.19.386 1.867a4.56 4.56 0 01-.386 1.88 4.492 4.492 0 01-1.043 1.48c-.446.42-.974.746-1.583.978-.6.231-1.265.347-1.995.347zm0-2.11c.343 0 .661-.06.953-.181.3-.12.557-.292.772-.515.223-.232.395-.506.515-.824.128-.317.193-.669.193-1.055 0-.395-.065-.746-.193-1.055a2.261 2.261 0 00-.515-.811 2.107 2.107 0 00-.772-.528c-.292-.12-.61-.18-.953-.18-.343 0-.665.06-.965.18-.292.12-.549.296-.772.528a2.501 2.501 0 00-.515.81c-.12.31-.18.661-.18 1.056 0 .386.06.738.18 1.056.128.317.3.591.515.823.223.223.48.395.772.515.3.12.622.18.965.18zm12.065.823v-5.882h-2.587l-.039.978a18.612 18.612 0 01-.103 1.467 9.79 9.79 0 01-.193 1.249 3.967 3.967 0 01-.322.978 1.695 1.695 0 01-.476.618l-2.716-.322c.3.009.545-.09.734-.296.197-.214.352-.51.463-.888a6.66 6.66 0 00.258-1.339c.06-.514.103-1.076.128-1.686l.103-2.78h7.26v7.903h-2.51zm-6.706 2.922V16.85h10.438v3.836h-2.329V18.87h-5.767v1.815h-2.342zm17.681-10.825h2.548v9.01h-2.548V9.86zm-3.476 9.01h-2.548V9.86h2.548v9.01zm3.656-3.514h-3.836v-2.11h3.836v2.11zm8.899-2.626c1.098 0 1.948.245 2.548.734.61.49.914 1.223.914 2.201 0 1.055-.339 1.853-1.017 2.394-.677.54-1.604.81-2.78.81h-4.26V9.862h2.51v2.87h2.085zm-.502 4.312c.429 0 .768-.116 1.017-.347.257-.232.386-.558.386-.979 0-.428-.129-.729-.386-.9-.249-.18-.588-.27-1.017-.27h-1.583v2.496h1.583zm4.955 1.828V9.86h2.51v9.01h-2.51zm6.794-5.521h4.183v1.904h-4.183V13.35zm.18 3.552h4.711v1.969h-7.233V9.86h7.066v1.97h-4.544v5.07zm-94.292 17.7v-9.01h4.119c.824 0 1.532.133 2.124.4.6.265 1.064.651 1.39 1.158.326.498.489 1.09.489 1.776 0 .678-.163 1.266-.49 1.763-.325.498-.789.884-1.39 1.159-.591.266-1.3.399-2.123.399h-2.703l1.133-1.107v3.462h-2.549zm2.549-3.192l-1.133-1.171h2.549c.532 0 .926-.116 1.184-.348.266-.231.399-.553.399-.965 0-.42-.133-.746-.4-.978-.257-.232-.651-.348-1.183-.348h-2.549l1.133-1.171v4.981zm9.07-2.33h4.183v1.905h-4.183V29.08zm.18 3.553h4.711v1.97h-7.234v-9.01h7.067v1.969H69.3v5.07zm11.582-.052l-.554.567v-7.556h2.51v7.556l-.58-.567h3.489l-.58.567v-7.556h2.51v9.01H75.465v-9.01h2.51v7.556l-.554-.567h3.463zm11.064-3.501h4.183v1.905h-4.183V29.08zm.18 3.553h4.711v1.97h-7.233v-9.01h7.066v1.969h-4.544v5.07zm12.187-7.041h2.548v9.01h-2.548v-9.01zm-3.476 9.01H98.29v-9.01h2.548v9.01zm3.656-3.514h-3.836v-2.11h3.836v2.11zm4.304 3.514v-9.01h2.51v5.29l3.72-5.29h2.394v9.01h-2.51v-5.277l-3.707 5.277h-2.407zm15.591 0V31.81l.605.528h-2.278c-.807 0-1.502-.133-2.085-.4-.584-.265-1.034-.647-1.352-1.145-.309-.497-.463-1.09-.463-1.776 0-.712.163-1.321.489-1.828.334-.514.802-.91 1.403-1.184.609-.274 1.321-.412 2.136-.412h4.055v9.01h-2.51zm-5.548 0l2.253-3.256h2.561l-2.136 3.256h-2.678zm5.548-3.604V26.97l.605.63h-2.098c-.498 0-.875.116-1.133.348-.249.223-.373.566-.373 1.03 0 .454.124.802.373 1.042.258.232.627.348 1.107.348h2.124l-.605.63zM56.781 48.45v-7.208h6.57v7.207h-1.658v-6.23l.381.382h-4.016l.381-.381v6.23h-1.658zm11.806.123c-.57 0-1.098-.093-1.586-.278a3.799 3.799 0 01-1.256-.783 3.676 3.676 0 01-.824-1.184 3.758 3.758 0 01-.288-1.483c0-.535.096-1.03.288-1.482a3.6 3.6 0 01.834-1.184 3.809 3.809 0 011.257-.783 4.311 4.311 0 011.565-.278c.57 0 1.091.093 1.565.278.48.185.896.446 1.246.783a3.598 3.598 0 011.133 2.667c0 .535-.1 1.033-.3 1.493a3.6 3.6 0 01-.833 1.184 3.78 3.78 0 01-1.246.772 4.231 4.231 0 01-1.555.278zm-.01-1.421c.322 0 .618-.055.885-.165a2.1 2.1 0 001.195-1.205c.116-.28.175-.593.175-.937a2.44 2.44 0 00-.175-.937 2.101 2.101 0 00-.474-.73 2.017 2.017 0 00-.71-.474 2.389 2.389 0 00-.896-.165c-.323 0-.621.055-.896.165-.268.11-.505.267-.71.473a2.23 2.23 0 00-.485.731c-.11.282-.164.594-.164.938 0 .336.055.648.164.937.117.281.275.525.474.73.206.206.446.364.72.474.275.11.574.165.897.165zm9.805.556v-5.107h-2.471l-.031 1.05c-.02.446-.052.868-.093 1.267a7.824 7.824 0 01-.165 1.091 3.287 3.287 0 01-.298.824c-.117.226-.264.388-.443.484L73.1 47.09a.745.745 0 00.607-.257c.165-.179.296-.43.392-.752.096-.33.164-.714.206-1.153.047-.44.082-.916.102-1.431l.083-2.255h5.54v6.466h-1.648zm-5.52 2.235l.011-2.853h8.166v2.852h-1.545V48.45h-5.087v1.494h-1.544zm16.88-1.493l-2.245-3.47 1.35-.814 2.79 4.283h-1.895zm-4.685 0v-7.208h1.658v7.207h-1.658zm1.174-2.904v-1.39h2.512v1.39h-2.512zM89 45.03l-1.535-.185 2.338-3.604h1.76L89 45.03zm3.671 3.533a2.64 2.64 0 01-.391-.031 7.756 7.756 0 01-.433-.083l.104-1.41c.096.027.195.04.298.04a.758.758 0 00.66-.339c.157-.233.27-.566.339-.999.069-.432.113-.957.134-1.575l.103-2.924h5.54v7.207h-1.648v-6.23l.38.382h-3.18l.339-.402-.062 1.905a17.52 17.52 0 01-.144 1.885 5.763 5.763 0 01-.35 1.4c-.158.384-.374.676-.649.875-.274.2-.621.299-1.04.299zm8.154-.113v-7.208h1.657v2.831h1.864v1.442h-1.864v2.934h-1.657zm6.363.123a4.095 4.095 0 01-1.524-.278 3.747 3.747 0 01-1.205-.772 3.619 3.619 0 01-.803-1.184 3.965 3.965 0 01-.278-1.493c0-.543.093-1.04.278-1.493a3.49 3.49 0 01.803-1.174 3.66 3.66 0 011.205-.783 4.093 4.093 0 011.524-.278c.542 0 1.047.093 1.514.278.467.185.868.446 1.204.783.344.33.611.724.804 1.184.192.453.288.947.288 1.483 0 .535-.096 1.033-.288 1.493a3.572 3.572 0 01-2.008 1.956 4.07 4.07 0 01-1.514.278zm0-1.421c.302 0 .58-.055.834-.165.254-.11.477-.264.669-.463.193-.206.344-.45.454-.731.109-.282.164-.597.164-.947s-.055-.666-.164-.948a2.14 2.14 0 00-.454-.72 1.981 1.981 0 00-.669-.474 2.078 2.078 0 00-.834-.165c-.295 0-.573.055-.834.165-.254.11-.477.267-.669.473-.192.2-.343.44-.453.721-.11.282-.165.597-.165.947s.055.666.165.948c.11.281.261.525.453.73a2.042 2.042 0 001.503.629zm9.469-1.39c-.357.144-.7.254-1.029.33-.33.068-.646.102-.948.102-.968 0-1.709-.23-2.224-.69-.515-.466-.772-1.136-.772-2.007v-2.255h1.647v2.07c0 .494.134.868.402 1.122.268.247.649.37 1.143.37.316 0 .621-.034.916-.103.295-.075.57-.182.824-.319l.041 1.38zm-.237 2.687v-7.207h1.648v7.207h-1.648z" fill="#fff"/><path d="M29.85 4.037a4.269 4.269 0 00-4.882 4.224c0 2.35 1.913 4.26 4.259 4.26a4.183 4.183 0 003.025-1.267A4.212 4.212 0 0033.49 8.26c0-2.108-1.57-3.923-3.64-4.223zm1.25 6.08a2.584 2.584 0 01-1.874.785 2.646 2.646 0 11.384-5.262 2.655 2.655 0 012.261 2.621 2.599 2.599 0 01-.772 1.856z" fill="#48587C"/><path d="M29.845 4.036a4.265 4.265 0 10-.623 8.485 4.193 4.193 0 003.03-1.268A4.212 4.212 0 0033.49 8.26c0-2.11-1.57-3.925-3.645-4.224zm1.255 6.08a2.593 2.593 0 01-1.878.785 2.642 2.642 0 01-2.637-2.64 2.646 2.646 0 013.026-2.621 2.66 2.66 0 012.261 2.62c0 .697-.27 1.353-.773 1.855z" fill="#0A170B"/><path d="M19.874 34.49c-4.595 1.362-8.18 3.006-10.25 4.91a7.976 7.976 0 00-.296.016l-.247.024c-.157.016-.315.037-.473.057-.081.012-.166.024-.247.04a8.135 8.135 0 00-.457.085c-.089.02-.178.037-.263.057-.045.012-.09.016-.13.028-.028-.028-.052-.06-.08-.093a39.449 39.449 0 01-.712-.867 15.17 15.17 0 01-.312-.408l-.057-.077a11.055 11.055 0 01-.392-.535l-.028-.04c-.178-.243-.348-.49-.51-.742l-.052-.085a11.01 11.01 0 01-.26-.405 3.475 3.475 0 01-.194-.316c-.06-.097-.12-.198-.181-.303.857-.134 1.731-.255 2.625-.373.016 0 .033-.004.049-.004.432-.056.87-.109 1.306-.162l.097-.012c.433-.048.866-.097 1.303-.142.08-.008.162-.02.242-.024.13-.016.26-.028.388-.04.272-.025.538-.053.81-.081.016 0 .036 0 .056-.004.377-.033.761-.07 1.14-.102.51-.04 1.024-.08 1.542-.117a123.93 123.93 0 015.583-.284zm25.194 1.35c-.029.048-.061.1-.09.154-.145.239-.29.478-.449.713l-.06.093v.008c-.117.182-.243.369-.384.575a2.2 2.2 0 01-.113.158 22.62 22.62 0 01-.441.62l-.093.121a25.148 25.148 0 01-.975 1.219 13.827 13.827 0 01-.656.75.702.702 0 00-.053.057l-.004.004v.003c-.032-.02-.06-.04-.093-.056-.097-.065-.194-.126-.291-.187a19.57 19.57 0 00-.46-.28c-.11-.06-.22-.113-.325-.17a9.85 9.85 0 00-.805-.377 9.82 9.82 0 00-.469-.186 12.34 12.34 0 00-.352-.125c-.093-.028-.186-.057-.279-.081a11.807 11.807 0 00-.566-.158 10.18 10.18 0 00-.522-.11c-.113-.02-.226-.044-.34-.064a9.292 9.292 0 00-.586-.073c-.097-.008-.194-.024-.291-.032a10.823 10.823 0 00-1.493-.02 11.15 11.15 0 00-4.093 1.012c-.009-.04-.009-.077-.009-.117 0-1.463 1.343-2.953 3.848-4.35a8.15 8.15 0 01.356-.199c1.9.122 3.778.291 5.582.498l.732.085c.243.029.486.057.724.09.409.048.813.1 1.218.157l.449.06c.327.05.651.094.975.143l.239.036c.055.008.112.02.169.029z" fill="#7CAF5F"/><path d="M43.438 64.141a43.061 43.061 0 01-7.727 2.84c-1.31.348-2.666.631-4.037.85a38.766 38.766 0 01-1.679.239l-.299.032c-.874.106-1.756.179-2.63.215-.19.012-.376.02-.562.028h-.052a42.598 42.598 0 01-4.761-.093l-.24-.02a41.387 41.387 0 01-2.2-.239l-.477-.07-.065-.008a31.822 31.822 0 01-1.647-.275c-.186-.032-.376-.077-.566-.113a3.73 3.73 0 013.71-3.37c.84 0 1.633.272 2.289.79l1.043.818.251-1.3a6.902 6.902 0 016.76-5.581 6.855 6.855 0 015.82 3.22l.518.826.716-.664a5.08 5.08 0 013.48-1.365c.634 0 1.253.117 1.84.34l.514 2.9z" fill="#326827"/><path d="M42.608 59.46a6.712 6.712 0 00-5.392 1.04 8.445 8.445 0 00-6.666-3.236 8.52 8.52 0 00-8.054 5.784 5.318 5.318 0 00-2.29-.51c-2.705 0-4.943 2.024-5.29 4.641l-.381-.093c-.473-.118-.97-.251-1.618-.438a6.635 6.635 0 01-.388-.121c-.25-.07-.498-.146-.752-.231a37.15 37.15 0 01-2.682-.96l-.36-.142a47.36 47.36 0 01-1.364-.579l-.352-.166a18.956 18.956 0 01-.659-.308l2.589-14.638.004.004.032-.182a9.951 9.951 0 012.407-.802 9.926 9.926 0 0111.416 6.837l.42 1.381.959-1.081a7.365 7.365 0 014.142-2.37 7.45 7.45 0 013.677.207l.688.218.29-.66a11.886 11.886 0 017.347-6.484l2.277 12.888z" fill="#3A7729"/><path d="M40.598 41.496l-.271.26c-.033.028-.06.052-.081.073-.101.097-.21.194-.316.291l-.335.3.449 2.543a13.51 13.51 0 00-8.232 6.804 9 9 0 00-3.79-.069 8.962 8.962 0 00-4.115 1.973 11.547 11.547 0 00-12.827-6.74 11.85 11.85 0 00-1.764.499l.886-5.006-.332-.3c-.364-.328-.72-.672-1.064-1.02l.182-.025a8.99 8.99 0 01.578-.057c.101-.008.203-.016.304-.02.259-.008.513-.012.773-.004l.145.012c.235.012.465.028.692.057.076.012.15.02.226.033.267.036.538.085.797.145a9.792 9.792 0 014.224 2.167 9.842 9.842 0 012.107 2.58l.388.684.696-.372a5.013 5.013 0 012.662-.583 5.047 5.047 0 012.702.944l.87.627.364-1.008a9.492 9.492 0 018.458-6.27 7.05 7.05 0 01.506-.016c.25 0 .497.012.744.032.08.004.162.017.238.025.17.016.336.036.502.06l.275.049c.15.028.303.06.453.097a7.269 7.269 0 01.72.203c.09.028.174.057.263.085.158.057.312.121.465.182.073.032.146.06.219.093a8.083 8.083 0 01.683.34c.188.101.374.215.556.332z" fill="#4CA634"/><path d="M42.9 10.171c-.179-.218-.364-.433-.547-.647a11.163 11.163 0 00-.202-.22l-.033-.032a19.904 19.904 0 00-.995-1.037 23.41 23.41 0 00-4.643-3.52 23.23 23.23 0 00-11.315-3.09c-.105-.003-.186-.003-.267-.003-.088 0-.173 0-.262.008h-.049a22.562 22.562 0 00-4.539.502A23.334 23.334 0 0010.51 6.6l-.352.287A20.787 20.787 0 008.87 8.025c-.42.397-.829.81-1.21 1.236a23.133 23.133 0 00-3.802 5.658 24.374 24.374 0 00-1.432 3.872c-.133.49-.25.988-.344 1.482a5.018 5.018 0 011.194.223c.518-1.681 2.087-2.913 3.92-2.913.206 0 .4.017.602.045 1.994.288 3.507 2.037 3.507 4.07 0 .122-.004.244-.016.37a5.32 5.32 0 013.67 5.034 5.212 5.212 0 01-1.457 3.625c.267.348.356.688.364.956.024.68.028 1.162.024 1.494a79.695 79.695 0 011.812-.125 3.029 3.029 0 01-.514-1.693l.012-.138 2.116-12.199a.909.909 0 01.902-.757h.016c.453.008.825.34.886.786l.542 3.147 1.824-10.494a.96.96 0 01.951-.802c.477 0 .878.34.955.81l1.247 7.2 11.5-8.676a1.688 1.688 0 011.533-.263l6.634 2.102a23.153 23.153 0 00-1.407-1.903zm-10.647 1.082a4.193 4.193 0 01-3.03 1.268 4.265 4.265 0 11.623-8.485c2.075.3 3.645 2.114 3.645 4.224 0 1.13-.442 2.195-1.238 2.993z" fill="#84CAEC"/><path d="M37.718 31.14c0 .369-.142.709-.417.988l-.032.037-.09.073c-.242.198-.541.3-.86.3a1.397 1.397 0 01-1.397-1.398c0-.77.627-1.401 1.396-1.401.069 0 .13.008.202.016.243.036.47.137.668.295.335.264.53.66.53 1.09z" fill="#4CA634"/><path d="M43.312 29.787a2.986 2.986 0 01-2.981 2.985c-.457 0-.902-.101-1.303-.3.008-.024.016-.048.028-.069.028-.064.057-.125.081-.19l.04-.113c.02-.065.04-.13.057-.195.012-.04.02-.08.029-.117a4.2 4.2 0 00.04-.219l.012-.1a2.991 2.991 0 00-1.42-2.896c-.032-.02-.065-.037-.1-.057l-.122-.073c.146-.291.34-.559.583-.79a2.95 2.95 0 012.075-.85 2.986 2.986 0 012.98 2.984z" fill="#3A7729"/><path d="M36.88 21.31v5.44c-.36.408-.643.874-.837 1.385a3.022 3.022 0 00-2.059 4.917 98.503 98.503 0 00-1.594-.09V22.696l4.49-1.385z" fill="#76856F"/><path d="M30.772 23.193v9.697l-1.04-.037v-9.34l1.04-.32z" fill="#6D726A"/><path d="M12.273 32.93c0 .154 0 .28-.003.376-.656.057-1.303.122-1.946.187-.219.02-.441.04-.66.064l-.218.025-.821.097c-.174.02-.348.036-.522.06a29.5 29.5 0 00-.874.11l-.498.06c-.109.013-.214.029-.323.045a6.754 6.754 0 00-.28.04c-.202.025-.404.053-.602.082l-.477.073-.635.097c-.166.024-.332.048-.498.077a22.696 22.696 0 01-1.533-3.974c.368-.028.74-.048 1.108-.06a30.62 30.62 0 012.367-.004c2.087.073 3.912.344 5.138.765h.003c.353.122.644.251.862.381l.008.004c.308.182.376.308.38.308.02.51.024.9.024 1.187z" fill="#A9AAAA"/><path d="M10.457 29.216c-1.258-.3-2.827-.49-4.543-.55a34.18 34.18 0 00-3.916.088 17.108 17.108 0 01-.25-1.62c1.221-.04 2.382-.02 3.442.06l.06.005c.223.02.446.036.66.06 3.135.316 4.425 1.057 4.526 1.325.009.239.017.445.021.632z" fill="#CCCCCB"/><path d="M5.303 25.433c0 .049-.008.097-.008.146a31.033 31.033 0 00-2.35-.085c-.43 0-.87.008-1.319.024a24.85 24.85 0 01.036-2.046c.004-.068.013-.137.017-.21.003-.061.012-.126.016-.187l.024-.336c.004-.028.004-.052.008-.081l.012-.113c.016-.179.037-.352.06-.527 0-.016 0-.032.005-.048v-.004a.565.565 0 00.008-.085c.154.004.3.016.453.04.441.065.862.207 1.242.421a3.553 3.553 0 011.796 3.091z" fill="#E2E2E2"/><path d="M13.341 27.102c0 .968-.376 1.879-1.076 2.58l-.089.088a.982.982 0 01-.097-.04c0-.292-.004-.688-.024-1.203-.06-1.697-2.666-2.45-5.141-2.782.004-.106.008-.207.008-.312 0-.194-.012-.389-.037-.579 0-.024-.003-.045-.003-.069a6.25 6.25 0 00-.097-.535 2.754 2.754 0 01-.025-.089c-.04-.17-.093-.34-.154-.506l-.036-.085a4.326 4.326 0 00-.214-.486l-.037-.069a4.748 4.748 0 00-.29-.49 6.881 6.881 0 00-.333-.438l-.048-.052a5.487 5.487 0 00-.441-.45 5.39 5.39 0 00-.413-.332c-.012-.009-.024-.02-.036-.028.247-1.264 1.444-2.204 2.803-1.993a2.5 2.5 0 012.128 2.467c0 .25-.037.494-.114.729l-.283.907.935.138c1.775.267 3.114 1.826 3.114 3.629z" fill="#3A7729"/><path d="M19.628 31.423a1.392 1.392 0 01-.817 1.215 1.363 1.363 0 01-.595.134c-.757 0-1.376-.6-1.408-1.35L18.22 23.3l1.408 8.124z" fill="#4CA634"/><path d="M24.967 30.253a2.54 2.54 0 01-1.456 2.223 2.538 2.538 0 01-2.423-.15c.004-.004.004-.012.004-.016l.012-.04c.012-.037.02-.073.032-.11.004-.016.009-.028.012-.044.009-.016.009-.028.013-.045.012-.052.024-.11.032-.162l.012-.065.012-.073v-.008c.009-.06.016-.125.02-.186v-.003c.008-.132 0-.265-.022-.396l-.726-4.26.841-4.86.134-.749.975-5.634 2.528 14.578z" fill="#3A7729"/><path d="M48.183 24.935c0 3.15-.769 6.298-2.286 9.364l-.012.024c-.032-.004-.069-.008-.101-.016-.145-.024-.295-.045-.441-.069a22.834 22.834 0 01-.546-.081c-.045-.008-.089-.012-.134-.02-.137-.02-.283-.04-.42-.061l-.68-.097a7.842 7.842 0 01-.315-.045 20.107 20.107 0 00-.716-.089c-.008-.004-.012-.004-.02-.004a4.607 4.607 0 00-2.18-8.66c-.64 0-1.263.138-1.833.385V19.12l-10.384 3.2v10.49c-.146-.004-.295-.004-.441-.009l-.728-.012H26.8c-.372-.004-.748-.012-1.124-.012.52-.649.84-1.45.9-2.3a2.101 2.101 0 00-.027-.5l-1.565-9.059 20.695-6.48c.13.247.25.498.368.75a23.092 23.092 0 012.136 9.748z" fill="#EF8779"/><path d="M43.344 13.469l-15.048 4.71 8.819-6.65a.084.084 0 01.044-.016c.009 0 .016.004.025.004l6.16 1.952z" fill="#5B4945"/><path d="M31.872 8.26c0 .697-.27 1.353-.773 1.855a2.593 2.593 0 01-1.877.786 2.642 2.642 0 01-2.637-2.64 2.646 2.646 0 013.026-2.621 2.66 2.66 0 012.261 2.62z" fill="#FFED80"/><path d="M49.8 24.936c0-3.64-.768-7.148-2.285-10.429a24.998 24.998 0 00-3.94-6.039 4.444 4.444 0 00-.263-.287 19.32 19.32 0 00-1.064-1.106 24.715 24.715 0 00-4.963-3.759A24.777 24.777 0 0025.21.007a6.052 6.052 0 00-.664.004c-1.634.02-3.26.199-4.834.535A25.011 25.011 0 009.506 5.333l-.364.292c-.323.263-.635.53-.942.818a24.902 24.902 0 00-1.735 1.725A24.814 24.814 0 00.311 20.96l-.012.077a25.26 25.26 0 00-.288 4.593l.012.235c.004.065.004.134.008.199l.013.21.012.154.02.296.008.101v.009c0 .012.004.024.004.04l.024.34h.013c.097.92.259 1.843.48 2.754a24.28 24.28 0 002.1 5.545l.02.045.01.012c.044.093.092.182.137.26l.036.072.113.215h.004l.267.465c.081.138.162.276.223.377.076.134.162.267.226.364.085.142.178.284.271.426l.053.08c.17.268.356.536.546.795.045.069.093.138.126.178.097.137.198.271.3.409.027.04.051.077.084.113.11.146.223.296.332.43.117.153.238.3.36.445l-.02.008.347.389c.028.036.057.069.089.109.117.134.239.267.36.397l.049.057c.003.004.008.012.016.016v.004l.008.004A29.567 29.567 0 008.45 43.02l-3.9 22.05.016.008.951.453c.275.142.559.272.83.397l.351.162c.445.199.926.401 1.428.608l.364.146c.93.372 1.873.708 2.787.996.271.089.542.174.773.239a34.37 34.37 0 002.083.575l.49.125.27.061v.004l.607.138c.421.093.846.178 1.267.255.627.118 1.205.215 1.771.296l.486.069a43.09 43.09 0 002.039.227l.235.02c.093.008.186.012.275.02 1.1.085 2.229.13 3.353.13.566 0 1.088-.012 1.586-.032.218-.009.433-.017.64-.029a36.56 36.56 0 002.734-.223l.26-.028.477-.06a34.38 34.38 0 001.314-.195 41.78 41.78 0 004.187-.883 44.544 44.544 0 008.143-3.005l.963-.466.016-.008-.874-4.95h-.004l-3.022-17.1c.004-.008.012-.016.02-.024l.054-.044c.149-.139.315-.304.497-.479l.13-.133c.121-.122.242-.243.364-.373l.012-.012c.004 0 .004-.004.008-.004v-.004l.615-.648-.004-.003c.145-.158.29-.32.437-.487.08-.097.157-.186.226-.267.17-.202.34-.409.498-.608.178-.223.356-.445.534-.684l.097-.13c.161-.218.32-.437.453-.632.06-.085.117-.161.15-.218a20.205 20.205 0 00.477-.721c.158-.239.308-.482.45-.72.12-.195.234-.398.356-.612a7.945 7.945 0 00.198-.368l.032-.061a2.57 2.57 0 00.11-.203l.011-.024c.065-.113.122-.235.182-.348.033-.057.06-.118.09-.179l.011-.028.11-.223c.015-.032.027-.065.044-.097l.045-.085h-.004c1.49-3.153 2.25-6.405 2.25-9.666zM2.427 18.792A24.386 24.386 0 013.86 14.92a23.14 23.14 0 013.803-5.658c.38-.426.789-.839 1.21-1.236a20.787 20.787 0 011.287-1.138l.35-.287a23.334 23.334 0 019.54-4.468 22.56 22.56 0 014.538-.502h.049c.089-.008.174-.008.262-.008A23.23 23.23 0 0136.48 4.717a23.33 23.33 0 015.639 4.557l.033.032c.069.073.133.142.202.219.182.215.368.43.547.648.501.611.97 1.243 1.407 1.903l-6.634-2.102a1.688 1.688 0 00-1.533.263L24.64 18.914l-1.246-7.202a.962.962 0 00-.954-.81.959.959 0 00-.95.802l-1.826 10.494-.541-3.147a.906.906 0 00-.886-.786h-.016a.909.909 0 00-.902.758l-2.116 12.199-.012.138c0 .628.19 1.21.514 1.693a73.271 73.271 0 00-1.812.125c.004-.332 0-.814-.024-1.495a1.654 1.654 0 00-.364-.956 5.214 5.214 0 001.456-3.625 5.32 5.32 0 00-3.67-5.034 3.78 3.78 0 00.017-.369c0-2.033-1.513-3.783-3.507-4.07a4.289 4.289 0 00-.603-.045c-1.832 0-3.401 1.232-3.92 2.912a5.018 5.018 0 00-1.193-.223c.092-.492.21-.99.343-1.48zm40.917-5.322l-15.048 4.71 8.819-6.65a.083.083 0 01.044-.016c.009 0 .016.004.025.004l6.16 1.952zM32.252 34.58a11.056 11.056 0 00-1.318 1.094c-.182.178-.352.36-.506.542a3.206 3.206 0 00-.247.308c-.008.004-.012.008-.012.016a3.5 3.5 0 00-.17.235 4.858 4.858 0 00-.428.742c-.045.085-.081.17-.113.259a3.774 3.774 0 00-.194.615 4.494 4.494 0 00-.11 1.649c.008.093.024.182.04.275-1.674 1.114-2.953 2.63-3.826 4.513a6.805 6.805 0 00-2.715-.726 9.813 9.813 0 00-.344-.008c-.113 0-.222.012-.331.016-.025 0-.045 0-.07.004a6.223 6.223 0 00-.667.073h-.024a6.422 6.422 0 00-.631.138c-.024.004-.053.008-.073.016-.227.06-.445.13-.66.215a11.507 11.507 0 00-2.067-2.366 11.47 11.47 0 00-4.914-2.523 9.764 9.764 0 00-.684-.134l-.154-.024c2.88-1.916 7.905-3.706 14.644-5.103.615.008 1.222.016 1.825.032.097.004.198.004.295.008 1.16.029 2.318.074 3.454.134zm-2.52-1.725v-9.34l1.04-.32v9.696l-1.04-.036zm10.311 12.11a13.51 13.51 0 00-8.232 6.804 9.001 9.001 0 00-3.79-.069 8.96 8.96 0 00-4.114 1.973A11.547 11.547 0 009.316 47.43l.885-5.005-.331-.3c-.364-.328-.72-.672-1.064-1.02l.182-.025c.19-.024.384-.045.578-.057.1-.008.202-.016.303-.02.26-.008.514-.012.773-.004l.146.012c.234.012.465.028.691.057.077.012.15.02.227.032.267.037.538.085.797.146a9.793 9.793 0 014.223 2.167 9.843 9.843 0 012.108 2.58l.388.684.695-.372a5.013 5.013 0 012.662-.583 5.05 5.05 0 012.703.944l.87.627.363-1.008a9.495 9.495 0 013.277-4.415 9.504 9.504 0 015.181-1.855A6.98 6.98 0 0135.48 40c.25 0 .498.012.744.032.081.004.162.016.239.025.17.015.336.036.502.06l.275.049c.15.028.303.06.453.097a7.05 7.05 0 01.72.203c.069.02.133.044.198.064.02.008.045.012.065.02.157.057.311.122.465.183.073.032.145.06.218.093a8.165 8.165 0 01.684.34c.186.101.372.215.554.332l-.271.26a1.458 1.458 0 00-.081.072c-.101.098-.21.195-.316.292l-.335.3.45 2.543zM23.511 32.478a2.538 2.538 0 01-2.424-.15c.004-.004.004-.012.004-.016l.012-.04c.012-.037.02-.073.033-.11l.012-.044c.008-.017.008-.029.012-.045a2.28 2.28 0 00.033-.162l.012-.065.012-.073v-.008a3.08 3.08 0 00.02-.187v-.002c.008-.132 0-.265-.022-.396l-.726-4.26.841-4.86.133-.75.975-5.633 2.528 14.577a2.538 2.538 0 01-1.455 2.224zm-3.884-1.053c-.012.251-.085.49-.223.7a1.422 1.422 0 01-.594.515 1.363 1.363 0 01-.595.134c-.756 0-1.375-.6-1.408-1.35L18.22 23.3l1.407 8.125zm-12.742-6.57c0-.024-.004-.044-.004-.068a6.248 6.248 0 00-.097-.535 2.763 2.763 0 01-.024-.089 4.53 4.53 0 00-.154-.506l-.036-.085a4.326 4.326 0 00-.215-.486l-.036-.07a4.794 4.794 0 00-.283-.477c-.004-.004-.009-.009-.009-.012a6.85 6.85 0 00-.332-.438c-.016-.016-.032-.037-.048-.052a5.438 5.438 0 00-.441-.45 5.411 5.411 0 00-.413-.332l-.036-.029c.247-1.264 1.444-2.203 2.803-1.992A2.5 2.5 0 019.688 21.7c0 .252-.037.494-.113.73l-.284.907.935.137c1.776.267 3.114 1.827 3.114 3.63a3.62 3.62 0 01-1.076 2.58l-.088.088a1.012 1.012 0 01-.098-.04c0-.292-.003-.69-.024-1.203-.06-1.697-2.666-2.45-5.141-2.782.004-.106.008-.207.008-.312 0-.195-.012-.39-.036-.58zm-5.267.081c0-.49.016-.976.045-1.462.003-.069.012-.137.016-.21.003-.061.012-.126.016-.187l.024-.336c.004-.028.004-.053.008-.081l.012-.113c.016-.179.037-.353.06-.527 0-.016 0-.032.005-.049v-.003c.004-.029.008-.057.008-.085.154.003.3.016.453.04.441.065.862.206 1.242.421a3.552 3.552 0 011.796 3.09c0 .049-.008.098-.008.146a31.034 31.034 0 00-2.35-.085c-.43 0-.87.008-1.32.024-.003-.19-.007-.384-.007-.583zm.13 2.2c1.221-.04 2.382-.02 3.442.06l.06.004c.223.02.446.037.66.061 3.135.316 4.425 1.057 4.526 1.325.008.239.016.445.02.632-1.257-.3-2.827-.49-4.542-.551a34.18 34.18 0 00-3.916.089 17.246 17.246 0 01-.25-1.62zm2.665 7.112c-.166.024-.332.049-.497.077a22.693 22.693 0 01-1.533-3.974c.368-.028.74-.048 1.108-.06a30.62 30.62 0 012.367-.004c2.087.073 3.911.344 5.137.765H11c.352.122.643.252.862.381l.008.004c.307.182.376.308.38.308.02.51.024.9.024 1.187 0 .154 0 .279-.003.376-.656.057-1.303.122-1.946.187-.219.02-.441.04-.66.064l-.218.025-.821.097c-.174.02-.348.036-.522.06-.296.033-.587.07-.874.11l-.498.06c-.109.013-.214.029-.323.045-.093.012-.187.024-.28.04-.202.025-.404.053-.602.082l-.477.072-.636.098zm3.948 5.29a8.048 8.048 0 00-.457.085c-.088.02-.178.036-.263.057-.044.012-.089.016-.13.028-.027-.028-.052-.061-.08-.093a39.015 39.015 0 01-.712-.867 15.15 15.15 0 01-.312-.41l-.057-.076a11.065 11.065 0 01-.392-.535l-.028-.04a15.12 15.12 0 01-.51-.741l-.052-.085a11.096 11.096 0 01-.259-.405 3.476 3.476 0 01-.194-.316c-.06-.097-.121-.199-.182-.304.858-.133 1.731-.255 2.625-.372.017 0 .033-.004.049-.004.433-.057.87-.11 1.306-.162l.098-.013c.432-.048.865-.097 1.302-.141.081-.009.162-.02.243-.025.13-.016.259-.028.388-.04.271-.024.538-.052.809-.081.016 0 .036 0 .057-.004.376-.032.76-.069 1.14-.101a177.7 177.7 0 013.184-.227c1.302-.077 2.621-.137 3.94-.174-4.595 1.36-8.18 3.004-10.25 4.908a7.976 7.976 0 00-.296.016l-.247.024c-.157.016-.315.037-.473.057-.08.012-.166.024-.247.04zm35.076 24.605c-.692.332-1.387.644-2.095.936a42.304 42.304 0 01-5.631 1.903 40.672 40.672 0 01-4.037.85 39.573 39.573 0 01-1.68.24l-.298.032c-.874.106-1.756.178-2.63.215-.19.012-.376.02-.562.028h-.053a42.6 42.6 0 01-4.762-.093l-.238-.02a41.522 41.522 0 01-2.2-.239l-.478-.07-.064-.008a31.826 31.826 0 01-1.647-.275c-.186-.033-.376-.077-.566-.113a3.708 3.708 0 011.262-2.45 3.698 3.698 0 012.448-.92c.841 0 1.634.271 2.29.79l.165.13.878.688.133-.689.118-.612a6.902 6.902 0 016.759-5.58 6.855 6.855 0 015.821 3.22l.518.826.716-.665a5.08 5.08 0 013.479-1.364c.635 0 1.254.117 1.84.34l.514 2.9zm-.83-4.682a6.711 6.711 0 00-5.392 1.041 8.444 8.444 0 00-6.666-3.236 8.52 8.52 0 00-8.053 5.784 5.317 5.317 0 00-2.29-.51 5.32 5.32 0 00-4.534 2.539 5.242 5.242 0 00-.757 2.102l-.38-.093c-.473-.118-.97-.252-1.618-.438a6.672 6.672 0 01-.389-.121c-.25-.07-.497-.146-.752-.23-.89-.28-1.792-.604-2.682-.96l-.36-.142c-.097-.04-.19-.077-.283-.118a43.9 43.9 0 01-1.08-.462l-.352-.166a18.769 18.769 0 01-.659-.308l2.59-14.638.003.004.033-.182a9.955 9.955 0 012.406-.802 9.926 9.926 0 0111.416 6.837l.42 1.38.96-1.08a7.365 7.365 0 014.141-2.37 7.45 7.45 0 013.678.206l.687.22.291-.661a11.886 11.886 0 017.346-6.485l2.277 12.889zm2.371-23.467c-.145.239-.29.478-.449.713l-.06.093v.008c-.118.182-.243.369-.385.575a2.2 2.2 0 01-.113.158c-.137.203-.283.405-.44.62l-.094.121c-.158.211-.324.426-.498.64-.154.19-.307.381-.477.58a13.415 13.415 0 01-.656.749.547.547 0 00-.052.057l-.004.004v.003c-.033-.02-.06-.04-.093-.056-.097-.065-.194-.126-.291-.187-.154-.097-.308-.19-.461-.28-.11-.06-.219-.113-.324-.17a10.037 10.037 0 00-.805-.377 9.887 9.887 0 00-.47-.186 12.281 12.281 0 00-.351-.125c-.093-.028-.186-.057-.28-.081a11.732 11.732 0 00-.566-.158c-.17-.04-.343-.077-.521-.11-.113-.02-.227-.044-.34-.064a9.28 9.28 0 00-.586-.073c-.097-.008-.194-.024-.291-.032a10.819 10.819 0 00-1.493-.02 11.143 11.143 0 00-4.094 1.012c-.008-.04-.008-.077-.008-.117 0-1.463 1.343-2.953 3.847-4.35a8.78 8.78 0 01.356-.199c1.901.122 3.778.291 5.583.498l.732.085c.242.029.485.057.724.09.408.048.813.1 1.218.157l.448.06c.328.05.652.094.976.143l.238.036c.057.008.114.02.17.028-.029.05-.061.102-.09.155zm-6.783-7.214a3.003 3.003 0 00-.3-.206c-.032-.02-.064-.037-.1-.057l-.122-.073c.146-.291.34-.56.583-.79a2.95 2.95 0 012.075-.85 2.986 2.986 0 11-1.303 5.67c.009-.025.017-.049.029-.07.028-.064.056-.125.08-.19.013-.036.029-.076.041-.113.02-.065.04-.13.057-.194.012-.04.02-.081.028-.118.016-.073.028-.146.04-.218l.012-.101a2.994 2.994 0 00-1.12-2.69zm-.478 2.362c0 .368-.141.708-.416.988l-.033.037a2.34 2.34 0 01-.09.072c-.242.2-.541.3-.86.3a1.397 1.397 0 01-1.396-1.397c0-.77.626-1.402 1.395-1.402.07 0 .13.009.203.016.242.037.469.138.667.296.336.263.53.66.53 1.09zm-.837-4.39a4.53 4.53 0 00-.837 1.384 3.022 3.022 0 00-2.06 4.918 98.503 98.503 0 00-1.593-.09V22.698l4.49-1.386v5.44zm9.017 7.549l-.012.024c-.033-.004-.07-.008-.101-.016-.146-.024-.296-.045-.441-.07a24.231 24.231 0 01-.547-.08c-.044-.009-.088-.012-.133-.02-.137-.021-.283-.041-.42-.061l-.68-.098a7.642 7.642 0 01-.316-.044 20.165 20.165 0 00-.716-.09c-.008-.003-.012-.003-.02-.003a4.607 4.607 0 002.419-4.055 4.61 4.61 0 00-4.6-4.605 4.61 4.61 0 00-1.832.385V19.12l-10.384 3.2v10.49c-.16-.005-.324-.005-.483-.01l-.686-.011h-.146c-.372-.004-.748-.012-1.124-.012.522-.65.843-1.456.9-2.309a2.04 2.04 0 00-.026-.484l-1.566-9.066 20.695-6.48c.13.247.251.498.369.749a23.094 23.094 0 012.136 9.749c0 3.15-.77 6.297-2.286 9.363z" fill="#0A170B"/><path d="M32.252 34.58a11.056 11.056 0 00-1.318 1.094c-.182.178-.352.36-.506.542a2.98 2.98 0 00-.247.308c-.008.004-.012.008-.012.016a3.5 3.5 0 00-.17.235 4.858 4.858 0 00-.428.742c-.045.085-.081.17-.113.259a3.774 3.774 0 00-.194.615 4.494 4.494 0 00-.11 1.649c.004.093.016.187.04.275-1.674 1.114-2.953 2.63-3.826 4.513a6.805 6.805 0 00-2.715-.726 9.813 9.813 0 00-.344-.008c-.113 0-.222.012-.331.016-.025 0-.045 0-.07.004a6.223 6.223 0 00-.667.073h-.024a6.422 6.422 0 00-.631.138c-.024.004-.053.008-.073.016-.227.06-.445.13-.66.215a11.507 11.507 0 00-2.067-2.366 11.47 11.47 0 00-4.914-2.523 9.764 9.764 0 00-.684-.134l-.154-.024c2.88-1.916 7.905-3.706 14.644-5.103.615.008 1.222.016 1.825.032.097.004.198.004.295.008 1.16.029 2.318.074 3.454.134z" fill="#E8B685"/></svg>