<svg width="43" height="60" fill="none" xmlns="http://www.w3.org/2000/svg"><path d="M37.357 54.975l-.807.375c-.317.142-.637.281-.963.413-.234.097-.467.194-.703.281-.275.11-.55.215-.828.313a38.195 38.195 0 01-1.816.619l-.466.142c-.039.01-.077.02-.111.031l-.178.053c-.258.069-.515.138-.769.208l-.455.114-.289.074-.143.031a7.101 7.101 0 01-.49.115c-.007 0-.014.004-.021.004l-.08.018c-.09.017-.181.038-.272.055-.011.004-.018.004-.028.007a9.02 9.02 0 01-.42.083c-.143.028-.285.052-.425.08-.23.046-.46.083-.689.122l-.059.01c-.007 0-.014.004-.02.004a.46.46 0 01-.053.01c-.01 0-.021 0-.032.004-.01 0-.018.004-.028.004-.35.063-.706.108-1.068.157-.01 0-.018.003-.028.003-.129.018-.258.032-.386.049l-.191.025c-.08.01-.164.02-.243.024a23.234 23.234 0 01-1.12.104c-.119.011-.24.018-.359.025-.191.014-.379.025-.567.032l-.236.01-.268.011c-.383.018-.783.025-1.218.025h-.237c-.18 0-.362-.004-.547-.004h-.041c-.167-.007-.334-.01-.501-.018l-.209-.007h-.06l-.563-.028c-.187-.01-.372-.024-.56-.038l-.16-.01-.431-.036a62.652 62.652 0 01-.828-.08h-.014l-.393-.052h-.02l-.408-.052-.41-.063-.067-.007c-.01 0-.017 0-.027-.003l-.605-.094c-.102-.018-.199-.031-.3-.052l-.296-.056-.003.004-.13-.024-.052-.011c-.16-.028-.32-.06-.48-.09a2.704 2.704 0 01.136-.662c.02-.07.045-.14.073-.209.039-.09.077-.18.122-.267.035-.073.077-.142.118-.212.056-.097.122-.187.188-.278.06-.076.122-.15.184-.222.067-.069.132-.138.206-.205.052-.045.104-.09.16-.135a2.126 2.126 0 01.303-.215c.058-.038.12-.076.187-.108.003-.004.007-.004.01-.007.038-.02.077-.038.115-.06l.028-.01a.495.495 0 01.077-.035c.034-.017.069-.031.104-.045.066-.028.132-.049.201-.073a3.186 3.186 0 01.557-.126c.087-.01.177-.02.268-.024.041-.004.08-.004.121-.004a3.926 3.926 0 01.411.024c.046.004.09.011.136.018a3.9 3.9 0 01.41.098h.008a4.35 4.35 0 01.413.156c.063.032.125.063.188.097a3.2 3.2 0 01.435.284l.87.68.027.022.215-1.115c.021-.1.042-.201.067-.299.083-.337.194-.656.33-.965.028-.06.052-.115.08-.17l.032-.063a8.75 8.75 0 01.104-.198 5.112 5.112 0 01.48-.739 5.677 5.677 0 01.692-.767c.08-.077.164-.15.25-.219.09-.076.185-.145.28-.215a6.07 6.07 0 01.257-.18c.094-.06.188-.118.285-.173.063-.035.122-.07.185-.101a3.28 3.28 0 01.668-.302c.184-.073.372-.136.563-.184.053-.014.104-.028.157-.039a4.567 4.567 0 01.487-.097c.104-.018.208-.028.313-.038.108-.011.212-.021.32-.025.077-.007.157-.007.233-.007a6.988 6.988 0 01.56.025l.206.02.06.011c.1.011.201.028.3.046l.1.02.185.042a5.024 5.024 0 01.254.066c.201.06.403.125.598.205.194.076.383.167.567.271h.003c.111.056.22.118.327.188a5.73 5.73 0 01.897.687c.09.087.18.173.268.267.264.278.501.583.71.913l.438.69.01.018.617-.573c.069-.066.142-.129.219-.187.194-.16.4-.302.619-.424.08-.045.163-.087.247-.124a3.52 3.52 0 01.295-.13c.053-.024.105-.04.16-.058a4.059 4.059 0 01.49-.139 4.286 4.286 0 01.752-.1c.06-.005.118-.005.177-.005a4.475 4.475 0 01.64.042c.056.008.115.018.17.028.105.018.213.039.314.067.049.013.097.024.146.041.118.032.233.07.344.115l.444 2.478z" fill="#3A7729"/><path d="M36.644 50.961c-.01-.003-.018-.003-.028-.007a4.181 4.181 0 00-.191-.038 2.76 2.76 0 00-.16-.028 2.772 2.772 0 00-.178-.025c-.059-.01-.118-.014-.177-.02a3.302 3.302 0 00-.275-.021 5.388 5.388 0 00-.334-.011c-.066 0-.129 0-.195.004a4.252 4.252 0 00-.42.031c-.007 0-.017 0-.024.004a6.851 6.851 0 00-.766.143 3.285 3.285 0 00-.184.048l-.074.02a6.997 6.997 0 00-.26.088 4.095 4.095 0 00-.213.08c-.027.01-.055.025-.083.035-.094.038-.184.08-.275.124-.08.039-.16.077-.237.122a4.005 4.005 0 00-.316.184 6.939 6.939 0 00-.247.164l-.011-.011a6.652 6.652 0 00-.963-1.004 6.638 6.638 0 00-.254-.212c-.003 0-.007-.004-.011-.007a5.032 5.032 0 00-.345-.25c-.03-.025-.063-.045-.094-.066a5.606 5.606 0 00-.222-.143 1.855 1.855 0 00-.157-.094 4.439 4.439 0 00-.286-.156.263.263 0 00-.07-.035 3.143 3.143 0 00-.295-.142.597.597 0 00-.08-.039h-.003l-.025-.01a2.478 2.478 0 00-.26-.108l-.029-.011a3.104 3.104 0 00-.295-.108 3.136 3.136 0 00-.313-.097 4.184 4.184 0 00-.317-.083 2.974 2.974 0 00-.254-.056c-.035-.007-.076-.017-.115-.02a.88.88 0 00-.16-.028 4.86 4.86 0 00-.327-.049h-.014a4.371 4.371 0 00-.306-.027l-.136-.011a8.715 8.715 0 00-.424-.01c-.088 0-.178 0-.264.006a7.26 7.26 0 00-1.465.209c-.074.017-.146.038-.22.059a6.133 6.133 0 00-.787.271 6.864 6.864 0 00-1.283.677c-.076.053-.152.104-.23.16a6.126 6.126 0 00-.654.53 5.17 5.17 0 00-.2.191c-.053.053-.105.104-.158.16a7.235 7.235 0 00-1.634 2.693l-.028-.01c-.06-.028-.118-.056-.178-.08a2.7 2.7 0 00-.18-.07 1.402 1.402 0 00-.192-.066 4.345 4.345 0 00-.776-.174c-.055-.007-.107-.014-.163-.018a5.829 5.829 0 00-.483-.025c-.063 0-.125 0-.184.004-.14.007-.272.021-.407.039a4.065 4.065 0 00-.765.173 3.677 3.677 0 00-.452.17 2.855 2.855 0 00-.185.088c-.035.013-.066.031-.097.048a4.032 4.032 0 00-.435.257c-.055.039-.11.077-.163.118-.053.039-.104.076-.153.118a4.518 4.518 0 00-1.065 1.222c-.034.06-.069.118-.1.177-.035.06-.067.122-.095.185a3.79 3.79 0 00-.184.433 4.62 4.62 0 00-.233.951l-.032-.006-.295-.077a28.692 28.692 0 01-1.392-.375c-.104-.027-.202-.06-.337-.1-.213-.06-.425-.13-.647-.202a23.993 23.993 0 01-1.075-.36 28.177 28.177 0 01-1.228-.46l-.314-.124c-.413-.166-.81-.337-1.172-.497l-.3-.139c-.187-.087-.375-.17-.567-.267l2.226-12.543.028-.15.153-.072a8.677 8.677 0 01.556-.229c.073-.028.143-.056.215-.08.126-.042.25-.08.376-.118.067-.018.13-.038.192-.055.191-.053.383-.097.577-.136a10.415 10.415 0 011.224-.15c.14-.007.282-.011.42-.011h.144c.066 0 .129.003.191.007.083 0 .164.004.243.01l.146.012c.087.006.174.017.258.027.39.046.786.118 1.18.219a9.192 9.192 0 01.965.319c.08.031.16.062.237.097.08.032.157.066.23.104.076.035.153.073.229.11.08.04.16.08.24.13.073.041.15.083.222.121.007.004.011.004.014.01a4.672 4.672 0 01.445.282 7.096 7.096 0 01.575.42c.014.01.027.02.041.035.056.041.108.087.164.131a.61.61 0 01.076.066 6.596 6.596 0 01.359.33c.028.025.06.053.088.087.034.032.073.07.104.108.08.08.157.16.229.243a8.934 8.934 0 01.588.73c.209.291.4.596.57.916.063.11.119.222.174.336.011.021.021.039.028.06.046.097.09.194.129.292.01.017.018.031.02.048.025.055.05.111.07.17.046.111.087.226.13.34.002.012.006.019.01.029v.003l.072.23.359 1.158.006.021.511-.576.31-.347a6.327 6.327 0 013.872-2.084 5.948 5.948 0 011.385-.051c.122.01.237.024.358.038h.014c.055.007.108.014.163.025.07.01.14.02.209.038.01 0 .018 0 .028.004.076.014.15.032.222.048.16.035.316.08.473.13l.567.18.025.006.254-.566a10.03 10.03 0 011.701-2.617 9.65 9.65 0 01.776-.781l.045-.042c.115-.104.233-.2.351-.299.122-.097.247-.198.376-.292.105-.076.213-.149.317-.221.108-.074.215-.143.323-.208l.13-.08c.211-.13.427-.247.65-.362.042-.02.083-.038.125-.06a17 17 0 01.337-.158c.097-.046.195-.087.293-.125.007-.004.01-.004.017-.007.014-.007.024-.014.038-.018l.021-.01a.2.2 0 01.063-.022 8.78 8.78 0 01.674-.232l.049-.014.031-.01.77 4.335v.003l.389 2.18v.004l.805 4.525z" fill="#4CA634"/><path d="M35.231 35.252c-.076.077-.15.15-.222.22l-.327.315c-.028.025-.056.045-.07.062-.09.084-.18.17-.271.25l-.289.257.386 2.184c-.167.048-.334.1-.5.156-.029.007-.056.018-.084.028-.146.052-.296.104-.439.163-.059.021-.118.046-.177.07-.111.048-.226.093-.337.145l-.192.087c-.104.049-.208.101-.313.153a5.69 5.69 0 00-.192.1 8.646 8.646 0 00-.487.275 7.98 7.98 0 00-.32.198c-.049.031-.101.062-.15.097a10.177 10.177 0 00-1.3 1.007l-.046.038c-.302.271-.598.57-.873.878a11.406 11.406 0 00-1.673 2.433c-.007-.004-.018-.004-.025-.004-.073-.013-.145-.031-.219-.045a4.433 4.433 0 00-.215-.038 4.573 4.573 0 00-.38-.056h-.002l-.087-.01a5.073 5.073 0 00-.393-.032h-.011c-.01 0-.021 0-.028-.004a3.264 3.264 0 00-.194-.007c-.024-.004-.049-.004-.074-.004h-.146c-.25 0-.497.014-.744.035-.125.014-.247.027-.372.045a7.745 7.745 0 00-3.91 1.753c-.004-.003-.004-.01-.008-.014a8.345 8.345 0 00-.396-.798 6.68 6.68 0 00-.094-.17 11.674 11.674 0 00-.533-.82 34.924 34.924 0 00-.26-.347c-.004-.004-.008-.007-.008-.011-.1-.125-.205-.25-.313-.372a8.43 8.43 0 00-.69-.716c-.114-.11-.232-.214-.35-.319-.004 0-.008-.004-.014-.01a9.069 9.069 0 00-.38-.306 8.626 8.626 0 00-.392-.292c-.06-.042-.122-.083-.185-.125a7.926 7.926 0 00-.64-.392 6.182 6.182 0 00-.403-.215.878.878 0 00-.084-.045 8.122 8.122 0 00-.39-.178 4.98 4.98 0 00-.452-.184c0-.003-.003-.003-.003-.003a4.235 4.235 0 00-.418-.146 3.944 3.944 0 00-.393-.122.86.86 0 00-.094-.027c-.035-.014-.073-.021-.108-.032a6.026 6.026 0 00-.358-.083c-.06-.011-.118-.025-.178-.039a2.186 2.186 0 00-.18-.035 4.366 4.366 0 00-.365-.059 1.392 1.392 0 00-.174-.024c-.035-.004-.07-.011-.104-.014l-.188-.021c-.017 0-.032-.004-.049-.004a8.318 8.318 0 00-.434-.032 4.668 4.668 0 00-.313-.01h-.164c-.104 0-.208.003-.313.007-.018-.004-.039 0-.056 0a12.02 12.02 0 00-.5.031c-.005 0-.005.004-.008.004-.16.014-.323.032-.487.052-.01.004-.024.004-.035.007a9.356 9.356 0 00-1.256.26c-.083.022-.163.053-.242.077-.16.049-.32.097-.48.153-.014.006-.032.01-.05.017v-.007l.763-4.284-.285-.257a23.699 23.699 0 01-.967-.93c.087-.021.173-.042.26-.06.442-.09.86-.163 1.288-.219.278-.038.56-.073.831-.097l.376-.031a19.371 19.371 0 012.804-.011c.046.094.09.19.14.285l.082.16a9.218 9.218 0 001.994 2.499c.08.07.16.138.244.205.097.083.198.163.3.235.094.077.19.146.288.208.01.011.021.018.035.025.097.073.198.139.302.201.105.07.213.136.324.194.285.166.577.316.88.448.097.045.198.09.302.124a8.4 8.4 0 00.822.285c.121.039.243.074.368.101a7.837 7.837 0 00.755.154 8.785 8.785 0 001.468.122c.108 0 .212-.005.32-.008a9.25 9.25 0 00.557-.034l.18-.021a2.85 2.85 0 00.244-.032c.143-.017.282-.041.42-.069l.07-.014a9.77 9.77 0 00.877-.219 9.746 9.746 0 001.297-.503s.004-.003.007-.003a7.63 7.63 0 00.379-.194c.025-.011.046-.025.07-.035.125-.07.247-.143.369-.215a9.08 9.08 0 001.352-1.007 9.061 9.061 0 001.928-2.437l.139-.267c.017-.035.031-.07.048-.104.96-.063 1.882-.063 2.842.01l.37.028c.28.028.563.063.848.104l.136.021a11.817 11.817 0 01.99.167c.05.007.102.018.15.028.085.024.168.045.252.062z" fill="#7CAF5F"/><path d="M39.267 29.802l-.024.042-.018.031c-.02.042-.042.083-.066.125l-.046.08c-.039.08-.083.157-.139.257a16.396 16.396 0 01-.678 1.125l-.053.076v.007c-.104.156-.208.316-.33.493-.025.042-.053.076-.097.136-.122.173-.244.347-.38.527l-.08.108a20.439 20.439 0 01-.84 1.049 4.683 4.683 0 01-.195.228c-.007-.004-.014-.004-.021-.007-.212-.052-.418-.1-.616-.15a40.302 40.302 0 01-.418-.093c-.18-.039-.362-.07-.535-.101-.157-.028-.31-.056-.46-.076l-.06-.011a9.262 9.262 0 00-.316-.046c-.1-.013-.198-.027-.299-.038h-.004c-.08-.01-.163-.02-.243-.032-.122-.013-.244-.024-.369-.038l-.386-.032a20.591 20.591 0 00-2.393-.045c.041-.15.083-.306.122-.462.003-.017.01-.038.014-.059.01-.038.017-.076.024-.115a9.198 9.198 0 00.188-1.309c.011-.107.015-.211.018-.319.003-.11.007-.219.007-.33 0-.225-.01-.447-.024-.67-.003-.027-.007-.052-.007-.08-.007-.087-.014-.177-.025-.267a7.844 7.844 0 00-.053-.382v-.007a8.157 8.157 0 00-.104-.566c.018-.004.035-.004.053-.007.334-.039.667-.07 1.002-.094l.226-.01c.173-.012.348-.019.521-.026.119-.003.237-.006.356-.006.055-.004.114-.004.17-.004h.209c.135 0 .271 0 .406.007.09 0 .178.003.268.007.056.003.115.003.17.006.063.004.126.011.188.014.286.018.57.039.852.067.111.01.223.024.335.038.236.028.477.063.713.097.115.018.23.039.348.06.24.041.48.087.716.138a19.635 19.635 0 011.318.323c.33.095.658.202.981.313.025.01.05.021.074.028zm2.167-8.432c0 .156-.004.315-.007.471-.004.108-.007.215-.014.323 0 .028-.004.052-.004.076-.003.084-.01.164-.017.247 0 .018 0 .035-.004.048a9.4 9.4 0 01-.028.34 10.214 10.214 0 01-.042.43.159.159 0 00-.025-.01.24.24 0 00-.041-.017.596.596 0 01-.067-.028c-.135-.06-.267-.11-.403-.166h-.003l-.021-.01a25.38 25.38 0 00-.654-.261c-.15-.056-.303-.108-.455-.16a19.774 19.774 0 00-.644-.212c-.042-.013-.083-.027-.125-.038-.115-.035-.23-.07-.344-.101a13.33 13.33 0 00-.654-.173 4.893 4.893 0 00-.341-.084l-.132-.031a22.558 22.558 0 00-.668-.136 8.847 8.847 0 00-.417-.076l-.053-.01a20.021 20.021 0 00-.47-.07 5.193 5.193 0 00-.236-.035c-.007 0-.018-.004-.025-.004-.142-.017-.278-.038-.424-.052-.13-.014-.258-.028-.39-.038l-.118-.011c-.066-.003-.132-.01-.198-.014-.024-.004-.05-.004-.074-.007-.129-.007-.258-.02-.386-.028-.18-.01-.362-.017-.542-.02a9.577 9.577 0 00-.33-.007c-.102-.007-.202-.007-.303-.007-.279 0-.557.007-.835.017-.084.004-.17.011-.254.014h-.018c-.188.011-.376.021-.56.035l-.324.031a12.471 12.471 0 00-.845.098c-.16.021-.32.042-.48.067l-.351.062c-.153.025-.31.052-.463.083-.118.025-.24.049-.358.076-.15.032-.3.067-.448.101-.003 0-.01.004-.014.004a9.67 9.67 0 00-.348.087.37.37 0 00-.06.018c-.125.032-.25.066-.375.1-.122.035-.247.07-.372.109-.067.02-.132.038-.199.059-.014-.014-.024-.028-.038-.039l-.101-.1a14.988 14.988 0 00-.793-.77l-.112-.105a17.678 17.678 0 00-.543-.479l-.323-.271c-.136-.11-.275-.219-.414-.327l-.187-.145-.362-.267c-.136-.098-.275-.195-.414-.292-.07-.049-.143-.101-.215-.15-.056-.034-.108-.076-.164-.11.021-.012.042-.025.063-.035.115-.056.229-.111.348-.164l.136-.062a8.75 8.75 0 01.34-.152 19.079 19.079 0 011.085-.44c.088-.033.179-.064.266-.095a19.17 19.17 0 011.874-.556c.074-.017.146-.038.22-.055.288-.066.58-.125.876-.177l.275-.053c.293-.048.584-.09.88-.128.097-.01.195-.02.293-.035l.212-.02c.025-.004.045-.004.07-.008.2-.017.403-.034.604-.048.09-.004.181-.007.275-.014.275-.014.554-.02.831-.024h.132c.216 0 .432.003.658.013a15.877 15.877 0 01.48.025l.317.02a.1.1 0 01.038.005c.097.007.195.013.293.023.149.014.302.028.455.046l.334.042c.157.02.314.041.466.066l.314.053c.187.031.376.066.563.104l.06.01h.003c.073.018.146.035.219.05.046.01.09.02.132.027.143.035.282.066.42.1.098.026.195.05.293.077.007 0 .014.003.02.003.119.032.237.067.356.097.066.018.129.039.194.056l.095.027.07.021a.664.664 0 00.086.028c.188.06.372.122.56.184.06.02.123.042.181.066a16.842 16.842 0 01.72.268c.09.035.181.073.268.111.087.035.174.07.261.108.02.01.042.018.063.028.16.07.32.142.477.219.034.017.069.031.104.048.146.07.292.143.434.215.046.025.09.046.136.07.136.069.271.142.407.218.049.028.101.056.153.083.045.025.09.053.139.08.01.007.02.011.031.018.032.47.049.946.049 1.421z" fill="#B9D79E"/><path d="M41.09 24.737a18.622 18.622 0 01-1.221 3.805.06.06 0 00-.025-.007c-.046-.018-.087-.032-.136-.049l-.404-.135-.497-.156c-.139-.039-.274-.08-.41-.115a11.858 11.858 0 00-.508-.136l-.09-.02a20.697 20.697 0 00-.839-.187 20.537 20.537 0 00-.407-.08 398.88 398.88 0 01-.536-.088 17.409 17.409 0 00-.964-.125l-.094-.011-.094-.011-.188-.02c-.208-.019-.42-.032-.633-.046-.104-.004-.208-.014-.313-.018h-.014a21.202 21.202 0 00-.942-.025c-.09 0-.18 0-.275.004-.094 0-.184.004-.279.007h-.08c-.042 0-.08.004-.122.004-.076.003-.156.01-.236.014h-.01c-.171.007-.342.018-.512.028-.098.006-.192.017-.29.024-.159.014-.316.028-.476.046-.07.007-.14.013-.209.024l-.087.011c-.055.007-.11.01-.167.018-.055-.104-.11-.205-.163-.31l-.042-.075a20.998 20.998 0 00-.532-.941c0-.004-.003-.008-.003-.011h-.004c-.034-.067-.073-.129-.11-.191-.095-.15-.188-.3-.286-.445-.076-.122-.156-.24-.236-.357a.633.633 0 00-.046-.063 17.721 17.721 0 00-.787-1.072c-.11-.142-.219-.28-.33-.42.108-.027.22-.059.33-.09.011 0 .021-.004.032-.007.073-.017.143-.038.212-.055.112-.028.223-.052.335-.08l.39-.083c.013-.004.027-.004.041-.007.226-.049.456-.09.686-.129.08-.01.16-.02.236-.035a21.587 21.587 0 01.772-.104l.48-.048.275-.02a6.63 6.63 0 01.404-.026.961.961 0 01.104-.006c.08-.004.16-.011.24-.011.247-.011.497-.018.744-.018a20.02 20.02 0 011.158.035c.056.003.112.007.167.014.06.004.115.007.167.014.104.007.212.014.316.025.14.01.279.02.418.038l.258.032c.041.007.083.014.125.018.02.006.041.006.062.01l.293.042.358.052c.157.028.31.063.466.09.15.032.296.06.442.09.06.011.115.021.17.035.16.039.317.08.476.122.153.038.31.08.467.125.041.007.08.02.122.031l.139.042c.11.035.222.07.337.104.191.062.383.125.574.19.157.056.313.116.47.174.188.073.376.146.563.222.084.039.171.076.254.111h.004c.07.032.136.062.206.09.094.042.187.087.281.132l.023.01z" fill="#7CAF5F"/><path d="M29.183 30.83c0 .08 0 .159-.004.24 0 .048-.003.093-.007.142l-.01.177c-.005.083-.015.166-.022.25a7.557 7.557 0 01-.278 1.391c0 .004-.004.007-.004.011a2.6 2.6 0 01-.073.233 3.905 3.905 0 01-.09.26c-.015.038-.029.08-.043.118a7.802 7.802 0 01-.368.799l-.077.145c-.003.004-.003.007-.007.01-.048.091-.1.181-.156.268a7.458 7.458 0 01-1.207 1.517 7.288 7.288 0 01-.953.788 7.782 7.782 0 01-.881.539c-.004.004-.007.004-.014.007a8.062 8.062 0 01-.261.129 1.1 1.1 0 01-.143.066 2.86 2.86 0 01-.272.118 7.56 7.56 0 01-.921.312 7.795 7.795 0 01-2.53.243 86.637 86.637 0 01-.257-.02c-.06-.008-.122-.015-.185-.025a2.65 2.65 0 01-.229-.032 1.541 1.541 0 01-.118-.018c-.087-.014-.17-.031-.258-.048a7.8 7.8 0 01-.918-.247c-.111-.038-.223-.076-.33-.118a6.33 6.33 0 01-.154-.062c-.076-.032-.152-.062-.229-.1a2.355 2.355 0 01-.226-.104 6.98 6.98 0 01-.894-.51 3.387 3.387 0 01-.226-.157 2.069 2.069 0 01-.17-.125 6.462 6.462 0 01-.446-.364 6.649 6.649 0 01-.592-.587 5.355 5.355 0 01-.295-.34 7.492 7.492 0 01-.724-1.048l-.084-.154v-.003a7.713 7.713 0 01-.744-5.444c.018-.076.035-.152.056-.229.035-.131.07-.26.111-.385v-.003c0-.004 0-.004.004-.007.028-.088.055-.174.087-.258a5.96 5.96 0 01.45-.934 17.198 17.198 0 01.842-1.35c.117-.17.236-.344.364-.514a7.55 7.55 0 01.282-.375c.146-.187.293-.371.442-.555.01-.011.017-.018.024-.028a20.43 20.43 0 01.563-.656l.248-.265c.003-.004.007-.007.007-.01.031-.028.055-.06.083-.088.049-.048.094-.097.143-.142.017-.02.038-.046.06-.062.02-.021.038-.042.059-.06.003-.007.014-.017.02-.024.09-.094.181-.184.275-.271.09-.09.185-.18.279-.268l.097-.087c.018-.017.035-.034.056-.048.271-.25.55-.49.835-.722.024-.02.048-.042.073-.06.314-.253.633-.492.96-.721.049-.039.098-.073.146-.108.063-.041.125-.087.188-.129l.3-.198c.163-.107.326-.207.493-.312.028-.018.056-.032.08-.049.025.014.046.025.067.039.104.066.215.131.323.2.035.022.067.046.101.067.014.007.025.018.039.025.049.031.094.062.143.094.152.1.302.2.452.305.046.032.09.067.136.098.15.107.295.214.445.326.039.032.08.062.118.094.038.028.077.06.115.09h.003l.33.26c.032.028.06.053.091.077.129.104.25.212.376.32.028.024.06.048.087.073.01.01.025.02.035.034.129.115.258.229.383.348.129.117.254.235.375.357a13.309 13.309 0 01.512.521c.074.073.143.15.212.225a13 13 0 01.29.327c.093.108.187.219.28.33.029.038.06.073.091.11l.021.025c.16.194.317.392.466.594l.06.076.083.111c.02.025.035.049.052.073.042.049.077.101.112.15.007.007.01.014.014.02.006.008.01.011.01.018.063.087.125.174.188.265.028.034.052.073.076.11.031.042.06.084.088.125.038.056.076.115.114.174.046.066.088.131.13.198l.17.274c.032.048.063.1.101.173a6.622 6.622 0 01.386.733c.018.038.035.073.049.11.048.105.094.212.136.323.006.021.016.042.02.067.028.062.053.128.074.194.02.062.038.121.06.184.03.094.058.187.082.285.014.052.028.1.038.152.035.129.067.258.09.39.004.01.004.02.008.03.024.116.041.23.059.348 0 .007.004.014.004.02a7.527 7.527 0 01.078 1.119z" fill="#51BDE8"/><path d="M12.548 33.336a20.03 20.03 0 00-2.38.045l-.39.032c-.302.028-.605.066-.897.108-.453.06-.901.135-1.381.233-.341.073-.689.156-1.061.253-.014-.02-.032-.039-.046-.056a5.253 5.253 0 01-.201-.24c-.14-.162-.272-.329-.411-.503-.09-.115-.18-.233-.268-.35l-.048-.067a10.04 10.04 0 01-.271-.364.558.558 0 01-.067-.094l-.024-.035c-.153-.208-.3-.416-.439-.635l-.055-.083a11.16 11.16 0 01-.213-.337 2.896 2.896 0 01-.166-.27 5.138 5.138 0 01-.16-.261c-.014-.025-.028-.053-.046-.08-.115-.195-.222-.39-.337-.597-.025-.049-.052-.097-.09-.174-.007-.017-.018-.034-.025-.048l.076-.032.342-.11.497-.157c.118-.035.244-.07.365-.1.16-.046.32-.088.48-.13.125-.031.25-.059.376-.087.163-.038.323-.073.487-.104.125-.027.25-.052.376-.073.166-.031.33-.055.497-.083.125-.018.247-.039.369-.052.177-.025.35-.046.525-.063.118-.014.233-.027.351-.038.195-.018.39-.028.585-.042.097-.003.194-.014.295-.018a18.65 18.65 0 011.931.011c.08.004.16.007.24.014a16.66 16.66 0 011.047.094c-.034.17-.069.34-.096.514l-.031.233a4.013 4.013 0 00-.025.214c-.007.056-.014.111-.018.167-.01.09-.017.177-.024.267a8.533 8.533 0 00-.014.424c-.003.055-.007.11-.007.166 0 .852.122 1.695.352 2.508z" fill="#B9D79E"/><path d="M15.274 23.682a5.08 5.08 0 00-.135.17h.003c-.077.094-.153.19-.226.288-.042.048-.077.094-.116.142l-.11.146c-.174.233-.345.468-.508.708-.08.104-.157.208-.234.313h-.007c-.024.034-.045.069-.066.1a4.007 4.007 0 00-.139.201c-.055.087-.115.174-.17.265-.046.073-.09.15-.132.225-.028.046-.06.09-.084.136-.027.048-.048.1-.076.15a5.776 5.776 0 00-.122.236 5.098 5.098 0 00-.195.416l-.004.007c-.055.104-.11.205-.16.306l-.17-.021a6.64 6.64 0 00-.264-.028c-.153-.018-.3-.032-.453-.046l-.045-.003a23.986 23.986 0 00-.79-.049l-.237-.014-.323-.01c-.146 0-.289-.004-.435-.004-.32 0-.637.01-.956.024-.104.004-.209.014-.313.018-.213.014-.428.028-.64.045-.122.011-.243.028-.365.042-.195.02-.386.042-.578.066-.132.018-.26.039-.39.06-.184.027-.368.059-.549.09-.132.024-.265.052-.393.076-.18.039-.362.076-.539.118-.132.027-.26.06-.393.094-.177.045-.355.09-.528.138-.132.039-.261.074-.39.111l-.529.167c-.125.041-.25.083-.376.128-.059.018-.115.035-.173.056a19.267 19.267 0 01-.915-2.534 23.017 23.017 0 01-.31-1.274c.077-.039.157-.073.244-.115.018-.007.038-.014.06-.025a.022.022 0 01.013-.007l.101-.048.192-.08.048-.021a2.6 2.6 0 01.136-.056c.035-.013.07-.031.101-.045.025-.007.049-.018.074-.028l.348-.135a21.873 21.873 0 011.161-.406l.164-.049v-.004c.097-.027.194-.059.306-.087.111-.031.22-.062.338-.09.173-.045.34-.087.504-.125.094-.024.188-.045.278-.066.09-.02.178-.041.268-.06.442-.09.863-.162 1.287-.218.279-.038.56-.073.832-.097l.083-.007.289-.024a27.403 27.403 0 011.032-.05c.074 0 .146-.004.22-.004.062 0 .122 0 .18-.003h.254c.09 0 .18 0 .272.003l.292.011c.202.007.411.018.62.032v.004a17.019 17.019 0 011.162.114l.24.032c.139.02.278.045.417.066.115.018.23.039.345.06l.062.01a15.405 15.405 0 01.855.177c.17.042.338.08.505.125.104.025.208.053.313.08-.022.024-.04.052-.06.077z" fill="#7CAF5F"/><path d="M20.02 19.404c-.035.021-.067.049-.101.07-.293.194-.582.396-.863.604-.018.013-.035.027-.053.038-.268.201-.532.41-.79.622l-.198.163a.147.147 0 00-.025.02c-.01.012-.02.018-.027.029a.051.051 0 00-.018.013 19.88 19.88 0 00-.727.642 24.973 24.973 0 00-.48.462 21.38 21.38 0 00-.289.296l-.094.09a4.646 4.646 0 00-.3-.087 8.578 8.578 0 00-.396-.115 10.16 10.16 0 00-.4-.1 4.229 4.229 0 00-.341-.084 15.042 15.042 0 00-1.023-.212 3.068 3.068 0 00-.18-.034 20.42 20.42 0 00-.543-.087 15.143 15.143 0 00-.56-.074l-.063-.006a23.371 23.371 0 00-.88-.09 18.34 18.34 0 00-.734-.04l-.285-.01c-.097-.004-.194-.004-.288-.007-.247-.004-.494 0-.741.004-.08.004-.16 0-.24 0-.146.007-.293.01-.442.02 0 .005.003.005.003.005l-.487.027-.39.032c-.215.02-.43.052-.643.08 0-.004-.004-.004-.004-.007-.007 0-.01.003-.018.003l-.233.032a24.69 24.69 0 00-.678.1c-.08.018-.16.032-.24.046-.08.014-.164.028-.247.046a.534.534 0 00-.08.013c-.046.011-.09.018-.136.028-.021.007-.042.01-.067.018-.341.07-.695.152-1.047.25a7.159 7.159 0 00-.362.097 6.759 6.759 0 00-.407.118l-.272.083c-.139.046-.281.094-.417.143-.226.076-.452.16-.665.242a18.353 18.353 0 00-.907.369c-.042.017-.088.038-.136.059-.004-.018-.004-.039-.007-.056a.606.606 0 01-.007-.083 14.68 14.68 0 01-.053-.527c-.003-.067-.01-.136-.013-.205a15.145 15.145 0 01-.032-.57 21.854 21.854 0 01-.007-.503c0-.125 0-.25.007-.378 0-.021 0-.046.003-.067 0-.11.004-.221.007-.333.007-.212.02-.43.035-.646l.163-.094.157-.09c.045-.024.094-.048.139-.073a8.66 8.66 0 01.4-.208 17.3 17.3 0 01.431-.215c.035-.017.07-.031.101-.048a2.52 2.52 0 01.15-.07c.108-.052.22-.1.33-.15.018-.006.035-.017.056-.024.174-.076.351-.15.529-.222h.003c.191-.076.386-.149.58-.218l.39-.136.272-.09c.307-.097.612-.191.922-.274.014-.004.032-.011.049-.014.16-.046.323-.083.483-.122.142-.034.285-.07.427-.1.021-.008.046-.011.067-.018.055-.011.11-.021.17-.035l.494-.094c.097-.014.192-.032.293-.052.014 0 .03-.004.045-.007l.338-.053c.115-.017.229-.031.34-.045.06-.007.116-.014.174-.018l.543-.06c.018-.002.032-.002.049-.002h.003l.271-.021c.24-.018.48-.032.72-.042.234-.01.467-.014.703-.014h.146a22.304 22.304 0 011.583.078c.132.01.264.024.396.038.101.014.199.025.3.035.292.038.584.08.873.128.031.007.066.011.097.018.063.01.122.025.184.035.29.052.578.11.867.177.076.018.156.038.233.055.198.049.392.101.588.157.062.014.125.034.187.052l.039.01c.062.019.132.036.198.056l.101.032c.25.076.504.16.752.25.025.007.049.018.073.028.067.02.132.045.199.07.104.038.205.076.31.117.048.018.097.035.145.056.122.045.247.097.37.149l.26.115c.275.122.55.246.821.378.025.008.046.022.067.032z" fill="#B9D79E"/><path d="M23.474 14.79v.004c-.024-.007-.05-.01-.077-.017.025.003.049.01.077.014zm17.716 3.469c-.01-.004-.017-.01-.027-.014-.32-.166-.647-.316-.978-.465-.02-.011-.046-.021-.07-.032a26.02 26.02 0 00-1.307-.528l-.129-.046a24.366 24.366 0 00-1.002-.33l-.358-.103a5.682 5.682 0 00-.24-.067c-.062-.017-.125-.031-.187-.048l-.028-.01c-.195-.053-.39-.098-.584-.143-.095-.021-.188-.042-.282-.06a6.609 6.609 0 00-.462-.09 6.51 6.51 0 00-.449-.08 17.476 17.476 0 00-.477-.076 3.34 3.34 0 01.097-.309 4.689 4.689 0 01.32-.75c.04-.08.084-.16.13-.236a1.85 1.85 0 01.104-.17 2.59 2.59 0 01.146-.219c.062-.094.129-.18.198-.271l.01-.01a5.56 5.56 0 01.226-.265c.007-.01.018-.02.025-.028.07-.076.143-.152.22-.222.083-.083.166-.163.257-.235.055-.053.115-.101.174-.146a3.58 3.58 0 01.184-.138c.073-.053.146-.104.223-.153.024-.018.049-.032.073-.049.07-.041.14-.087.213-.124a5.059 5.059 0 01.598-.295c.236-.097.48-.18.73-.247.08-.02.16-.038.24-.055.039-.007.076-.018.118-.021a4.35 4.35 0 01.289-.049c.146.275.285.556.417.84a19.667 19.667 0 011.589 5.244z" fill="#326827"/><path d="M23.397 14.777c.028.007.053.01.077.017v-.004c-.028-.003-.052-.01-.077-.013zm-9.726 14.935zm2.515 13.167a1.026 1.026 0 00-.101-.069c.132.083.26.17.386.267a6.552 6.552 0 00-.285-.198zm5.743 7.63l-.157.122c.074-.055.146-.11.223-.166-.02.014-.045.028-.066.045zm1.468-35.732c.028.007.053.01.077.017v-.004c-.028-.003-.052-.01-.077-.013zm1.44 29.429zm3.667 6.7zm-.599-.205zm6.37.205h-.003c-.09.017-.18.034-.268.059.216-.049.435-.087.658-.115-.13.014-.258.028-.387.056zm-10.878-36.13c.028.008.053.011.077.018v-.004c-.028-.003-.052-.01-.077-.013z" fill="#0A170B"/><path d="M42.816 20.797L42.7 19.11a21.063 21.063 0 00-1.836-6.676c-.039-.083-.077-.166-.118-.246a21.314 21.314 0 00-2.776-4.35 19.98 19.98 0 00-.494-.583 7.324 7.324 0 00-.226-.246c-.125-.14-.25-.275-.38-.41l-.285-.295h-.01l-.24-.24a21.494 21.494 0 00-4.268-3.225A21.215 21.215 0 0025.503.4s-.003.004-.007 0a21.511 21.511 0 00-3.162-.375 50.315 50.315 0 00-.682-.018 5.044 5.044 0 00-.57.004c-.028 0-.056 0-.084.004-.25.003-.497.01-.745.025a22.442 22.442 0 00-1.138.087A21.064 21.064 0 0017.95.28a21.524 21.524 0 00-9.77 4.29l-.313.253c-.018.013-.039.031-.056.045a16.83 16.83 0 00-.755.652c-.129.111-.25.23-.379.348-.045.041-.09.087-.136.128A21.13 21.13 0 003.39 9.84h-.01l-.234.375a20.978 20.978 0 00-1.082 1.98c-.184.395-.355.78-.5 1.148a20.907 20.907 0 00-.815 2.399c-.198.74-.358 1.486-.476 2.221l-.011.067c-.018.11-.039.26-.063.416l-.083.67L.014 20.8c-.003.191-.014.385-.014.573v.077c.004.84.073 1.68.194 2.517l.077.5a1.1 1.1 0 01.018.097l.166.812c.024.104.042.201.07.31.208.857.744 2.342.995 3.02a8.1 8.1 0 00.285.677l.17.35.282.583.007-.004.09.174c.035.076.076.149.118.225.115.212.23.42.362.643.07.117.136.235.192.322.066.118.138.233.194.313.07.118.146.236.226.354l.049.08c.153.233.31.462.473.684.039.06.076.115.108.153.083.115.167.233.258.347.02.035.045.067.073.097.094.129.192.254.286.369.139.18.281.357.42.52.077.097.153.188.233.278.122.143.247.285.366.406a24.68 24.68 0 001.558 1.597l-3.354 18.9.832.399c.236.118.48.232.713.336l.302.14c.383.17.797.346 1.228.52l.314.124c.477.192.9.348 1.283.48.348.128.713.25 1.113.375.233.076.466.15.665.205.129.041.25.08.369.11.57.167 1.012.286 1.422.386l.376.094.279.062v.004l.521.118c.063.014.13.024.192.038 0 0 .623.129.738.15.052.01.104.024.156.031.101.021.296.056.303.056 0 0 1.19.194 1.224.198l.417.059c.626.087 1.197.15 1.754.198l.435.032c.076.007.152.01.229.013.076.007.153.011.226.018l.22.01c.082.008.166.012.25.019.26.01.525.024.789.031l.369.011c.16.003.32.003.476.003.101.004.198.007.296.007.494 0 .942-.007 1.366-.025h.046l.028-.004c.052-.003.104-.003.153-.006.076 0 .152-.004.229-.011.032 0 .062 0 .09-.004.195-.007.39-.02.585-.032.121-.007.24-.017.361-.024.303-.021.602-.049.905-.08.178-.018.351-.035.529-.056l.264-.031.157-.021c.063-.007.125-.014.185-.025.115-.014.229-.031.34-.048.168-.021.331-.046.49-.074.029 0 .056-.006.084-.01.084-.011.167-.021.247-.035.296-.049.591-.1.884-.156.233-.042.47-.087.7-.136.076-.014.152-.032.225-.045l.3-.063.045-.01c.053-.011.101-.025.15-.035.094-.021.188-.046.282-.07a4.54 4.54 0 00.31-.073c.232-.055.472-.108.706-.17a38.438 38.438 0 006.998-2.58l.846-.406-.752-4.242h-.004L36.27 40.89v-.007l-.477-2.67h-.007l-.233-1.343.021-.018.046-.042a23.188 23.188 0 00.863-.854c.076-.076.15-.152.219-.225.076-.077.146-.153.212-.226l.07-.077c.135-.149.271-.301.406-.454.07-.08.136-.16.192-.229a23.434 23.434 0 00.89-1.108l.08-.11c.144-.187.276-.375.39-.542a27.312 27.312 0 00.543-.802c.136-.207.265-.416.386-.621.104-.166.201-.34.306-.528a.498.498 0 00.025-.041c.053-.097.108-.191.146-.268l.025-.048c.031-.056.062-.111.09-.166.042-.074.076-.143.111-.212l.003.003.282-.583c0-.006.004-.01.007-.017v-.004l.004-.003a20.395 20.395 0 001.506-4.333l.181-.91.032-.17c.037-.219.073-.44.094-.666.038-.358.094-.924.11-1.267.022-.302.033-.601.033-.903v-.076c0-.193-.007-.383-.01-.574zm-4.04-8.55c.04-.008.077-.018.119-.021.094-.021.191-.035.288-.049.146.274.285.555.418.84a19.59 19.59 0 011.59 5.242c-.011-.004-.018-.01-.028-.014-.32-.166-.647-.316-.978-.465-.02-.011-.046-.021-.07-.032a26.02 26.02 0 00-1.307-.528l-.129-.046a24.366 24.366 0 00-1.002-.33l-.358-.103a5.682 5.682 0 00-.24-.067c-.062-.017-.125-.031-.187-.048l-.028-.01c-.195-.053-.39-.098-.584-.143-.095-.021-.188-.042-.282-.06a17.106 17.106 0 00-.462-.09 6.51 6.51 0 00-.449-.08 17.476 17.476 0 00-.477-.076 3.34 3.34 0 01.097-.309 4.689 4.689 0 01.32-.75c.04-.08.084-.16.13-.236a1.85 1.85 0 01.104-.17 2.59 2.59 0 01.146-.219c.062-.094.129-.18.198-.271l.01-.01c.07-.09.146-.178.226-.265.007-.01.018-.02.025-.028.07-.076.143-.152.22-.222.083-.083.166-.163.257-.235.055-.053.115-.101.174-.146a3.58 3.58 0 01.184-.138 3.05 3.05 0 01.223-.153c.024-.018.049-.032.073-.049.07-.041.14-.087.213-.124a5.059 5.059 0 01.598-.295c.236-.097.48-.18.73-.247.079-.02.158-.037.239-.054zm-21.56-10.42c.01-.003.017-.003.027-.003.16-.035.317-.066.477-.097a20.436 20.436 0 013.395-.33h.042l.031-.004h.084c.038-.003.073-.003.11-.003a19.367 19.367 0 011.652.07c.555.045 1.107.114 1.654.205a19.968 19.968 0 016.686 2.378 20.001 20.001 0 013.68 2.731c-.004.004-.01.004-.014.007.101.087.199.184.296.278.278.265.542.539.786.81.007-.005.014-.005.021-.008l.083.087.024.028a18.067 18.067 0 01.644.743c.57.687 1.09 1.416 1.558 2.176a6.92 6.92 0 00-1.551.539 6.621 6.621 0 00-.817.475c-.31.208-.602.438-.873.694a8.666 8.666 0 00-2.025-.951 8.682 8.682 0 00-6.654.541 8.756 8.756 0 00-2.043 1.444 6.806 6.806 0 00-2.205-.364 6.844 6.844 0 00-2.07.316c-.295.09-.58.198-.858.333-.063.025-.122.056-.185.087a7.53 7.53 0 00-.267.143 8.158 8.158 0 00-.526-.566 6.927 6.927 0 00-4.467-1.916 8.707 8.707 0 00-4.63-6.215 19.988 19.988 0 017.935-3.627zm6.133 19.682h.003l.33.26c.032.028.06.052.09.076.13.104.25.212.376.32.028.025.06.049.087.073.011.01.025.02.035.035.129.114.258.229.383.347.129.115.254.233.376.358.122.114.24.235.355.357.052.052.104.108.157.163.073.073.142.15.212.226.097.108.194.214.288.326.028.027.053.055.077.083.07.083.136.166.205.247.028.038.06.073.09.111l.021.025c.16.194.317.392.466.594.021.024.039.047.06.075.01.01.02.025.031.039l.053.074c.02.024.035.048.052.073.042.048.077.1.112.15.007.006.01.013.014.02.006.007.01.01.01.018.011.01.018.02.025.027.056.077.111.157.164.236.027.035.052.073.076.111.031.042.06.083.087.125.039.055.077.115.115.173.046.066.087.132.13.198l.17.274c.031.049.062.101.1.174a6.619 6.619 0 01.386.733c.018.038.035.072.05.11.048.104.094.215.135.323.007.02.017.041.021.066.028.062.053.129.073.194l.06.184c.03.094.06.187.083.285.014.053.028.101.038.153.035.128.066.257.09.389.004.01.004.02.007.031.025.115.042.229.06.348 0 .007.004.013.004.02.027.185.045.372.059.556a7.6 7.6 0 01.02.562c0 .08 0 .16-.003.24a13.142 13.142 0 01-.018.32c-.004.082-.014.166-.02.249a7.573 7.573 0 01-.28 1.392c0 .004-.003.007-.003.01-.02.08-.046.157-.073.233a3.885 3.885 0 01-.09.26c-.015.039-.029.08-.042.118a7.802 7.802 0 01-.37.8l-.076.145c-.003.004-.003.007-.007.01-.048.09-.1.18-.156.268a7.45 7.45 0 01-1.207 1.517 7.313 7.313 0 01-.953.788 7.782 7.782 0 01-.881.538c-.003.004-.007.004-.014.008a8.169 8.169 0 01-.261.128 1.092 1.092 0 01-.143.066c-.09.046-.18.084-.272.118-.3.125-.609.229-.921.313a7.79 7.79 0 01-2.53.242 63.822 63.822 0 01-.257-.02c-.06-.007-.122-.014-.185-.025a2.582 2.582 0 01-.229-.032 1.498 1.498 0 01-.118-.017c-.087-.014-.17-.032-.258-.049a7.803 7.803 0 01-.918-.246c-.111-.039-.223-.076-.33-.118a6.576 6.576 0 01-.153-.062c-.077-.032-.153-.063-.23-.101a2.354 2.354 0 01-.226-.104 7.121 7.121 0 01-1.12-.667 2.038 2.038 0 01-.17-.125 6.437 6.437 0 01-.446-.364 6.729 6.729 0 01-.592-.587 5.41 5.41 0 01-.295-.34c-.003-.005-.007-.012-.011-.015a7.492 7.492 0 01-.713-1.034l-.084-.153v-.004a7.713 7.713 0 01-.859-4.82 6.89 6.89 0 01.115-.624c.018-.076.035-.151.056-.228.035-.132.07-.26.111-.385v-.004c0-.004 0-.004.004-.007.028-.09.055-.173.087-.257a5.1 5.1 0 01.17-.42c.046-.083.091-.17.137-.257a13.925 13.925 0 01.49-.847c.157-.258.324-.511.494-.76.118-.17.237-.344.365-.514.09-.129.185-.254.282-.375a37.973 37.973 0 01.515-.643 20.3 20.3 0 01.515-.597l.247-.264c.003-.004.007-.007.007-.01.031-.028.055-.06.083-.088.049-.048.094-.097.143-.142.018-.021.038-.046.06-.063.02-.02.038-.041.059-.059a6.433 6.433 0 01.296-.296c.09-.09.184-.18.278-.267l.097-.087a.376.376 0 01.056-.049c.271-.25.55-.49.835-.721.025-.021.049-.042.073-.06.101-.083.206-.163.31-.242.108-.083.212-.167.323-.244.01-.007.017-.014.028-.02.097-.077.198-.146.3-.215.048-.039.097-.074.145-.108.063-.042.125-.087.188-.129l.3-.198c.16-.108.327-.212.493-.313.028-.017.056-.031.08-.048l.067.038c.104.067.215.132.323.202.035.02.067.045.101.066.014.007.025.018.039.024.049.032.094.063.143.094.153.101.302.201.452.306.046.032.09.066.136.097.15.108.296.215.445.327.039.031.08.062.118.094a.297.297 0 01.035.027c.025.018.049.043.077.064zm11.09 17.03c-.168.05-.335.102-.502.157-.028.007-.055.018-.083.028-.146.052-.296.104-.439.163-.059.021-.118.046-.177.07-.111.048-.226.093-.337.145l-.192.087c-.104.049-.208.101-.313.153a5.69 5.69 0 00-.192.1 8.646 8.646 0 00-.487.275 7.98 7.98 0 00-.32.198c-.049.031-.101.062-.15.097a10.177 10.177 0 00-1.3 1.007l-.046.038c-.302.271-.598.57-.873.878a11.406 11.406 0 00-1.673 2.433c-.007-.004-.018-.004-.025-.004-.073-.013-.145-.031-.219-.045a11.308 11.308 0 00-.594-.094h-.003l-.087-.01a7.536 7.536 0 00-.393-.032h-.011c-.01 0-.021 0-.028-.004a3.264 3.264 0 00-.194-.007c-.024-.004-.049-.004-.074-.004h-.146c-.25 0-.497.014-.744.035-.125.014-.247.027-.372.045a7.745 7.745 0 00-3.91 1.753c-.004-.003-.004-.01-.008-.014a8.345 8.345 0 00-.396-.798 6.68 6.68 0 00-.094-.17 11.674 11.674 0 00-.533-.82 34.924 34.924 0 00-.26-.347c-.004-.004-.008-.007-.008-.011-.1-.125-.205-.25-.313-.372a11.46 11.46 0 00-.334-.368 11.8 11.8 0 00-.707-.667 9.069 9.069 0 00-.393-.317 8.626 8.626 0 00-.392-.291c-.06-.042-.122-.083-.185-.125a7.926 7.926 0 00-.64-.392 6.182 6.182 0 00-.403-.215.878.878 0 00-.084-.045 8.122 8.122 0 00-.517-.23 11.72 11.72 0 00-.325-.132c0-.003-.003-.003-.003-.003a8.965 8.965 0 00-.418-.146 3.944 3.944 0 00-.393-.122.86.86 0 00-.094-.027c-.035-.014-.073-.021-.108-.032-.032-.007-.059-.014-.086-.018a.36.36 0 00-.063-.014 2.293 2.293 0 00-.209-.052c-.059-.01-.118-.025-.177-.039a16.011 16.011 0 00-.72-.119c-.034-.003-.069-.01-.104-.013-.062-.007-.121-.014-.187-.02-.017 0-.032-.005-.049-.005a8.78 8.78 0 00-.748-.042h-.163a8.44 8.44 0 00-.314.007c-.017-.004-.038 0-.055 0-.167.007-.334.018-.501.031-.004 0-.004.004-.007.004-.16.014-.323.032-.487.053-.01.003-.025.003-.035.007a9.31 9.31 0 00-1.256.26c-.083.02-.163.052-.243.076-.16.049-.32.097-.48.153-.014.007-.031.01-.048.017v-.007l.761-4.284-.284-.257a23.77 23.77 0 01-.912-.875l-.055-.055c.087-.021.173-.042.26-.06.442-.09.86-.163 1.288-.218.278-.039.56-.074.831-.098l.376-.031a19.358 19.358 0 012.804-.01c.046.093.09.19.139.284l.083.16A9.218 9.218 0 0015.3 37.69a8.842 8.842 0 00.867.673 9.096 9.096 0 00.626.395c.285.167.577.316.88.448.1.041.2.087.302.125.268.108.543.205.821.285.122.038.243.073.37.1a7.837 7.837 0 00.754.154 8.785 8.785 0 001.468.122c.108 0 .212-.004.32-.007.188-.007.372-.018.557-.035l.18-.02c.08-.008.164-.018.244-.032.139-.021.281-.046.42-.07l.07-.014c.295-.059.588-.131.877-.218a9.385 9.385 0 001.297-.503s.004-.004.007-.004c.129-.063.254-.125.379-.194.025-.011.045-.025.07-.035a9.08 9.08 0 001.722-1.222 9.058 9.058 0 001.927-2.437l.139-.267c.016-.035.031-.07.048-.104.96-.062 1.882-.062 2.842.01l.369.029c.282.027.563.062.849.104l.136.02a15.662 15.662 0 01.991.167c.048.007.1.018.15.028.083.018.166.039.25.056-.077.076-.15.15-.223.218l-.327.316c-.028.025-.056.046-.07.063-.09.083-.18.17-.271.25l-.289.257.386 2.19zM22.516 18c-.15.073-.302.145-.452.221l-.115.056-.032.018c-.122.066-.243.128-.362.194a.9.9 0 00-.083.045c-.02.011-.038.018-.06.028h-.006c-.018-.01-.039-.018-.056-.028-.15-.083-.296-.16-.445-.24-.049-.024-.101-.048-.15-.073-.15-.076-.3-.149-.448-.221l-.153-.074a14.394 14.394 0 00-.455-.205c-.053-.024-.105-.045-.157-.069a17.762 17.762 0 00-.463-.19 2.393 2.393 0 00-.152-.06l-.328-.125c-.048-.018-.097-.038-.146-.055a6.221 6.221 0 00-.15-.053 3.71 3.71 0 00-.17-.059 9.504 9.504 0 00-.456-.153l-.41-.129-.091-.028c-.042-.01-.087-.024-.129-.034-.083-.025-.163-.046-.247-.07l-.272-.073a.358.358 0 00-.062-.014l-.053-.014c-.177-.045-.358-.09-.54-.131l-.09-.018a15.904 15.904 0 00-.567-.118l-.062-.01-.282-.053a9.451 9.451 0 00-.32-.055h-.011a16.87 16.87 0 00-.981-.132c-.48-.056-.96-.094-1.443-.111a18.75 18.75 0 00-.884-.02c-.63 0-1.256.03-1.882.086-.014.004-.031.004-.048.004-.216.02-.432.045-.647.073h-.011c0-.004.003-.004.003-.007a6.302 6.302 0 01.365-.625l.042-.059c.055-.08.111-.156.17-.232.018-.021.035-.046.053-.067.055-.069.115-.138.177-.204a.262.262 0 01.06-.07 3.51 3.51 0 01.118-.125 5.414 5.414 0 01.912-.753 2.784 2.784 0 01.272-.17c.087-.053.174-.097.26-.143l.06-.031c.088-.042.17-.083.258-.118.09-.039.177-.076.272-.111l.031-.01a5.685 5.685 0 01.957-.253h.011a4.374 4.374 0 01.449-.06l.15-.011c.041-.004.08-.004.121-.007.067-.003.136-.003.202-.003.076 0 .156.003.233.007.07 0 .143.007.212.013h.014c.007 0 .018 0 .025.004.163.014.323.035.484.063.073.01.146.027.219.041a3.26 3.26 0 01.23.056l.115.032.17.053.24.083.209.083c.014.007.025.01.038.018.07.027.14.059.206.09a.06.06 0 00.025.014 5.167 5.167 0 011.043.663 5.064 5.064 0 01.374.33l.003.003c.06.06.119.118.174.178l.004.003a4.376 4.376 0 01.296.341c.041.048.08.1.118.152.048.063.094.125.139.191l.378.563.014.02.3-.208.282-.194c.076-.055.152-.104.233-.152.08-.049.156-.097.24-.143.02-.01.041-.024.062-.034.084-.046.167-.087.254-.129.104-.052.216-.097.324-.143a6.02 6.02 0 01.334-.117 4.834 4.834 0 01.655-.17c.006 0 .013-.004.02-.004.101-.018.205-.035.306-.049.018 0 .032-.004.046-.004a5.415 5.415 0 01.678-.042c.105 0 .206.004.31.01.08.005.164.008.243.021a2.872 2.872 0 01.393.053 1.4 1.4 0 01.167.031c.024.004.048.011.076.014v.004c.111.02.223.053.334.083.108.028.213.063.32.104.088.028.174.063.261.101.042.018.084.035.122.053.084.034.164.069.24.114.032.014.063.028.095.046.045.024.094.048.138.076.004.004.008.004.011.007a4.593 4.593 0 01.679.448.519.519 0 01.066.056 3.476 3.476 0 01.276.232c.104.094.205.194.3.3.055.055.107.11.156.17-.021.003-.039.01-.06.013-.038.011-.076.018-.115.028-.173.046-.348.094-.518.142-.042.011-.088.025-.132.035l-.497.156a15.049 15.049 0 00-.63.212l-.146.053a21.366 21.366 0 00-.626.24c-.048.02-.101.04-.15.062-.104.041-.208.083-.316.128-.049.025-.101.046-.153.07a18.95 18.95 0 00-.455.204c-.057.022-.105.046-.158.07zm3.448-3.663c-.035-.02-.066-.042-.101-.06a7.351 7.351 0 011.301-.847 7.325 7.325 0 013.343-.812 7.367 7.367 0 013.778 1.048l-.073.104c-.049.073-.098.146-.143.219a6.828 6.828 0 00-.856 2.024 19.404 19.404 0 00-1.628-.066c-1.11 0-2.216.09-3.305.264h-.01a4.363 4.363 0 00-.296.052 4.78 4.78 0 00-.223-.302 6.579 6.579 0 00-1.081-1.114 6.956 6.956 0 00-.706-.51zm-24.323 3.87c.02-.145.06-.37.087-.552a11.886 11.886 0 01.333-1.548c.213-.774.466-1.527.762-2.246.139-.347.296-.708.47-1.073A20.066 20.066 0 016.56 7.934c.33-.362.681-.719 1.04-1.056.118-.11.23-.218.355-.33.046-.04.087-.08.132-.114a7.327 7.327 0 014.421 5.312 6.92 6.92 0 00-5.475 4.627c-.178.035-.358.073-.536.115-.184.042-.369.087-.553.136l-.042.01a19.26 19.26 0 00-1.099.32l-.004.004c-.71.226-1.408.49-2.09.792-.028.01-.056.024-.084.038-.334.15-.665.306-.992.473l.009-.054zm-.132 5.107c-.004-.017-.004-.038-.007-.055a.603.603 0 01-.007-.083c-.021-.174-.039-.35-.053-.528-.003-.066-.01-.135-.014-.205a15.14 15.14 0 01-.031-.569 15.783 15.783 0 01-.007-.427v-.076c0-.125 0-.25.007-.378 0-.021 0-.046.003-.066a17.774 17.774 0 01.042-.979c.052-.032.108-.063.163-.094.053-.032.104-.06.157-.09l.139-.074a8.657 8.657 0 01.4-.208c.142-.073.284-.145.431-.215.035-.017.07-.031.101-.048a2.52 2.52 0 01.15-.07c.108-.052.22-.1.33-.149.018-.007.035-.017.056-.024.173-.077.351-.15.529-.222h.003a16.445 16.445 0 01.97-.355c.09-.031.181-.059.272-.09.307-.097.612-.19.922-.274.007-.004.018-.007.028-.01.007 0 .014-.005.021-.005.16-.045.323-.083.483-.121l.11-.032.317-.07c.021-.006.046-.01.067-.017.055-.01.11-.02.17-.035.07-.013.143-.031.215-.045.095-.018.185-.032.28-.049.096-.013.19-.031.292-.052.014 0 .03-.004.045-.007.053-.007.108-.018.16-.028.06-.01.118-.017.177-.024.074-.014.143-.021.216-.032.041-.004.083-.007.125-.014a3.61 3.61 0 01.173-.017c.102-.014.206-.028.307-.039.076-.007.157-.018.236-.02.018-.004.032-.004.049-.004h.004l.27-.02.122-.011c.199-.014.4-.025.599-.032.233-.01.466-.014.702-.014h.146a22.297 22.297 0 011.093.039c.163.01.327.024.49.038.132.011.264.025.397.039.1.014.198.024.299.034.292.039.584.08.873.129.032.007.066.01.097.018.063.01.122.024.185.034.288.053.577.111.866.178.076.017.156.038.233.055.198.049.393.1.588.156.062.014.125.035.187.053l.039.01c.063.018.132.035.198.056a14.231 14.231 0 01.853.282c.025.007.049.018.074.028.066.02.132.045.198.069.104.039.205.076.31.118.048.017.097.034.145.055.122.046.247.097.37.15l.26.114c.275.122.55.247.821.379.021.01.043.024.064.034-.035.021-.067.049-.101.07-.293.194-.582.396-.863.604-.018.013-.035.027-.053.038-.268.201-.532.41-.79.622l-.198.163a.147.147 0 00-.025.02c-.01.012-.02.018-.027.029a.051.051 0 00-.018.013 8.474 8.474 0 00-.727.642 24.973 24.973 0 00-.48.462 21.38 21.38 0 00-.289.296l-.094.09a4.646 4.646 0 00-.3-.087 8.578 8.578 0 00-.396-.115 10.16 10.16 0 00-.4-.1 5.497 5.497 0 00-.341-.084 15.042 15.042 0 00-1.023-.212 3.068 3.068 0 00-.18-.034 20.42 20.42 0 00-.543-.087 15.143 15.143 0 00-.56-.074l-.063-.006a23.371 23.371 0 00-.88-.09 18.34 18.34 0 00-.734-.04l-.285-.01c-.097-.004-.194-.004-.288-.007-.247-.004-.494 0-.741.004-.08.004-.16 0-.24 0-.146.007-.293.01-.442.02 0 .005.003.005.003.005l-.487.027-.39.032c-.215.02-.43.052-.643.08 0-.004-.004-.004-.004-.007-.007 0-.01.003-.018.003l-.233.032a24.69 24.69 0 00-.678.1c-.08.018-.16.032-.24.046-.08.014-.164.028-.247.046a.534.534 0 00-.08.013c-.046.011-.09.018-.136.028-.021.007-.042.01-.067.018-.341.07-.695.152-1.047.25a7.159 7.159 0 00-.362.097 6.759 6.759 0 00-.407.118l-.272.083c-.139.046-.281.094-.417.143-.226.076-.452.16-.665.242a18.353 18.353 0 00-.907.369l-.132.057zm1.627 5.18c-.059.018-.115.035-.173.056-.084-.184-.16-.372-.236-.555a19.267 19.267 0 01-.679-1.98 23.017 23.017 0 01-.31-1.273c.077-.039.157-.073.244-.115.018-.007.038-.014.06-.025a.022.022 0 01.013-.007l.101-.048.192-.08.048-.021a2.6 2.6 0 01.136-.056c.035-.013.07-.031.101-.045.025-.007.049-.018.074-.028l.348-.135a21.873 21.873 0 011.161-.406l.164-.049v-.004c.097-.027.194-.059.306-.087.111-.031.22-.062.338-.09.173-.045.34-.087.504-.125.094-.024.188-.045.278-.066.09-.02.178-.041.268-.06.442-.09.863-.162 1.287-.218.279-.038.56-.073.832-.097l.083-.007.289-.024a27.403 27.403 0 011.032-.05c.074 0 .146-.004.22-.004.062 0 .122 0 .18-.003.063-.004.125-.004.185-.004.02.003.045.003.07.003.09 0 .18 0 .27.004l.293.011c.202.007.411.018.62.032v.004a17.019 17.019 0 011.162.114l.24.032c.139.02.278.045.417.066.115.018.23.039.345.06l.062.01a15.405 15.405 0 01.855.177c.17.042.338.08.505.125.104.025.208.053.313.08-.02.025-.038.053-.059.077a4.956 4.956 0 00-.136.17h.003c-.076.094-.153.19-.226.288-.042.048-.076.094-.115.142l-.111.146a20.74 20.74 0 00-.508.708c-.08.104-.157.208-.233.313h-.007c-.025.034-.045.069-.066.1a4.006 4.006 0 00-.14.201c-.055.087-.114.174-.17.265-.045.073-.09.15-.132.225-.028.046-.06.09-.083.136-.028.048-.049.1-.077.15a5.695 5.695 0 00-.122.236c-.038.076-.08.156-.114.235-.028.06-.056.122-.08.18l-.004.008c-.056.104-.111.205-.16.306l-.17-.021a6.463 6.463 0 00-.265-.028 18.17 18.17 0 00-.452-.046l-.046-.003a23.37 23.37 0 00-.79-.049l-.236-.014-.324-.01c-.146 0-.288-.004-.434-.004-.32 0-.637.01-.957.024-.104.004-.208.014-.313.018-.212.014-.428.028-.64.046-.122.01-.243.027-.365.041-.194.02-.386.042-.577.066-.132.018-.261.039-.39.06-.184.027-.369.059-.55.09-.131.024-.264.052-.392.076-.18.039-.362.076-.54.118-.131.028-.26.06-.392.094-.177.045-.355.09-.529.138-.132.039-.26.074-.39.111l-.528.167c-.127.041-.253.083-.378.128zm3.302 5.514c-.014-.02-.032-.039-.046-.056a5.253 5.253 0 01-.201-.24c-.14-.162-.272-.329-.411-.503-.09-.115-.18-.233-.268-.35l-.048-.067a10.04 10.04 0 01-.271-.364.558.558 0 01-.067-.094l-.024-.035c-.153-.208-.3-.416-.439-.635l-.055-.083a11.16 11.16 0 01-.213-.337 2.896 2.896 0 01-.166-.27 5.138 5.138 0 01-.16-.261c-.014-.025-.028-.053-.046-.08-.115-.195-.222-.39-.337-.597-.025-.049-.052-.097-.09-.174-.007-.017-.018-.034-.025-.048l.076-.032.342-.11.497-.157c.118-.035.244-.07.365-.1.16-.046.32-.088.48-.13.125-.031.25-.059.376-.087.163-.038.323-.073.487-.104.125-.027.25-.052.376-.073.166-.031.33-.055.497-.083.125-.018.247-.039.369-.052.177-.025.35-.046.525-.063.118-.014.233-.027.351-.038.195-.018.39-.028.585-.042.097-.003.194-.014.295-.018a18.65 18.65 0 011.931.011c.08.004.16.007.24.014a16.66 16.66 0 011.047.094c-.034.17-.069.34-.096.514l-.031.233a4.013 4.013 0 00-.025.214c-.007.056-.014.111-.018.167-.01.09-.017.177-.024.267a8.533 8.533 0 00-.014.424c-.003.055-.007.11-.007.166 0 .85.122 1.693.352 2.506a20.03 20.03 0 00-2.38.045l-.39.032a18.17 18.17 0 00-.897.108c-.453.059-.901.135-1.381.232-.341.075-.689.159-1.061.256zm30.477 18.485l.441 2.483-.807.375c-.317.142-.637.281-.963.413-.234.097-.467.194-.703.281-.275.11-.55.215-.828.313a38.195 38.195 0 01-1.816.619l-.466.142c-.039.01-.077.02-.111.031l-.178.053c-.258.069-.515.138-.769.208l-.455.114-.289.074-.143.031a7.101 7.101 0 01-.49.115c-.007 0-.014.004-.021.004l-.08.018c-.09.017-.181.038-.272.055-.011.004-.018.004-.028.007a9.02 9.02 0 01-.42.083c-.143.028-.285.052-.425.08-.23.046-.46.083-.689.122l-.059.01c-.007 0-.014.004-.02.004a.46.46 0 01-.053.01c-.01 0-.021 0-.032.004-.01 0-.018.004-.028.004-.35.063-.706.108-1.068.157-.01 0-.018.003-.028.003-.129.018-.258.032-.386.049l-.191.025c-.08.01-.164.02-.243.024a23.234 23.234 0 01-1.12.104c-.119.011-.24.018-.359.025-.191.014-.379.025-.567.032l-.236.01-.268.011c-.383.018-.783.025-1.218.025h-.237c-.18 0-.362-.004-.547-.004h-.041c-.167-.007-.334-.01-.501-.018l-.209-.007h-.06a15.391 15.391 0 01-.563-.028c-.187-.01-.372-.024-.56-.038l-.16-.01-.431-.036a62.652 62.652 0 01-.828-.08c-.003.004-.007.004-.014 0l-.393-.052h-.02l-.408-.052-.41-.063-.067-.007c-.01 0-.017 0-.027-.003l-.605-.094c-.102-.018-.199-.031-.3-.052l-.296-.056-.003.004-.13-.024-.052-.011c-.16-.028-.32-.06-.48-.09a2.704 2.704 0 01.136-.662c.02-.07.045-.14.073-.209.039-.09.077-.18.122-.267.035-.073.077-.142.118-.212.056-.097.122-.187.188-.278.06-.076.122-.15.184-.222.067-.069.132-.138.206-.205.052-.045.104-.09.16-.135a2.126 2.126 0 01.303-.215c.058-.038.12-.076.187-.108.003-.004.007-.004.01-.007.038-.02.077-.038.115-.06l.028-.01a.495.495 0 01.077-.035c.034-.017.069-.031.104-.045.066-.028.132-.049.201-.073a3.186 3.186 0 01.557-.126c.087-.01.177-.02.268-.024.041-.004.08-.004.121-.004a3.365 3.365 0 01.411.024c.046.004.09.011.136.018a3.9 3.9 0 01.41.098h.008a4.35 4.35 0 01.413.156c.063.032.125.063.188.097.052.028.104.056.152.09a3.2 3.2 0 01.282.195l.87.68.028.02.215-1.114c.021-.1.042-.201.067-.299.083-.337.194-.656.33-.965.028-.06.052-.115.08-.17l.032-.063a2.34 2.34 0 01.104-.198c.097-.184.205-.357.323-.527.053-.073.102-.143.157-.212a5.677 5.677 0 01.692-.767c.08-.077.164-.15.25-.219.09-.076.185-.145.28-.215a6.07 6.07 0 01.257-.18c.094-.06.188-.118.285-.173.063-.035.122-.07.185-.101a.341.341 0 01.053-.028c.017-.01.038-.02.055-.032.056-.027.111-.054.17-.079a3.28 3.28 0 01.39-.163c.184-.073.372-.136.563-.184.053-.014.104-.028.157-.039a4.567 4.567 0 01.487-.097c.104-.018.208-.032.313-.038.104-.014.212-.021.32-.025.077-.007.157-.007.233-.007a6.988 6.988 0 01.56.025l.206.02.06.011c.1.011.201.028.3.046l.1.02.185.042a5.024 5.024 0 01.254.066c.201.06.403.125.598.205.194.076.383.167.567.271h.003c.111.056.22.118.327.188.088.048.167.103.25.166a5.73 5.73 0 01.915.788c.264.278.501.583.71.913l.438.69.01.018.617-.573c.069-.066.142-.129.219-.187.194-.16.4-.302.619-.424.08-.045.163-.087.247-.124a3.52 3.52 0 01.295-.13c.053-.024.105-.04.16-.058a4.059 4.059 0 01.49-.139 4.286 4.286 0 01.752-.1c.06-.005.118-.005.177-.005a4.475 4.475 0 01.64.042c.056.008.115.018.17.028.105.018.213.039.314.067.049.013.097.024.146.041.12.028.235.065.347.11zm-1.354-7.63l.282 1.576v.004l.8 4.519c-.01-.003-.018-.003-.028-.007a4.181 4.181 0 00-.191-.038 2.76 2.76 0 00-.16-.028 2.772 2.772 0 00-.178-.025c-.059-.01-.118-.014-.177-.02a3.302 3.302 0 00-.275-.021 5.388 5.388 0 00-.334-.011c-.066 0-.129 0-.195.004a8.5 8.5 0 00-.42.031c-.007 0-.017 0-.024.004a6.851 6.851 0 00-.766.143 3.285 3.285 0 00-.184.048l-.074.02a6.997 6.997 0 00-.26.088 4.095 4.095 0 00-.213.08c-.027.01-.055.025-.083.035-.094.038-.184.08-.275.124-.08.039-.16.077-.237.122a4.005 4.005 0 00-.316.184 6.939 6.939 0 00-.247.164l-.011-.011a6.652 6.652 0 00-.963-1.004 6.638 6.638 0 00-.254-.212c-.003 0-.007-.004-.011-.007a5.032 5.032 0 00-.345-.25c-.03-.025-.063-.045-.094-.066a5.606 5.606 0 00-.222-.143 1.855 1.855 0 00-.157-.094 4.439 4.439 0 00-.286-.156.263.263 0 00-.07-.035 3.143 3.143 0 00-.295-.142.597.597 0 00-.08-.039h-.003l-.025-.01a7.567 7.567 0 00-.26-.108l-.029-.011a6.727 6.727 0 00-1.179-.344c-.035-.007-.076-.017-.115-.02a2.006 2.006 0 00-.16-.028 4.86 4.86 0 00-.327-.049h-.014a4.371 4.371 0 00-.306-.027l-.136-.011a8.715 8.715 0 00-.424-.01c-.088 0-.178 0-.264.006a7.26 7.26 0 00-1.465.209c-.074.017-.146.038-.22.059a6.133 6.133 0 00-.787.271 6.864 6.864 0 00-1.283.677c-.076.053-.152.104-.23.16a6.126 6.126 0 00-.654.53 5.17 5.17 0 00-.2.191c-.053.053-.105.104-.158.16a7.235 7.235 0 00-1.634 2.693l-.028-.01c-.06-.028-.118-.056-.178-.08a2.7 2.7 0 00-.18-.07 3.714 3.714 0 00-.37-.118 4.345 4.345 0 00-.597-.122c-.056-.007-.108-.014-.164-.018a5.829 5.829 0 00-.483-.025c-.063 0-.125 0-.184.004-.14.007-.272.021-.407.039a4.065 4.065 0 00-.765.173 3.677 3.677 0 00-.452.17 2.855 2.855 0 00-.185.088c-.035.013-.066.031-.097.048a4.032 4.032 0 00-.435.257c-.055.039-.11.077-.163.118-.053.039-.104.076-.153.118a4.518 4.518 0 00-1.065 1.222c-.034.06-.069.118-.1.177-.035.06-.067.122-.095.185a3.79 3.79 0 00-.184.433 4.62 4.62 0 00-.233.951l-.032-.006-.295-.077a28.692 28.692 0 01-1.392-.375c-.104-.027-.202-.06-.337-.1-.213-.06-.425-.13-.647-.202a23.993 23.993 0 01-1.075-.36 28.177 28.177 0 01-1.228-.46l-.314-.124c-.413-.166-.81-.337-1.172-.497l-.3-.139c-.187-.087-.375-.17-.567-.267l2.226-12.543.028-.15.153-.072a8.677 8.677 0 01.556-.229c.073-.028.143-.056.215-.08.126-.042.25-.08.376-.118.067-.018.13-.038.192-.055.191-.053.383-.097.577-.136.153-.028.303-.056.456-.073.128-.021.257-.035.385-.046.024-.007.05-.006.074-.01l.31-.021c.138-.007.281-.011.42-.011h.143c.066 0 .129.003.191.007.083 0 .164.004.243.01l.146.012c.087.006.174.017.258.027.39.046.786.118 1.18.219a9.192 9.192 0 011.202.416c.08.032.157.066.23.104.08.035.153.07.229.11.08.04.16.08.24.13.076.034.15.076.222.121.007.004.011.004.014.01a4.672 4.672 0 01.344.213c.132.083.261.17.386.268a4.272 4.272 0 01.331.256c.055.042.11.084.163.132a5.896 5.896 0 01.341.306c.032.028.063.055.095.09.027.025.06.052.087.087.035.032.073.07.104.108.08.08.157.16.23.242a8.936 8.936 0 01.588.73c.208.292.4.597.57.917.062.11.118.221.174.336.01.02.02.039.027.06a5.754 5.754 0 01.15.34c.028.055.053.115.07.17.048.111.09.226.128.34l.01.028v.004l.074.229.358 1.16.007.02.51-.576.31-.348a6.327 6.327 0 013.872-2.083 5.976 5.976 0 011.385-.052c.122.007.24.021.358.039h.014c.056.007.108.014.164.024.07.011.139.021.208.039.011 0 .018 0 .028.004.073.014.15.028.222.048.16.035.317.08.473.129l.568.18.024.007.254-.566a10.03 10.03 0 011.701-2.617c.247-.279.508-.542.776-.781l.046-.042c.115-.104.233-.201.35-.299.123-.097.248-.198.377-.292.104-.076.212-.15.316-.222.108-.073.216-.142.323-.208a10.618 10.618 0 01.78-.441l.125-.06c.111-.055.226-.107.337-.159.095-.048.195-.09.293-.124.007-.004.01-.004.017-.007.014-.007.025-.014.039-.018l.02-.01a.197.197 0 01.063-.022 8.78 8.78 0 01.674-.232c.014-.004.032-.011.05-.014l.03-.011.77 4.336v.003l.113.61zm3.68-15.018l-.017.031c-.02.042-.042.083-.066.125l-.046.08c-.039.08-.083.157-.139.257a16.396 16.396 0 01-.678 1.125l-.053.076v.007c-.104.156-.208.316-.33.493-.025.042-.053.076-.097.136-.122.173-.244.347-.38.527l-.08.108a20.439 20.439 0 01-.84 1.049 4.683 4.683 0 01-.195.228c-.007-.004-.014-.004-.021-.007-.212-.052-.418-.1-.616-.15a40.302 40.302 0 01-.418-.093c-.18-.039-.362-.07-.535-.101-.157-.028-.31-.056-.46-.076l-.06-.011a9.262 9.262 0 00-.316-.046c-.1-.013-.198-.027-.299-.038h-.004c-.08-.01-.163-.02-.243-.032-.122-.013-.244-.024-.369-.038l-.386-.032a20.591 20.591 0 00-2.393-.045c.041-.15.083-.306.122-.462.003-.017.01-.038.014-.059.01-.038.017-.076.024-.115a9.198 9.198 0 00.188-1.309c.011-.107.015-.211.018-.319.003-.11.007-.219.007-.33 0-.225-.01-.447-.024-.67-.003-.027-.007-.052-.007-.08-.007-.087-.014-.177-.025-.267a7.844 7.844 0 00-.053-.382v-.007a8.157 8.157 0 00-.104-.566c.018-.004.035-.004.053-.007.334-.039.667-.07 1.002-.094l.226-.01c.173-.012.348-.019.521-.026.119-.003.237-.006.356-.006.055-.004.114-.004.17-.004h.209c.135 0 .271 0 .406.007.09 0 .178.003.268.007.056.003.115.003.17.006.063.004.126.011.188.014.286.018.57.039.852.067.111.01.223.024.335.038.236.028.477.063.713.097.115.018.23.039.348.06.24.041.48.087.716.138a19.635 19.635 0 011.318.323c.33.095.658.202.981.313.025.007.049.018.074.025-.007.017-.017.03-.024.045zm.627-1.302a.06.06 0 00-.025-.007c-.046-.018-.087-.032-.136-.049l-.404-.135-.497-.156c-.139-.039-.274-.08-.41-.115a11.858 11.858 0 00-.508-.136l-.09-.02a20.697 20.697 0 00-.839-.187 20.537 20.537 0 00-.407-.08 398.88 398.88 0 01-.536-.088 17.409 17.409 0 00-.964-.125l-.094-.011-.094-.011-.188-.02c-.208-.019-.42-.032-.633-.046-.104-.004-.208-.014-.313-.018h-.014a21.202 21.202 0 00-.942-.025c-.09 0-.18 0-.275.004-.094 0-.184.004-.279.007h-.08c-.042 0-.08.004-.122.004-.076.003-.156.01-.236.014h-.01c-.171.007-.342.018-.512.028-.098.006-.192.017-.29.024-.159.014-.316.028-.476.046-.07.007-.14.013-.209.024l-.087.011c-.055.007-.11.01-.167.018-.055-.104-.11-.205-.163-.31l-.042-.075a20.998 20.998 0 00-.532-.941c0-.004-.003-.008-.003-.011h-.004c-.034-.067-.073-.129-.11-.191-.095-.15-.188-.3-.286-.445-.076-.122-.156-.24-.236-.357a.633.633 0 00-.046-.063 17.721 17.721 0 00-.787-1.072c-.11-.142-.219-.28-.33-.42.108-.027.22-.059.33-.09.011 0 .021-.004.032-.007.073-.017.143-.038.212-.055.112-.028.223-.052.335-.08l.39-.083c.013-.004.027-.004.041-.007.226-.049.456-.09.686-.129.08-.01.16-.02.236-.035a21.587 21.587 0 01.772-.104l.48-.048.275-.02a6.63 6.63 0 01.404-.026.961.961 0 01.104-.006c.08-.004.16-.011.24-.011.247-.011.497-.018.744-.018a20.02 20.02 0 011.158.035c.056.003.112.007.167.014.06.004.115.007.167.014.104.007.212.014.316.025.14.01.279.02.418.038l.258.032c.041.007.083.014.125.018.02.006.041.006.062.01l.293.042.358.052c.157.028.31.063.466.09.15.032.296.06.442.09.06.011.115.021.17.035.16.039.317.08.476.122.153.038.31.08.467.125.041.007.08.02.122.031l.139.042c.11.035.222.07.337.104.191.062.383.125.574.19.157.056.313.116.47.174.188.073.376.146.563.222.084.039.171.076.254.111h.004c.07.032.136.062.206.09.094.042.187.087.281.132a.278.278 0 01.021.01 18.534 18.534 0 01-1.22 3.805zm1.558-6.7c-.004.107-.007.214-.014.322 0 .028-.004.052-.004.076-.003.084-.01.164-.017.247 0 .018 0 .035-.004.048a5.578 5.578 0 01-.028.34 10.214 10.214 0 01-.042.43.159.159 0 00-.025-.01.24.24 0 00-.041-.017.596.596 0 01-.067-.028c-.135-.06-.267-.11-.403-.166h-.003l-.021-.01a25.38 25.38 0 00-.654-.261c-.15-.056-.303-.108-.455-.16a19.774 19.774 0 00-.644-.212c-.042-.013-.083-.027-.125-.038-.115-.035-.23-.07-.344-.101a13.33 13.33 0 00-.654-.173 4.893 4.893 0 00-.341-.084l-.132-.031a22.558 22.558 0 00-.668-.136 8.847 8.847 0 00-.417-.076l-.053-.01a20.021 20.021 0 00-.47-.07 5.193 5.193 0 00-.236-.035c-.007 0-.018-.004-.025-.004-.142-.017-.278-.038-.424-.052-.13-.014-.258-.028-.39-.038l-.118-.011c-.066-.003-.132-.01-.198-.014-.024-.004-.05-.004-.074-.007-.129-.007-.258-.02-.386-.028-.18-.01-.362-.017-.542-.02a9.577 9.577 0 00-.33-.007c-.102-.007-.202-.007-.303-.007-.279 0-.557.007-.835.017-.084.004-.17.011-.254.014h-.018c-.188.011-.376.021-.56.035l-.324.031a12.471 12.471 0 00-.845.098c-.16.021-.32.042-.48.067l-.351.062c-.153.025-.31.052-.463.083-.118.025-.24.049-.358.076-.15.032-.3.067-.448.101-.003 0-.01.004-.014.004a9.67 9.67 0 00-.348.087.37.37 0 00-.06.018c-.125.032-.25.066-.375.1-.122.035-.247.07-.372.109-.067.02-.132.038-.199.059-.014-.014-.024-.028-.038-.039l-.101-.1a14.988 14.988 0 00-.793-.77l-.112-.105a17.678 17.678 0 00-.543-.479l-.323-.271c-.136-.11-.275-.219-.414-.327l-.187-.145-.362-.267c-.136-.098-.275-.195-.414-.292-.07-.049-.143-.101-.215-.15-.056-.034-.108-.076-.164-.11.021-.012.042-.025.063-.035.115-.056.229-.111.348-.164l.136-.062a8.75 8.75 0 01.34-.152 19.079 19.079 0 011.085-.44c.088-.033.179-.064.266-.095a19.17 19.17 0 011.874-.556c.074-.017.146-.038.22-.055.288-.066.58-.125.876-.177l.275-.053c.293-.048.584-.09.88-.128.097-.01.195-.02.293-.035l.212-.02c.025-.004.045-.004.07-.008.2-.017.403-.034.604-.048.09-.004.181-.007.275-.014.275-.014.554-.02.831-.024h.132c.216 0 .432.003.658.013a15.877 15.877 0 01.48.025c.102.004.206.01.303.018.003 0 .01.004.014.004.013 0 .024-.001.038.003.097.007.195.014.293.025.115.01.236.02.35.032.036.003.07.01.105.014l.334.041c.088.01.17.02.254.032.01 0 .017.003.028.003.063.01.125.02.184.031l.314.052.139.021c.139.025.285.052.424.083l.06.01h.003c.073.018.146.035.219.05.046.01.09.02.132.027l.143.032c.038.007.076.018.118.028l.16.04c.097.026.194.05.292.077.007 0 .014.003.02.003.119.028.237.063.356.097.066.018.129.039.194.056l.095.027.07.021a.664.664 0 00.086.028c.074.02.143.042.213.067.052.014.1.032.15.049.066.024.131.047.198.068.06.02.122.042.18.066a16.842 16.842 0 01.72.268c.09.035.181.073.268.111.087.035.174.07.261.108.02.01.042.018.063.028.16.07.32.142.477.219.034.017.069.031.104.048.146.07.292.143.434.215.046.025.09.046.136.07.136.069.271.142.407.218.049.028.101.056.153.083.045.025.09.053.139.08.01.007.02.011.031.018.032.472.049.948.049 1.424v.077c0 .129-.003.26-.007.392z" fill="#0A170B"/><path d="M25.735 3.498a3.665 3.665 0 00-4.199 3.62A3.663 3.663 0 0025.2 10.77c.995 0 1.923-.39 2.601-1.087a3.604 3.604 0 001.065-2.566 3.676 3.676 0 00-3.13-3.62zm1.075 5.21c-.42.434-.994.674-1.61.674a2.271 2.271 0 01-2.272-2.264 2.273 2.273 0 014.546 0 2.219 2.219 0 01-.664 1.59z" fill="#0A170B"/><path d="M27.474 7.118c0 .597-.233 1.16-.665 1.59-.42.433-.995.673-1.61.673a2.271 2.271 0 01-2.272-2.264 2.273 2.273 0 014.547 0z" fill="#FFED80"/><path d="M36.895 8.72a18.205 18.205 0 00-.644-.743l-.024-.028c-.028-.028-.055-.06-.083-.087-.007.004-.014.004-.021.007a13.769 13.769 0 00-.786-.809c-.098-.094-.195-.19-.296-.278.003-.004.01-.004.014-.007a19.975 19.975 0 00-3.681-2.732 19.974 19.974 0 00-6.686-2.378 20.461 20.461 0 00-3.072-.27c-.094-.005-.163-.005-.233-.005-.037 0-.073 0-.11.004h-.084l-.032.004h-.041c-.314 0-.63.014-.943.035-.166.01-.337.02-.508.034a20.482 20.482 0 00-1.945.26c-.16.032-.316.063-.476.098-.01 0-.018 0-.028.004a19.987 19.987 0 00-7.935 3.627 8.707 8.707 0 014.63 6.215 6.916 6.916 0 014.993 2.482c.087-.048.177-.097.267-.142.063-.032.122-.062.185-.087a6.881 6.881 0 011.328-.462 6.85 6.85 0 011.6-.187 6.82 6.82 0 012.205.364 8.742 8.742 0 012.043-1.444 8.682 8.682 0 016.654-.542 8.65 8.65 0 012.025.951c.271-.257.563-.486.873-.693.26-.178.532-.337.817-.476a7 7 0 011.551-.538 19.03 19.03 0 00-1.557-2.178zm-9.094.964a3.604 3.604 0 01-2.602 1.087 3.663 3.663 0 01-3.663-3.652 3.665 3.665 0 014.199-3.62 3.676 3.676 0 013.13 3.621 3.6 3.6 0 01-1.064 2.564z" fill="#84CAEC"/><path d="M26.469 16.582l-.06.014-.114.028c-.174.045-.349.094-.52.142-.04.011-.086.025-.131.035l-.497.156a15.054 15.054 0 00-.63.212l-.146.052a21.877 21.877 0 00-.626.24l-.15.062-.316.129c-.049.025-.101.046-.153.07a18.95 18.95 0 00-.455.204l-.153.073c-.15.074-.303.146-.452.222l-.115.056-.032.017c-.122.067-.243.129-.362.194a.858.858 0 00-.083.046l-.06.028h-.007c-.017-.011-.038-.018-.055-.028-.15-.083-.296-.16-.446-.24l-.15-.073a23.25 23.25 0 00-.448-.222l-.153-.073-.11-.052c-.116-.052-.23-.104-.345-.153-.052-.024-.104-.045-.157-.069a17.762 17.762 0 00-.462-.191c-.052-.02-.101-.042-.153-.06l-.327-.124c-.049-.018-.097-.039-.146-.056a6.686 6.686 0 00-.15-.052 3.714 3.714 0 00-.17-.06 9.276 9.276 0 00-.456-.153c-.136-.041-.275-.087-.411-.128l-.09-.028c-.042-.01-.088-.024-.13-.035l-.246-.069-.272-.073a.362.362 0 00-.062-.014l-.053-.014c-.177-.045-.358-.09-.54-.131l-.09-.018a16.225 16.225 0 00-.567-.118l-.062-.01a15.41 15.41 0 00-.282-.053 9.366 9.366 0 00-.32-.056h-.011c-.327-.052-.65-.097-.981-.131-.48-.056-.96-.094-1.444-.111a18.582 18.582 0 00-.883-.021c-.63 0-1.256.031-1.882.087-.014.004-.032.004-.049.004-.215.02-.431.045-.646.073h-.011c0-.004.003-.004.003-.007a6.302 6.302 0 01.365-.625l.042-.059c.055-.08.11-.156.17-.233.018-.02.035-.045.053-.066a3.37 3.37 0 01.177-.205.26.26 0 01.06-.069 3.51 3.51 0 01.118-.125 5.41 5.41 0 01.912-.753c.083-.06.17-.111.258-.163a.026.026 0 01.014-.007c.087-.053.173-.097.26-.143l.06-.031c.083-.042.17-.08.258-.118a5.48 5.48 0 01.271-.111l.032-.011a5.663 5.663 0 01.957-.253h.011a4.371 4.371 0 01.448-.06l.15-.01c.042-.004.08-.004.122-.007.066-.004.136-.004.201-.004.077 0 .157.004.234.007.07 0 .142.007.212.014h.014c.007 0 .018 0 .024.004.164.014.324.035.484.063.074.01.146.027.22.041a3.18 3.18 0 01.23.056l.115.032.17.052.24.083.209.084.038.017c.07.028.14.06.206.09.006.008.013.011.024.014a5.154 5.154 0 011.043.663 6.957 6.957 0 01.375.33l.003.004c.06.06.118.118.174.177l.004.004c.007.007.01.01.014.018a4 4 0 01.281.323c.042.048.08.1.118.152.049.063.095.125.14.191l.378.562.014.021.3-.208.281-.194a3.44 3.44 0 01.233-.152c.08-.049.157-.097.24-.143.021-.01.042-.024.063-.035a5.02 5.02 0 01.254-.128c.104-.053.215-.097.323-.143.111-.041.223-.083.334-.117a4.903 4.903 0 01.655-.17c.007 0 .014-.005.02-.005.102-.017.206-.034.307-.048.018 0 .032-.004.046-.004a5.344 5.344 0 01.988-.032c.083.004.163.011.243.021a2.847 2.847 0 01.393.053c.055.007.11.017.166.031.028.007.053.011.077.018.111.025.223.052.334.083a5.492 5.492 0 01.581.205l.122.052c.083.035.164.07.24.115a.906.906 0 01.094.046c.046.024.095.048.14.076.003.004.006.004.01.007a7.383 7.383 0 01.355.215c.111.074.22.153.324.233a.52.52 0 01.066.056 4.548 4.548 0 01.575.531c.05.052.103.108.152.167z" fill="#7CAF5F"/><path d="M34.285 13.666l-.073.104a6.595 6.595 0 00-.738 1.41 6.818 6.818 0 00-.26.833 19.361 19.361 0 00-1.629-.066c-1.11 0-2.216.09-3.305.264h-.01a4.434 4.434 0 00-.296.052 4.788 4.788 0 00-.222-.302 6.58 6.58 0 00-1.082-1.114 6.864 6.864 0 00-.707-.511c-.034-.02-.066-.042-.1-.06a7.351 7.351 0 011.3-.847 7.325 7.325 0 013.343-.812 7.363 7.363 0 013.78 1.049zm-21.776-1.92a6.92 6.92 0 00-5.475 4.628c-.178.035-.359.073-.536.115-.184.041-.369.087-.553.136l-.042.01c-.369.097-.737.201-1.1.32l-.003.004c-.71.226-1.409.489-2.09.792-.029.01-.056.024-.084.038-.334.15-.665.306-.992.472l.007-.052c.02-.146.06-.371.087-.552a11.878 11.878 0 01.334-1.549 19.49 19.49 0 01.761-2.246c.14-.347.296-.707.47-1.073a20.066 20.066 0 013.266-4.853c.33-.361.681-.719 1.04-1.055.118-.111.23-.219.355-.33.046-.042.088-.08.132-.115a7.322 7.322 0 014.423 5.31z" fill="#4CA634"/></svg>