<svg width="30" height="30" fill="none" xmlns="http://www.w3.org/2000/svg"><g clip-path="url(#clip0_226_437)"><path d="M15.114 30C23.335 30 30 23.284 30 15c0-8.284-6.665-15-14.886-15C6.894 0 .23 6.716.23 15c0 8.284 6.664 15 14.886 15z" fill="#34AADF"/><path d="M6.424 14.87s7.443-3.078 10.024-4.162c.99-.433 4.345-1.82 4.345-1.82s1.55-.608 1.42.866c-.043.607-.387 2.732-.731 5.03-.517 3.25-1.076 6.806-1.076 6.806s-.086.997-.817 1.17c-.732.173-1.936-.607-2.151-.78-.172-.13-3.227-2.081-4.345-3.035-.302-.26-.646-.78.043-1.387a164.978 164.978 0 004.517-4.335c.516-.52 1.032-1.735-1.119-.26-3.054 2.124-6.066 4.118-6.066 4.118s-.688.433-1.979.043c-1.29-.39-2.796-.91-2.796-.91s-1.033-.65.731-1.344z" fill="#fff"/></g><defs><clipPath id="clip0_226_437"><path fill="#fff" transform="translate(.229)" d="M0 0h29.771v30H0z"/></clipPath></defs></svg>