<svg width="20" height="20" fill="none" xmlns="http://www.w3.org/2000/svg"><path fill-rule="evenodd" clip-rule="evenodd" d="M10.417 20h-.834C5.067 20 2.8 20 1.4 18.6 0 17.2 0 14.933 0 10.433v-.85C0 5.067 0 2.8 1.392 1.4 2.792 0 5.05 0 9.583 0h.834c4.525 0 6.791 0 8.191 1.4C20 2.8 20 5.067 20 9.567v.85c0 4.516 0 6.783-1.392 8.183-1.4 1.4-3.658 1.4-8.191 1.4zM3.375 6.083c.108 5.2 2.708 8.325 7.267 8.325h.258v-2.975a4.116 4.116 0 013.45 2.975h2.367a6.584 6.584 0 00-3.425-4.175 6.35 6.35 0 002.925-4.15h-2.15c-.467 1.65-1.85 3.15-3.167 3.292V6.083H8.75v5.767c-1.333-.333-3.017-1.95-3.092-5.767H3.375z" fill="#fff"/></svg>