<svg width="31" height="30" fill="none" xmlns="http://www.w3.org/2000/svg"><g clip-path="url(#clip0_226_457)"><path d="M.299 29.997l2.11-7.699a14.866 14.866 0 01-1.988-7.436C.421 6.664 7.097-.004 15.286-.004c3.977 0 7.707 1.547 10.522 4.361A14.779 14.779 0 0130.16 14.87c0 8.197-6.676 14.865-14.865 14.865h-.009c-2.487 0-4.933-.622-7.1-1.808l-7.887 2.07zm8.246-4.753l.45.27a12.39 12.39 0 006.291 1.726h.009c6.815 0 12.353-5.539 12.353-12.353a12.27 12.27 0 00-3.616-8.738 12.278 12.278 0 00-8.737-3.624c-6.815 0-12.362 5.54-12.362 12.354 0 2.331.655 4.606 1.89 6.577l.294.467-1.251 4.557 4.68-1.236z" fill="#fff"/><path d="M.814 29.482l2.037-7.437A14.3 14.3 0 01.937 14.87C.937 6.959 7.375.52 15.287.52c3.836 0 7.444 1.497 10.152 4.206 2.708 2.716 4.205 6.315 4.197 10.152 0 7.912-6.438 14.35-14.35 14.35h-.008a14.37 14.37 0 01-6.855-1.743l-7.61 1.997z" fill="url(#paint0_linear_226_457)"/><path d="M.299 29.997l2.11-7.699a14.866 14.866 0 01-1.988-7.436C.421 6.664 7.097-.004 15.286-.004c3.977 0 7.707 1.547 10.522 4.361A14.779 14.779 0 0130.16 14.87c0 8.197-6.676 14.865-14.865 14.865h-.009c-2.487 0-4.933-.622-7.1-1.808l-7.887 2.07zm8.246-4.753l.45.27a12.39 12.39 0 006.291 1.726h.009c6.815 0 12.353-5.539 12.353-12.353a12.27 12.27 0 00-3.616-8.738 12.278 12.278 0 00-8.737-3.624c-6.815 0-12.362 5.54-12.362 12.354 0 2.331.655 4.606 1.89 6.577l.294.467-1.251 4.557 4.68-1.236z" fill="url(#paint1_linear_226_457)"/><path d="M11.572 8.653c-.278-.622-.572-.63-.834-.639-.213-.008-.467-.008-.712-.008-.246 0-.646.09-.99.467-.343.368-1.3 1.268-1.3 3.1 0 1.825 1.333 3.592 1.513 3.845.188.246 2.569 4.115 6.349 5.604 3.141 1.235 3.78.99 4.458.933.68-.065 2.2-.9 2.511-1.767.311-.867.311-1.612.213-1.767-.09-.156-.343-.246-.712-.434-.368-.188-2.2-1.088-2.536-1.21-.343-.123-.589-.189-.834.188-.246.368-.958 1.21-1.178 1.456-.213.245-.434.278-.802.09-.368-.188-1.571-.58-2.986-1.841-1.104-.982-1.849-2.2-2.07-2.569-.212-.368-.024-.572.164-.76.163-.164.368-.434.556-.655.188-.22.245-.368.368-.621.122-.246.066-.467-.033-.655-.09-.189-.81-2.02-1.145-2.757z" fill="#fff"/></g><defs><linearGradient id="paint0_linear_226_457" x1="15.225" y1="29.482" x2="15.225" y2=".521" gradientUnits="userSpaceOnUse"><stop stop-color="#20B038"/><stop offset="1" stop-color="#60D66A"/></linearGradient><linearGradient id="paint1_linear_226_457" x1="15.229" y1="29.997" x2="15.229" y2="-.003" gradientUnits="userSpaceOnUse"><stop stop-color="#F9F9F9"/><stop offset="1" stop-color="#fff"/></linearGradient><clipPath id="clip0_226_457"><path fill="#fff" transform="translate(.229)" d="M0 0h30v30H0z"/></clipPath></defs></svg>